<svg width="95" height="107" viewBox="0 0 95 107" fill="none" xmlns="http://www.w3.org/2000/svg">
<g clip-path="url(#clip0_633_14665)">
<path d="M89.2479 85.176L47.1616 106.764L5.07544 85.176V0H89.2479V85.176Z" fill="#F8F8F8"/>
<path d="M5.17419 0V85.176L89.3466 0H5.17419Z" fill="white"/>
<path d="M88.4471 0.800727V84.6875L47.1616 105.864L5.87617 84.6875V0.800727H88.4471ZM89.2479 0H5.07544V85.176L47.1616 106.764L89.2479 85.176V0Z" fill="#DCDFDD"/>
<path d="M56.8677 15.2285L47.0775 20.9177L37.4554 15.2285V0H56.8677V15.2285Z" fill="#FF3100"/>
<path d="M51.8365 7.53357H50.0135C50.0629 7.24664 50.2391 7.08783 50.5981 6.905L50.9344 6.73417C51.5349 6.42589 51.8539 6.07891 51.8539 5.51173C51.8539 5.15407 51.7164 4.87248 51.4402 4.6683C51.1706 4.46411 50.8396 4.36536 50.4593 4.36536C50.1563 4.36536 49.8814 4.44276 49.6279 4.60157C49.3796 4.75638 49.1928 4.95389 49.0767 5.20212L49.6052 5.7306C49.8094 5.31689 50.107 5.11404 50.498 5.11404C50.829 5.11404 51.0318 5.28486 51.0318 5.52107C51.0318 5.71992 50.933 5.88407 50.5527 6.07758L50.3378 6.18167C49.8694 6.41789 49.5438 6.6888 49.3569 6.99708C49.1701 7.30002 49.0754 7.69104 49.0754 8.15947V8.28625H51.8352V7.5309L51.8365 7.53357ZM51.5923 9.16038H48.5722L47.0629 11.7747H50.0829L51.5923 14.3905L53.103 11.7747L51.5923 9.16038Z" fill="white"/>
<path d="M47.3231 13.519C45.4 13.519 43.8359 11.9549 43.8359 10.0318C43.8359 8.10875 45.4 6.54466 47.3231 6.54466L48.5175 4.04639C48.1318 3.97033 47.7328 3.92896 47.3231 3.92896C43.9534 3.92896 41.2216 6.66077 41.2216 10.0305C41.2216 13.4002 43.9534 16.132 47.3231 16.132C48.667 16.132 49.9081 15.697 50.917 14.9616L49.5945 12.6716C48.9833 13.1974 48.1906 13.5163 47.3231 13.5163V13.519Z" fill="white"/>
<path d="M91.1722 66.9475H3.151L0.161621 59.4741L3.151 52.0006H91.1722L94.1616 59.4741L91.1722 66.9475Z" fill="#FF3100"/>
<path d="M18.7358 75.7262C18.7358 75.7368 18.7424 75.7448 18.7558 75.7515C19.0601 75.9117 19.2122 76.1826 19.2122 76.5616C19.2122 76.9032 19.0948 77.1581 18.8585 77.3249C18.6223 77.4918 18.3141 77.5758 17.931 77.5758H16.5992C16.5711 77.5758 16.5498 77.5678 16.5324 77.5505C16.5238 77.5417 16.5171 77.5313 16.5127 77.5198C16.5084 77.5083 16.5064 77.496 16.5071 77.4838V74.0807C16.5071 74.054 16.5151 74.0313 16.5324 74.0139C16.5498 73.9966 16.5711 73.9886 16.5992 73.9886H17.891C18.3074 73.9886 18.6223 74.0673 18.8359 74.2248C19.0494 74.3823 19.1561 74.6372 19.1561 74.9882C19.1561 75.3391 19.0227 75.5607 18.7558 75.7008C18.7424 75.7075 18.7358 75.7168 18.7358 75.7262ZM17.3572 74.7519V75.3778C17.3572 75.4019 17.3692 75.4139 17.3932 75.4139H17.8897C18.0298 75.4139 18.1379 75.3845 18.2126 75.3245C18.2874 75.2644 18.3247 75.1803 18.3247 75.0709C18.3247 74.9615 18.2874 74.8707 18.2126 74.8093C18.1379 74.7479 18.0298 74.7172 17.8897 74.7172H17.3932C17.3692 74.7172 17.3572 74.7293 17.3572 74.7533V74.7519ZM18.2487 76.7484C18.3234 76.6857 18.3608 76.5936 18.3608 76.4748C18.3608 76.3561 18.3234 76.2693 18.25 76.2053C18.1766 76.1425 18.0698 76.1105 17.9297 76.1105H17.3919C17.3679 76.1105 17.3558 76.1225 17.3558 76.1465V76.8071C17.3558 76.8312 17.3679 76.8432 17.3919 76.8432H17.9297C18.0658 76.8432 18.1726 76.8111 18.2473 76.7484H18.2487ZM22.319 74.6905C22.3017 74.7079 22.2803 74.7159 22.2523 74.7159H20.6842C20.6602 74.7159 20.6482 74.7279 20.6482 74.7519V75.3618C20.6482 75.3859 20.6602 75.3979 20.6842 75.3979H21.6731C21.7011 75.3979 21.7225 75.4059 21.7398 75.4232C21.7572 75.4406 21.7652 75.4619 21.7652 75.4899V76.0278C21.7652 76.0558 21.7572 76.0771 21.7398 76.0945C21.7225 76.1118 21.7011 76.1198 21.6731 76.1198H20.6842C20.6602 76.1198 20.6482 76.1319 20.6482 76.1559V76.8125C20.6482 76.8365 20.6602 76.8485 20.6842 76.8485H22.2523C22.279 76.8485 22.3017 76.8565 22.319 76.8739C22.3364 76.8912 22.3444 76.9126 22.3444 76.9406V77.4838C22.3444 77.5118 22.3364 77.5331 22.319 77.5505C22.3017 77.5678 22.2803 77.5758 22.2523 77.5758H19.8901C19.8621 77.5758 19.8408 77.5678 19.8234 77.5505C19.8148 77.5417 19.8081 77.5313 19.8037 77.5198C19.7994 77.5083 19.7974 77.496 19.7981 77.4838V74.0807C19.7981 74.054 19.8061 74.0313 19.8234 74.0139C19.8408 73.9966 19.8621 73.9886 19.8901 73.9886H22.2523C22.279 73.9886 22.3017 73.9966 22.319 74.0139C22.3364 74.0313 22.3444 74.0526 22.3444 74.0807V74.6238C22.3444 74.6518 22.3364 74.6732 22.319 74.6905ZM23.444 77.4811C23.2372 77.3903 23.077 77.2609 22.9649 77.0914C22.8528 76.9219 22.7955 76.7271 22.7955 76.5042V76.4375C22.7955 76.4108 22.8035 76.3881 22.8208 76.3707C22.8382 76.3534 22.8595 76.3454 22.8875 76.3454H23.5388C23.5668 76.3454 23.5882 76.3521 23.6055 76.3627C23.6229 76.3747 23.6309 76.3894 23.6309 76.4068V76.4682C23.6309 76.5776 23.6869 76.675 23.7977 76.7604C23.9085 76.8458 24.0513 76.8885 24.2261 76.8885C24.3769 76.8885 24.4877 76.8565 24.5597 76.7911C24.6318 76.7257 24.6678 76.651 24.6678 76.5656C24.6678 76.4695 24.6264 76.3961 24.5424 76.3454C24.4583 76.2947 24.3088 76.2346 24.094 76.1666L23.9819 76.1305C23.763 76.0585 23.5722 75.9811 23.408 75.897C23.2439 75.8129 23.1037 75.6968 22.9876 75.5487C22.8715 75.4005 22.8128 75.2164 22.8128 74.9975C22.8128 74.7786 22.8689 74.5998 22.9796 74.441C23.0904 74.2822 23.2439 74.1594 23.4414 74.074C23.6376 73.9886 23.8604 73.9459 24.11 73.9459C24.3729 73.9459 24.6091 73.9939 24.82 74.09C25.0295 74.1861 25.195 74.3209 25.3151 74.4944C25.4352 74.6692 25.4939 74.868 25.4939 75.0936V75.135C25.4939 75.163 25.4859 75.1843 25.4685 75.2017C25.4512 75.219 25.4298 75.227 25.4018 75.227H24.7506C24.7225 75.227 24.7012 75.223 24.6838 75.2137C24.6761 75.2107 24.6695 75.2053 24.665 75.1984C24.6605 75.1914 24.6582 75.1833 24.6585 75.175V75.1283C24.6585 75.0082 24.6051 74.9027 24.4997 74.8107C24.3942 74.7186 24.2514 74.6719 24.0739 74.6719C23.9405 74.6719 23.8364 74.6999 23.7617 74.7533C23.6869 74.808 23.6496 74.8854 23.6496 74.9842C23.6496 75.0589 23.6736 75.1216 23.7216 75.171C23.7697 75.2204 23.8444 75.2671 23.9445 75.3098C24.0446 75.3525 24.1994 75.4085 24.4089 75.4766C24.6478 75.558 24.8346 75.6301 24.9681 75.6915C25.1015 75.7528 25.227 75.8529 25.3444 75.9917C25.4619 76.1305 25.5219 76.312 25.5219 76.5376C25.5219 76.7631 25.4659 76.9419 25.3524 77.1034C25.2403 77.2662 25.0802 77.3917 24.876 77.4798C24.6705 77.5692 24.4356 77.6132 24.1687 77.6132C23.9018 77.6132 23.6549 77.5678 23.448 77.4771L23.444 77.4811ZM28.6688 74.0139C28.6861 74.0313 28.6941 74.0526 28.6941 74.0807V74.6292C28.6941 74.6572 28.6861 74.6785 28.6688 74.6959C28.6514 74.7132 28.6301 74.7212 28.6021 74.7212H27.7466C27.7226 74.7212 27.7106 74.7333 27.7106 74.7573V77.4838C27.7106 77.5118 27.7026 77.5331 27.6852 77.5505C27.6679 77.5678 27.6465 77.5758 27.6185 77.5758H26.9526C26.9245 77.5758 26.9032 77.5678 26.8858 77.5505C26.8772 77.5417 26.8705 77.5313 26.8661 77.5198C26.8618 77.5083 26.8598 77.496 26.8605 77.4838V74.7573C26.8605 74.7333 26.8485 74.7212 26.8244 74.7212H25.9997C25.9717 74.7212 25.9503 74.7132 25.933 74.6959C25.9243 74.6871 25.9176 74.6767 25.9133 74.6652C25.9089 74.6537 25.907 74.6414 25.9076 74.6292V74.0807C25.9076 74.054 25.9156 74.0313 25.933 74.0139C25.9503 73.9966 25.9717 73.9886 25.9997 73.9886H28.6034C28.6314 73.9886 28.6528 73.9966 28.6701 74.0139H28.6688ZM30.9055 77.4811C30.6986 77.3903 30.5385 77.2609 30.4264 77.0914C30.3143 76.9219 30.2569 76.7271 30.2569 76.5042V76.4375C30.2569 76.4108 30.2649 76.3881 30.2823 76.3707C30.2996 76.3534 30.321 76.3454 30.349 76.3454H31.0002C31.0283 76.3454 31.0496 76.3521 31.067 76.3627C31.0843 76.3747 31.0923 76.3894 31.0923 76.4068V76.4682C31.0923 76.5776 31.1484 76.675 31.2591 76.7604C31.3699 76.8458 31.5127 76.8885 31.6875 76.8885C31.8383 76.8885 31.9491 76.8565 32.0212 76.7911C32.0932 76.7257 32.1293 76.651 32.1293 76.5656C32.1293 76.4695 32.0879 76.3961 32.0038 76.3454C31.9197 76.2947 31.7703 76.2346 31.5554 76.1666L31.4433 76.1305C31.2244 76.0585 31.0336 75.9811 30.8695 75.897C30.7053 75.8129 30.5652 75.6968 30.4491 75.5487C30.333 75.4005 30.2742 75.2164 30.2742 74.9975C30.2742 74.7786 30.3303 74.5998 30.4411 74.441C30.5518 74.2822 30.7053 74.1594 30.9028 74.074C31.099 73.9886 31.3219 73.9459 31.5714 73.9459C31.8343 73.9459 32.0705 73.9939 32.2814 74.09C32.4909 74.1861 32.6564 74.3209 32.7765 74.4944C32.8966 74.6692 32.9553 74.868 32.9553 75.0936V75.135C32.9553 75.163 32.9473 75.1843 32.93 75.2017C32.9126 75.219 32.8913 75.227 32.8633 75.227H32.212C32.184 75.227 32.1626 75.223 32.1453 75.2137C32.1376 75.2107 32.131 75.2053 32.1264 75.1984C32.1219 75.1914 32.1196 75.1833 32.1199 75.175V75.1283C32.1199 75.0082 32.0665 74.9027 31.9611 74.8107C31.8557 74.7186 31.7129 74.6719 31.5354 74.6719C31.4019 74.6719 31.2978 74.6999 31.2231 74.7533C31.1484 74.808 31.111 74.8854 31.111 74.9842C31.111 75.0589 31.135 75.1216 31.1831 75.171C31.2311 75.2204 31.3058 75.2671 31.4059 75.3098C31.506 75.3525 31.6608 75.4085 31.8704 75.4766C32.1092 75.558 32.2961 75.6301 32.4295 75.6915C32.563 75.7528 32.6884 75.8529 32.8059 75.9917C32.9233 76.1305 32.9834 76.312 32.9834 76.5376C32.9834 76.7631 32.9273 76.9419 32.8139 77.1034C32.7018 77.2662 32.5416 77.3917 32.3375 77.4798C32.1319 77.5692 31.8971 77.6132 31.6301 77.6132C31.3632 77.6132 31.1163 77.5678 30.9095 77.4771L30.9055 77.4811ZM34.1284 77.4664C33.9176 77.3556 33.7547 77.1995 33.6386 76.998C33.5225 76.7965 33.4638 76.5629 33.4638 76.296V75.2711C33.4638 75.0108 33.5225 74.7813 33.6386 74.5825C33.7547 74.3836 33.9176 74.2275 34.1284 74.1167C34.3379 74.0059 34.5822 73.9499 34.8584 73.9499C35.1347 73.9499 35.3789 74.0059 35.5911 74.1167C35.8033 74.2275 35.9674 74.3836 36.0835 74.5825C36.1996 74.7813 36.2583 75.0122 36.2583 75.2711V76.296C36.2583 76.5629 36.1996 76.7965 36.0835 76.998C35.9674 77.1995 35.8033 77.3556 35.5911 77.4664C35.3789 77.5772 35.1347 77.6332 34.8584 77.6332C34.5822 77.6332 34.3379 77.5772 34.1284 77.4664ZM35.2561 76.7458C35.3562 76.6403 35.4069 76.4975 35.4069 76.32V75.2591C35.4069 75.0842 35.3562 74.9441 35.2561 74.836C35.1547 74.7279 35.0226 74.6745 34.8584 74.6745C34.6943 74.6745 34.5675 74.7279 34.466 74.836C34.3646 74.9441 34.3152 75.0842 34.3152 75.2591V76.32C34.3152 76.4975 34.366 76.639 34.466 76.7458C34.5661 76.8512 34.6969 76.9046 34.8584 76.9046C35.0199 76.9046 35.1547 76.8512 35.2561 76.7458ZM39.3478 74.6905C39.3305 74.7079 39.3091 74.7159 39.2811 74.7159H37.7183C37.6943 74.7159 37.6823 74.7279 37.6823 74.7519V75.3618C37.6823 75.3859 37.6943 75.3979 37.7183 75.3979H38.7072C38.7353 75.3979 38.7566 75.4059 38.774 75.4232C38.7913 75.4406 38.7993 75.4619 38.7993 75.4899V76.0278C38.7993 76.0558 38.7913 76.0771 38.774 76.0945C38.7566 76.1118 38.7353 76.1198 38.7072 76.1198H37.7183C37.6943 76.1198 37.6823 76.1319 37.6823 76.1559V77.4838C37.6823 77.5118 37.6743 77.5331 37.6569 77.5505C37.6396 77.5678 37.6182 77.5758 37.5902 77.5758H36.9243C36.8963 77.5758 36.8749 77.5678 36.8576 77.5505C36.8489 77.5417 36.8422 77.5313 36.8378 77.5198C36.8335 77.5083 36.8316 77.496 36.8322 77.4838V74.0807C36.8322 74.054 36.8402 74.0313 36.8576 74.0139C36.8749 73.9966 36.8963 73.9886 36.9243 73.9886H39.2811C39.3091 73.9886 39.3305 73.9966 39.3478 74.0139C39.3652 74.0313 39.3732 74.0526 39.3732 74.0807V74.6238C39.3732 74.6518 39.3652 74.6732 39.3478 74.6905ZM42.444 74.0139C42.4613 74.0313 42.4693 74.0526 42.4693 74.0807V74.6292C42.4693 74.6572 42.4613 74.6785 42.444 74.6959C42.4266 74.7132 42.4053 74.7212 42.3772 74.7212H41.5218C41.4978 74.7212 41.4858 74.7333 41.4858 74.7573V77.4838C41.4858 77.5118 41.4777 77.5331 41.4604 77.5505C41.443 77.5678 41.4217 77.5758 41.3937 77.5758H40.7277C40.6997 77.5758 40.6784 77.5678 40.661 77.5505C40.6524 77.5417 40.6457 77.5313 40.6413 77.5198C40.6369 77.5083 40.635 77.496 40.6357 77.4838V74.7573C40.6357 74.7333 40.6236 74.7212 40.5996 74.7212H39.7749C39.7468 74.7212 39.7255 74.7132 39.7081 74.6959C39.6995 74.6871 39.6928 74.6767 39.6884 74.6652C39.6841 74.6537 39.6821 74.6414 39.6828 74.6292V74.0807C39.6828 74.054 39.6908 74.0313 39.7081 74.0139C39.7255 73.9966 39.7468 73.9886 39.7749 73.9886H42.3786C42.4066 73.9886 42.4279 73.9966 42.4453 74.0139H42.444ZM43.6731 77.4998L42.7349 74.0913C42.7306 74.0817 42.7287 74.0712 42.7296 74.0606C42.7296 74.0126 42.7562 73.9886 42.811 73.9886H43.5289C43.557 73.9886 43.5797 73.9966 43.5983 74.0113C43.617 74.026 43.6277 74.046 43.6317 74.07L44.0628 75.8796C44.0694 75.893 44.0774 75.8996 44.0855 75.8996C44.0935 75.8996 44.1001 75.893 44.1028 75.8796L44.5178 74.07C44.5285 74.0153 44.5619 73.9886 44.6206 73.9886H45.2305C45.2852 73.9886 45.3199 74.0166 45.3333 74.07L45.7843 75.8796C45.791 75.893 45.799 75.8996 45.807 75.8996C45.815 75.8996 45.8217 75.893 45.8244 75.8796L46.2247 74.07C46.2279 74.0469 46.2398 74.0258 46.2581 74.0113C46.2768 73.9953 46.2995 73.9886 46.3275 73.9886H47.0241C47.0548 73.9886 47.0775 73.9966 47.0935 74.0139C47.1095 74.0313 47.1135 74.0566 47.1069 74.0913L46.2554 77.4944C46.2421 77.5491 46.2074 77.5758 46.1527 77.5758H45.4707C45.4427 77.5758 45.42 77.5678 45.4013 77.5531C45.3833 77.5384 45.3714 77.5175 45.3679 77.4944L44.9369 75.5727C44.9329 75.5553 44.9262 75.5473 44.9169 75.5473C44.9075 75.5473 44.8995 75.5553 44.8969 75.5727L44.5072 77.4944C44.4965 77.5491 44.4645 77.5758 44.4097 77.5758H43.7745C43.7198 77.5758 43.6851 77.5505 43.6717 77.4984L43.6731 77.4998ZM49.2448 77.4998L49.1274 77.0794C49.1234 77.0594 49.11 77.0487 49.086 77.0487H47.9276C47.9076 77.0487 47.8929 77.0594 47.8862 77.0794L47.7688 77.4998C47.7554 77.5505 47.7207 77.5772 47.666 77.5772H46.944C46.9093 77.5772 46.8853 77.5678 46.872 77.5491C46.8586 77.5305 46.856 77.5051 46.8666 77.4744L47.9423 74.066C47.9596 74.0153 47.9957 73.9886 48.0504 73.9886H48.9579C49.0166 73.9886 49.0513 74.0139 49.066 74.066L50.147 77.4744C50.151 77.4811 50.1523 77.4931 50.1523 77.5104C50.1523 77.5545 50.1243 77.5772 50.0709 77.5772H49.3476C49.2928 77.5772 49.2581 77.5518 49.2448 77.4998ZM48.0971 76.3614C48.0971 76.3814 48.1078 76.3921 48.1278 76.3921H48.8858C48.8992 76.3921 48.9085 76.3881 48.9138 76.3788C48.9192 76.3707 48.9192 76.3614 48.9165 76.3507L48.5268 74.9882C48.5228 74.9708 48.5175 74.9628 48.5095 74.9628C48.5015 74.9628 48.4934 74.9708 48.4868 74.9882L48.0971 76.3507V76.3614ZM52.5038 77.5038L51.9086 76.1719C51.9019 76.1545 51.8885 76.1465 51.8672 76.1465H51.5496C51.5255 76.1465 51.5135 76.1585 51.5135 76.1826V77.4838C51.5135 77.5118 51.5055 77.5331 51.4882 77.5505C51.4708 77.5678 51.4495 77.5758 51.4214 77.5758H50.7555C50.7275 77.5758 50.7061 77.5678 50.6888 77.5505C50.6801 77.5417 50.6734 77.5313 50.6691 77.5198C50.6647 77.5083 50.6628 77.496 50.6634 77.4838V74.0807C50.6634 74.054 50.6714 74.0313 50.6888 74.0139C50.7061 73.9966 50.7275 73.9886 50.7555 73.9886H52.2462C52.4717 73.9886 52.6692 74.0353 52.8401 74.1274C53.0109 74.2195 53.143 74.3502 53.2378 74.5197C53.3312 74.6892 53.3792 74.8827 53.3792 75.1016C53.3792 75.3205 53.3232 75.5233 53.2124 75.6915C53.1016 75.8583 52.9468 75.9797 52.748 76.0558C52.724 76.0665 52.7173 76.0838 52.728 76.1065L53.3846 77.4691L53.3952 77.5104C53.3952 77.5545 53.3672 77.5772 53.3138 77.5772H52.6119C52.5611 77.5772 52.5251 77.5532 52.5038 77.5051V77.5038ZM51.5149 74.7519V75.4592C51.5149 75.4833 51.5269 75.4953 51.5509 75.4953H52.1101C52.2369 75.4953 52.3383 75.4606 52.417 75.3898C52.4958 75.3205 52.5345 75.227 52.5345 75.1109C52.5345 74.9948 52.4958 74.8961 52.417 74.824C52.3383 74.7519 52.2355 74.7159 52.1101 74.7159H51.5509C51.5269 74.7159 51.5149 74.7279 51.5149 74.7519ZM56.4594 74.6905C56.442 74.7079 56.4207 74.7159 56.3926 74.7159H54.8245C54.8005 74.7159 54.7885 74.7279 54.7885 74.7519V75.3618C54.7885 75.3859 54.8005 75.3979 54.8245 75.3979H55.8134C55.8415 75.3979 55.8628 75.4059 55.8802 75.4232C55.8975 75.4406 55.9055 75.4619 55.9055 75.4899V76.0278C55.9055 76.0558 55.8975 76.0771 55.8802 76.0945C55.8628 76.1118 55.8415 76.1198 55.8134 76.1198H54.8245C54.8005 76.1198 54.7885 76.1319 54.7885 76.1559V76.8125C54.7885 76.8365 54.8005 76.8485 54.8245 76.8485H56.3926C56.4193 76.8485 56.442 76.8565 56.4594 76.8739C56.4767 76.8912 56.4847 76.9126 56.4847 76.9406V77.4838C56.4847 77.5118 56.4767 77.5331 56.4594 77.5505C56.442 77.5678 56.4207 77.5758 56.3926 77.5758H54.0305C54.0025 77.5758 53.9811 77.5678 53.9638 77.5505C53.9551 77.5417 53.9484 77.5313 53.944 77.5198C53.9397 77.5083 53.9378 77.496 53.9384 77.4838V74.0807C53.9384 74.054 53.9464 74.0313 53.9638 74.0139C53.9811 73.9966 54.0025 73.9886 54.0305 73.9886H56.3926C56.4193 73.9886 56.442 73.9966 56.4594 74.0139C56.4767 74.0313 56.4847 74.0526 56.4847 74.0807V74.6238C56.4847 74.6518 56.4767 74.6732 56.4594 74.6905ZM60.4416 77.4998L60.3242 77.0794C60.3202 77.0594 60.3068 77.0487 60.2828 77.0487H59.1244C59.1044 77.0487 59.0897 77.0594 59.0831 77.0794L58.9656 77.4998C58.9523 77.5505 58.9176 77.5772 58.8629 77.5772H58.1409C58.1062 77.5772 58.0822 77.5678 58.0688 77.5491C58.0555 77.5305 58.0528 77.5051 58.0635 77.4744L59.1391 74.066C59.1565 74.0153 59.1925 73.9886 59.2472 73.9886H60.1547C60.2134 73.9886 60.2481 74.0139 60.2628 74.066L61.3438 77.4744C61.3478 77.4811 61.3491 77.4931 61.3491 77.5104C61.3491 77.5545 61.3211 77.5772 61.2677 77.5772H60.5444C60.4897 77.5772 60.455 77.5518 60.4416 77.4998ZM59.2939 76.3614C59.2939 76.3814 59.3046 76.3921 59.3246 76.3921H60.0826C60.096 76.3921 60.1053 76.3881 60.1107 76.3788C60.116 76.3707 60.116 76.3614 60.1133 76.3507L59.7236 74.9882C59.7196 74.9708 59.7143 74.9628 59.7063 74.9628C59.6983 74.9628 59.6903 74.9708 59.6836 74.9882L59.2939 76.3507V76.3614ZM61.907 77.4998L60.9688 74.0913C60.9645 74.0817 60.9626 74.0712 60.9634 74.0606C60.9634 74.0126 60.9901 73.9886 61.0448 73.9886H61.7628C61.7909 73.9886 61.8135 73.9966 61.8322 74.0113C61.8509 74.026 61.8616 74.046 61.8656 74.07L62.2967 75.8796C62.3033 75.893 62.3113 75.8996 62.3193 75.8996C62.3273 75.8996 62.334 75.893 62.3367 75.8796L62.7517 74.07C62.7624 74.0153 62.7958 73.9886 62.8545 73.9886H63.4644C63.5191 73.9886 63.5538 74.0166 63.5671 74.07L64.0182 75.8796C64.0249 75.893 64.0329 75.8996 64.0409 75.8996C64.0489 75.8996 64.0556 75.893 64.0583 75.8796L64.4586 74.07C64.4618 74.0469 64.4737 74.0258 64.492 74.0113C64.5107 73.9953 64.5333 73.9886 64.5614 73.9886H65.258C65.2887 73.9886 65.3114 73.9966 65.3274 74.0139C65.3434 74.0313 65.3474 74.0566 65.3407 74.0913L64.4893 77.4944C64.476 77.5491 64.4413 77.5758 64.3866 77.5758H63.7046C63.6766 77.5758 63.6539 77.5678 63.6352 77.5531C63.6172 77.5384 63.6053 77.5175 63.6018 77.4944L63.1708 75.5727C63.1668 75.5553 63.1601 75.5473 63.1508 75.5473C63.1414 75.5473 63.1334 75.5553 63.1307 75.5727L62.7411 77.4944C62.7304 77.5491 62.6984 77.5758 62.6436 77.5758H62.0084C61.9537 77.5758 61.919 77.5505 61.9056 77.4984L61.907 77.4998ZM67.4774 77.4998L67.3599 77.0794C67.3559 77.0594 67.3426 77.0487 67.3185 77.0487H66.1602C66.1401 77.0487 66.1255 77.0594 66.1188 77.0794L66.0014 77.4998C65.988 77.5505 65.9533 77.5772 65.8986 77.5772H65.1766C65.1419 77.5772 65.1179 77.5678 65.1045 77.5491C65.0912 77.5305 65.0885 77.5051 65.0992 77.4744L66.1748 74.066C66.1922 74.0153 66.2282 73.9886 66.2829 73.9886H67.1904C67.2492 73.9886 67.2838 74.0139 67.2985 74.066L68.3795 77.4744C68.3835 77.4811 68.3848 77.4931 68.3848 77.5104C68.3848 77.5545 68.3568 77.5772 68.3034 77.5772H67.5801C67.5254 77.5772 67.4907 77.5518 67.4774 77.4998ZM66.3296 76.3614C66.3296 76.3814 66.3403 76.3921 66.3603 76.3921H67.1184C67.1317 76.3921 67.1411 76.3881 67.1464 76.3788C67.1517 76.3707 67.1517 76.3614 67.1491 76.3507L66.7594 74.9882C66.7554 74.9708 66.75 74.9628 66.742 74.9628C66.734 74.9628 66.726 74.9708 66.7193 74.9882L66.3296 76.3507V76.3614ZM70.7377 77.5038L70.1424 76.1719C70.1358 76.1545 70.1224 76.1465 70.1011 76.1465H69.7835C69.7594 76.1465 69.7474 76.1585 69.7474 76.1826V77.4838C69.7474 77.5118 69.7394 77.5331 69.7221 77.5505C69.7047 77.5678 69.6834 77.5758 69.6553 77.5758H68.9894C68.9614 77.5758 68.94 77.5678 68.9227 77.5505C68.914 77.5417 68.9073 77.5313 68.903 77.5198C68.8986 77.5083 68.8967 77.496 68.8973 77.4838V74.0807C68.8973 74.054 68.9053 74.0313 68.9227 74.0139C68.94 73.9966 68.9614 73.9886 68.9894 73.9886H70.4801C70.7056 73.9886 70.9031 74.0353 71.074 74.1274C71.2448 74.2195 71.3769 74.3502 71.4717 74.5197C71.5651 74.6892 71.6131 74.8827 71.6131 75.1016C71.6131 75.3205 71.5571 75.5233 71.4463 75.6915C71.3355 75.8583 71.1807 75.9797 70.9819 76.0558C70.9578 76.0665 70.9512 76.0838 70.9619 76.1065L71.6185 77.4691L71.6291 77.5104C71.6291 77.5545 71.6011 77.5772 71.5477 77.5772H70.8458C70.795 77.5772 70.759 77.5532 70.7377 77.5051V77.5038ZM69.7488 74.7519V75.4592C69.7488 75.4833 69.7608 75.4953 69.7848 75.4953H70.344C70.4707 75.4953 70.5722 75.4606 70.6509 75.3898C70.7296 75.3205 70.7683 75.227 70.7683 75.1109C70.7683 74.9948 70.7296 74.8961 70.6509 74.824C70.5722 74.7519 70.4694 74.7159 70.344 74.7159H69.7848C69.7608 74.7159 69.7488 74.7279 69.7488 74.7519ZM72.1976 77.5505C72.189 77.5417 72.1823 77.5313 72.1779 77.5198C72.1736 77.5083 72.1716 77.496 72.1723 77.4838V74.0807C72.1723 74.054 72.1803 74.0313 72.1976 74.0139C72.215 73.9966 72.2363 73.9886 72.2644 73.9886H73.5402C73.8071 73.9886 74.042 74.0353 74.2475 74.1274C74.453 74.2195 74.6118 74.3516 74.7239 74.5224C74.836 74.6932 74.8934 74.8894 74.8934 75.1123V76.4548C74.8934 76.6764 74.8374 76.8739 74.7239 77.0447C74.6118 77.2155 74.4517 77.3476 74.2475 77.4397C74.042 77.5318 73.8071 77.5785 73.5402 77.5785H72.2644C72.2363 77.5785 72.215 77.5705 72.1976 77.5531V77.5505ZM73.0584 76.8485H73.5762C73.7123 76.8485 73.8245 76.8005 73.9099 76.703C73.9953 76.6056 74.0393 76.4748 74.0433 76.3107V75.2551C74.0433 75.0909 73.9993 74.9601 73.9125 74.8627C73.8258 74.7653 73.7124 74.7172 73.5722 74.7172H73.0598C73.0357 74.7172 73.0237 74.7293 73.0237 74.7533V76.8138C73.0237 76.8378 73.0357 76.8498 73.0598 76.8498L73.0584 76.8485ZM76.0291 77.4811C75.8223 77.3903 75.6621 77.2609 75.55 77.0914C75.4379 76.9219 75.3805 76.7271 75.3805 76.5042V76.4375C75.3805 76.4108 75.3885 76.3881 75.4059 76.3707C75.4232 76.3534 75.4446 76.3454 75.4726 76.3454H76.1239C76.1519 76.3454 76.1733 76.3521 76.1906 76.3627C76.208 76.3747 76.216 76.3894 76.216 76.4068V76.4682C76.216 76.5776 76.272 76.675 76.3828 76.7604C76.4935 76.8458 76.6363 76.8885 76.8112 76.8885C76.962 76.8885 77.0727 76.8565 77.1448 76.7911C77.2169 76.7257 77.2529 76.651 77.2529 76.5656C77.2529 76.4695 77.2115 76.3961 77.1274 76.3454C77.0434 76.2947 76.8939 76.2346 76.679 76.1666L76.5669 76.1305C76.3481 76.0585 76.1572 75.9811 75.9931 75.897C75.8289 75.8129 75.6888 75.6968 75.5727 75.5487C75.4566 75.4005 75.3979 75.2164 75.3979 74.9975C75.3979 74.7786 75.4539 74.5998 75.5647 74.441C75.6755 74.2822 75.8289 74.1594 76.0264 74.074C76.2226 73.9886 76.4455 73.9459 76.6951 73.9459C76.958 73.9459 77.1942 73.9939 77.405 74.09C77.6146 74.1861 77.78 74.3209 77.9002 74.4944C78.0203 74.6692 78.079 74.868 78.079 75.0936V75.135C78.079 75.163 78.071 75.1843 78.0536 75.2017C78.0363 75.219 78.0149 75.227 77.9869 75.227H77.3356C77.3076 75.227 77.2863 75.223 77.2689 75.2137C77.2612 75.2107 77.2546 75.2053 77.2501 75.1984C77.2455 75.1914 77.2433 75.1833 77.2436 75.175V75.1283C77.2436 75.0082 77.1902 74.9027 77.0847 74.8107C76.9793 74.7186 76.8365 74.6719 76.659 74.6719C76.5256 74.6719 76.4215 74.6999 76.3467 74.7533C76.272 74.808 76.2346 74.8854 76.2346 74.9842C76.2346 75.0589 76.2587 75.1216 76.3067 75.171C76.3548 75.2204 76.4295 75.2671 76.5296 75.3098C76.6297 75.3525 76.7845 75.4085 76.994 75.4766C77.2329 75.558 77.4197 75.6301 77.5532 75.6915C77.6866 75.7528 77.8121 75.8529 77.9295 75.9917C78.047 76.1305 78.107 76.312 78.107 76.5376C78.107 76.7631 78.051 76.9419 77.9375 77.1034C77.8254 77.2662 77.6653 77.3917 77.4611 77.4798C77.2556 77.5692 77.0207 77.6132 76.7538 77.6132C76.4869 77.6132 76.24 77.5678 76.0331 77.4771L76.0291 77.4811ZM31.0002 32.24C31.0603 32.3001 31.0897 32.3775 31.0897 32.4736V34.3926C31.0897 34.4887 31.0603 34.5661 31.0002 34.6262C30.9402 34.6862 30.8628 34.7156 30.7667 34.7156H27.7706C27.6866 34.7156 27.6452 34.757 27.6452 34.8411V44.383C27.6452 44.4791 27.6158 44.5565 27.5558 44.6166C27.4957 44.6766 27.4183 44.706 27.3222 44.706H24.9908C24.8947 44.706 24.8173 44.6766 24.7572 44.6166C24.6972 44.5565 24.6678 44.4791 24.6678 44.383V34.8411C24.6678 34.757 24.6251 34.7156 24.5424 34.7156H21.6544C21.5583 34.7156 21.4809 34.6862 21.4209 34.6262C21.3608 34.5661 21.3315 34.4887 21.3315 34.3926V32.4736C21.3315 32.3775 21.3608 32.3001 21.4209 32.24C21.4809 32.18 21.5583 32.1506 21.6544 32.1506H30.7667C30.8628 32.1506 30.9402 32.18 31.0002 32.24ZM32.176 43.9894C31.4286 43.4155 30.9228 42.6388 30.6599 41.6579C30.5158 41.1681 30.4451 40.629 30.4451 40.0431C30.4451 39.4572 30.5225 38.866 30.6786 38.3029C30.9535 37.358 31.4647 36.62 32.212 36.0875C32.9593 35.555 33.8655 35.2895 34.9291 35.2895C35.9928 35.2895 36.8722 35.5564 37.6022 36.0875C38.3309 36.62 38.8394 37.3527 39.1263 38.2842C39.2931 38.822 39.3772 39.3959 39.3772 40.0057C39.3772 40.5556 39.3118 41.0814 39.1797 41.5845C38.9288 42.5894 38.4256 43.3848 37.673 43.9707C36.9189 44.5565 35.9981 44.8501 34.9105 44.8501C33.8228 44.8501 32.922 44.5632 32.1746 43.9894H32.176ZM35.7819 41.9715C36.0155 41.75 36.1796 41.4484 36.2757 41.0654C36.3478 40.7544 36.3838 40.4141 36.3838 40.0431C36.3838 39.6721 36.3411 39.3371 36.2583 39.0022C36.1623 38.6312 36.0008 38.3442 35.7739 38.1414C35.547 37.9385 35.2601 37.8371 34.9131 37.8371C34.5661 37.8371 34.2645 37.9385 34.043 38.1414C33.8215 38.3442 33.6627 38.6325 33.5679 39.0022C33.4838 39.2651 33.4425 39.612 33.4425 40.0431C33.4425 40.4141 33.4785 40.7544 33.5506 41.0654C33.6587 41.4484 33.8255 41.75 34.0523 41.9715C34.2792 42.1931 34.5661 42.3038 34.9131 42.3038C35.2601 42.3038 35.5497 42.1931 35.7832 41.9715H35.7819ZM49.6732 40.1152C49.6732 40.9639 49.5477 41.718 49.2968 42.3759C49.0219 43.1179 48.5762 43.7184 47.961 44.1789C47.3444 44.6393 46.6544 44.8688 45.8898 44.8688C44.9809 44.8688 44.299 44.5939 43.8452 44.0441C43.8092 43.996 43.7758 43.9787 43.7465 43.9907C43.7171 44.0027 43.7011 44.0387 43.7011 44.0988V47.6687C43.7011 47.7648 43.6717 47.8422 43.6117 47.9022C43.5516 47.9623 43.4742 47.9917 43.3781 47.9917H41.0467C40.9506 47.9917 40.8732 47.9623 40.8131 47.9022C40.7531 47.8422 40.7237 47.7648 40.7237 47.6687V35.7592C40.7237 35.6631 40.7531 35.5857 40.8131 35.5257C40.8732 35.4656 40.9506 35.4363 41.0467 35.4363H43.3781C43.4742 35.4363 43.5516 35.4656 43.6117 35.5257C43.6717 35.5857 43.7011 35.6631 43.7011 35.7592V36.1903C43.7011 36.2503 43.7158 36.2864 43.7465 36.2984C43.7758 36.3104 43.8092 36.293 43.8452 36.245C44.299 35.6111 44.9809 35.2948 45.8898 35.2948C46.6665 35.2948 47.3844 35.5524 48.0424 36.0662C48.7003 36.58 49.1487 37.2446 49.3876 38.0573C49.5784 38.6432 49.6745 39.3305 49.6745 40.1205L49.6732 40.1152ZM46.481 40.0618C46.481 39.4519 46.3795 38.9555 46.1753 38.5724C45.9245 38.1307 45.5588 37.9092 45.081 37.9092C44.6033 37.9092 44.2736 38.136 44.0227 38.5911C43.8199 38.9741 43.7185 39.4639 43.7185 40.0618C43.7185 40.7197 43.8265 41.2455 44.0414 41.6406C44.2923 42.0476 44.6393 42.2504 45.0824 42.2504C45.5481 42.2504 45.9071 42.0409 46.158 41.6232C46.3729 41.2282 46.481 40.709 46.481 40.0631V40.0618ZM62.9466 40.6356C62.9466 41.2335 62.8385 41.8074 62.6236 42.3572C62.3127 43.0992 61.7949 43.6931 61.0715 44.1415C60.3482 44.5899 59.5141 44.8141 58.5693 44.8141C57.6244 44.8141 56.793 44.5966 56.0763 44.1588C55.3584 43.7224 54.8392 43.1272 54.5163 42.3746C54.3841 42.0516 54.2947 41.7286 54.2467 41.4057V41.3336C54.2467 41.1548 54.3481 41.064 54.551 41.064H56.9732C57.14 41.064 57.2601 41.1414 57.3321 41.2976C57.3442 41.3576 57.3802 41.435 57.4402 41.5311C57.5363 41.77 57.6818 41.9528 57.8793 42.0783C58.0768 42.2037 58.3064 42.2665 58.5693 42.2665C58.8322 42.2665 59.0444 42.2011 59.2419 42.0689C59.4355 41.9416 59.588 41.7608 59.6809 41.5485C59.8251 41.2976 59.8958 41.0107 59.8958 40.6877C59.9198 40.3767 59.8598 40.0725 59.717 39.7735C59.6329 39.5587 59.4928 39.3878 59.2953 39.2624C59.0977 39.137 58.8562 39.0742 58.5693 39.0742C58.0782 39.0742 57.7085 39.2424 57.4576 39.576C57.3975 39.6481 57.3415 39.7015 57.2868 39.7375C57.2321 39.7735 57.164 39.7909 57.0799 39.7909H54.5683C54.4722 39.7909 54.3948 39.7615 54.3348 39.7015C54.2747 39.6414 54.2453 39.564 54.2453 39.4679V32.4722C54.2453 32.3761 54.2747 32.2987 54.3348 32.2387C54.3948 32.1786 54.4722 32.1493 54.5683 32.1493H62.2099C62.306 32.1493 62.3834 32.1786 62.4435 32.2387C62.5035 32.2987 62.5329 32.3761 62.5329 32.4722V34.374C62.5329 34.47 62.5035 34.5475 62.4435 34.6075C62.3834 34.6676 62.306 34.6969 62.2099 34.6969H57.3495C57.2654 34.6969 57.224 34.7396 57.224 34.8224V36.8309C57.224 36.8789 57.2361 36.9109 57.2601 36.9296C57.2841 36.947 57.3201 36.9443 57.3682 36.9203C57.87 36.6454 58.4145 36.5079 59.0003 36.5079C59.8491 36.5079 60.5964 36.7228 61.2424 37.1538C61.8883 37.5849 62.354 38.1707 62.641 38.9114C62.8438 39.4853 62.9452 40.0591 62.9452 40.633L62.9466 40.6356ZM65.278 43.7652C64.4893 42.9938 64.0943 41.9448 64.0943 40.617V36.241C64.0943 34.9251 64.4893 33.8909 65.278 33.1382C66.0667 32.3842 67.1491 32.0078 68.525 32.0078C69.9009 32.0078 70.9885 32.3882 71.7893 33.1462C72.59 33.9055 72.9917 34.9371 72.9917 36.241V40.617C72.9917 41.9448 72.5913 42.9938 71.7893 43.7652C70.9885 44.5365 69.8996 44.9222 68.525 44.9222C67.1504 44.9222 66.0681 44.5365 65.278 43.7652ZM69.61 41.9355C69.8795 41.6552 70.013 41.2696 70.013 40.7784V36.1329C70.013 35.6431 69.8782 35.2574 69.61 34.9758C69.3404 34.6956 68.9787 34.5541 68.525 34.5541C68.0712 34.5541 67.7296 34.6942 67.4667 34.9758C67.2038 35.2574 67.0717 35.6431 67.0717 36.1329V40.7784C67.0717 41.2682 67.1998 41.6539 67.4573 41.9355C67.7149 42.2171 68.0699 42.3572 68.525 42.3572C68.9801 42.3572 69.3417 42.2171 69.61 41.9355Z" fill="#252530"/>
<path d="M11.2143 57.7685C11.4225 57.8806 11.584 58.0407 11.6988 58.2476C11.8135 58.4544 11.8709 58.6906 11.8709 58.9576C11.8709 59.2245 11.8109 59.4527 11.6921 59.6528C11.5733 59.853 11.4065 60.0092 11.1916 60.1186C10.9768 60.2294 10.7299 60.2841 10.4496 60.2841H9.56082C9.53947 60.2841 9.53012 60.2948 9.53012 60.3148V61.9109C9.53012 61.9323 9.52212 61.9496 9.50877 61.9643C9.49409 61.979 9.47674 61.9856 9.45539 61.9856H8.72272C8.70137 61.9856 8.68402 61.979 8.66934 61.9643C8.66228 61.9573 8.65673 61.949 8.65306 61.9398C8.64938 61.9306 8.64765 61.9208 8.64799 61.9109V57.6737C8.64799 57.6524 8.65466 57.635 8.66934 57.6203C8.68402 57.6057 8.70137 57.599 8.72272 57.599H10.4883C10.7632 57.599 11.0061 57.655 11.2143 57.7685ZM10.8193 59.4113C10.9367 59.3005 10.9941 59.1564 10.9941 58.9762C10.9941 58.7961 10.9354 58.6439 10.8193 58.5318C10.7019 58.4197 10.5484 58.3623 10.3562 58.3623H9.56082C9.53947 58.3623 9.53012 58.373 9.53012 58.393V59.5448C9.53012 59.5661 9.5408 59.5754 9.56082 59.5754H10.3562C10.5484 59.5754 10.7019 59.5207 10.8193 59.41V59.4113ZM14.3185 58.8148C14.3518 58.8321 14.3638 58.8628 14.3558 58.9082L14.2251 59.6222C14.2211 59.6729 14.1917 59.6862 14.137 59.6662C14.0743 59.6448 14.0009 59.6355 13.9181 59.6355C13.8847 59.6355 13.8394 59.6395 13.7807 59.6475C13.6298 59.6595 13.5031 59.7156 13.399 59.813C13.2949 59.9118 13.2428 60.0412 13.2428 60.204V61.9122C13.2428 61.9336 13.2348 61.9509 13.2215 61.9656C13.2068 61.9803 13.1894 61.987 13.1681 61.987H12.4354C12.4141 61.987 12.3967 61.9803 12.382 61.9656C12.375 61.9587 12.3694 61.9504 12.3658 61.9412C12.3621 61.932 12.3604 61.9221 12.3607 61.9122V58.8455C12.3607 58.8241 12.3674 58.8068 12.382 58.7921C12.3967 58.7774 12.4141 58.7707 12.4354 58.7707H13.1681C13.1894 58.7707 13.2068 58.7774 13.2215 58.7921C13.2362 58.8068 13.2428 58.8241 13.2428 58.8455V59.083C13.2428 59.095 13.2468 59.1044 13.2548 59.1084C13.2628 59.1124 13.2695 59.111 13.2735 59.1017C13.4443 58.8508 13.6739 58.7267 13.9621 58.7267C14.113 58.7267 14.2317 58.756 14.3185 58.8148ZM15.1939 61.7628C14.943 61.5786 14.7722 61.329 14.6801 61.0114C14.6214 60.8152 14.5921 60.603 14.5921 60.3735C14.5921 60.128 14.6214 59.9064 14.6801 59.7102C14.7762 59.402 14.9497 59.1591 15.1993 58.9842C15.4502 58.8094 15.7504 58.7213 16.1001 58.7213C16.4497 58.7213 16.734 58.8081 16.9769 58.9816C17.2184 59.1551 17.3906 59.3953 17.4907 59.7049C17.5574 59.9131 17.5908 60.1333 17.5908 60.3615C17.5908 60.5897 17.5614 60.7979 17.5027 60.9941C17.4106 61.3197 17.2411 61.5746 16.9929 61.7614C16.7447 61.9469 16.4457 62.0404 16.0948 62.0404C15.7438 62.0404 15.4435 61.9483 15.1939 61.7654V61.7628ZM16.4457 61.1555C16.5418 61.0728 16.6099 60.958 16.6526 60.8112C16.686 60.6778 16.7033 60.5323 16.7033 60.3735C16.7033 60.1987 16.686 60.0505 16.6526 59.9291C16.6072 59.7876 16.5352 59.6769 16.4404 59.5968C16.3443 59.5181 16.2282 59.478 16.0894 59.478C15.9506 59.478 15.8292 59.5181 15.7358 59.5968C15.6423 59.6755 15.5743 59.7863 15.5329 59.9291C15.4995 60.0292 15.4822 60.1773 15.4822 60.3735C15.4822 60.5697 15.4969 60.7071 15.5262 60.8112C15.5676 60.958 15.6383 61.0715 15.7358 61.1555C15.8332 61.2396 15.9533 61.281 16.0961 61.281C16.2389 61.281 16.351 61.2396 16.4471 61.1555H16.4457ZM20.1798 57.6283C20.1945 57.6137 20.2118 57.607 20.2332 57.607H20.9658C20.9872 57.607 21.0045 57.615 21.0192 57.6283C21.0339 57.643 21.0406 57.6604 21.0406 57.6817V61.9122C21.0406 61.9336 21.0326 61.9509 21.0192 61.9656C21.0045 61.9803 20.9872 61.987 20.9658 61.987H20.2332C20.2118 61.987 20.1945 61.9803 20.1798 61.9656C20.1727 61.9587 20.1672 61.9504 20.1635 61.9412C20.1598 61.932 20.1581 61.9221 20.1584 61.9122V61.7054C20.1584 61.6934 20.1544 61.6854 20.1464 61.684C20.1384 61.6814 20.1291 61.684 20.1211 61.6934C19.9462 61.9229 19.706 62.0377 19.4018 62.0377C19.0975 62.0377 18.8586 61.9563 18.6477 61.7935C18.4369 61.6306 18.2861 61.4078 18.194 61.1235C18.1233 60.906 18.0872 60.6538 18.0872 60.3668C18.0872 60.0799 18.1246 59.8117 18.1993 59.5901C18.2954 59.3232 18.4462 59.111 18.6531 58.9549C18.8599 58.7987 19.1148 58.72 19.4204 58.72C19.726 58.72 19.9543 58.8241 20.1211 59.0323C20.1291 59.0443 20.1371 59.0496 20.1464 59.0443C20.1544 59.0403 20.1584 59.0323 20.1584 59.0189V57.6791C20.1584 57.6577 20.1651 57.6404 20.1798 57.6257V57.6283ZM20.1518 60.3788C20.1518 60.0999 20.1064 59.8797 20.0143 59.7222C19.9182 59.5594 19.7781 59.478 19.5953 59.478C19.3991 59.478 19.2509 59.5594 19.1509 59.7222C19.0468 59.8851 18.9947 60.1066 18.9947 60.3855C18.9947 60.6364 19.0388 60.8446 19.1255 61.0114C19.2296 61.1902 19.3844 61.281 19.5886 61.281C19.7768 61.281 19.9222 61.1916 20.0263 61.0114C20.1091 60.8566 20.1518 60.6458 20.1518 60.3788ZM23.6029 58.7921C23.6176 58.7774 23.6349 58.7707 23.6563 58.7707H24.3889C24.4103 58.7707 24.4277 58.7774 24.4423 58.7921C24.457 58.8068 24.4637 58.8241 24.4637 58.8455V61.9122C24.4637 61.9336 24.4557 61.9509 24.4423 61.9656C24.4277 61.9803 24.4103 61.987 24.3889 61.987H23.6563C23.6349 61.987 23.6176 61.9803 23.6029 61.9656C23.5958 61.9587 23.5903 61.9504 23.5866 61.9412C23.5829 61.932 23.5812 61.9221 23.5815 61.9122V61.7C23.5815 61.688 23.5775 61.68 23.5695 61.6787C23.5615 61.676 23.5522 61.6814 23.5442 61.6947C23.3774 61.9202 23.1185 62.0323 22.7675 62.0323C22.4499 62.0323 22.1896 61.9363 21.9854 61.7441C21.7812 61.5519 21.6785 61.2837 21.6785 60.9367V58.8468C21.6785 58.8254 21.6852 58.8081 21.6998 58.7934C21.7145 58.7787 21.7319 58.7721 21.7532 58.7721H22.4792C22.5006 58.7721 22.5179 58.7787 22.5326 58.7934C22.5473 58.8081 22.5539 58.8254 22.5539 58.8468V60.7178C22.5539 60.8846 22.5993 61.0208 22.6887 61.1249C22.7782 61.2289 22.9023 61.281 23.0611 61.281C23.2025 61.281 23.32 61.2383 23.4121 61.1529C23.5041 61.0675 23.5602 60.9554 23.5815 60.8179V58.8468C23.5815 58.8254 23.5882 58.8081 23.6029 58.7934V58.7921ZM25.6621 61.7868C25.4179 61.62 25.2444 61.3904 25.139 61.0982C25.0682 60.89 25.0322 60.6431 25.0322 60.3602C25.0322 60.0772 25.0682 59.8384 25.139 59.6342C25.2391 59.3499 25.4125 59.127 25.6581 58.9642C25.9037 58.8014 26.1946 58.72 26.5282 58.72C26.8619 58.72 27.1555 58.8041 27.4077 58.9709C27.6599 59.1377 27.8281 59.3486 27.9121 59.6035C27.9455 59.7036 27.9629 59.7783 27.9629 59.829V59.841C27.9629 59.8784 27.9415 59.9011 27.9001 59.9104L27.1808 60.0172H27.1688C27.1314 60.0172 27.1061 59.9958 27.0941 59.9545L27.0754 59.8544C27.046 59.7463 26.982 59.6569 26.8819 59.5848C26.7818 59.5127 26.663 59.478 26.5256 59.478C26.3881 59.478 26.2787 59.5114 26.1879 59.5781C26.0958 59.6448 26.0318 59.7369 25.9944 59.853C25.949 59.9785 25.925 60.1493 25.925 60.3668C25.925 60.5844 25.9464 60.7552 25.9877 60.8806C26.0251 61.0061 26.0905 61.1035 26.1852 61.1742C26.2787 61.245 26.3934 61.281 26.5269 61.281C26.6603 61.281 26.7698 61.2463 26.8685 61.1782C26.966 61.1088 27.034 61.0141 27.0714 60.894C27.0754 60.886 27.0781 60.8726 27.0781 60.8566C27.0821 60.8526 27.0847 60.8459 27.0847 60.8379C27.0887 60.7872 27.1181 60.7672 27.1728 60.7752L27.8921 60.8873C27.9335 60.8953 27.9549 60.918 27.9549 60.9567C27.9549 60.9901 27.9428 61.0528 27.9175 61.1449C27.8294 61.4251 27.6599 61.644 27.4077 61.8015C27.1555 61.9603 26.8645 62.039 26.5349 62.039C26.2053 62.039 25.9117 61.9563 25.6674 61.7881L25.6621 61.7868ZM30.2996 59.4553C30.285 59.47 30.2676 59.4767 30.2463 59.4767H29.6457C29.6244 59.4767 29.615 59.4874 29.615 59.5074V60.8339C29.615 60.9714 29.6431 61.0741 29.6991 61.1409C29.7552 61.2076 29.8459 61.241 29.9714 61.241H30.1782C30.1996 61.241 30.2169 61.249 30.2316 61.2623C30.2463 61.277 30.2529 61.2943 30.2529 61.3157V61.9109C30.2529 61.9563 30.2276 61.9843 30.1782 61.9923C30.0034 62.0003 29.8779 62.0043 29.8032 62.0043C29.4562 62.0043 29.1986 61.9469 29.0265 61.8322C28.8557 61.7174 28.7676 61.5012 28.7636 61.1849V59.5074C28.7636 59.486 28.7529 59.4767 28.7329 59.4767H28.3766C28.3552 59.4767 28.3379 59.47 28.3232 59.4553C28.3161 59.4484 28.3106 59.4401 28.3069 59.4309C28.3032 59.4217 28.3015 59.4118 28.3018 59.402V58.8455C28.3018 58.8241 28.3085 58.8068 28.3232 58.7921C28.3379 58.7774 28.3552 58.7707 28.3766 58.7707H28.7329C28.7542 58.7707 28.7636 58.76 28.7636 58.74V57.9953C28.7636 57.974 28.7703 57.9566 28.7849 57.942C28.7996 57.9273 28.817 57.9206 28.8383 57.9206H29.539C29.5603 57.9206 29.5777 57.9286 29.5923 57.942C29.607 57.9566 29.6137 57.974 29.6137 57.9953V58.74C29.6137 58.7614 29.6244 58.7707 29.6444 58.7707H30.2449C30.2663 58.7707 30.2836 58.7774 30.2983 58.7921C30.313 58.8068 30.3197 58.8241 30.3197 58.8455V59.402C30.3197 59.4233 30.3117 59.4407 30.2983 59.4553H30.2996ZM31.4047 61.9122C31.1965 61.8335 31.035 61.7227 30.9202 61.5799C30.8054 61.4385 30.7481 61.277 30.7481 61.0982V61.0354C30.7481 61.0141 30.7547 60.9967 30.7694 60.9821C30.7841 60.9674 30.8014 60.9607 30.8228 60.9607H31.5181C31.5394 60.9607 31.5568 60.9674 31.5715 60.9821C31.5862 60.9967 31.5928 61.0141 31.5928 61.0354V61.0421C31.5928 61.1342 31.6435 61.2116 31.7463 61.277C31.8491 61.3424 31.9772 61.3744 32.1306 61.3744C32.2721 61.3744 32.3869 61.3464 32.475 61.2903C32.563 61.2343 32.6057 61.1636 32.6057 61.0808C32.6057 61.0061 32.5684 60.95 32.4936 60.9113C32.4189 60.874 32.2948 60.8339 32.124 60.7926C31.9278 60.7418 31.773 60.6951 31.6609 60.6484C31.394 60.5563 31.1804 60.4442 31.023 60.3108C30.8642 60.1773 30.7854 59.9852 30.7854 59.7356C30.7854 59.4273 30.9055 59.1818 31.1458 59.0003C31.386 58.8188 31.7036 58.728 32.1 58.728C32.3669 58.728 32.6004 58.7707 32.8006 58.8561C33.0008 58.9415 33.1569 59.0616 33.2663 59.2165C33.3771 59.3713 33.4318 59.5461 33.4318 59.7423C33.4318 59.7636 33.4238 59.781 33.4105 59.7956C33.3958 59.8103 33.3784 59.817 33.3571 59.817H32.6871C32.6658 59.817 32.6484 59.8103 32.6338 59.7956C32.6267 59.7887 32.6212 59.7804 32.6175 59.7712C32.6138 59.762 32.6121 59.7522 32.6124 59.7423C32.6124 59.6502 32.5657 59.5728 32.471 59.5101C32.3775 59.4473 32.2534 59.4166 32.0986 59.4166C31.9612 59.4166 31.8477 59.442 31.761 59.4914C31.6729 59.5421 31.6302 59.6101 31.6302 59.6982C31.6302 59.7863 31.6729 59.845 31.7583 59.8864C31.8437 59.9278 31.9865 59.9718 32.1867 60.0172C32.2321 60.0292 32.2841 60.0439 32.3428 60.0572C32.4016 60.0719 32.4643 60.0892 32.531 60.1106C32.8273 60.1987 33.0608 60.3108 33.2316 60.4482C33.4025 60.5857 33.4879 60.7859 33.4879 61.0488C33.4879 61.3571 33.3664 61.5986 33.1222 61.7721C32.878 61.9456 32.5497 62.0323 32.136 62.0323C31.8557 62.0323 31.6128 61.9923 31.4033 61.9136L31.4047 61.9122ZM37.1352 58.7867C37.1499 58.8014 37.1565 58.8188 37.1565 58.8401V59.4353C37.1565 59.4567 37.1499 59.474 37.1352 59.4887C37.1205 59.5034 37.1032 59.5101 37.0818 59.5101H36.4746C36.4532 59.5101 36.4439 59.5207 36.4439 59.5407V61.9122C36.4439 61.9336 36.4372 61.9509 36.4225 61.9656C36.4079 61.9803 36.3905 61.987 36.3692 61.987H35.6365C35.6151 61.987 35.5978 61.9803 35.5831 61.9656C35.576 61.9587 35.5705 61.9504 35.5668 61.9412C35.5631 61.932 35.5614 61.9221 35.5618 61.9122V59.5407C35.5618 59.5194 35.5511 59.5101 35.5311 59.5101H35.1614C35.14 59.5101 35.1227 59.5034 35.108 59.4887C35.1009 59.4818 35.0954 59.4734 35.0917 59.4643C35.088 59.4551 35.0863 59.4452 35.0867 59.4353V58.8401C35.0867 58.8188 35.0933 58.8014 35.108 58.7867C35.1227 58.7721 35.14 58.7654 35.1614 58.7654H35.5311C35.5524 58.7654 35.5618 58.7547 35.5618 58.7347V58.5972C35.5618 58.3383 35.6018 58.1368 35.6805 57.9927C35.7593 57.8485 35.8887 57.7471 36.0649 57.6857C36.2424 57.6257 36.4879 57.599 36.8002 57.607H37.0378C37.0591 57.607 37.0765 57.615 37.0911 57.6283C37.1058 57.643 37.1125 57.6604 37.1125 57.6817V58.1889C37.1125 58.2102 37.1045 58.2276 37.0911 58.2422C37.0765 58.2569 37.0591 58.2636 37.0378 58.2636H36.8309C36.6854 58.2676 36.584 58.2983 36.528 58.3543C36.4719 58.4104 36.4439 58.5145 36.4439 58.664V58.7334C36.4439 58.7547 36.4546 58.764 36.4746 58.764H37.0818C37.1032 58.764 37.1205 58.7707 37.1352 58.7854V58.7867ZM37.996 61.7628C37.7451 61.5786 37.5743 61.329 37.4822 61.0114C37.4234 60.8152 37.3941 60.603 37.3941 60.3735C37.3941 60.128 37.4234 59.9064 37.4822 59.7102C37.5783 59.402 37.7517 59.1591 38.0013 58.9842C38.2522 58.8094 38.5525 58.7213 38.9021 58.7213C39.2518 58.7213 39.536 58.8081 39.7789 58.9816C40.0205 59.1551 40.1926 59.3953 40.2927 59.7049C40.3594 59.9131 40.3928 60.1333 40.3928 60.3615C40.3928 60.5897 40.3635 60.7979 40.3047 60.9941C40.2126 61.3197 40.0432 61.5746 39.7949 61.7614C39.5467 61.9469 39.2478 62.0404 38.8968 62.0404C38.5458 62.0404 38.2455 61.9483 37.996 61.7654V61.7628ZM39.2478 61.1555C39.3439 61.0728 39.4119 60.958 39.4546 60.8112C39.488 60.6778 39.5053 60.5323 39.5053 60.3735C39.5053 60.1987 39.488 60.0505 39.4546 59.9291C39.4093 59.7876 39.3372 59.6769 39.2424 59.5968C39.1463 59.5181 39.0302 59.478 38.8914 59.478C38.7527 59.478 38.6312 59.5181 38.5378 59.5968C38.4444 59.6755 38.3763 59.7863 38.3349 59.9291C38.3016 60.0292 38.2842 60.1773 38.2842 60.3735C38.2842 60.5697 38.2989 60.7071 38.3283 60.8112C38.3696 60.958 38.4404 61.0715 38.5378 61.1555C38.6352 61.2396 38.7553 61.281 38.8981 61.281C39.0409 61.281 39.153 61.2396 39.2491 61.1555H39.2478ZM42.9218 58.8148C42.9551 58.8321 42.9672 58.8628 42.9591 58.9082L42.8284 59.6222C42.8244 59.6729 42.795 59.6862 42.7403 59.6662C42.6776 59.6448 42.6042 59.6355 42.5214 59.6355C42.488 59.6355 42.4427 59.6395 42.384 59.6475C42.2332 59.6595 42.1064 59.7156 42.0023 59.813C41.8982 59.9118 41.8461 60.0412 41.8461 60.204V61.9122C41.8461 61.9336 41.8381 61.9509 41.8248 61.9656C41.8101 61.9803 41.7928 61.987 41.7714 61.987H41.0387C41.0174 61.987 41 61.9803 40.9853 61.9656C40.9783 61.9587 40.9727 61.9504 40.9691 61.9412C40.9654 61.932 40.9637 61.9221 40.964 61.9122V58.8455C40.964 58.8241 40.9707 58.8068 40.9853 58.7921C41 58.7774 41.0174 58.7707 41.0387 58.7707H41.7714C41.7928 58.7707 41.8101 58.7774 41.8248 58.7921C41.8395 58.8068 41.8461 58.8241 41.8461 58.8455V59.083C41.8461 59.095 41.8501 59.1044 41.8581 59.1084C41.8662 59.1124 41.8728 59.111 41.8768 59.1017C42.0476 58.8508 42.2772 58.7267 42.5655 58.7267C42.7163 58.7267 42.835 58.756 42.9218 58.8148ZM45.2933 61.8775C45.0424 61.7708 44.8502 61.6186 44.7141 61.4211C44.5779 61.2236 44.5112 60.9927 44.5112 60.7298V60.5924C44.5112 60.571 44.5179 60.5537 44.5326 60.539C44.5473 60.5243 44.5646 60.5176 44.586 60.5176H45.2999C45.3213 60.5176 45.3386 60.5256 45.3533 60.539C45.368 60.5537 45.3747 60.571 45.3747 60.5924V60.6858C45.3747 60.8526 45.4521 60.9941 45.6069 61.1088C45.7617 61.2236 45.9699 61.281 46.2328 61.281C46.4543 61.281 46.6185 61.2343 46.7279 61.1395C46.836 61.0461 46.8907 60.93 46.8907 60.7926C46.8907 60.6925 46.8573 60.6084 46.7906 60.539C46.7239 60.4696 46.6331 60.4095 46.5184 60.3575C46.4036 60.3054 46.2208 60.2334 45.9712 60.1413C45.691 60.0452 45.4547 59.9478 45.2612 59.8477C45.0677 59.7476 44.9049 59.6115 44.7728 59.438C44.642 59.2645 44.5753 59.051 44.5753 58.7961C44.5753 58.5412 44.6393 58.3263 44.7688 58.1395C44.8982 57.9513 45.0771 57.8072 45.3066 57.7071C45.5361 57.607 45.8017 57.5563 46.102 57.5563C46.4196 57.5563 46.7012 57.6123 46.9494 57.7258C47.1977 57.8379 47.3912 57.9953 47.5313 58.1982C47.6714 58.401 47.7408 58.6359 47.7408 58.9028V58.9963C47.7408 59.0176 47.7328 59.035 47.7195 59.0496C47.7061 59.0643 47.6874 59.071 47.6661 59.071H46.9468C46.9254 59.071 46.9081 59.0643 46.8934 59.0496C46.8863 59.0427 46.8808 59.0344 46.8771 59.0252C46.8734 59.016 46.8717 59.0061 46.872 58.9963V58.9455C46.872 58.7707 46.8 58.6212 46.6558 58.4985C46.5117 58.3757 46.3142 58.3143 46.0646 58.3143C45.8684 58.3143 45.715 58.3557 45.6042 58.4397C45.4934 58.5238 45.4387 58.6386 45.4387 58.7841C45.4387 58.8882 45.4708 58.9762 45.5361 59.047C45.6002 59.1177 45.6963 59.1818 45.8244 59.2378C45.9512 59.2939 46.1487 59.3699 46.4156 59.466C46.7119 59.5741 46.9441 59.6702 47.1136 59.7543C47.2831 59.8384 47.4352 59.9625 47.57 60.1266C47.7061 60.2921 47.7728 60.5056 47.7728 60.7685C47.7728 61.1609 47.6287 61.4705 47.3405 61.6974C47.0522 61.9242 46.6625 62.039 46.1701 62.039C45.8364 62.039 45.5442 61.9856 45.2933 61.8789V61.8775ZM52.6666 59.0149C52.8508 59.2111 52.9415 59.486 52.9415 59.841V61.9122C52.9415 61.9336 52.9335 61.9509 52.9202 61.9656C52.9055 61.9803 52.8882 61.987 52.8668 61.987H52.1341C52.1128 61.987 52.0954 61.9803 52.0808 61.9656C52.0737 61.9587 52.0681 61.9504 52.0645 61.9412C52.0608 61.932 52.0591 61.9221 52.0594 61.9122V60.0345C52.0594 59.8637 52.0154 59.7276 51.9286 59.6275C51.8405 59.5274 51.7244 59.4767 51.5776 59.4767C51.4308 59.4767 51.3121 59.5274 51.2213 59.6275C51.1292 59.7276 51.0839 59.861 51.0839 60.0279V61.9122C51.0839 61.9336 51.0758 61.9509 51.0625 61.9656C51.0478 61.9803 51.0305 61.987 51.0091 61.987H50.2831C50.2618 61.987 50.2444 61.9803 50.2297 61.9656C50.2227 61.9587 50.2171 61.9504 50.2135 61.9412C50.2098 61.932 50.2081 61.9221 50.2084 61.9122V60.0345C50.2084 59.8677 50.163 59.7329 50.0709 59.6315C49.9789 59.5287 49.8601 59.478 49.7146 59.478C49.5812 59.478 49.4691 59.5181 49.3796 59.5968C49.2902 59.6755 49.2368 59.7863 49.2195 59.9291V61.9136C49.2195 61.9349 49.2115 61.9523 49.1981 61.9669C49.1835 61.9816 49.1661 61.9883 49.1448 61.9883H48.4121C48.3907 61.9883 48.3734 61.9816 48.3587 61.9669C48.3516 61.96 48.3461 61.9517 48.3424 61.9425C48.3387 61.9333 48.337 61.9235 48.3374 61.9136V58.8468C48.3374 58.8254 48.344 58.8081 48.3587 58.7934C48.3734 58.7787 48.3907 58.7721 48.4121 58.7721H49.1448C49.1661 58.7721 49.1835 58.7787 49.1981 58.7934C49.2128 58.8081 49.2195 58.8254 49.2195 58.8468V59.091C49.2195 59.103 49.2235 59.1124 49.2315 59.1164C49.2395 59.1204 49.2475 59.1164 49.2569 59.1044C49.4277 58.8495 49.6933 58.7227 50.0522 58.7227C50.2604 58.7227 50.4433 58.7667 50.5994 58.8535C50.7556 58.9415 50.8757 59.0657 50.9597 59.2285C50.9718 59.2538 50.9864 59.2538 51.0038 59.2285C51.0959 59.0576 51.22 58.9295 51.3761 58.8468C51.5323 58.7627 51.7084 58.7213 51.9046 58.7213C52.2302 58.7213 52.4851 58.8188 52.668 59.0149H52.6666ZM55.5706 58.8615C55.7828 58.9549 55.9496 59.083 56.0684 59.2458C56.1872 59.4086 56.2472 59.5901 56.2472 59.7903V61.9122C56.2472 61.9336 56.2405 61.9509 56.2259 61.9656C56.2112 61.9803 56.1938 61.987 56.1725 61.987H55.4398C55.4185 61.987 55.4011 61.9803 55.3864 61.9656C55.3794 61.9587 55.3738 61.9504 55.3701 61.9412C55.3665 61.932 55.3647 61.9221 55.3651 61.9122V61.7054C55.3651 61.6934 55.3611 61.684 55.3531 61.68C55.3451 61.676 55.337 61.68 55.3277 61.692C55.1529 61.9216 54.8713 62.0363 54.4829 62.0363C54.1573 62.0363 53.8944 61.9576 53.6942 61.7988C53.494 61.64 53.394 61.4064 53.394 61.0982C53.394 60.7899 53.5061 60.527 53.7316 60.3508C53.9571 60.1733 54.2788 60.0852 54.6951 60.0852H55.333C55.3544 60.0852 55.3637 60.0746 55.3637 60.0545V59.9171C55.3637 59.7796 55.3224 59.6715 55.2383 59.5941C55.1542 59.5167 55.0301 59.478 54.8633 59.478C54.7338 59.478 54.6271 59.5007 54.5403 59.5474C54.4549 59.5928 54.3989 59.6582 54.3748 59.7409C54.3628 59.7863 54.3348 59.8077 54.2934 59.8037L53.5354 59.7036C53.4847 59.6956 53.462 59.6769 53.466 59.6475C53.482 59.4727 53.5528 59.3139 53.6755 59.1724C53.7983 59.031 53.9611 58.9202 54.164 58.8401C54.3668 58.7614 54.5924 58.7213 54.8433 58.7213C55.1142 58.7213 55.3571 58.768 55.5693 58.8628L55.5706 58.8615ZM55.1769 61.237C55.3023 61.1409 55.3651 61.0181 55.3651 60.8673V60.6417C55.3651 60.6204 55.3544 60.6111 55.3344 60.6111H54.8833C54.6951 60.6111 54.5483 60.6471 54.4416 60.7178C54.3348 60.7885 54.2814 60.8886 54.2814 61.0181C54.2814 61.1302 54.3215 61.2196 54.4002 61.2837C54.4789 61.3491 54.5857 61.3811 54.7192 61.3811C54.898 61.3811 55.0515 61.333 55.1756 61.237H55.1769ZM56.8878 61.9656C56.8807 61.9587 56.8752 61.9504 56.8715 61.9412C56.8678 61.932 56.8661 61.9221 56.8664 61.9122V57.6817C56.8664 57.6604 56.8731 57.643 56.8878 57.6283C56.9025 57.6137 56.9198 57.607 56.9412 57.607H57.6738C57.6952 57.607 57.7125 57.615 57.7272 57.6283C57.7419 57.643 57.7486 57.6604 57.7486 57.6817V61.9122C57.7486 61.9336 57.7406 61.9509 57.7272 61.9656C57.7125 61.9803 57.6952 61.987 57.6738 61.987H56.9412C56.9198 61.987 56.9025 61.9803 56.8878 61.9656ZM58.4158 61.9656C58.4088 61.9587 58.4032 61.9504 58.3996 61.9412C58.3959 61.932 58.3942 61.9221 58.3945 61.9122V57.6817C58.3945 57.6604 58.4012 57.643 58.4158 57.6283C58.4305 57.6137 58.4479 57.607 58.4692 57.607H59.2019C59.2232 57.607 59.2406 57.615 59.2553 57.6283C59.27 57.643 59.2766 57.6604 59.2766 57.6817V61.9122C59.2766 61.9336 59.2686 61.9509 59.2553 61.9656C59.2406 61.9803 59.2232 61.987 59.2019 61.987H58.4692C58.4479 61.987 58.4305 61.9803 58.4158 61.9656ZM63.8261 59.7409C64.2224 59.9451 64.4213 60.2854 64.4213 60.7605C64.4213 61.1649 64.2838 61.4705 64.0076 61.6774C63.7327 61.8842 63.371 61.987 62.9253 61.987H61.3038C61.2824 61.987 61.2651 61.9803 61.2504 61.9656C61.2434 61.9587 61.2378 61.9504 61.2341 61.9412C61.2305 61.932 61.2287 61.9221 61.2291 61.9122V57.6817C61.2291 57.6604 61.2357 57.643 61.2504 57.6283C61.2651 57.6137 61.2824 57.607 61.3038 57.607H62.8746C63.8635 57.607 64.3586 58.0074 64.3586 58.8081C64.3586 59.2258 64.1811 59.5234 63.8261 59.7036C63.8007 59.7156 63.8007 59.7289 63.8261 59.7409ZM62.1112 58.3957V59.3726C62.1112 59.394 62.1219 59.4033 62.1419 59.4033H62.8746C63.0707 59.4033 63.2229 59.3579 63.331 59.2658C63.4391 59.1737 63.4938 59.0483 63.4938 58.8908C63.4938 58.7333 63.4391 58.5999 63.331 58.5065C63.2229 58.4131 63.0707 58.365 62.8746 58.365H62.1419C62.1205 58.365 62.1112 58.3757 62.1112 58.3957ZM63.375 61.0781C63.4831 60.9807 63.5378 60.8459 63.5378 60.6738C63.5378 60.5016 63.4831 60.3682 63.375 60.2707C63.2669 60.1733 63.1148 60.1239 62.9186 60.1239H62.1419C62.1205 60.1239 62.1112 60.1346 62.1112 60.1546V61.1943C62.1112 61.2156 62.1219 61.2249 62.1419 61.2249H62.9239C63.1161 61.2249 63.2656 61.1756 63.375 61.0781ZM66.9142 58.7921C66.9289 58.7774 66.9463 58.7707 66.9676 58.7707H67.7003C67.7216 58.7707 67.739 58.7774 67.7537 58.7921C67.7683 58.8068 67.775 58.8241 67.775 58.8455V61.9122C67.775 61.9336 67.767 61.9509 67.7537 61.9656C67.739 61.9803 67.7216 61.987 67.7003 61.987H66.9676C66.9463 61.987 66.9289 61.9803 66.9142 61.9656C66.9072 61.9587 66.9016 61.9504 66.8979 61.9412C66.8943 61.932 66.8925 61.9221 66.8929 61.9122V61.7C66.8929 61.688 66.8889 61.68 66.8809 61.6787C66.8729 61.676 66.8635 61.6814 66.8555 61.6947C66.6887 61.9202 66.4298 62.0323 66.0788 62.0323C65.7612 62.0323 65.5009 61.9363 65.2968 61.7441C65.0926 61.5519 64.9898 61.2837 64.9898 60.9367V58.8468C64.9898 58.8254 64.9965 58.8081 65.0112 58.7934C65.0258 58.7787 65.0432 58.7721 65.0645 58.7721H65.7905C65.8119 58.7721 65.8292 58.7787 65.8439 58.7934C65.8586 58.8081 65.8653 58.8254 65.8653 58.8468V60.7178C65.8653 60.8846 65.9106 61.0208 66.0001 61.1249C66.0895 61.2289 66.2136 61.281 66.3724 61.281C66.5139 61.281 66.6313 61.2383 66.7234 61.1529C66.8155 61.0675 66.8715 60.9554 66.8929 60.8179V58.8468C66.8929 58.8254 66.8995 58.8081 66.9142 58.7934V58.7921ZM68.9774 61.9122C68.7692 61.8335 68.6078 61.7227 68.493 61.5799C68.3782 61.4385 68.3208 61.277 68.3208 61.0982V61.0354C68.3208 61.0141 68.3275 60.9967 68.3422 60.9821C68.3569 60.9674 68.3742 60.9607 68.3956 60.9607H69.0909C69.1122 60.9607 69.1296 60.9674 69.1443 60.9821C69.1589 60.9967 69.1656 61.0141 69.1656 61.0354V61.0421C69.1656 61.1342 69.2163 61.2116 69.3191 61.277C69.4218 61.3424 69.55 61.3744 69.7034 61.3744C69.8449 61.3744 69.9597 61.3464 70.0477 61.2903C70.1358 61.2343 70.1785 61.1636 70.1785 61.0808C70.1785 61.0061 70.1412 60.95 70.0664 60.9113C69.9917 60.874 69.8676 60.8339 69.6967 60.7926C69.5006 60.7418 69.3458 60.6951 69.2337 60.6484C68.9668 60.5563 68.7532 60.4442 68.5957 60.3108C68.4369 60.1773 68.3582 59.9852 68.3582 59.7356C68.3582 59.4273 68.4783 59.1818 68.7185 59.0003C68.9588 58.8188 69.2764 58.728 69.6727 58.728C69.9396 58.728 70.1732 58.7707 70.3734 58.8561C70.5735 58.9415 70.7297 59.0616 70.8391 59.2165C70.9499 59.3713 71.0046 59.5461 71.0046 59.7423C71.0046 59.7636 70.9966 59.781 70.9833 59.7956C70.9686 59.8103 70.9512 59.817 70.9299 59.817H70.2599C70.2386 59.817 70.2212 59.8103 70.2065 59.7956C70.1995 59.7887 70.1939 59.7804 70.1903 59.7712C70.1866 59.762 70.1849 59.7522 70.1852 59.7423C70.1852 59.6502 70.1385 59.5728 70.0437 59.5101C69.9503 59.4473 69.8262 59.4166 69.6714 59.4166C69.5339 59.4166 69.4205 59.442 69.3338 59.4914C69.2457 59.5421 69.203 59.6101 69.203 59.6982C69.203 59.7863 69.2457 59.845 69.3311 59.8864C69.4165 59.9278 69.5593 59.9718 69.7595 60.0172C69.8049 60.0292 69.8569 60.0439 69.9156 60.0572C69.9743 60.0719 70.0371 60.0892 70.1038 60.1106C70.4001 60.1987 70.6336 60.3108 70.8044 60.4482C70.9752 60.5857 71.0607 60.7859 71.0607 61.0488C71.0607 61.3571 70.9392 61.5986 70.695 61.7721C70.4508 61.9456 70.1225 62.0323 69.7088 62.0323C69.4285 62.0323 69.1856 61.9923 68.9761 61.9136L68.9774 61.9122ZM71.6906 58.2663C71.5971 58.1728 71.5491 58.0541 71.5491 57.9126C71.5491 57.7711 71.5945 57.647 71.6866 57.5563C71.7786 57.4642 71.8974 57.4188 72.0429 57.4188C72.1883 57.4188 72.3085 57.4642 72.3992 57.5563C72.4913 57.6484 72.5367 57.7671 72.5367 57.9126C72.5367 58.0581 72.49 58.1728 72.3952 58.2663C72.3018 58.3597 72.183 58.4077 72.0415 58.4077C71.9001 58.4077 71.7813 58.361 71.6879 58.2663H71.6906ZM71.6158 61.9656C71.6088 61.9587 71.6032 61.9504 71.5995 61.9412C71.5959 61.932 71.5941 61.9221 71.5945 61.9122V58.8388C71.5945 58.8174 71.6011 58.8001 71.6158 58.7854C71.6305 58.7707 71.6479 58.764 71.6692 58.764H72.4019C72.4232 58.764 72.4406 58.7707 72.4553 58.7854C72.4699 58.8001 72.4766 58.8174 72.4766 58.8388V61.9122C72.4766 61.9336 72.4686 61.9509 72.4553 61.9656C72.4406 61.9803 72.4232 61.987 72.4019 61.987H71.6692C71.6479 61.987 71.6305 61.9803 71.6158 61.9656ZM75.6488 59.0269C75.853 59.2311 75.9558 59.5087 75.9558 59.8597V61.9122C75.9558 61.9336 75.9491 61.9509 75.9344 61.9656C75.9197 61.9803 75.9024 61.987 75.881 61.987H75.1484C75.127 61.987 75.1097 61.9803 75.095 61.9656C75.0879 61.9587 75.0824 61.9504 75.0787 61.9412C75.075 61.932 75.0733 61.9221 75.0736 61.9122V60.0412C75.0736 59.8744 75.0269 59.7383 74.9322 59.6342C74.8388 59.5301 74.7146 59.478 74.5598 59.478C74.405 59.478 74.2809 59.5301 74.1875 59.6342C74.0941 59.7383 74.046 59.8744 74.046 60.0412V61.9122C74.046 61.9336 74.038 61.9509 74.0247 61.9656C74.01 61.9803 73.9927 61.987 73.9713 61.987H73.2386C73.2173 61.987 73.1999 61.9803 73.1853 61.9656C73.1782 61.9587 73.1726 61.9504 73.169 61.9412C73.1653 61.932 73.1636 61.9221 73.1639 61.9122V58.8455C73.1639 58.8241 73.1706 58.8068 73.1853 58.7921C73.1999 58.7774 73.2173 58.7707 73.2386 58.7707H73.9713C73.9927 58.7707 74.01 58.7774 74.0247 58.7921C74.0394 58.8068 74.046 58.8241 74.046 58.8455V59.0643C74.046 59.0763 74.05 59.0857 74.058 59.0897C74.066 59.0937 74.0727 59.0923 74.0767 59.083C74.2475 58.8414 74.5025 58.72 74.8401 58.72C75.1777 58.72 75.4433 58.8228 75.6475 59.0269H75.6488ZM79.4416 60.579C79.4376 60.6297 79.4109 60.6538 79.3602 60.6538H77.4264C77.4011 60.6538 77.3931 60.6644 77.4011 60.6845C77.4131 60.7685 77.4371 60.8513 77.4705 60.9353C77.5786 61.1689 77.8001 61.2863 78.1337 61.2863C78.4007 61.2823 78.6115 61.1742 78.7663 60.9607C78.7823 60.9353 78.8023 60.9233 78.8224 60.9233C78.8344 60.9233 78.8491 60.9313 78.8664 60.9487L79.3175 61.3931C79.3388 61.4144 79.3482 61.4331 79.3482 61.4491C79.3482 61.4572 79.3402 61.4745 79.3228 61.4999C79.1854 61.6707 79.0079 61.8028 78.7903 61.8976C78.5728 61.991 78.3353 62.039 78.0764 62.039C77.7174 62.039 77.4144 61.9576 77.1662 61.7948C76.918 61.632 76.7391 61.4051 76.631 61.1128C76.543 60.9047 76.5003 60.6311 76.5003 60.2934C76.5003 60.0639 76.531 59.861 76.5937 59.6862C76.6898 59.3899 76.8579 59.1537 77.0981 58.9789C77.3384 58.8041 77.6226 58.716 77.9522 58.716C78.37 58.716 78.7049 58.8374 78.9572 59.079C79.2094 59.3205 79.3629 59.6448 79.4176 60.0492C79.4429 60.208 79.4509 60.3855 79.4429 60.5817L79.4416 60.579ZM77.4384 59.8464C77.4211 59.9011 77.4077 59.9678 77.3944 60.0465C77.3944 60.0679 77.4051 60.0772 77.4251 60.0772H78.5074C78.5328 60.0772 78.5408 60.0666 78.5328 60.0465C78.5114 59.9251 78.5021 59.8677 78.5021 59.8717C78.4647 59.7463 78.3993 59.6488 78.3046 59.5808C78.2111 59.5114 78.095 59.478 77.9576 59.478C77.6947 59.478 77.5212 59.6008 77.4384 59.8477V59.8464ZM80.4932 61.9122C80.285 61.8335 80.1235 61.7227 80.0088 61.5799C79.894 61.4385 79.8366 61.277 79.8366 61.0982V61.0354C79.8366 61.0141 79.8433 60.9967 79.858 60.9821C79.8727 60.9674 79.89 60.9607 79.9114 60.9607H80.6067C80.628 60.9607 80.6454 60.9674 80.66 60.9821C80.6747 60.9967 80.6814 61.0141 80.6814 61.0354V61.0421C80.6814 61.1342 80.7321 61.2116 80.8349 61.277C80.9376 61.3424 81.0657 61.3744 81.2192 61.3744C81.3607 61.3744 81.4754 61.3464 81.5635 61.2903C81.6516 61.2343 81.6943 61.1636 81.6943 61.0808C81.6943 61.0061 81.6569 60.95 81.5822 60.9113C81.5075 60.874 81.3834 60.8339 81.2125 60.7926C81.0164 60.7418 80.8615 60.6951 80.7494 60.6484C80.4825 60.5563 80.269 60.4442 80.1115 60.3108C79.9527 60.1773 79.874 59.9852 79.874 59.7356C79.874 59.4273 79.9941 59.1818 80.2343 59.0003C80.4745 58.8188 80.7922 58.728 81.1885 58.728C81.4554 58.728 81.689 58.7707 81.8892 58.8561C82.0893 58.9415 82.2455 59.0616 82.3549 59.2165C82.4657 59.3713 82.5204 59.5461 82.5204 59.7423C82.5204 59.7636 82.5124 59.781 82.499 59.7956C82.4844 59.8103 82.467 59.817 82.4457 59.817H81.7757C81.7544 59.817 81.737 59.8103 81.7223 59.7956C81.7153 59.7887 81.7097 59.7804 81.706 59.7712C81.7024 59.762 81.7006 59.7522 81.701 59.7423C81.701 59.6502 81.6543 59.5728 81.5595 59.5101C81.4661 59.4473 81.342 59.4166 81.1872 59.4166C81.0497 59.4166 80.9363 59.442 80.8495 59.4914C80.7615 59.5421 80.7188 59.6101 80.7188 59.6982C80.7188 59.7863 80.7615 59.845 80.8469 59.8864C80.9323 59.9278 81.0751 59.9718 81.2753 60.0172C81.3206 60.0292 81.3727 60.0439 81.4314 60.0572C81.4901 60.0719 81.5528 60.0892 81.6196 60.1106C81.9158 60.1987 82.1494 60.3108 82.3202 60.4482C82.491 60.5857 82.5764 60.7859 82.5764 61.0488C82.5764 61.3571 82.455 61.5986 82.2108 61.7721C81.9666 61.9456 81.6383 62.0323 81.2245 62.0323C80.9443 62.0323 80.7014 61.9923 80.4919 61.9136L80.4932 61.9122ZM83.592 61.9122C83.3838 61.8335 83.2224 61.7227 83.1076 61.5799C82.9928 61.4385 82.9354 61.277 82.9354 61.0982V61.0354C82.9354 61.0141 82.9421 60.9967 82.9568 60.9821C82.9715 60.9674 82.9888 60.9607 83.0102 60.9607H83.7055C83.7268 60.9607 83.7442 60.9674 83.7588 60.9821C83.7735 60.9967 83.7802 61.0141 83.7802 61.0354V61.0421C83.7802 61.1342 83.8309 61.2116 83.9337 61.277C84.0364 61.3424 84.1645 61.3744 84.318 61.3744C84.4595 61.3744 84.5743 61.3464 84.6623 61.2903C84.7504 61.2343 84.7931 61.1636 84.7931 61.0808C84.7931 61.0061 84.7558 60.95 84.681 60.9113C84.6063 60.874 84.4822 60.8339 84.3113 60.7926C84.1152 60.7418 83.9604 60.6951 83.8483 60.6484C83.5814 60.5563 83.3678 60.4442 83.2103 60.3108C83.0515 60.1773 82.9728 59.9852 82.9728 59.7356C82.9728 59.4273 83.0929 59.1818 83.3331 59.0003C83.5733 58.8188 83.891 58.728 84.2873 58.728C84.5542 58.728 84.7878 58.7707 84.988 58.8561C85.1881 58.9415 85.3443 59.0616 85.4537 59.2165C85.5645 59.3713 85.6192 59.5461 85.6192 59.7423C85.6192 59.7636 85.6112 59.781 85.5979 59.7956C85.5832 59.8103 85.5658 59.817 85.5445 59.817H84.8745C84.8532 59.817 84.8358 59.8103 84.8211 59.7956C84.8141 59.7887 84.8085 59.7804 84.8049 59.7712C84.8012 59.762 84.7995 59.7522 84.7998 59.7423C84.7998 59.6502 84.7531 59.5728 84.6583 59.5101C84.5649 59.4473 84.4408 59.4166 84.286 59.4166C84.1485 59.4166 84.0351 59.442 83.9484 59.4914C83.8603 59.5421 83.8176 59.6101 83.8176 59.6982C83.8176 59.7863 83.8603 59.845 83.9457 59.8864C84.0311 59.9278 84.1739 59.9718 84.3741 60.0172C84.4195 60.0292 84.4715 60.0439 84.5302 60.0572C84.5889 60.0719 84.6517 60.0892 84.7184 60.1106C85.0147 60.1987 85.2482 60.3108 85.419 60.4482C85.5898 60.5857 85.6753 60.7859 85.6753 61.0488C85.6753 61.3571 85.5538 61.5986 85.3096 61.7721C85.0654 61.9456 84.7371 62.0323 84.3234 62.0323C84.0431 62.0323 83.8002 61.9923 83.5907 61.9136L83.592 61.9122Z" fill="white"/>
<path d="M38.4203 88.4096C38.427 88.4229 38.4403 88.4296 38.4617 88.4296H41.0614C41.0948 88.4296 41.1241 88.4416 41.1481 88.4656C41.1722 88.4897 41.1842 88.519 41.1842 88.5524V89.7548C41.1842 89.7895 41.1722 89.8175 41.1481 89.8416C41.1241 89.8656 41.0961 89.8776 41.0614 89.8776H36.2797C36.245 89.8776 36.217 89.8656 36.193 89.8416C36.1813 89.8304 36.1721 89.8169 36.1658 89.802C36.1596 89.787 36.1566 89.771 36.1569 89.7548V88.6231C36.1569 88.5617 36.177 88.511 36.2183 88.4696C36.6267 88.0893 37.1659 87.5421 37.8398 86.8282L38.451 86.1862C39.0689 85.547 39.3785 85.0812 39.3785 84.789C39.3785 84.5915 39.3051 84.4286 39.1597 84.2992C39.0129 84.1697 38.8247 84.1057 38.5938 84.1057C38.3629 84.1057 38.1761 84.1697 38.0333 84.2992C37.8905 84.4286 37.8198 84.5981 37.8198 84.809V85.0532C37.8198 85.0879 37.8078 85.1159 37.7837 85.14C37.7597 85.164 37.7317 85.176 37.697 85.176H36.229C36.1943 85.176 36.1663 85.164 36.1423 85.14C36.1306 85.1288 36.1213 85.1153 36.1151 85.1004C36.1089 85.0854 36.1059 85.0694 36.1062 85.0532V84.5434C36.1329 84.1631 36.2597 83.8294 36.4839 83.5438C36.7081 83.2583 37.0044 83.0394 37.3714 82.8859C37.7384 82.7324 38.1467 82.6564 38.5952 82.6564C39.0983 82.6564 39.5387 82.7498 39.915 82.9366C40.2927 83.1235 40.581 83.377 40.7811 83.696C40.9813 84.0149 41.0814 84.3686 41.0814 84.7556C41.0814 85.0345 41.0133 85.3161 40.8772 85.6017C40.7411 85.8873 40.5369 86.1902 40.266 86.5092C40.0632 86.7536 39.849 86.9883 39.6241 87.2125C39.3865 87.4501 39.0569 87.7703 38.6352 88.1707L38.431 88.3642C38.4177 88.3776 38.4137 88.3909 38.4203 88.4056V88.4096ZM42.6001 89.3424C42.1517 88.9047 41.9275 88.3082 41.9275 87.5528V85.0652C41.9275 84.3179 42.1517 83.7293 42.6001 83.301C43.0485 82.8726 43.6638 82.659 44.4458 82.659C45.2278 82.659 45.8457 82.8752 46.3008 83.3063C46.7559 83.7374 46.9841 84.3246 46.9841 85.0652V87.5528C46.9841 88.3068 46.7559 88.9034 46.3008 89.3424C45.8457 89.7802 45.2265 90.0004 44.4458 90.0004C43.6651 90.0004 43.0499 89.7815 42.6001 89.3424ZM45.0624 88.3028C45.2158 88.1427 45.2919 87.9238 45.2919 87.6449V85.0052C45.2919 84.7263 45.2158 84.5074 45.0624 84.3472C44.9089 84.1871 44.7034 84.107 44.4458 84.107C44.1882 84.107 43.9934 84.1871 43.8439 84.3472C43.6944 84.5074 43.6197 84.7263 43.6197 85.0052V87.6449C43.6197 87.9238 43.6931 88.1427 43.8386 88.3028C43.984 88.463 44.1869 88.543 44.4445 88.543C44.702 88.543 44.9089 88.463 45.061 88.3028H45.0624ZM50.0309 88.4096C50.0375 88.4229 50.0509 88.4296 50.0722 88.4296H52.6719C52.7053 88.4296 52.7347 88.4416 52.7587 88.4656C52.7827 88.4897 52.7947 88.519 52.7947 88.5524V89.7548C52.7947 89.7895 52.7827 89.8175 52.7587 89.8416C52.7347 89.8656 52.7066 89.8776 52.6719 89.8776H47.8903C47.8556 89.8776 47.8275 89.8656 47.8035 89.8416C47.7918 89.8304 47.7826 89.8169 47.7764 89.802C47.7702 89.787 47.7672 89.771 47.7675 89.7548V88.6231C47.7675 88.5617 47.7875 88.511 47.8289 88.4696C48.2372 88.0893 48.7764 87.5421 49.4503 86.8282L50.0616 86.1862C50.6795 85.547 50.9891 85.0812 50.9891 84.789C50.9891 84.5915 50.9157 84.4286 50.7702 84.2992C50.6234 84.1697 50.4352 84.1057 50.2044 84.1057C49.9735 84.1057 49.7866 84.1697 49.6438 84.2992C49.5011 84.4286 49.4303 84.5981 49.4303 84.809V85.0532C49.4303 85.0879 49.4183 85.1159 49.3943 85.14C49.3703 85.164 49.3422 85.176 49.3075 85.176H47.8395C47.8048 85.176 47.7768 85.164 47.7528 85.14C47.7411 85.1288 47.7319 85.1153 47.7257 85.1004C47.7195 85.0854 47.7164 85.0694 47.7168 85.0532V84.5434C47.7435 84.1631 47.8702 83.8294 48.0944 83.5438C48.3186 83.2583 48.6149 83.0394 48.9819 82.8859C49.3489 82.7324 49.7573 82.6564 50.2057 82.6564C50.7088 82.6564 51.1492 82.7498 51.5256 82.9366C51.9032 83.1235 52.1915 83.377 52.3917 83.696C52.5919 84.0149 52.6919 84.3686 52.6919 84.7556C52.6919 85.0345 52.6239 85.3161 52.4878 85.6017C52.3516 85.8873 52.1475 86.1902 51.8765 86.5092C51.6738 86.7536 51.4596 86.9883 51.2346 87.2125C50.9971 87.4501 50.6674 87.7703 50.2457 88.1707L50.0415 88.3642C50.0282 88.3776 50.0242 88.3909 50.0309 88.4056V88.4096ZM58.217 87.5021C58.217 87.8691 58.1489 88.2121 58.0128 88.5324C57.8366 88.9741 57.547 89.3224 57.1467 89.5773C56.745 89.8322 56.2739 89.959 55.7294 89.959C55.1849 89.959 54.7298 89.8282 54.3228 89.5666C53.9144 89.3051 53.6195 88.9501 53.4353 88.5017C53.3259 88.2294 53.2618 87.9305 53.2418 87.6049C53.2418 87.5235 53.2832 87.4821 53.3646 87.4821H54.8326C54.914 87.4821 54.958 87.5235 54.9647 87.6049C54.978 87.7744 55.0194 87.9385 55.0875 88.0946C55.1422 88.2308 55.2236 88.3349 55.3317 88.4056C55.4398 88.4763 55.5692 88.5124 55.7187 88.5124C56.0043 88.5124 56.2178 88.3829 56.3606 88.1253C56.4554 87.9559 56.5034 87.7316 56.5034 87.4527C56.5034 87.1738 56.4554 86.9429 56.3606 86.7387C56.2178 86.4879 56.0003 86.3611 55.708 86.3611C55.6333 86.3611 55.5505 86.3864 55.4585 86.4371C55.3664 86.4879 55.2489 86.5639 55.1061 86.6667C55.0714 86.6867 55.0448 86.6974 55.0247 86.6974C54.9847 86.6974 54.954 86.6774 54.9327 86.636L54.2093 85.6164C54.1893 85.583 54.1786 85.555 54.1786 85.535C54.1786 85.4936 54.196 85.4643 54.2293 85.4429L55.7988 84.2498C55.8121 84.2365 55.8175 84.2231 55.8135 84.2084C55.8094 84.1951 55.7988 84.1884 55.7774 84.1884H53.5447C53.51 84.1884 53.482 84.1764 53.458 84.1524C53.4463 84.1412 53.4371 84.1277 53.4309 84.1128C53.4247 84.0979 53.4216 84.0818 53.4219 84.0657V82.8632C53.4219 82.8299 53.434 82.8005 53.458 82.7765C53.482 82.7525 53.51 82.7404 53.5447 82.7404H57.9901C58.0235 82.7404 58.0528 82.7525 58.0768 82.7765C58.1009 82.8005 58.1129 82.8299 58.1129 82.8632V84.2191C58.1129 84.2805 58.0889 84.3312 58.0408 84.3726L56.8077 85.3415C56.7943 85.3548 56.789 85.3682 56.793 85.3828C56.7957 85.3962 56.8077 85.4069 56.829 85.4135C57.3722 85.5563 57.7672 85.9033 58.0114 86.4532C58.1476 86.7788 58.2156 87.1298 58.2156 87.5034L58.217 87.5021Z" fill="#252530"/>
</g>
<defs>
<clipPath id="clip0_633_14665">
<rect width="94" height="106.764" fill="white" transform="translate(0.161621)"/>
</clipPath>
</defs>
</svg>
