<svg width="94" height="107" viewBox="0 0 94 107" fill="none" xmlns="http://www.w3.org/2000/svg">
<g clip-path="url(#clip0_633_14744)">
<path d="M89.0862 85.1555L47 106.743L4.91382 85.1555V-0.0205078H89.0862V85.1555Z" fill="#F8F8F8"/>
<path d="M5.01257 -0.0205078V85.1555L89.185 -0.0205078H5.01257Z" fill="white"/>
<path d="M88.2855 0.780219V84.667L47 105.844L5.71455 84.667V0.780219H88.2855ZM89.0862 -0.0205078H4.91382V85.1555L47 106.743L89.0862 85.1555V-0.0205078Z" fill="#DCDFDD"/>
<path d="M56.7061 15.208L46.9159 20.8971L37.2938 15.208V-0.0205078H56.7061V15.208Z" fill="#FF3100"/>
<path d="M51.6749 7.51306H49.8519C49.9013 7.22613 50.0775 7.06732 50.4365 6.88449L50.7728 6.71367C51.3733 6.40539 51.6923 6.0584 51.6923 5.49122C51.6923 5.13356 51.5548 4.85198 51.2786 4.64779C51.009 4.44361 50.678 4.34485 50.2977 4.34485C49.9947 4.34485 49.7198 4.42225 49.4662 4.58106C49.218 4.73587 49.0312 4.93338 48.9151 5.18161L49.4436 5.71009C49.6477 5.29638 49.9453 5.09353 50.3364 5.09353C50.6673 5.09353 50.8702 5.26435 50.8702 5.50056C50.8702 5.69941 50.7714 5.86356 50.3911 6.05707L50.1762 6.16116C49.7078 6.39738 49.3822 6.66829 49.1953 6.97657C49.0085 7.27951 48.9137 7.67053 48.9137 8.13896V8.26574H51.6736V7.51039L51.6749 7.51306ZM51.4307 9.13987H48.4106L46.9012 11.7542H49.9213L51.4307 14.3699L52.9414 11.7542L51.4307 9.13987Z" fill="white"/>
<path d="M47.1615 13.4985C45.2384 13.4985 43.6743 11.9344 43.6743 10.0113C43.6743 8.08824 45.2384 6.52415 47.1615 6.52415L48.3559 4.02589C47.9702 3.94982 47.5712 3.90845 47.1615 3.90845C43.7918 3.90845 41.0599 6.64026 41.0599 10.01C41.0599 13.3797 43.7918 16.1115 47.1615 16.1115C48.5054 16.1115 49.7465 15.6765 50.7554 14.9411L49.4329 12.651C48.8216 13.1769 48.0289 13.4958 47.1615 13.4958V13.4985Z" fill="white"/>
<path d="M91.0106 66.927H2.98938L0 59.4536L2.98938 51.9801H91.0106L94 59.4536L91.0106 66.927Z" fill="#FF3100"/>
<path d="M18.5741 75.7055C18.5741 75.7162 18.5808 75.7242 18.5942 75.7309C18.8984 75.891 19.0506 76.1619 19.0506 76.541C19.0506 76.8826 18.9331 77.1375 18.6969 77.3043C18.4607 77.4711 18.1524 77.5552 17.7694 77.5552H16.4375C16.4095 77.5552 16.3882 77.5472 16.3708 77.5298C16.3622 77.5211 16.3555 77.5106 16.3511 77.4992C16.3467 77.4877 16.3448 77.4754 16.3455 77.4631V74.06C16.3455 74.0333 16.3535 74.0107 16.3708 73.9933C16.3882 73.976 16.4095 73.9679 16.4375 73.9679H17.7294C18.1458 73.9679 18.4607 74.0467 18.6742 74.2042C18.8878 74.3616 18.9945 74.6165 18.9945 74.9675C18.9945 75.3185 18.8611 75.54 18.5942 75.6802C18.5808 75.6868 18.5741 75.6962 18.5741 75.7055ZM17.1956 74.7313V75.3572C17.1956 75.3812 17.2076 75.3932 17.2316 75.3932H17.728C17.8682 75.3932 17.9763 75.3639 18.051 75.3038C18.1257 75.2438 18.1631 75.1597 18.1631 75.0503C18.1631 74.9408 18.1257 74.8501 18.051 74.7887C17.9763 74.7273 17.8682 74.6966 17.728 74.6966H17.2316C17.2076 74.6966 17.1956 74.7086 17.1956 74.7326V74.7313ZM18.087 76.7278C18.1618 76.6651 18.1991 76.573 18.1991 76.4542C18.1991 76.3354 18.1618 76.2487 18.0884 76.1846C18.015 76.1219 17.9082 76.0899 17.7681 76.0899H17.2303C17.2062 76.0899 17.1942 76.1019 17.1942 76.1259V76.7865C17.1942 76.8105 17.2062 76.8225 17.2303 76.8225H17.7681C17.9042 76.8225 18.011 76.7905 18.0857 76.7278H18.087ZM22.1574 74.6699C22.1401 74.6873 22.1187 74.6953 22.0907 74.6953H20.5226C20.4986 74.6953 20.4865 74.7073 20.4865 74.7313V75.3412C20.4865 75.3652 20.4986 75.3772 20.5226 75.3772H21.5115C21.5395 75.3772 21.5609 75.3852 21.5782 75.4026C21.5956 75.4199 21.6036 75.4413 21.6036 75.4693V76.0071C21.6036 76.0352 21.5956 76.0565 21.5782 76.0739C21.5609 76.0912 21.5395 76.0992 21.5115 76.0992H20.5226C20.4986 76.0992 20.4865 76.1112 20.4865 76.1353V76.7918C20.4865 76.8159 20.4986 76.8279 20.5226 76.8279H22.0907C22.1174 76.8279 22.1401 76.8359 22.1574 76.8532C22.1747 76.8706 22.1828 76.8919 22.1828 76.92V77.4631C22.1828 77.4911 22.1747 77.5125 22.1574 77.5298C22.1401 77.5472 22.1187 77.5552 22.0907 77.5552H19.7285C19.7005 77.5552 19.6792 77.5472 19.6618 77.5298C19.6532 77.5211 19.6465 77.5106 19.6421 77.4992C19.6377 77.4877 19.6358 77.4754 19.6364 77.4631V74.06C19.6364 74.0333 19.6445 74.0107 19.6618 73.9933C19.6792 73.976 19.7005 73.9679 19.7285 73.9679H22.0907C22.1174 73.9679 22.1401 73.976 22.1574 73.9933C22.1747 74.0107 22.1828 74.032 22.1828 74.06V74.6032C22.1828 74.6312 22.1747 74.6526 22.1574 74.6699ZM23.2824 77.4605C23.0756 77.3697 22.9154 77.2403 22.8033 77.0708C22.6912 76.9013 22.6338 76.7064 22.6338 76.4836V76.4168C22.6338 76.3902 22.6418 76.3675 22.6592 76.3501C22.6765 76.3328 22.6979 76.3248 22.7259 76.3248H23.3772C23.4052 76.3248 23.4266 76.3314 23.4439 76.3421C23.4613 76.3541 23.4693 76.3688 23.4693 76.3862V76.4475C23.4693 76.557 23.5253 76.6544 23.6361 76.7398C23.7468 76.8252 23.8896 76.8679 24.0645 76.8679C24.2153 76.8679 24.326 76.8359 24.3981 76.7705C24.4702 76.7051 24.5062 76.6304 24.5062 76.545C24.5062 76.4489 24.4648 76.3755 24.3808 76.3248C24.2967 76.274 24.1472 76.214 23.9323 76.1459L23.8202 76.1099C23.6014 76.0378 23.4105 75.9604 23.2464 75.8764C23.0822 75.7923 22.9421 75.6762 22.826 75.528C22.7099 75.3799 22.6512 75.1957 22.6512 74.9769C22.6512 74.758 22.7072 74.5792 22.818 74.4204C22.9288 74.2615 23.0822 74.1388 23.2798 74.0534C23.4759 73.9679 23.6988 73.9252 23.9484 73.9252C24.2113 73.9252 24.4475 73.9733 24.6583 74.0694C24.8679 74.1655 25.0333 74.3003 25.1535 74.4737C25.2736 74.6486 25.3323 74.8474 25.3323 75.073V75.1143C25.3323 75.1424 25.3243 75.1637 25.3069 75.1811C25.2896 75.1984 25.2682 75.2064 25.2402 75.2064H24.5889C24.5609 75.2064 24.5396 75.2024 24.5222 75.1931C24.5145 75.19 24.5079 75.1847 24.5034 75.1777C24.4988 75.1708 24.4966 75.1626 24.4969 75.1544V75.1077C24.4969 74.9875 24.4435 74.8821 24.338 74.79C24.2326 74.6979 24.0898 74.6512 23.9123 74.6512C23.7789 74.6512 23.6748 74.6793 23.6 74.7326C23.5253 74.7874 23.4879 74.8648 23.4879 74.9635C23.4879 75.0383 23.512 75.101 23.56 75.1504C23.608 75.1997 23.6828 75.2464 23.7829 75.2892C23.883 75.3319 24.0378 75.3879 24.2473 75.456C24.4862 75.5374 24.673 75.6094 24.8065 75.6708C24.9399 75.7322 25.0654 75.8323 25.1828 75.9711C25.3003 76.1099 25.3603 76.2914 25.3603 76.5169C25.3603 76.7425 25.3043 76.9213 25.1908 77.0828C25.0787 77.2456 24.9186 77.371 24.7144 77.4591C24.5089 77.5485 24.274 77.5926 24.0071 77.5926C23.7402 77.5926 23.4933 77.5472 23.2864 77.4564L23.2824 77.4605ZM28.5072 73.9933C28.5245 74.0107 28.5325 74.032 28.5325 74.06V74.6085C28.5325 74.6366 28.5245 74.6579 28.5072 74.6753C28.4898 74.6926 28.4685 74.7006 28.4404 74.7006H27.585C27.561 74.7006 27.549 74.7126 27.549 74.7366V77.4631C27.549 77.4911 27.541 77.5125 27.5236 77.5298C27.5063 77.5472 27.4849 77.5552 27.4569 77.5552H26.7909C26.7629 77.5552 26.7416 77.5472 26.7242 77.5298C26.7156 77.5211 26.7089 77.5106 26.7045 77.4992C26.7001 77.4877 26.6982 77.4754 26.6989 77.4631V74.7366C26.6989 74.7126 26.6868 74.7006 26.6628 74.7006H25.8381C25.81 74.7006 25.7887 74.6926 25.7713 74.6753C25.7627 74.6665 25.756 74.6561 25.7516 74.6446C25.7473 74.6331 25.7454 74.6208 25.746 74.6085V74.06C25.746 74.0333 25.754 74.0107 25.7713 73.9933C25.7887 73.976 25.81 73.9679 25.8381 73.9679H28.4418C28.4698 73.9679 28.4912 73.976 28.5085 73.9933H28.5072ZM30.7439 77.4605C30.537 77.3697 30.3769 77.2403 30.2648 77.0708C30.1527 76.9013 30.0953 76.7064 30.0953 76.4836V76.4168C30.0953 76.3902 30.1033 76.3675 30.1206 76.3501C30.138 76.3328 30.1593 76.3248 30.1874 76.3248H30.8386C30.8666 76.3248 30.888 76.3314 30.9053 76.3421C30.9227 76.3541 30.9307 76.3688 30.9307 76.3862V76.4475C30.9307 76.557 30.9868 76.6544 31.0975 76.7398C31.2083 76.8252 31.3511 76.8679 31.5259 76.8679C31.6767 76.8679 31.7875 76.8359 31.8595 76.7705C31.9316 76.7051 31.9676 76.6304 31.9676 76.545C31.9676 76.4489 31.9263 76.3755 31.8422 76.3248C31.7581 76.274 31.6086 76.214 31.3938 76.1459L31.2817 76.1099C31.0628 76.0378 30.872 75.9604 30.7078 75.8764C30.5437 75.7923 30.4036 75.6762 30.2874 75.528C30.1713 75.3799 30.1126 75.1957 30.1126 74.9769C30.1126 74.758 30.1687 74.5792 30.2794 74.4204C30.3902 74.2615 30.5437 74.1388 30.7412 74.0534C30.9374 73.9679 31.1602 73.9252 31.4098 73.9252C31.6727 73.9252 31.9089 73.9733 32.1198 74.0694C32.3293 74.1655 32.4948 74.3003 32.6149 74.4737C32.735 74.6486 32.7937 74.8474 32.7937 75.073V75.1143C32.7937 75.1424 32.7857 75.1637 32.7684 75.1811C32.751 75.1984 32.7297 75.2064 32.7016 75.2064H32.0504C32.0224 75.2064 32.001 75.2024 31.9837 75.1931C31.9759 75.19 31.9694 75.1847 31.9648 75.1777C31.9603 75.1708 31.958 75.1626 31.9583 75.1544V75.1077C31.9583 74.9875 31.9049 74.8821 31.7995 74.79C31.6941 74.6979 31.5513 74.6512 31.3738 74.6512C31.2403 74.6512 31.1362 74.6793 31.0615 74.7326C30.9867 74.7874 30.9494 74.8648 30.9494 74.9635C30.9494 75.0383 30.9734 75.101 31.0214 75.1504C31.0695 75.1997 31.1442 75.2464 31.2443 75.2892C31.3444 75.3319 31.4992 75.3879 31.7087 75.456C31.9476 75.5374 32.1345 75.6094 32.2679 75.6708C32.4014 75.7322 32.5268 75.8323 32.6443 75.9711C32.7617 76.1099 32.8217 76.2914 32.8217 76.5169C32.8217 76.7425 32.7657 76.9213 32.6523 77.0828C32.5402 77.2456 32.38 77.371 32.1758 77.4591C31.9703 77.5485 31.7354 77.5926 31.4685 77.5926C31.2016 77.5926 30.9547 77.5472 30.7479 77.4564L30.7439 77.4605ZM33.9668 77.4458C33.7559 77.335 33.5931 77.1789 33.477 76.9774C33.3609 76.7758 33.3022 76.5423 33.3022 76.2754V75.2505C33.3022 74.9902 33.3609 74.7607 33.477 74.5618C33.5931 74.363 33.7559 74.2068 33.9668 74.0961C34.1763 73.9853 34.4205 73.9292 34.6968 73.9292C34.973 73.9292 35.2173 73.9853 35.4295 74.0961C35.6416 74.2068 35.8058 74.363 35.9219 74.5618C36.038 74.7607 36.0967 74.9915 36.0967 75.2505V76.2754C36.0967 76.5423 36.038 76.7758 35.9219 76.9774C35.8058 77.1789 35.6416 77.335 35.4295 77.4458C35.2173 77.5565 34.973 77.6126 34.6968 77.6126C34.4205 77.6126 34.1763 77.5565 33.9668 77.4458ZM35.0945 76.7251C35.1946 76.6197 35.2453 76.4769 35.2453 76.2994V75.2384C35.2453 75.0636 35.1946 74.9235 35.0945 74.8154C34.9931 74.7073 34.8609 74.6539 34.6968 74.6539C34.5326 74.6539 34.4059 74.7073 34.3044 74.8154C34.203 74.9235 34.1536 75.0636 34.1536 75.2384V76.2994C34.1536 76.4769 34.2043 76.6184 34.3044 76.7251C34.4045 76.8306 34.5353 76.8839 34.6968 76.8839C34.8583 76.8839 34.9931 76.8306 35.0945 76.7251ZM39.1862 74.6699C39.1688 74.6873 39.1475 74.6953 39.1195 74.6953H37.5567C37.5327 74.6953 37.5207 74.7073 37.5207 74.7313V75.3412C37.5207 75.3652 37.5327 75.3772 37.5567 75.3772H38.5456C38.5736 75.3772 38.595 75.3852 38.6123 75.4026C38.6297 75.4199 38.6377 75.4413 38.6377 75.4693V76.0071C38.6377 76.0352 38.6297 76.0565 38.6123 76.0739C38.595 76.0912 38.5736 76.0992 38.5456 76.0992H37.5567C37.5327 76.0992 37.5207 76.1112 37.5207 76.1353V77.4631C37.5207 77.4911 37.5127 77.5125 37.4953 77.5298C37.478 77.5472 37.4566 77.5552 37.4286 77.5552H36.7627C36.7346 77.5552 36.7133 77.5472 36.6959 77.5298C36.6873 77.5211 36.6806 77.5106 36.6762 77.4992C36.6719 77.4877 36.6699 77.4754 36.6706 77.4631V74.06C36.6706 74.0333 36.6786 74.0107 36.6959 73.9933C36.7133 73.976 36.7346 73.9679 36.7627 73.9679H39.1195C39.1475 73.9679 39.1688 73.976 39.1862 73.9933C39.2035 74.0107 39.2116 74.032 39.2116 74.06V74.6032C39.2116 74.6312 39.2035 74.6526 39.1862 74.6699ZM42.2823 73.9933C42.2997 74.0107 42.3077 74.032 42.3077 74.06V74.6085C42.3077 74.6366 42.2997 74.6579 42.2823 74.6753C42.265 74.6926 42.2436 74.7006 42.2156 74.7006H41.3602C41.3361 74.7006 41.3241 74.7126 41.3241 74.7366V77.4631C41.3241 77.4911 41.3161 77.5125 41.2988 77.5298C41.2814 77.5472 41.2601 77.5552 41.232 77.5552H40.5661C40.5381 77.5552 40.5167 77.5472 40.4994 77.5298C40.4908 77.5211 40.484 77.5106 40.4797 77.4992C40.4753 77.4877 40.4734 77.4754 40.474 77.4631V74.7366C40.474 74.7126 40.462 74.7006 40.438 74.7006H39.6132C39.5852 74.7006 39.5639 74.6926 39.5465 74.6753C39.5379 74.6665 39.5312 74.6561 39.5268 74.6446C39.5224 74.6331 39.5205 74.6208 39.5212 74.6085V74.06C39.5212 74.0333 39.5292 74.0107 39.5465 73.9933C39.5639 73.976 39.5852 73.9679 39.6132 73.9679H42.2169C42.245 73.9679 42.2663 73.976 42.2837 73.9933H42.2823ZM43.5115 77.4791L42.5733 74.0707C42.569 74.0611 42.5671 74.0505 42.5679 74.04C42.5679 73.992 42.5946 73.9679 42.6493 73.9679H43.3673C43.3953 73.9679 43.418 73.976 43.4367 73.9906C43.4554 74.0053 43.4661 74.0253 43.4701 74.0494L43.9011 75.859C43.9078 75.8723 43.9158 75.879 43.9238 75.879C43.9318 75.879 43.9385 75.8723 43.9412 75.859L44.3562 74.0494C44.3669 73.9946 44.4003 73.9679 44.459 73.9679H45.0689C45.1236 73.9679 45.1583 73.996 45.1716 74.0494L45.6227 75.859C45.6294 75.8723 45.6374 75.879 45.6454 75.879C45.6534 75.879 45.6601 75.8723 45.6627 75.859L46.0631 74.0494C46.0663 74.0262 46.0782 74.0052 46.0965 73.9906C46.1152 73.9746 46.1378 73.9679 46.1659 73.9679H46.8625C46.8932 73.9679 46.9159 73.976 46.9319 73.9933C46.9479 74.0107 46.9519 74.036 46.9452 74.0707L46.0938 77.4738C46.0805 77.5285 46.0458 77.5552 45.991 77.5552H45.3091C45.2811 77.5552 45.2584 77.5472 45.2397 77.5325C45.2217 77.5177 45.2098 77.4968 45.2063 77.4738L44.7753 75.5521C44.7713 75.5347 44.7646 75.5267 44.7552 75.5267C44.7459 75.5267 44.7379 75.5347 44.7352 75.5521L44.3455 77.4738C44.3349 77.5285 44.3028 77.5552 44.2481 77.5552H43.6129C43.5582 77.5552 43.5235 77.5299 43.5101 77.4778L43.5115 77.4791ZM49.0832 77.4791L48.9657 77.0588C48.9617 77.0387 48.9484 77.0281 48.9244 77.0281H47.766C47.746 77.0281 47.7313 77.0387 47.7246 77.0588L47.6072 77.4791C47.5938 77.5298 47.5591 77.5565 47.5044 77.5565H46.7824C46.7477 77.5565 46.7237 77.5472 46.7104 77.5285C46.697 77.5098 46.6943 77.4845 46.705 77.4538L47.7807 74.0454C47.798 73.9946 47.834 73.9679 47.8888 73.9679H48.7963C48.855 73.9679 48.8897 73.9933 48.9044 74.0454L49.9853 77.4538C49.9893 77.4605 49.9907 77.4725 49.9907 77.4898C49.9907 77.5339 49.9626 77.5565 49.9093 77.5565H49.1859C49.1312 77.5565 49.0965 77.5312 49.0832 77.4791ZM47.9355 76.3408C47.9355 76.3608 47.9461 76.3715 47.9662 76.3715H48.7242C48.7375 76.3715 48.7469 76.3675 48.7522 76.3581C48.7576 76.3501 48.7575 76.3408 48.7549 76.3301L48.3652 74.9675C48.3612 74.9502 48.3559 74.9422 48.3478 74.9422C48.3398 74.9422 48.3318 74.9502 48.3252 74.9675L47.9355 76.3301V76.3408ZM52.3421 77.4831L51.7469 76.1513C51.7403 76.1339 51.7269 76.1259 51.7056 76.1259H51.3879C51.3639 76.1259 51.3519 76.1379 51.3519 76.1619V77.4631C51.3519 77.4911 51.3439 77.5125 51.3266 77.5298C51.3092 77.5472 51.2879 77.5552 51.2598 77.5552H50.5939C50.5659 77.5552 50.5445 77.5472 50.5272 77.5298C50.5185 77.5211 50.5118 77.5106 50.5075 77.4992C50.5031 77.4877 50.5012 77.4754 50.5018 77.4631V74.06C50.5018 74.0333 50.5098 74.0107 50.5272 73.9933C50.5445 73.976 50.5659 73.9679 50.5939 73.9679H52.0846C52.3101 73.9679 52.5076 74.0147 52.6784 74.1067C52.8493 74.1988 52.9814 74.3296 53.0761 74.4991C53.1696 74.6686 53.2176 74.8621 53.2176 75.081C53.2176 75.2998 53.1615 75.5027 53.0508 75.6708C52.94 75.8376 52.7852 75.9591 52.5864 76.0352C52.5623 76.0458 52.5557 76.0632 52.5663 76.0859L53.2229 77.4484L53.2336 77.4898C53.2336 77.5339 53.2056 77.5565 53.1522 77.5565H52.4502C52.3995 77.5565 52.3635 77.5325 52.3421 77.4845V77.4831ZM51.3532 74.7313V75.4386C51.3532 75.4626 51.3653 75.4747 51.3893 75.4747H51.9485C52.0752 75.4747 52.1767 75.44 52.2554 75.3692C52.3341 75.2998 52.3728 75.2064 52.3728 75.0903C52.3728 74.9742 52.3341 74.8754 52.2554 74.8034C52.1767 74.7313 52.0739 74.6953 51.9485 74.6953H51.3893C51.3653 74.6953 51.3532 74.7073 51.3532 74.7313ZM56.2977 74.6699C56.2804 74.6873 56.259 74.6953 56.231 74.6953H54.6629C54.6389 74.6953 54.6269 74.7073 54.6269 74.7313V75.3412C54.6269 75.3652 54.6389 75.3772 54.6629 75.3772H55.6518C55.6798 75.3772 55.7012 75.3852 55.7185 75.4026C55.7359 75.4199 55.7439 75.4413 55.7439 75.4693V76.0071C55.7439 76.0352 55.7359 76.0565 55.7185 76.0739C55.7012 76.0912 55.6798 76.0992 55.6518 76.0992H54.6629C54.6389 76.0992 54.6269 76.1112 54.6269 76.1353V76.7918C54.6269 76.8159 54.6389 76.8279 54.6629 76.8279H56.231C56.2577 76.8279 56.2804 76.8359 56.2977 76.8532C56.3151 76.8706 56.3231 76.8919 56.3231 76.92V77.4631C56.3231 77.4911 56.3151 77.5125 56.2977 77.5298C56.2804 77.5472 56.259 77.5552 56.231 77.5552H53.8689C53.8408 77.5552 53.8195 77.5472 53.8021 77.5298C53.7935 77.5211 53.7868 77.5106 53.7824 77.4992C53.7781 77.4877 53.7761 77.4754 53.7768 77.4631V74.06C53.7768 74.0333 53.7848 74.0107 53.8021 73.9933C53.8195 73.976 53.8408 73.9679 53.8689 73.9679H56.231C56.2577 73.9679 56.2804 73.976 56.2977 73.9933C56.3151 74.0107 56.3231 74.032 56.3231 74.06V74.6032C56.3231 74.6312 56.3151 74.6526 56.2977 74.6699ZM60.28 77.4791L60.1626 77.0588C60.1586 77.0387 60.1452 77.0281 60.1212 77.0281H58.9628C58.9428 77.0281 58.9281 77.0387 58.9214 77.0588L58.804 77.4791C58.7907 77.5298 58.756 77.5565 58.7012 77.5565H57.9793C57.9446 77.5565 57.9205 77.5472 57.9072 77.5285C57.8938 77.5098 57.8912 77.4845 57.9019 77.4538L58.9775 74.0454C58.9948 73.9946 59.0309 73.9679 59.0856 73.9679H59.9931C60.0518 73.9679 60.0865 73.9933 60.1012 74.0454L61.1822 77.4538C61.1862 77.4605 61.1875 77.4725 61.1875 77.4898C61.1875 77.5339 61.1595 77.5565 61.1061 77.5565H60.3828C60.3281 77.5565 60.2934 77.5312 60.28 77.4791ZM59.1323 76.3408C59.1323 76.3608 59.143 76.3715 59.163 76.3715H59.921C59.9344 76.3715 59.9437 76.3675 59.949 76.3581C59.9544 76.3501 59.9544 76.3408 59.9517 76.3301L59.562 74.9675C59.558 74.9502 59.5527 74.9422 59.5447 74.9422C59.5367 74.9422 59.5287 74.9502 59.522 74.9675L59.1323 76.3301V76.3408ZM61.7453 77.4791L60.8072 74.0707C60.8029 74.0611 60.801 74.0505 60.8018 74.04C60.8018 73.992 60.8285 73.9679 60.8832 73.9679H61.6012C61.6292 73.9679 61.6519 73.976 61.6706 73.9906C61.6893 74.0053 61.7 74.0253 61.704 74.0494L62.135 75.859C62.1417 75.8723 62.1497 75.879 62.1577 75.879C62.1657 75.879 62.1724 75.8723 62.1751 75.859L62.5901 74.0494C62.6008 73.9946 62.6342 73.9679 62.6929 73.9679H63.3028C63.3575 73.9679 63.3922 73.996 63.4055 74.0494L63.8566 75.859C63.8633 75.8723 63.8713 75.879 63.8793 75.879C63.8873 75.879 63.894 75.8723 63.8966 75.859L64.297 74.0494C64.3001 74.0262 64.3121 74.0052 64.3304 73.9906C64.349 73.9746 64.3717 73.9679 64.3998 73.9679H65.0964C65.1271 73.9679 65.1498 73.976 65.1658 73.9933C65.1818 74.0107 65.1858 74.036 65.1791 74.0707L64.3277 77.4738C64.3143 77.5285 64.2796 77.5552 64.2249 77.5552H63.543C63.515 77.5552 63.4923 77.5472 63.4736 77.5325C63.4556 77.5177 63.4437 77.4968 63.4402 77.4738L63.0092 75.5521C63.0052 75.5347 62.9985 75.5267 62.9891 75.5267C62.9798 75.5267 62.9718 75.5347 62.9691 75.5521L62.5794 77.4738C62.5688 77.5285 62.5367 77.5552 62.482 77.5552H61.8468C61.7921 77.5552 61.7574 77.5299 61.744 77.4778L61.7453 77.4791ZM67.3157 77.4791L67.1983 77.0588C67.1943 77.0387 67.1809 77.0281 67.1569 77.0281H65.9985C65.9785 77.0281 65.9638 77.0387 65.9572 77.0588L65.8397 77.4791C65.8264 77.5298 65.7917 77.5565 65.737 77.5565H65.015C64.9803 77.5565 64.9563 77.5472 64.9429 77.5285C64.9296 77.5098 64.9269 77.4845 64.9376 77.4538L66.0132 74.0454C66.0306 73.9946 66.0666 73.9679 66.1213 73.9679H67.0288C67.0875 73.9679 67.1222 73.9933 67.1369 74.0454L68.2179 77.4538C68.2219 77.4605 68.2232 77.4725 68.2232 77.4898C68.2232 77.5339 68.1952 77.5565 68.1418 77.5565H67.4185C67.3638 77.5565 67.3291 77.5312 67.3157 77.4791ZM66.168 76.3408C66.168 76.3608 66.1787 76.3715 66.1987 76.3715H66.9567C66.9701 76.3715 66.9794 76.3675 66.9848 76.3581C66.9901 76.3501 66.9901 76.3408 66.9874 76.3301L66.5978 74.9675C66.5937 74.9502 66.5884 74.9422 66.5804 74.9422C66.5724 74.9422 66.5644 74.9502 66.5577 74.9675L66.168 76.3301V76.3408ZM70.576 77.4831L69.9808 76.1513C69.9741 76.1339 69.9608 76.1259 69.9395 76.1259H69.6218C69.5978 76.1259 69.5858 76.1379 69.5858 76.1619V77.4631C69.5858 77.4911 69.5778 77.5125 69.5604 77.5298C69.5431 77.5472 69.5217 77.5552 69.4937 77.5552H68.8278C68.7997 77.5552 68.7784 77.5472 68.761 77.5298C68.7524 77.5211 68.7457 77.5106 68.7413 77.4992C68.737 77.4877 68.7351 77.4754 68.7357 77.4631V74.06C68.7357 74.0333 68.7437 74.0107 68.761 73.9933C68.7784 73.976 68.7997 73.9679 68.8278 73.9679H70.3185C70.544 73.9679 70.7415 74.0147 70.9123 74.1067C71.0832 74.1988 71.2153 74.3296 71.31 74.4991C71.4035 74.6686 71.4515 74.8621 71.4515 75.081C71.4515 75.2998 71.3954 75.5027 71.2847 75.6708C71.1739 75.8376 71.0191 75.9591 70.8202 76.0352C70.7962 76.0458 70.7896 76.0632 70.8002 76.0859L71.4568 77.4484L71.4675 77.4898C71.4675 77.5339 71.4395 77.5565 71.3861 77.5565H70.6841C70.6334 77.5565 70.5974 77.5325 70.576 77.4845V77.4831ZM69.5871 74.7313V75.4386C69.5871 75.4626 69.5991 75.4747 69.6232 75.4747H70.1823C70.3091 75.4747 70.4105 75.44 70.4893 75.3692C70.568 75.2998 70.6067 75.2064 70.6067 75.0903C70.6067 74.9742 70.568 74.8754 70.4893 74.8034C70.4105 74.7313 70.3078 74.6953 70.1823 74.6953H69.6232C69.5991 74.6953 69.5871 74.7073 69.5871 74.7313ZM72.036 77.5298C72.0274 77.5211 72.0207 77.5106 72.0163 77.4992C72.0119 77.4877 72.01 77.4754 72.0107 77.4631V74.06C72.0107 74.0333 72.0187 74.0107 72.036 73.9933C72.0534 73.976 72.0747 73.9679 72.1028 73.9679H73.3786C73.6455 73.9679 73.8804 74.0147 74.0859 74.1067C74.2914 74.1988 74.4502 74.3309 74.5623 74.5018C74.6744 74.6726 74.7318 74.8688 74.7318 75.0916V76.4342C74.7318 76.6557 74.6758 76.8532 74.5623 77.0241C74.4502 77.1949 74.2901 77.327 74.0859 77.4191C73.8804 77.5112 73.6455 77.5579 73.3786 77.5579H72.1028C72.0747 77.5579 72.0534 77.5499 72.036 77.5325V77.5298ZM72.8968 76.8279H73.4146C73.5507 76.8279 73.6628 76.7798 73.7482 76.6824C73.8337 76.585 73.8777 76.4542 73.8817 76.2901V75.2344C73.8817 75.0703 73.8377 74.9395 73.7509 74.8421C73.6642 74.7447 73.5507 74.6966 73.4106 74.6966H72.8981C72.8741 74.6966 72.8621 74.7086 72.8621 74.7326V76.7932C72.8621 76.8172 72.8741 76.8292 72.8981 76.8292L72.8968 76.8279ZM75.8675 77.4605C75.6606 77.3697 75.5005 77.2403 75.3884 77.0708C75.2763 76.9013 75.2189 76.7064 75.2189 76.4836V76.4168C75.2189 76.3902 75.2269 76.3675 75.2443 76.3501C75.2616 76.3328 75.283 76.3248 75.311 76.3248H75.9623C75.9903 76.3248 76.0116 76.3314 76.029 76.3421C76.0463 76.3541 76.0543 76.3688 76.0543 76.3862V76.4475C76.0543 76.557 76.1104 76.6544 76.2212 76.7398C76.3319 76.8252 76.4747 76.8679 76.6495 76.8679C76.8003 76.8679 76.9111 76.8359 76.9832 76.7705C77.0552 76.7051 77.0913 76.6304 77.0913 76.545C77.0913 76.4489 77.0499 76.3755 76.9658 76.3248C76.8818 76.274 76.7323 76.214 76.5174 76.1459L76.4053 76.1099C76.1865 76.0378 75.9956 75.9604 75.8315 75.8764C75.6673 75.7923 75.5272 75.6762 75.4111 75.528C75.295 75.3799 75.2363 75.1957 75.2363 74.9769C75.2363 74.758 75.2923 74.5792 75.4031 74.4204C75.5138 74.2615 75.6673 74.1388 75.8648 74.0534C76.061 73.9679 76.2839 73.9252 76.5334 73.9252C76.7963 73.9252 77.0326 73.9733 77.2434 74.0694C77.4529 74.1655 77.6184 74.3003 77.7385 74.4737C77.8586 74.6486 77.9174 74.8474 77.9174 75.073V75.1143C77.9174 75.1424 77.9094 75.1637 77.892 75.1811C77.8747 75.1984 77.8533 75.2064 77.8253 75.2064H77.174C77.146 75.2064 77.1246 75.2024 77.1073 75.1931C77.0996 75.19 77.093 75.1847 77.0885 75.1777C77.0839 75.1708 77.0816 75.1626 77.0819 75.1544V75.1077C77.0819 74.9875 77.0286 74.8821 76.9231 74.79C76.8177 74.6979 76.6749 74.6512 76.4974 74.6512C76.364 74.6512 76.2599 74.6793 76.1851 74.7326C76.1104 74.7874 76.073 74.8648 76.073 74.9635C76.073 75.0383 76.097 75.101 76.1451 75.1504C76.1931 75.1997 76.2679 75.2464 76.368 75.2892C76.468 75.3319 76.6228 75.3879 76.8324 75.456C77.0713 75.5374 77.2581 75.6094 77.3915 75.6708C77.525 75.7322 77.6504 75.8323 77.7679 75.9711C77.8853 76.1099 77.9454 76.2914 77.9454 76.5169C77.9454 76.7425 77.8893 76.9213 77.7759 77.0828C77.6638 77.2456 77.5036 77.371 77.2995 77.4591C77.0939 77.5485 76.8591 77.5926 76.5922 77.5926C76.3252 77.5926 76.0784 77.5472 75.8715 77.4564L75.8675 77.4605ZM27.4676 32.2207C27.5276 32.2808 27.557 32.3582 27.557 32.4543V34.3733C27.557 34.4694 27.5276 34.5468 27.4676 34.6069C27.4075 34.6669 27.3301 34.6963 27.234 34.6963H24.238C24.1539 34.6963 24.1125 34.739 24.1125 34.8218V44.3637C24.1125 44.4598 24.0831 44.5372 24.0231 44.5973C23.963 44.6573 23.8856 44.6867 23.7895 44.6867H21.4581C21.362 44.6867 21.2846 44.6573 21.2246 44.5973C21.1645 44.5372 21.1351 44.4598 21.1351 44.3637V34.8218C21.1351 34.7377 21.0924 34.6963 21.0097 34.6963H18.1217C18.0256 34.6963 17.9482 34.6669 17.8882 34.6069C17.8281 34.5468 17.7988 34.4694 17.7988 34.3733V32.4543C17.7988 32.3582 17.8281 32.2808 17.8882 32.2207C17.9482 32.1607 18.0256 32.1313 18.1217 32.1313H27.234C27.3301 32.1313 27.4075 32.1607 27.4676 32.2207ZM28.642 43.9687C27.8946 43.3949 27.3888 42.6182 27.1259 41.6373C26.9818 41.1475 26.911 40.6083 26.911 40.0225C26.911 39.4366 26.9885 38.8454 27.1446 38.2822C27.4195 37.3374 27.9306 36.5994 28.678 36.0669C29.4253 35.5344 30.3315 35.2688 31.3951 35.2688C32.4588 35.2688 33.3382 35.5357 34.0682 36.0669C34.7969 36.5994 35.3053 37.332 35.5923 38.2635C35.7591 38.8014 35.8432 39.3752 35.8432 39.9851C35.8432 40.5349 35.7778 41.0608 35.6456 41.5639C35.3948 42.5688 34.8916 43.3642 34.1389 43.95C33.3849 44.5359 32.4641 44.8295 31.3764 44.8295C30.2888 44.8295 29.388 44.5426 28.6406 43.9687H28.642ZM32.2479 41.9509C32.4814 41.7294 32.6456 41.4278 32.7417 41.0447C32.8137 40.7338 32.8498 40.3935 32.8498 40.0225C32.8498 39.6515 32.8071 39.3165 32.7243 38.9815C32.6282 38.6105 32.4668 38.3236 32.2399 38.1207C32.013 37.9179 31.7261 37.8165 31.3791 37.8165C31.0321 37.8165 30.7305 37.9179 30.509 38.1207C30.2874 38.3236 30.1286 38.6119 30.0339 38.9815C29.9498 39.2444 29.9084 39.5914 29.9084 40.0225C29.9084 40.3935 29.9445 40.7338 30.0165 41.0447C30.1246 41.4278 30.2915 41.7294 30.5183 41.9509C30.7452 42.1724 31.0321 42.2832 31.3791 42.2832C31.7261 42.2832 32.0157 42.1724 32.2492 41.9509H32.2479ZM46.1392 40.0945C46.1392 40.9433 46.0137 41.6973 45.7628 42.3539C45.4879 43.0959 45.0422 43.6965 44.427 44.1569C43.8104 44.6173 43.1204 44.8469 42.3557 44.8469C41.4469 44.8469 40.765 44.5719 40.3112 44.0221C40.2752 43.9741 40.2418 43.9567 40.2125 43.9687C40.1831 43.9807 40.1671 44.0168 40.1671 44.0768V47.6467C40.1671 47.7428 40.1377 47.8202 40.0777 47.8803C40.0176 47.9403 39.9402 47.9697 39.8441 47.9697H37.5127C37.4166 47.9697 37.3392 47.9403 37.2791 47.8803C37.2191 47.8202 37.1897 47.7428 37.1897 47.6467V35.7373C37.1897 35.6412 37.2191 35.5638 37.2791 35.5037C37.3392 35.4437 37.4166 35.4143 37.5127 35.4143H39.8441C39.9402 35.4143 40.0176 35.4437 40.0777 35.5037C40.1377 35.5638 40.1671 35.6412 40.1671 35.7373V36.1683C40.1671 36.2284 40.1818 36.2644 40.2125 36.2764C40.2418 36.2884 40.2752 36.2711 40.3112 36.223C40.765 35.5891 41.4469 35.2728 42.3557 35.2728C43.1324 35.2728 43.8504 35.5304 44.5084 36.0442C45.1663 36.558 45.6147 37.2226 45.8536 38.0353C46.0444 38.6212 46.1405 39.3085 46.1405 40.0985L46.1392 40.0945ZM42.9469 40.0412C42.9469 39.4313 42.8455 38.9348 42.6413 38.5518C42.3904 38.1101 42.0248 37.8885 41.547 37.8885C41.0692 37.8885 40.7396 38.1154 40.4887 38.5705C40.2859 38.9535 40.1844 39.4433 40.1844 40.0412C40.1844 40.6991 40.2925 41.2249 40.5074 41.6199C40.7583 42.027 41.1053 42.2298 41.5483 42.2298C42.0141 42.2298 42.3731 42.0203 42.624 41.6026C42.8388 41.2076 42.9469 40.6884 42.9469 40.0425V40.0412ZM52.597 32.13H55.0539C55.15 32.13 55.2274 32.1593 55.2875 32.2194C55.3475 32.2794 55.3769 32.3569 55.3769 32.4529V44.3624C55.3769 44.4585 55.3462 44.5359 55.2875 44.596C55.2274 44.656 55.15 44.6854 55.0539 44.6854H52.7225C52.6264 44.6854 52.549 44.656 52.4889 44.596C52.4289 44.5359 52.3995 44.4585 52.3995 44.3624V34.9819C52.3995 34.9459 52.3875 34.9165 52.3635 34.8925C52.3395 34.8685 52.3101 34.8631 52.2741 34.8751L50.7674 35.054H50.714C50.5232 35.054 50.4271 34.9525 50.4271 34.7497V33.0815C50.4271 32.9147 50.5165 32.7946 50.6966 32.7225L52.2033 32.202C52.3114 32.154 52.4422 32.13 52.5984 32.13H52.597ZM57.9953 43.7445C57.2066 42.9732 56.8115 41.9242 56.8115 40.5963V36.2204C56.8115 34.9045 57.2066 33.8702 57.9953 33.1175C58.784 32.3635 59.8663 31.9872 61.2422 31.9872C62.6181 31.9872 63.7058 32.3675 64.5065 33.1255C65.3072 33.8849 65.7089 34.9165 65.7089 36.219V40.595C65.7089 41.9229 65.3086 42.9718 64.5065 43.7432C63.7058 44.5146 62.6168 44.9002 61.2422 44.9002C59.8676 44.9002 58.7853 44.5146 57.9953 43.7432V43.7445ZM62.3272 41.9149C62.5968 41.6346 62.7302 41.2489 62.7302 40.7578V36.1123C62.7302 35.6225 62.5954 35.2368 62.3272 34.9552C62.0576 34.675 61.696 34.5335 61.2422 34.5335C60.7885 34.5335 60.4468 34.6736 60.1839 34.9552C59.921 35.2368 59.7889 35.6225 59.7889 36.1123V40.7578C59.7889 41.2489 59.917 41.6333 60.1746 41.9149C60.4322 42.1965 60.7871 42.3366 61.2422 42.3366C61.6973 42.3366 62.059 42.1965 62.3272 41.9149ZM68.2379 43.7445C67.4492 42.9732 67.0542 41.9242 67.0542 40.5963V36.2204C67.0542 34.9045 67.4492 33.8702 68.2379 33.1175C69.0266 32.3635 70.1089 31.9872 71.4849 31.9872C72.8608 31.9872 73.9484 32.3675 74.7491 33.1255C75.5499 33.8849 75.9516 34.9165 75.9516 36.219V40.595C75.9516 41.9229 75.5512 42.9718 74.7491 43.7432C73.9484 44.5146 72.8594 44.9002 71.4849 44.9002C70.1103 44.9002 69.028 44.5146 68.2379 43.7432V43.7445ZM72.5698 41.9149C72.8394 41.6346 72.9729 41.2489 72.9729 40.7578V36.1123C72.9729 35.6225 72.8381 35.2368 72.5698 34.9552C72.3003 34.675 71.9386 34.5335 71.4849 34.5335C71.0311 34.5335 70.6895 34.6736 70.4266 34.9552C70.1637 35.2368 70.0315 35.6225 70.0315 36.1123V40.7578C70.0315 41.2489 70.1597 41.6333 70.4172 41.9149C70.6748 42.1965 71.0298 42.3366 71.4849 42.3366C71.9399 42.3366 72.3016 42.1965 72.5698 41.9149Z" fill="#252530"/>
<path d="M9.76616 57.4557H10.4228C10.4922 57.4557 10.5269 57.4904 10.5269 57.5598V61.6489C10.5269 61.7183 10.4922 61.753 10.4228 61.753H9.76616C9.69677 61.753 9.66207 61.7183 9.66207 61.6489V59.9914C9.66207 59.9674 9.65006 59.954 9.6247 59.954H8.28081C8.25679 59.954 8.24345 59.966 8.24345 59.9914V61.6489C8.24345 61.7183 8.20875 61.753 8.13935 61.753H7.48276C7.41336 61.753 7.37866 61.7183 7.37866 61.6489V57.5598C7.37866 57.4904 7.41336 57.4557 7.48276 57.4557H8.13935C8.20875 57.4557 8.24345 57.4904 8.24345 57.5598V59.1746C8.24345 59.1987 8.25546 59.212 8.28081 59.212H9.6247C9.64872 59.212 9.66207 59.2 9.66207 59.1746V57.5598C9.66207 57.4904 9.69677 57.4557 9.76616 57.4557ZM11.2755 58.1524C11.1768 58.0563 11.1287 57.9322 11.1287 57.7814C11.1287 57.6306 11.1781 57.5065 11.2755 57.4104C11.3743 57.3143 11.5011 57.2662 11.6559 57.2662C11.8107 57.2662 11.9428 57.3129 12.0402 57.4077C12.1363 57.5024 12.1844 57.6266 12.1844 57.7827C12.1844 57.9388 12.1363 58.063 12.0402 58.1577C11.9441 58.2525 11.816 58.2992 11.6559 58.2992C11.4957 58.2992 11.373 58.2511 11.2755 58.155V58.1524ZM11.2262 61.6489V58.7022C11.2262 58.6328 11.2609 58.5981 11.3302 58.5981H11.9868C12.0562 58.5981 12.0909 58.6328 12.0909 58.7022V61.6489C12.0909 61.7183 12.0562 61.753 11.9868 61.753H11.3302C11.2609 61.753 11.2262 61.7183 11.2262 61.6489ZM14.8054 58.5968H15.462C15.5314 58.5968 15.5661 58.6315 15.5661 58.7009V61.4701C15.5661 62.0065 15.4126 62.3882 15.1057 62.6178C14.7987 62.8473 14.4037 62.9621 13.9206 62.9621C13.7858 62.9621 13.6323 62.9514 13.4602 62.9314C13.3988 62.9274 13.3681 62.89 13.3681 62.8206L13.3921 62.2494C13.3921 62.2161 13.4028 62.1907 13.4255 62.1734C13.4482 62.1547 13.4762 62.1493 13.5082 62.1587C13.659 62.1787 13.7845 62.1894 13.8832 62.1894C14.1448 62.1894 14.3463 62.132 14.4878 62.0172C14.6292 61.9024 14.7 61.7183 14.7 61.4647C14.7 61.4527 14.696 61.4447 14.688 61.4434C14.68 61.4407 14.6693 61.446 14.6573 61.458C14.5065 61.6222 14.2809 61.7036 13.982 61.7036C13.7164 61.7036 13.4709 61.6395 13.248 61.5101C13.0251 61.3806 12.8663 61.1738 12.7716 60.8869C12.7102 60.6987 12.6795 60.4545 12.6795 60.1569C12.6795 59.8379 12.7168 59.5777 12.7902 59.3775C12.8757 59.1279 13.0211 58.9277 13.2266 58.7756C13.4308 58.6248 13.6684 58.5487 13.9393 58.5487C14.2462 58.5487 14.4851 58.6408 14.6573 58.825C14.6693 58.837 14.68 58.841 14.688 58.837C14.696 58.833 14.7 58.8223 14.7 58.8063V58.7022C14.7 58.6328 14.7347 58.5981 14.8041 58.5981L14.8054 58.5968ZM14.7013 60.1502C14.7013 60.0234 14.6973 59.9246 14.6893 59.8553C14.6813 59.7859 14.6666 59.7205 14.6466 59.6591C14.6092 59.5483 14.5478 59.4602 14.4624 59.3922C14.377 59.3241 14.2703 59.2907 14.1435 59.2907C14.0167 59.2907 13.9166 59.3241 13.8299 59.3922C13.7444 59.4602 13.6804 59.5483 13.639 59.6591C13.5816 59.7819 13.5536 59.9473 13.5536 60.1569C13.5536 60.3864 13.5776 60.5492 13.627 60.648C13.6644 60.7587 13.7284 60.8468 13.8205 60.9149C13.9126 60.9829 14.022 61.0163 14.1488 61.0163C14.2756 61.0163 14.3877 60.9829 14.4744 60.9149C14.5598 60.8468 14.6199 60.7601 14.6519 60.6546C14.6853 60.5319 14.7013 60.3637 14.7013 60.1515V60.1502ZM18.6249 58.849C18.8251 59.0492 18.9251 59.3214 18.9251 59.6657V61.6489C18.9251 61.7183 18.8904 61.753 18.821 61.753H18.1645C18.0951 61.753 18.0604 61.7183 18.0604 61.6489V59.8446C18.0604 59.6804 18.015 59.5483 17.9256 59.4455C17.8362 59.3428 17.7147 59.2921 17.5639 59.2921C17.4131 59.2921 17.289 59.3428 17.1956 59.4455C17.1008 59.5483 17.0541 59.6804 17.0541 59.8446V61.6489C17.0541 61.7183 17.0194 61.753 16.95 61.753H16.2934C16.224 61.753 16.1893 61.7183 16.1893 61.6489V57.5598C16.1893 57.4904 16.224 57.4557 16.2934 57.4557H16.95C17.0194 57.4557 17.0541 57.4904 17.0541 57.5598V58.873C17.0541 58.889 17.0581 58.8997 17.0661 58.9037C17.0741 58.9077 17.0821 58.9037 17.0901 58.8917C17.2583 58.6622 17.5052 58.5474 17.8335 58.5474C18.1618 58.5474 18.4247 58.6475 18.6249 58.8477V58.849ZM21.6877 60.7881C21.7117 60.7601 21.7384 60.7454 21.7677 60.7454C21.7917 60.7454 21.8144 60.7561 21.8358 60.7761L22.1854 61.1137C22.2095 61.1377 22.2228 61.1631 22.2228 61.1871C22.2228 61.2152 22.2148 61.2405 22.1988 61.2605C22.064 61.4287 21.8905 61.5608 21.6796 61.6569C21.4688 61.753 21.2392 61.801 20.9897 61.801C20.6133 61.801 20.3011 61.7049 20.0528 61.5128C19.8046 61.3206 19.6391 61.0563 19.5524 60.7214C19.503 60.5412 19.479 60.3504 19.479 60.1502C19.479 59.9126 19.5017 59.7125 19.547 59.5483C19.6284 59.2454 19.7939 59.0025 20.0408 58.8183C20.289 58.6341 20.5826 58.5421 20.9216 58.5421C21.322 58.5421 21.6409 58.6608 21.8758 58.8984C22.1107 59.1359 22.2642 59.4696 22.3336 59.8993C22.3496 60.0341 22.3616 60.1835 22.3709 60.3477C22.3709 60.4171 22.3362 60.4518 22.2668 60.4518H20.3825C20.3584 60.4518 20.3451 60.4638 20.3451 60.4892C20.3571 60.5746 20.3718 60.6386 20.3878 60.68C20.4292 60.8068 20.5092 60.9042 20.6307 60.9723C20.7521 61.0403 20.8976 61.0737 21.0698 61.0737C21.3393 61.0617 21.5462 60.9669 21.6903 60.7908L21.6877 60.7881ZM20.58 59.3855C20.4919 59.4496 20.4318 59.5376 20.3985 59.6524C20.3785 59.7298 20.3651 59.7819 20.3611 59.8059C20.3571 59.8299 20.3678 59.8432 20.3918 59.8432H21.4354C21.4554 59.8432 21.4661 59.8352 21.4661 59.8192C21.4661 59.7738 21.4581 59.7271 21.4421 59.6778C21.4047 59.559 21.342 59.4656 21.2513 59.3948C21.1618 59.3254 21.0471 59.2907 20.9069 59.2907C20.7762 59.2907 20.6667 59.3228 20.5786 59.3855H20.58ZM23.4439 61.6782C23.2397 61.6008 23.0823 61.4914 22.9715 61.3526C22.8629 61.2193 22.8043 61.0521 22.806 60.8802V60.8495C22.806 60.7801 22.8407 60.7454 22.9101 60.7454H23.5307C23.6001 60.7454 23.6348 60.7574 23.6348 60.7828V60.8255C23.6348 60.9149 23.6841 60.9923 23.7816 61.0563C23.8803 61.1204 24.0044 61.1511 24.1566 61.1511C24.2954 61.1511 24.4088 61.1244 24.4942 61.071C24.5796 61.0176 24.6237 60.9482 24.6237 60.8628C24.6237 60.7894 24.5863 60.7334 24.5129 60.6973C24.4395 60.66 24.318 60.6213 24.1512 60.5812C23.951 60.5279 23.8016 60.4812 23.7028 60.4398C23.4372 60.3504 23.2264 60.2396 23.0702 60.1088C22.9141 59.978 22.8367 59.7899 22.8367 59.5443C22.8367 59.2414 22.9555 59.0011 23.193 58.8236C23.4306 58.6462 23.7415 58.5567 24.1259 58.5567C24.3874 58.5567 24.6183 58.5981 24.8158 58.6822C25.0147 58.7663 25.1681 58.8837 25.2762 59.0345C25.3843 59.1866 25.4391 59.3575 25.4391 59.5496C25.4391 59.5697 25.4297 59.587 25.411 59.6017C25.3923 59.6164 25.367 59.623 25.335 59.623H24.7331C24.6637 59.623 24.629 59.611 24.629 59.5857V59.5483C24.629 59.4589 24.5836 59.3828 24.4942 59.3214C24.4048 59.26 24.2833 59.2293 24.1325 59.2293C23.9977 59.2293 23.8856 59.2534 23.7976 59.3027C23.7095 59.3521 23.6654 59.4189 23.6654 59.5056C23.6654 59.5923 23.7068 59.6484 23.7909 59.6898C23.875 59.7311 24.0124 59.7738 24.2046 59.8192C24.3234 59.8432 24.4381 59.8739 24.5489 59.9113C24.8439 59.9967 25.0747 60.1075 25.2429 60.2423C25.411 60.3771 25.4951 60.5732 25.4951 60.8321C25.4951 61.1351 25.375 61.3713 25.1334 61.5408C24.8919 61.7103 24.5689 61.7957 24.1632 61.7957C23.8897 61.7957 23.6494 61.757 23.4452 61.6796L23.4439 61.6782ZM27.6918 59.2907H27.1393C27.1152 59.2907 27.1019 59.3027 27.1019 59.3281V60.5986C27.1019 60.7334 27.1299 60.8335 27.1846 60.8962C27.2394 60.9603 27.3288 60.991 27.4516 60.991H27.6237C27.6931 60.991 27.7278 61.0256 27.7278 61.095V61.6235C27.7278 61.6889 27.6931 61.7263 27.6237 61.7343C27.4676 61.7423 27.3555 61.7463 27.2861 61.7463C26.9471 61.7463 26.6922 61.6889 26.5254 61.5741C26.3572 61.4594 26.2718 61.2472 26.2678 60.9362V59.3281C26.2678 59.3041 26.2558 59.2907 26.2304 59.2907H25.9168C25.8474 59.2907 25.8127 59.256 25.8127 59.1866V58.7022C25.8127 58.6328 25.8474 58.5981 25.9168 58.5981H26.2304C26.2545 58.5981 26.2678 58.5861 26.2678 58.5607V57.8668C26.2678 57.7974 26.3025 57.7627 26.3719 57.7627H26.9978C27.0672 57.7627 27.1019 57.7974 27.1019 57.8668V58.5607C27.1019 58.5848 27.1139 58.5981 27.1393 58.5981H27.6918C27.7612 58.5981 27.7959 58.6328 27.7959 58.7022V59.1866C27.7959 59.256 27.7612 59.2907 27.6918 59.2907ZM30.2141 61.6422C29.9725 61.5354 29.7857 61.386 29.6549 61.1938C29.5241 61.0016 29.4587 60.7761 29.4587 60.5185V60.4144C29.4587 60.345 29.4934 60.3103 29.5628 60.3103H30.2074C30.2768 60.3103 30.3115 60.337 30.3115 60.3904V60.4758C30.3115 60.64 30.3862 60.7774 30.5357 60.8895C30.6852 61.0016 30.88 61.059 31.1216 61.059C31.3377 61.059 31.4992 61.0136 31.6033 60.9202C31.7074 60.8281 31.7595 60.7147 31.7595 60.5799C31.7595 60.4812 31.7261 60.3984 31.6607 60.3317C31.5953 60.2636 31.5072 60.2049 31.3965 60.1542C31.2857 60.1035 31.1082 60.0327 30.8626 59.942C30.5837 59.8472 30.3515 59.7512 30.1633 59.6537C29.9752 59.555 29.815 59.4215 29.6842 59.252C29.5535 59.0826 29.4881 58.873 29.4881 58.6235C29.4881 58.3739 29.5521 58.163 29.6789 57.9789C29.8057 57.7947 29.9832 57.6533 30.2101 57.5558C30.4369 57.4584 30.6958 57.409 30.9868 57.409C31.2977 57.409 31.5766 57.4637 31.8222 57.5745C32.0677 57.6853 32.2586 57.8401 32.396 58.0376C32.5335 58.2364 32.6016 58.466 32.6016 58.7289V58.7903C32.6016 58.8597 32.5669 58.8944 32.4975 58.8944H31.8529C31.7835 58.8944 31.7488 58.8744 31.7488 58.833V58.7716C31.7488 58.5994 31.6781 58.454 31.5366 58.3325C31.3951 58.2124 31.2016 58.151 30.9561 58.151C30.7599 58.151 30.6077 58.1924 30.5023 58.2738C30.3956 58.3552 30.3422 58.4687 30.3422 58.6115C30.3422 58.7142 30.3729 58.7996 30.4343 58.869C30.4956 58.9384 30.5891 59.0025 30.7132 59.0599C30.8373 59.1172 31.0308 59.1906 31.2937 59.2814C31.5806 59.3882 31.8075 59.4802 31.9757 59.5603C32.1438 59.6404 32.2933 59.7618 32.4267 59.926C32.5602 60.0901 32.6269 60.301 32.6269 60.5586C32.6269 60.8161 32.5629 61.027 32.4334 61.2152C32.304 61.4033 32.1225 61.5488 31.8876 61.6515C31.6527 61.7543 31.3751 61.805 31.0562 61.805C30.7372 61.805 30.4569 61.7516 30.2154 61.6449L30.2141 61.6422ZM35.1198 58.6862C35.328 58.7783 35.4908 58.9037 35.6083 59.0639C35.7244 59.224 35.7831 59.4015 35.7831 59.5977V61.6475C35.7831 61.7169 35.7484 61.7516 35.679 61.7516H35.0224C34.953 61.7516 34.9183 61.7169 34.9183 61.6475V61.5007C34.9183 61.4847 34.9143 61.4754 34.9063 61.4727C34.8983 61.47 34.8876 61.4754 34.8756 61.4874C34.6875 61.6956 34.4072 61.801 34.0349 61.801C33.7199 61.801 33.4663 61.7236 33.2742 61.5675C33.082 61.4113 32.9859 61.1831 32.9859 60.8802C32.9859 60.5772 33.0967 60.321 33.3169 60.1462C33.5384 59.9727 33.8534 59.8859 34.2617 59.8859H34.8823C34.9063 59.8859 34.9197 59.8739 34.9197 59.8486V59.7191C34.9197 59.5843 34.8783 59.4789 34.7942 59.4028C34.7101 59.3268 34.5887 59.2894 34.4286 59.2894C34.3058 59.2894 34.2043 59.3094 34.1243 59.3508C34.0442 59.3922 33.9908 59.4496 33.9615 59.523C33.9374 59.5803 33.8961 59.607 33.8387 59.603L33.1567 59.5176C33.1234 59.5136 33.098 59.5043 33.0793 59.4896C33.0606 59.4749 33.054 59.4562 33.058 59.4309C33.078 59.2627 33.1487 59.1119 33.2702 58.9771C33.3903 58.8423 33.5504 58.7369 33.7493 58.6608C33.9481 58.5848 34.1683 58.5474 34.4099 58.5474C34.6754 58.5474 34.913 58.5928 35.1225 58.6849L35.1198 58.6862ZM34.7328 61.0163C34.8556 60.9216 34.917 60.8014 34.917 60.6546V60.4398C34.917 60.4158 34.905 60.4024 34.8796 60.4024H34.4432C34.2591 60.4024 34.1136 60.4371 34.0068 60.5065C33.9001 60.5759 33.8467 60.6747 33.8467 60.8014C33.8467 60.9122 33.8867 60.999 33.9668 61.0617C34.0469 61.1257 34.1523 61.1564 34.2831 61.1564C34.4592 61.1564 34.6087 61.1097 34.7315 61.015L34.7328 61.0163ZM38.0225 59.2907H37.47C37.446 59.2907 37.4326 59.3027 37.4326 59.3281V60.5986C37.4326 60.7334 37.4606 60.8335 37.5154 60.8962C37.5701 60.9603 37.6595 60.991 37.7823 60.991H37.9544C38.0238 60.991 38.0585 61.0256 38.0585 61.095V61.6235C38.0585 61.6889 38.0238 61.7263 37.9544 61.7343C37.7983 61.7423 37.6862 61.7463 37.6168 61.7463C37.2778 61.7463 37.0229 61.6889 36.8561 61.5741C36.6879 61.4594 36.6025 61.2472 36.5985 60.9362V59.3281C36.5985 59.3041 36.5865 59.2907 36.5612 59.2907H36.2475C36.1781 59.2907 36.1434 59.256 36.1434 59.1866V58.7022C36.1434 58.6328 36.1781 58.5981 36.2475 58.5981H36.5612C36.5852 58.5981 36.5985 58.5861 36.5985 58.5607V57.8668C36.5985 57.7974 36.6332 57.7627 36.7026 57.7627H37.3285C37.3979 57.7627 37.4326 57.7974 37.4326 57.8668V58.5607C37.4326 58.5848 37.4446 58.5981 37.47 58.5981H38.0225C38.0919 58.5981 38.1266 58.6328 38.1266 58.7022V59.1866C38.1266 59.256 38.0919 59.2907 38.0225 59.2907ZM38.7471 58.1524C38.6484 58.0563 38.6003 57.9322 38.6003 57.7814C38.6003 57.6306 38.6497 57.5065 38.7471 57.4104C38.8459 57.3143 38.9727 57.2662 39.1275 57.2662C39.2823 57.2662 39.4144 57.3129 39.5118 57.4077C39.6079 57.5024 39.656 57.6266 39.656 57.7827C39.656 57.9388 39.6079 58.063 39.5118 58.1577C39.4157 58.2525 39.2876 58.2992 39.1275 58.2992C38.9673 58.2992 38.8446 58.2511 38.7471 58.155V58.1524ZM38.6978 61.6489V58.7022C38.6978 58.6328 38.7325 58.5981 38.8019 58.5981H39.4585C39.5278 58.5981 39.5625 58.6328 39.5625 58.7022V61.6489C39.5625 61.7183 39.5278 61.753 39.4585 61.753H38.8019C38.7325 61.753 38.6978 61.7183 38.6978 61.6489ZM40.785 61.6782C40.5808 61.6008 40.4233 61.4914 40.3126 61.3526C40.2039 61.2193 40.1454 61.0521 40.1471 60.8802V60.8495C40.1471 60.7801 40.1818 60.7454 40.2512 60.7454H40.8717C40.9411 60.7454 40.9758 60.7574 40.9758 60.7828V60.8255C40.9758 60.9149 41.0252 60.9923 41.1226 61.0563C41.2214 61.1204 41.3455 61.1511 41.4976 61.1511C41.6364 61.1511 41.7499 61.1244 41.8353 61.071C41.9207 61.0176 41.9647 60.9482 41.9647 60.8628C41.9647 60.7894 41.9274 60.7334 41.854 60.6973C41.7806 60.66 41.6591 60.6213 41.4923 60.5812C41.2921 60.5279 41.1426 60.4812 41.0439 60.4398C40.7783 60.3504 40.5675 60.2396 40.4113 60.1088C40.2552 59.978 40.1778 59.7899 40.1778 59.5443C40.1778 59.2414 40.2965 59.0011 40.5341 58.8236C40.7716 58.6462 41.0826 58.5567 41.4669 58.5567C41.7285 58.5567 41.9594 58.5981 42.1569 58.6822C42.3557 58.7663 42.5092 58.8837 42.6173 59.0345C42.7254 59.1866 42.7801 59.3575 42.7801 59.5496C42.7801 59.5697 42.7708 59.587 42.7521 59.6017C42.7334 59.6164 42.7081 59.623 42.676 59.623H42.0742C42.0048 59.623 41.9701 59.611 41.9701 59.5857V59.5483C41.9701 59.4589 41.9247 59.3828 41.8353 59.3214C41.7459 59.26 41.6244 59.2293 41.4736 59.2293C41.3388 59.2293 41.2267 59.2534 41.1386 59.3027C41.0506 59.3521 41.0065 59.4189 41.0065 59.5056C41.0065 59.5923 41.0479 59.6484 41.132 59.6898C41.216 59.7311 41.3535 59.7738 41.5457 59.8192C41.6645 59.8432 41.7792 59.8739 41.89 59.9113C42.1849 59.9967 42.4158 60.1075 42.584 60.2423C42.7521 60.3771 42.8362 60.5732 42.8362 60.8321C42.8362 61.1351 42.7161 61.3713 42.4745 61.5408C42.233 61.7103 41.91 61.7957 41.5043 61.7957C41.2307 61.7957 40.9905 61.757 40.7863 61.6796L40.785 61.6782ZM45.1997 58.6955V59.2173C45.1997 59.2867 45.165 59.3214 45.0956 59.3214H44.5364C44.5124 59.3214 44.499 59.3334 44.499 59.3588V61.6489C44.499 61.7183 44.4643 61.753 44.3949 61.753H43.7383C43.6689 61.753 43.6342 61.7183 43.6342 61.6489V59.3588C43.6342 59.3348 43.6222 59.3214 43.5969 59.3214H43.2712C43.2018 59.3214 43.1671 59.2867 43.1671 59.2173V58.6955C43.1671 58.6261 43.2018 58.5914 43.2712 58.5914H43.5969C43.6209 58.5914 43.6342 58.5794 43.6342 58.5541V58.4246C43.6342 58.1711 43.6729 57.9735 43.7503 57.8321C43.8277 57.6906 43.9532 57.5905 44.128 57.5318C44.3015 57.4731 44.5431 57.4464 44.85 57.4557H45.0529C45.1223 57.4557 45.157 57.4904 45.157 57.5598V57.9962C45.157 58.0656 45.1223 58.1003 45.0529 58.1003H44.8807C44.7379 58.1043 44.6378 58.1337 44.5831 58.1897C44.5284 58.2445 44.5004 58.3459 44.5004 58.494V58.5554C44.5004 58.5794 44.5124 58.5928 44.5377 58.5928H45.0969C45.1663 58.5928 45.201 58.6275 45.201 58.6969L45.1997 58.6955ZM47.6365 58.6862C47.8447 58.7783 48.0075 58.9037 48.125 59.0639C48.2411 59.224 48.2998 59.4015 48.2998 59.5977V61.6475C48.2998 61.7169 48.2651 61.7516 48.1957 61.7516H47.5391C47.4697 61.7516 47.435 61.7169 47.435 61.6475V61.5007C47.435 61.4847 47.431 61.4754 47.423 61.4727C47.415 61.47 47.4043 61.4754 47.3923 61.4874C47.2041 61.6956 46.9239 61.801 46.5516 61.801C46.2366 61.801 45.983 61.7236 45.7909 61.5675C45.5987 61.4113 45.5026 61.1831 45.5026 60.8802C45.5026 60.5772 45.6134 60.321 45.8336 60.1462C46.0551 59.9727 46.3701 59.8859 46.7784 59.8859H47.399C47.423 59.8859 47.4364 59.8739 47.4364 59.8486V59.7191C47.4364 59.5843 47.395 59.4789 47.3109 59.4028C47.2268 59.3268 47.1054 59.2894 46.9452 59.2894C46.8225 59.2894 46.721 59.3094 46.641 59.3508C46.5609 59.3922 46.5075 59.4496 46.4782 59.523C46.4541 59.5803 46.4128 59.607 46.3554 59.603L45.6734 59.5176C45.6401 59.5136 45.6147 59.5043 45.596 59.4896C45.5773 59.4749 45.5707 59.4562 45.5747 59.4309C45.5947 59.2627 45.6654 59.1119 45.7869 58.9771C45.907 58.8423 46.0671 58.7369 46.266 58.6608C46.4648 58.5848 46.685 58.5474 46.9266 58.5474C47.1921 58.5474 47.4297 58.5928 47.6392 58.6849L47.6365 58.6862ZM47.2495 61.0163C47.3723 60.9216 47.4337 60.8014 47.4337 60.6546V60.4398C47.4337 60.4158 47.4217 60.4024 47.3963 60.4024H46.9599C46.7758 60.4024 46.6303 60.4371 46.5235 60.5065C46.4168 60.5759 46.3634 60.6747 46.3634 60.8014C46.3634 60.9122 46.4034 60.999 46.4835 61.0617C46.5636 61.1257 46.669 61.1564 46.7998 61.1564C46.9759 61.1564 47.1254 61.1097 47.2482 61.015L47.2495 61.0163ZM49.4382 61.5555C49.1993 61.3913 49.0271 61.1671 48.9257 60.8802C48.8563 60.676 48.8216 60.4344 48.8216 60.1555C48.8216 59.8766 48.8563 59.6444 48.9257 59.4429C49.0245 59.164 49.194 58.9451 49.4355 58.7863C49.6771 58.6261 49.9613 58.5474 50.2883 58.5474C50.6152 58.5474 50.9035 58.6288 51.1504 58.793C51.3986 58.9571 51.5628 59.164 51.6442 59.4135C51.6682 59.4709 51.6856 59.5336 51.6936 59.6044V59.6164C51.6936 59.6697 51.6629 59.7018 51.6015 59.7151L50.9569 59.8139L50.9262 59.8206C50.8768 59.8206 50.8488 59.7965 50.8408 59.7472L50.8221 59.6617C50.7941 59.555 50.73 59.4669 50.6313 59.3975C50.5325 59.3281 50.4164 59.2934 50.2816 59.2934C50.1468 59.2934 50.0401 59.3268 49.9506 59.3922C49.8612 59.4576 49.7972 59.5483 49.7598 59.6617C49.7144 59.7845 49.6917 59.9527 49.6917 60.1649C49.6917 60.3771 49.7118 60.5452 49.7531 60.668C49.7905 60.7908 49.8546 60.8869 49.9466 60.9563C50.0387 61.0256 50.1495 61.0603 50.2816 61.0603C50.4137 61.0603 50.5205 61.027 50.6166 60.9589C50.7127 60.8909 50.7794 60.8001 50.8168 60.6853L50.8234 60.6546C50.8274 60.6386 50.8421 60.6186 50.8661 60.5959C50.8902 60.5732 50.9169 60.5639 50.9462 60.5679L51.5908 60.6667C51.6242 60.6747 51.6468 60.6893 51.6615 60.7094C51.6762 60.7294 51.6802 60.7547 51.6762 60.7828C51.6682 60.8482 51.6575 60.8949 51.6455 60.9242C51.5601 61.1978 51.3933 61.4127 51.1451 61.5688C50.8968 61.7249 50.6112 61.8024 50.2883 61.8024C49.9653 61.8024 49.6771 61.7209 49.4382 61.5568V61.5555ZM53.9049 59.2907H53.3524C53.3284 59.2907 53.315 59.3027 53.315 59.3281V60.5986C53.315 60.7334 53.3431 60.8335 53.3978 60.8962C53.4525 60.9603 53.5419 60.991 53.6647 60.991H53.8368C53.9062 60.991 53.9409 61.0256 53.9409 61.095V61.6235C53.9409 61.6889 53.9062 61.7263 53.8368 61.7343C53.6807 61.7423 53.5686 61.7463 53.4992 61.7463C53.1602 61.7463 52.9053 61.6889 52.7385 61.5741C52.5704 61.4594 52.4849 61.2472 52.4809 60.9362V59.3281C52.4809 59.3041 52.4689 59.2907 52.4436 59.2907H52.13C52.0606 59.2907 52.0259 59.256 52.0259 59.1866V58.7022C52.0259 58.6328 52.0606 58.5981 52.13 58.5981H52.4436C52.4676 58.5981 52.4809 58.5861 52.4809 58.5607V57.8668C52.4809 57.7974 52.5156 57.7627 52.585 57.7627H53.2109C53.2803 57.7627 53.315 57.7974 53.315 57.8668V58.5607C53.315 58.5848 53.327 58.5981 53.3524 58.5981H53.9049C53.9743 58.5981 54.009 58.6328 54.009 58.7022V59.1866C54.009 59.256 53.9743 59.2907 53.9049 59.2907ZM54.6282 58.1524C54.5295 58.0563 54.4814 57.9322 54.4814 57.7814C54.4814 57.6306 54.5308 57.5065 54.6282 57.4104C54.727 57.3143 54.8538 57.2662 55.0086 57.2662C55.1634 57.2662 55.2955 57.3129 55.3929 57.4077C55.489 57.5024 55.537 57.6266 55.537 57.7827C55.537 57.9388 55.489 58.063 55.3929 58.1577C55.2968 58.2525 55.1687 58.2992 55.0086 58.2992C54.8484 58.2992 54.7256 58.2511 54.6282 58.155V58.1524ZM54.5788 61.6489V58.7022C54.5788 58.6328 54.6135 58.5981 54.6829 58.5981H55.3395C55.4089 58.5981 55.4436 58.6328 55.4436 58.7022V61.6489C55.4436 61.7183 55.4089 61.753 55.3395 61.753H54.6829C54.6135 61.753 54.5788 61.7183 54.5788 61.6489ZM56.6367 61.5314C56.3912 61.3513 56.223 61.1057 56.1336 60.7948C56.0762 60.6026 56.0482 60.3931 56.0482 60.1689C56.0482 59.9193 56.0789 59.7018 56.1403 59.5176C56.235 59.2147 56.4032 58.9771 56.6461 58.805C56.8889 58.6328 57.1852 58.5474 57.5335 58.5474C57.8818 58.5474 58.1568 58.6328 58.3956 58.805C58.6345 58.9771 58.8013 59.212 58.8961 59.5109C58.9575 59.6991 58.9882 59.914 58.9882 60.1555C58.9882 60.3677 58.9615 60.5746 58.9081 60.7761C58.8134 61.095 58.6452 61.3459 58.401 61.5288C58.1581 61.7103 57.8658 61.8024 57.5269 61.8024C57.1879 61.8024 56.8823 61.7129 56.6367 61.5328V61.5314ZM57.8645 60.9362C57.9592 60.8548 58.026 60.7414 58.0673 60.5986C58.1007 60.4878 58.1167 60.345 58.1167 60.1689C58.1167 59.9927 58.1007 59.8512 58.0673 59.7325C58.026 59.5937 57.9592 59.4842 57.8645 59.4068C57.7697 59.3294 57.6536 59.2907 57.5148 59.2907C57.3761 59.2907 57.2653 59.3294 57.1705 59.4068C57.0758 59.4842 57.009 59.5937 56.9677 59.7325C56.9343 59.8512 56.9183 59.9967 56.9183 60.1689C56.9183 60.341 56.9343 60.4798 56.9677 60.5986C57.009 60.7414 57.0771 60.8548 57.1732 60.9362C57.2693 61.0176 57.3867 61.059 57.5255 61.059C57.6563 61.059 57.7684 61.0176 57.8632 60.9362H57.8645ZM61.9829 58.849C62.1831 59.0492 62.2832 59.3214 62.2832 59.6657V61.6489C62.2832 61.7183 62.2485 61.753 62.1791 61.753H61.5225C61.4531 61.753 61.4184 61.7183 61.4184 61.6489V59.8446C61.4184 59.6804 61.373 59.5483 61.2836 59.4455C61.1942 59.3428 61.0727 59.2921 60.9219 59.2921C60.7711 59.2921 60.647 59.3428 60.5536 59.4455C60.4588 59.5483 60.4121 59.6804 60.4121 59.8446V61.6489C60.4121 61.7183 60.3774 61.753 60.308 61.753H59.6515C59.5821 61.753 59.5474 61.7183 59.5474 61.6489V58.7022C59.5474 58.6328 59.5821 58.5981 59.6515 58.5981H60.308C60.3774 58.5981 60.4121 58.6328 60.4121 58.7022V58.8744C60.4121 58.8904 60.4161 58.9011 60.4241 58.9051C60.4322 58.9091 60.4402 58.9051 60.4482 58.893C60.6163 58.6635 60.8632 58.5487 61.1915 58.5487C61.5198 58.5487 61.7827 58.6488 61.9829 58.849ZM66.6738 57.6145C66.878 57.7253 67.0368 57.8815 67.1503 58.0843C67.2624 58.2872 67.3184 58.5194 67.3184 58.7809C67.3184 59.0425 67.2597 59.2654 67.1436 59.4629C67.0275 59.6591 66.8633 59.8112 66.6525 59.9206C66.4416 60.0287 66.1987 60.0835 65.9251 60.0835H65.059C65.035 60.0835 65.0217 60.0955 65.0217 60.1208V61.6489C65.0217 61.7183 64.987 61.753 64.9176 61.753H64.261C64.1916 61.753 64.1569 61.7183 64.1569 61.6489V57.5545C64.1569 57.4851 64.1916 57.4504 64.261 57.4504H65.9612C66.2308 57.4504 66.4683 57.5051 66.6738 57.6159V57.6145ZM66.2868 59.2267C66.4016 59.1186 66.459 58.9758 66.459 58.7996C66.459 58.6235 66.4016 58.474 66.2868 58.3632C66.172 58.2525 66.0212 58.1977 65.8331 58.1977H65.059C65.035 58.1977 65.0217 58.2098 65.0217 58.2351V59.3521C65.0217 59.3762 65.0337 59.3895 65.059 59.3895H65.8331C66.0212 59.3895 66.172 59.3348 66.2868 59.2267ZM69.6939 58.6275C69.7433 58.6515 69.762 58.6955 69.7486 58.7569L69.6325 59.4015C69.6285 59.4389 69.6165 59.4602 69.5991 59.4696C69.5805 59.4776 69.5511 59.4776 69.5097 59.4696C69.4443 59.4536 69.3843 59.4455 69.3322 59.4455C69.3042 59.4455 69.2562 59.4495 69.1908 59.4576C69.044 59.4696 68.9185 59.5243 68.8158 59.6204C68.713 59.7165 68.6623 59.8446 68.6623 60.0047V61.6502C68.6623 61.7196 68.6276 61.7543 68.5582 61.7543H67.9016C67.8322 61.7543 67.7975 61.7196 67.7975 61.6502V58.7035C67.7975 58.6341 67.8322 58.5994 67.9016 58.5994H68.5582C68.6276 58.5994 68.6623 58.6341 68.6623 58.7035V58.8944C68.6623 58.9104 68.6663 58.9211 68.6743 58.9251C68.6823 58.9291 68.693 58.9251 68.705 58.9131C68.8692 58.6755 69.0893 58.5567 69.3683 58.5567C69.4991 58.5567 69.6072 58.5808 69.6939 58.6301V58.6275ZM70.5774 61.5314C70.3318 61.3513 70.1637 61.1057 70.0742 60.7948C70.0169 60.6026 69.9888 60.3931 69.9888 60.1689C69.9888 59.9193 70.0195 59.7018 70.0809 59.5176C70.1757 59.2147 70.3438 58.9771 70.5867 58.805C70.8296 58.6328 71.1259 58.5474 71.4742 58.5474C71.8225 58.5474 72.0974 58.6328 72.3363 58.805C72.5752 58.9771 72.742 59.212 72.8368 59.5109C72.8981 59.6991 72.9288 59.914 72.9288 60.1555C72.9288 60.3677 72.9021 60.5746 72.8488 60.7761C72.754 61.095 72.5859 61.3459 72.3416 61.5288C72.0987 61.7103 71.8065 61.8024 71.4675 61.8024C71.1285 61.8024 70.8229 61.7129 70.5774 61.5328V61.5314ZM71.8051 60.9362C71.8999 60.8548 71.9666 60.7414 72.008 60.5986C72.0414 60.4878 72.0574 60.345 72.0574 60.1689C72.0574 59.9927 72.0414 59.8512 72.008 59.7325C71.9666 59.5937 71.8999 59.4842 71.8051 59.4068C71.7104 59.3294 71.5943 59.2907 71.4555 59.2907C71.3167 59.2907 71.2059 59.3294 71.1112 59.4068C71.0164 59.4842 70.9497 59.5937 70.9083 59.7325C70.875 59.8512 70.859 59.9967 70.859 60.1689C70.859 60.341 70.875 60.4798 70.9083 60.5986C70.9497 60.7414 71.0178 60.8548 71.1139 60.9362C71.2099 61.0176 71.3274 61.059 71.4662 61.059C71.597 61.059 71.7091 61.0176 71.8038 60.9362H71.8051ZM75.4952 57.4557H76.1518C76.2212 57.4557 76.2559 57.4904 76.2559 57.5598V61.6489C76.2559 61.7183 76.2212 61.753 76.1518 61.753H75.4952C75.4258 61.753 75.3911 61.7183 75.3911 61.6489V61.4834C75.3911 61.4674 75.3857 61.458 75.3751 61.4554C75.3644 61.4527 75.355 61.458 75.347 61.4701C75.1789 61.6916 74.9453 61.801 74.6477 61.801C74.3688 61.801 74.1233 61.7183 73.9084 61.5528C73.6935 61.3873 73.5454 61.1684 73.464 60.8989C73.3946 60.7027 73.3599 60.4571 73.3599 60.1622C73.3599 59.8673 73.3986 59.6057 73.476 59.4015C73.5654 59.1399 73.7149 58.9304 73.9204 58.7756C74.1273 58.6195 74.3701 58.5421 74.6477 58.5421C74.9507 58.5421 75.1842 58.6422 75.347 58.8423C75.355 58.8543 75.3644 58.8583 75.3751 58.8543C75.3857 58.8503 75.3911 58.8397 75.3911 58.8236V57.5585C75.3911 57.4891 75.4258 57.4544 75.4952 57.4544V57.4557ZM75.3844 60.1755C75.3844 59.906 75.3417 59.6951 75.255 59.543C75.1522 59.3828 75.0161 59.3041 74.8439 59.3041C74.6557 59.3041 74.5129 59.3815 74.4142 59.5376C74.3154 59.7018 74.2674 59.9166 74.2674 60.1822C74.2674 60.4238 74.3101 60.6239 74.3968 60.7841C74.4956 60.9603 74.6437 61.0483 74.8452 61.0483C75.0254 61.0483 75.1642 60.9603 75.263 60.7841C75.3444 60.6333 75.3857 60.4304 75.3857 60.1769L75.3844 60.1755ZM78.8529 58.5968H79.5095C79.5789 58.5968 79.6136 58.6315 79.6136 58.7009V61.6475C79.6136 61.7169 79.5789 61.7516 79.5095 61.7516H78.8529C78.7835 61.7516 78.7488 61.7169 78.7488 61.6475V61.4821C78.7488 61.466 78.7435 61.4567 78.7328 61.454C78.7221 61.4514 78.7128 61.4567 78.7048 61.4687C78.5446 61.6862 78.2937 61.7943 77.9494 61.7943C77.6385 61.7943 77.3822 61.6996 77.182 61.5114C76.9819 61.3233 76.8818 61.059 76.8818 60.72V58.7009C76.8818 58.6315 76.9165 58.5968 76.9859 58.5968H77.6371C77.7065 58.5968 77.7412 58.6315 77.7412 58.7009V60.5052C77.7412 60.6693 77.7853 60.8014 77.8733 60.9042C77.9614 61.007 78.0829 61.0577 78.239 61.0577C78.3778 61.0577 78.4926 61.0163 78.5833 60.9322C78.6727 60.8482 78.7288 60.7387 78.7488 60.6039V58.7009C78.7488 58.6315 78.7835 58.5968 78.8529 58.5968ZM80.7893 61.5555C80.5504 61.3913 80.3783 61.1671 80.2768 60.8802C80.2075 60.676 80.1727 60.4344 80.1727 60.1555C80.1727 59.8766 80.2075 59.6444 80.2768 59.4429C80.3756 59.164 80.5451 58.9451 80.7866 58.7863C81.0282 58.6261 81.3124 58.5474 81.6394 58.5474C81.9664 58.5474 82.2546 58.6288 82.5015 58.793C82.7498 58.9571 82.9139 59.164 82.9953 59.4135C83.0193 59.4709 83.0367 59.5336 83.0447 59.6044V59.6164C83.0447 59.6697 83.014 59.7018 82.9526 59.7151L82.308 59.8139L82.2773 59.8206C82.228 59.8206 82.1999 59.7965 82.1919 59.7472L82.1732 59.6617C82.1452 59.555 82.0811 59.4669 81.9824 59.3975C81.8836 59.3281 81.7675 59.2934 81.6327 59.2934C81.498 59.2934 81.3912 59.3268 81.3018 59.3922C81.2124 59.4576 81.1483 59.5483 81.1109 59.6617C81.0656 59.7845 81.0429 59.9527 81.0429 60.1649C81.0429 60.3771 81.0629 60.5452 81.1043 60.668C81.1416 60.7908 81.2057 60.8869 81.2978 60.9563C81.3899 61.0256 81.5006 61.0603 81.6327 61.0603C81.7649 61.0603 81.8716 61.027 81.9677 60.9589C82.0638 60.8909 82.1305 60.8001 82.1679 60.6853L82.1746 60.6546C82.1786 60.6386 82.1933 60.6186 82.2173 60.5959C82.2413 60.5732 82.268 60.5639 82.2973 60.5679L82.9419 60.6667C82.9753 60.6747 82.998 60.6893 83.0127 60.7094C83.0273 60.7294 83.0313 60.7547 83.0273 60.7828C83.0193 60.8482 83.0087 60.8949 82.9966 60.9242C82.9112 61.1978 82.7444 61.4127 82.4962 61.5688C82.248 61.7249 81.9624 61.8024 81.6394 61.8024C81.3165 61.8024 81.0282 61.7209 80.7893 61.5568V61.5555ZM85.256 59.2907H84.7035C84.6795 59.2907 84.6662 59.3027 84.6662 59.3281V60.5986C84.6662 60.7334 84.6942 60.8335 84.7489 60.8962C84.8036 60.9603 84.893 60.991 85.0158 60.991H85.188C85.2574 60.991 85.2921 61.0256 85.2921 61.095V61.6235C85.2921 61.6889 85.2574 61.7263 85.188 61.7343C85.0318 61.7423 84.9197 61.7463 84.8503 61.7463C84.5114 61.7463 84.2565 61.6889 84.0896 61.5741C83.9215 61.4594 83.8361 61.2472 83.8321 60.9362V59.3281C83.8321 59.3041 83.8201 59.2907 83.7947 59.2907H83.4811C83.4117 59.2907 83.377 59.256 83.377 59.1866V58.7022C83.377 58.6328 83.4117 58.5981 83.4811 58.5981H83.7947C83.8187 58.5981 83.8321 58.5861 83.8321 58.5607V57.8668C83.8321 57.7974 83.8668 57.7627 83.9362 57.7627H84.5621C84.6315 57.7627 84.6662 57.7974 84.6662 57.8668V58.5607C84.6662 58.5848 84.6782 58.5981 84.7035 58.5981H85.256C85.3254 58.5981 85.3601 58.6328 85.3601 58.7022V59.1866C85.3601 59.256 85.3254 59.2907 85.256 59.2907ZM86.4224 61.6782C86.2182 61.6008 86.0608 61.4914 85.95 61.3526C85.8414 61.2193 85.7828 61.0521 85.7845 60.8802V60.8495C85.7845 60.7801 85.8192 60.7454 85.8886 60.7454H86.5092C86.5786 60.7454 86.6133 60.7574 86.6133 60.7828V60.8255C86.6133 60.9149 86.6626 60.9923 86.7601 61.0563C86.8588 61.1204 86.9829 61.1511 87.1351 61.1511C87.2739 61.1511 87.3873 61.1244 87.4727 61.071C87.5581 61.0176 87.6022 60.9482 87.6022 60.8628C87.6022 60.7894 87.5648 60.7334 87.4914 60.6973C87.418 60.66 87.2966 60.6213 87.1297 60.5812C86.9296 60.5279 86.7801 60.4812 86.6813 60.4398C86.4158 60.3504 86.2049 60.2396 86.0488 60.1088C85.8926 59.978 85.8152 59.7899 85.8152 59.5443C85.8152 59.2414 85.934 59.0011 86.1715 58.8236C86.4091 58.6462 86.72 58.5567 87.1044 58.5567C87.3659 58.5567 87.5968 58.5981 87.7943 58.6822C87.9932 58.7663 88.1467 58.8837 88.2548 59.0345C88.3629 59.1866 88.4176 59.3575 88.4176 59.5496C88.4176 59.5697 88.4082 59.587 88.3895 59.6017C88.3709 59.6164 88.3455 59.623 88.3135 59.623H87.7116C87.6422 59.623 87.6075 59.611 87.6075 59.5857V59.5483C87.6075 59.4589 87.5621 59.3828 87.4727 59.3214C87.3833 59.26 87.2619 59.2293 87.111 59.2293C86.9763 59.2293 86.8642 59.2534 86.7761 59.3027C86.688 59.3521 86.644 59.4189 86.644 59.5056C86.644 59.5923 86.6853 59.6484 86.7694 59.6898C86.8535 59.7311 86.9909 59.7738 87.1831 59.8192C87.3019 59.8432 87.4167 59.8739 87.5274 59.9113C87.8224 59.9967 88.0532 60.1075 88.2214 60.2423C88.3895 60.3771 88.4736 60.5732 88.4736 60.8321C88.4736 61.1351 88.3535 61.3713 88.112 61.5408C87.8704 61.7103 87.5474 61.7957 87.1417 61.7957C86.8682 61.7957 86.6279 61.757 86.4238 61.6796L86.4224 61.6782Z" fill="white"/>
<path d="M38.2587 88.3891C38.2654 88.4024 38.2787 88.4091 38.3001 88.4091H40.8998C40.9331 88.4091 40.9625 88.4211 40.9865 88.4451C41.0105 88.4692 41.0225 88.4985 41.0225 88.5319V89.7343C41.0225 89.769 41.0105 89.797 40.9865 89.8211C40.9625 89.8451 40.9345 89.8571 40.8998 89.8571H36.1181C36.0834 89.8571 36.0554 89.8451 36.0313 89.8211C36.0197 89.8099 36.0104 89.7964 36.0042 89.7815C35.998 89.7665 35.995 89.7505 35.9953 89.7343V88.6026C35.9953 88.5412 36.0153 88.4905 36.0567 88.4491C36.4651 88.0688 37.0042 87.5216 37.6782 86.8077L38.2894 86.1657C38.9073 85.5265 39.2169 85.0607 39.2169 84.7685C39.2169 84.571 39.1435 84.4081 38.998 84.2787C38.8512 84.1492 38.6631 84.0852 38.4322 84.0852C38.2013 84.0852 38.0145 84.1492 37.8717 84.2787C37.7289 84.4081 37.6582 84.5776 37.6582 84.7885V85.0327C37.6582 85.0674 37.6461 85.0954 37.6221 85.1194C37.5981 85.1435 37.5701 85.1555 37.5354 85.1555H36.0674C36.0327 85.1555 36.0047 85.1435 35.9806 85.1194C35.969 85.1083 35.9597 85.0948 35.9535 85.0799C35.9473 85.0649 35.9443 85.0489 35.9446 85.0327V84.5229C35.9713 84.1426 36.0981 83.8089 36.3223 83.5233C36.5465 83.2377 36.8428 83.0189 37.2098 82.8654C37.5768 82.7119 37.9851 82.6359 38.4335 82.6359C38.9367 82.6359 39.3771 82.7293 39.7534 82.9161C40.1311 83.103 40.4193 83.3565 40.6195 83.6755C40.8197 83.9944 40.9198 84.3481 40.9198 84.7351C40.9198 85.014 40.8517 85.2956 40.7156 85.5812C40.5795 85.8668 40.3753 86.1697 40.1044 86.4887C39.9016 86.7331 39.6874 86.9678 39.4625 87.192C39.2249 87.4296 38.8953 87.7498 38.4736 88.1502L38.2694 88.3437C38.256 88.3571 38.252 88.3704 38.2587 88.3851V88.3891ZM42.4385 89.3219C41.9901 88.8842 41.7659 88.2877 41.7659 87.5323V85.0447C41.7659 84.2974 41.9901 83.7088 42.4385 83.2805C42.8869 82.8521 43.5021 82.6385 44.2842 82.6385C45.0662 82.6385 45.6841 82.8547 46.1392 83.2858C46.5943 83.7168 46.8225 84.304 46.8225 85.0447V87.5323C46.8225 88.2863 46.5943 88.8829 46.1392 89.3219C45.6841 89.7597 45.0649 89.9799 44.2842 89.9799C43.5035 89.9799 42.8882 89.761 42.4385 89.3219ZM44.9007 88.2823C45.0542 88.1222 45.1303 87.9033 45.1303 87.6244V84.9847C45.1303 84.7057 45.0542 84.4869 44.9007 84.3267C44.7473 84.1666 44.5417 84.0865 44.2842 84.0865C44.0266 84.0865 43.8318 84.1666 43.6823 84.3267C43.5328 84.4869 43.4581 84.7057 43.4581 84.9847V87.6244C43.4581 87.9033 43.5315 88.1222 43.677 88.2823C43.8224 88.4425 44.0253 88.5225 44.2828 88.5225C44.5404 88.5225 44.7473 88.4425 44.8994 88.2823H44.9007ZM49.8692 88.3891C49.8759 88.4024 49.8893 88.4091 49.9106 88.4091H52.5103C52.5437 88.4091 52.573 88.4211 52.5971 88.4451C52.6211 88.4692 52.6331 88.4985 52.6331 88.5319V89.7343C52.6331 89.769 52.6211 89.797 52.5971 89.8211C52.573 89.8451 52.545 89.8571 52.5103 89.8571H47.7286C47.6939 89.8571 47.6659 89.8451 47.6419 89.8211C47.6302 89.8099 47.621 89.7964 47.6148 89.7815C47.6086 89.7665 47.6055 89.7505 47.6059 89.7343V88.6026C47.6059 88.5412 47.6259 88.4905 47.6672 88.4491C48.0756 88.0688 48.6148 87.5216 49.2887 86.8077L49.8999 86.1657C50.5178 85.5265 50.8274 85.0607 50.8274 84.7685C50.8274 84.571 50.754 84.4081 50.6086 84.2787C50.4618 84.1492 50.2736 84.0852 50.0427 84.0852C49.8119 84.0852 49.625 84.1492 49.4822 84.2787C49.3394 84.4081 49.2687 84.5776 49.2687 84.7885V85.0327C49.2687 85.0674 49.2567 85.0954 49.2327 85.1194C49.2086 85.1435 49.1806 85.1555 49.1459 85.1555H47.6779C47.6432 85.1555 47.6152 85.1435 47.5912 85.1194C47.5795 85.1083 47.5703 85.0948 47.5641 85.0799C47.5579 85.0649 47.5548 85.0489 47.5551 85.0327V84.5229C47.5818 84.1426 47.7086 83.8089 47.9328 83.5233C48.157 83.2377 48.4533 83.0189 48.8203 82.8654C49.1873 82.7119 49.5957 82.6359 50.0441 82.6359C50.5472 82.6359 50.9876 82.7293 51.3639 82.9161C51.7416 83.103 52.0299 83.3565 52.2301 83.6755C52.4302 83.9944 52.5303 84.3481 52.5303 84.7351C52.5303 85.014 52.4623 85.2956 52.3261 85.5812C52.19 85.8668 51.9858 86.1697 51.7149 86.4887C51.5122 86.7331 51.2979 86.9678 51.073 87.192C50.8355 87.4296 50.5058 87.7498 50.0841 88.1502L49.8799 88.3437C49.8666 88.3571 49.8626 88.3704 49.8692 88.3851V88.3891ZM58.0553 87.4816C58.0553 87.8486 57.9873 88.1916 57.8512 88.5119C57.675 88.9536 57.3854 89.3019 56.985 89.5568C56.5833 89.8117 56.1122 89.9385 55.5678 89.9385C55.0233 89.9385 54.5682 89.8077 54.1611 89.5461C53.7528 89.2846 53.4578 88.9296 53.2737 88.4812C53.1642 88.2089 53.1002 87.91 53.0802 87.5844C53.0802 87.503 53.1215 87.4616 53.2029 87.4616H54.6709C54.7523 87.4616 54.7964 87.503 54.8031 87.5844C54.8164 87.7538 54.8578 87.918 54.9258 88.0741C54.9806 88.2103 55.062 88.3144 55.1701 88.3851C55.2782 88.4558 55.4076 88.4918 55.5571 88.4918C55.8427 88.4918 56.0562 88.3624 56.199 88.1048C56.2937 87.9353 56.3418 87.7111 56.3418 87.4322C56.3418 87.1533 56.2937 86.9224 56.199 86.7182C56.0562 86.4673 55.8387 86.3406 55.5464 86.3406C55.4717 86.3406 55.3889 86.3659 55.2968 86.4166C55.2048 86.4673 55.0873 86.5434 54.9445 86.6462C54.9098 86.6662 54.8831 86.6769 54.8631 86.6769C54.8231 86.6769 54.7924 86.6568 54.771 86.6155L54.0477 85.5959C54.0277 85.5625 54.017 85.5345 54.017 85.5145C54.017 85.4731 54.0344 85.4437 54.0677 85.4224L55.6371 84.2293C55.6505 84.216 55.6558 84.2026 55.6518 84.1879C55.6478 84.1746 55.6371 84.1679 55.6158 84.1679H53.3831C53.3484 84.1679 53.3204 84.1559 53.2964 84.1319C53.2847 84.1207 53.2754 84.1072 53.2692 84.0923C53.263 84.0774 53.26 84.0613 53.2603 84.0451V82.8427C53.2603 82.8094 53.2723 82.78 53.2964 82.756C53.3204 82.732 53.3484 82.7199 53.3831 82.7199H57.8285C57.8618 82.7199 57.8912 82.732 57.9152 82.756C57.9392 82.78 57.9512 82.8094 57.9512 82.8427V84.1986C57.9512 84.26 57.9272 84.3107 57.8792 84.3521L56.6461 85.321C56.6327 85.3343 56.6274 85.3477 56.6314 85.3623C56.6341 85.3757 56.6461 85.3864 56.6674 85.393C57.2106 85.5358 57.6056 85.8828 57.8498 86.4326C57.9859 86.7583 58.054 87.1093 58.054 87.4829L58.0553 87.4816Z" fill="#252530"/>
</g>
<defs>
<clipPath id="clip0_633_14744">
<rect width="94" height="106.764" fill="white"/>
</clipPath>
</defs>
</svg>
