<svg width="94" height="107" viewBox="0 0 94 107" fill="none" xmlns="http://www.w3.org/2000/svg">
<g clip-path="url(#clip0_852_15486)">
<path d="M7.64136 82.1616L47.6091 102.5L86.059 82.1616V2.63086H7.64136V82.1616Z" fill="white"/>
<path d="M86.8684 2.93433L6.83179 83.5782L48.3173 104.119L86.8684 84.3876V2.93433Z" fill="#F2F3F2"/>
<path d="M5.0105 29.1411V83.8817L6.42708 84.59L46.3948 104.928L47.609 105.535L48.8232 104.928L87.3743 84.59L88.7909 83.8817V0H5.0105V29.1411ZM7.64128 82.364V2.63079H86.1601V82.364L47.609 102.702L7.64128 82.364Z" fill="#DCDEDC"/>
<path d="M46.9007 3.94619C47.3054 3.94619 47.7102 3.94618 48.1149 4.04737L46.9007 6.37461C45.0794 6.27342 43.4604 7.69 43.3592 9.51132C43.2581 11.3326 44.6746 12.9516 46.4959 13.0528H46.9007C47.7102 13.0528 48.5196 12.7492 49.1267 12.2433L50.4421 14.4693C49.4303 15.1776 48.2161 15.5824 46.9007 15.5824C43.6628 15.6836 40.9308 13.2551 40.8296 10.0172C40.7285 6.77934 43.1569 4.04737 46.3948 3.94619H46.9007ZM51.0492 8.90421L52.567 11.4338L51.0492 13.8622L49.6327 11.4338H46.6983L48.2161 8.90421H51.0492ZM48.6208 7.99355C48.6208 7.58882 48.722 7.18408 48.9244 6.88053C49.1267 6.57697 49.5315 6.27342 49.835 6.07105L50.0374 5.96987C50.4421 5.7675 50.5433 5.66632 50.5433 5.46395C50.5433 5.26158 50.2398 5.05921 50.0374 5.05921C49.6327 5.05921 49.3291 5.26158 49.1267 5.66632L48.6208 5.1604C48.722 4.95803 48.9244 4.75566 49.1267 4.55329C49.4303 4.35092 49.7338 4.35092 50.0374 4.35092C50.3409 4.35092 50.7457 4.45211 50.948 4.65447C51.1504 4.85684 51.3528 5.1604 51.3528 5.46395C51.3528 5.96987 51.0492 6.37461 50.4421 6.57697L50.1386 6.77934C49.835 6.98171 49.6327 7.0829 49.5315 7.38645H51.3528V8.09474L48.6208 7.99355ZM46.9007 20.6416L56.5132 15.1776V0H37.187V15.0765L46.9007 20.6416Z" fill="#FF492C"/>
<path d="M90.7131 56.4608H3.08774L-0.150146 63.5437L3.08774 70.6266H90.7131L93.8499 63.5437L90.7131 56.4608Z" fill="#5A39A2"/>
<path d="M20.6027 51.9076C20.5353 51.9076 20.4847 51.8738 20.451 51.8064L19.0647 48.7202C19.0445 48.6933 19.0209 48.6798 18.9939 48.6798H17.9618C17.9214 48.6798 17.9011 48.7 17.9011 48.7405V51.776C17.9011 51.8097 17.8876 51.8401 17.8606 51.8671C17.8404 51.8941 17.8101 51.9076 17.7696 51.9076H16.4643C16.4306 51.9076 16.4002 51.8941 16.3732 51.8671C16.3463 51.8401 16.3328 51.8097 16.3328 51.776V44.2479C16.3328 44.2142 16.3463 44.1838 16.3732 44.1568C16.4002 44.1299 16.4306 44.1164 16.4643 44.1164H19.6516C20.1238 44.1164 20.542 44.2142 20.9063 44.4098C21.2638 44.5987 21.5404 44.8719 21.736 45.2294C21.9316 45.5869 22.0294 45.9984 22.0294 46.4638C22.0294 46.9698 21.9046 47.4015 21.655 47.759C21.3987 48.1233 21.0446 48.3796 20.5926 48.528C20.5589 48.5415 20.5488 48.5651 20.5623 48.5988L22.08 51.7558C22.0935 51.7828 22.1003 51.803 22.1003 51.8165C22.1003 51.8772 22.0598 51.9076 21.9788 51.9076H20.6027ZM17.9618 45.4621C17.9214 45.4621 17.9011 45.4824 17.9011 45.5228V47.4251C17.9011 47.4588 17.9214 47.4757 17.9618 47.4757H19.4189C19.7292 47.4757 19.9821 47.3846 20.1778 47.2025C20.3734 47.0136 20.4712 46.7708 20.4712 46.474C20.4712 46.1772 20.3734 45.9343 20.1778 45.7454C19.9821 45.5566 19.7292 45.4621 19.4189 45.4621H17.9618ZM28.0499 48.4572C28.0971 48.7405 28.114 49.0575 28.1005 49.4083C28.0937 49.496 28.0431 49.5398 27.9487 49.5398H24.5186C24.4713 49.5398 24.4545 49.5567 24.468 49.5904C24.4882 49.7388 24.5287 49.8872 24.5894 50.0356C24.785 50.4539 25.1796 50.663 25.7732 50.663C26.2454 50.6562 26.6198 50.464 26.8964 50.0862C26.9234 50.039 26.9571 50.0154 26.9976 50.0154C27.0178 50.0154 27.0448 50.0289 27.0785 50.0559L27.8779 50.8552C27.9116 50.889 27.9285 50.9193 27.9285 50.9463C27.9285 50.9665 27.915 50.9969 27.888 51.0374C27.6451 51.3409 27.3281 51.577 26.9369 51.7457C26.5524 51.9143 26.1308 51.9986 25.6721 51.9986C25.0312 51.9986 24.4916 51.8536 24.0531 51.5635C23.6079 51.2735 23.2909 50.8687 23.102 50.3493C22.9468 49.9783 22.8693 49.4926 22.8693 48.8923C22.8693 48.4808 22.9232 48.1199 23.0311 47.8096C23.2065 47.2834 23.5067 46.8652 23.9317 46.5549C24.3567 46.2446 24.8626 46.0895 25.4494 46.0895C26.1915 46.0895 26.7884 46.3053 27.2404 46.737C27.6856 47.162 27.9554 47.7354 28.0499 48.4572ZM25.4596 47.4453C24.9941 47.4453 24.6872 47.6646 24.5388 48.103C24.5051 48.1975 24.4781 48.3155 24.4578 48.4572C24.4578 48.4976 24.4781 48.5179 24.5186 48.5179H26.4411C26.4815 48.5179 26.495 48.4976 26.4815 48.4572C26.4478 48.2413 26.4309 48.1368 26.4309 48.1435C26.3635 47.9209 26.2454 47.7489 26.0768 47.6275C25.9081 47.506 25.7024 47.4453 25.4596 47.4453ZM31.5812 51.9986C30.9876 51.9986 30.4749 51.8502 30.0432 51.5534C29.6047 51.2566 29.2944 50.8485 29.1123 50.3291C28.9841 49.9581 28.9201 49.5196 28.9201 49.0137C28.9201 48.5145 28.9841 48.0828 29.1123 47.7185C29.2877 47.2193 29.5946 46.8247 30.0331 46.5347C30.4716 46.2446 30.9876 46.0996 31.5812 46.0996C32.1748 46.0996 32.6976 46.248 33.1496 46.5448C33.5948 46.8416 33.8916 47.216 34.04 47.6679C34.1007 47.8433 34.131 47.9782 34.131 48.0727V48.0929C34.131 48.1604 34.0939 48.2008 34.0197 48.2143L32.7347 48.4066H32.7145C32.647 48.4066 32.6032 48.3695 32.5829 48.2953L32.5526 48.1131C32.4986 47.9175 32.3839 47.759 32.2085 47.6376C32.0264 47.5094 31.8139 47.4453 31.5711 47.4453C31.335 47.4453 31.136 47.506 30.9741 47.6275C30.8055 47.7421 30.6874 47.904 30.62 48.1131C30.539 48.3357 30.4985 48.6393 30.4985 49.0238C30.4985 49.4083 30.5356 49.7119 30.6098 49.9345C30.6773 50.1571 30.7953 50.3324 30.964 50.4606C31.1326 50.5888 31.335 50.6529 31.5711 50.6529C31.8004 50.6529 32.0028 50.5922 32.1782 50.4707C32.3536 50.3426 32.475 50.1739 32.5425 49.9648C32.5492 49.9446 32.5526 49.921 32.5526 49.894C32.5593 49.8872 32.5627 49.8771 32.5627 49.8636C32.5694 49.7692 32.62 49.7321 32.7145 49.7523L33.9995 49.9446C34.0737 49.9648 34.1108 50.0087 34.1108 50.0761C34.1108 50.1301 34.0872 50.2414 34.04 50.41C33.8848 50.9025 33.5846 51.2903 33.1394 51.5736C32.6875 51.857 32.1681 51.9986 31.5812 51.9986ZM37.5005 51.9986C36.8799 51.9986 36.347 51.8333 35.9018 51.5028C35.4566 51.179 35.153 50.7338 34.9911 50.1672C34.8832 49.8232 34.8292 49.4454 34.8292 49.0339C34.8292 48.5955 34.8832 48.2042 34.9911 47.8602C35.1597 47.307 35.4667 46.8753 35.9119 46.565C36.3571 46.2547 36.89 46.0996 37.5106 46.0996C38.1244 46.0996 38.6439 46.2514 39.0688 46.5549C39.5005 46.8652 39.8075 47.2969 39.9896 47.8501C40.1043 48.2211 40.1616 48.6089 40.1616 49.0137C40.1616 49.4117 40.111 49.7861 40.0098 50.1368C39.8479 50.7169 39.5444 51.1723 39.0992 51.5028C38.6607 51.8333 38.1278 51.9986 37.5005 51.9986ZM37.5005 50.6529C37.7501 50.6529 37.9592 50.5787 38.1278 50.4303C38.2965 50.2819 38.4179 50.0761 38.4921 49.813C38.5528 49.5769 38.5831 49.3172 38.5831 49.0339C38.5831 48.7236 38.5528 48.4605 38.4921 48.2447C38.4111 47.9951 38.2863 47.7995 38.1177 47.6578C37.9491 47.5162 37.7399 47.4453 37.4904 47.4453C37.2408 47.4453 37.0317 47.5162 36.863 47.6578C36.6944 47.7995 36.5729 47.9951 36.4987 48.2447C36.4448 48.4268 36.4178 48.6899 36.4178 49.0339C36.4178 49.3712 36.4414 49.6309 36.4886 49.813C36.5628 50.0761 36.6876 50.2819 36.863 50.4303C37.0384 50.5787 37.2509 50.6529 37.5005 50.6529ZM47.5177 46.0996C48.0978 46.0996 48.5531 46.275 48.8837 46.6257C49.2075 46.9698 49.3694 47.4588 49.3694 48.0929V51.776C49.3694 51.8097 49.3559 51.8401 49.3289 51.8671C49.3019 51.8941 49.2715 51.9076 49.2378 51.9076H47.9325C47.8921 51.9076 47.8617 51.8941 47.8415 51.8671C47.8145 51.8401 47.801 51.8097 47.801 51.776V48.4369C47.801 48.1334 47.7234 47.8905 47.5683 47.7084C47.4131 47.533 47.204 47.4453 46.9409 47.4453C46.6846 47.4453 46.4721 47.533 46.3035 47.7084C46.1416 47.8905 46.0606 48.13 46.0606 48.4268V51.776C46.0606 51.8097 46.0472 51.8401 46.0202 51.8671C45.9999 51.8941 45.9696 51.9076 45.9291 51.9076H44.6339C44.6002 51.9076 44.5699 51.8941 44.5429 51.8671C44.5159 51.8401 44.5024 51.8097 44.5024 51.776V48.4369C44.5024 48.1401 44.4215 47.9007 44.2596 47.7185C44.0977 47.5364 43.8852 47.4453 43.6221 47.4453C43.386 47.4453 43.187 47.5162 43.0251 47.6578C42.87 47.7995 42.7755 47.9951 42.7418 48.2447V51.776C42.7418 51.8097 42.7317 51.8401 42.7114 51.8671C42.6845 51.8941 42.6507 51.9076 42.6103 51.9076H41.3151C41.2746 51.9076 41.2409 51.8941 41.2139 51.8671C41.1869 51.8401 41.1735 51.8097 41.1735 51.776V46.3222C41.1735 46.2817 41.1869 46.248 41.2139 46.221C41.2409 46.2008 41.2746 46.1906 41.3151 46.1906H42.6103C42.6507 46.1906 42.6845 46.2008 42.7114 46.221C42.7317 46.248 42.7418 46.2817 42.7418 46.3222V46.7573C42.7418 46.7775 42.7519 46.791 42.7722 46.7977C42.7857 46.8045 42.7991 46.7977 42.8126 46.7775C43.1162 46.3256 43.5884 46.0996 44.2292 46.0996C44.6002 46.0996 44.924 46.1772 45.2006 46.3323C45.4771 46.4875 45.6896 46.7101 45.838 47.0001C45.8583 47.0406 45.8853 47.0406 45.919 47.0001C46.0809 46.6966 46.3001 46.4706 46.5767 46.3222C46.86 46.1738 47.1737 46.0996 47.5177 46.0996ZM56.8165 46.0996C57.3966 46.0996 57.8486 46.275 58.1724 46.6257C58.4962 46.9698 58.6581 47.4588 58.6581 48.0929V51.776C58.6581 51.8097 58.6479 51.8401 58.6277 51.8671C58.6007 51.8941 58.567 51.9076 58.5265 51.9076H57.2314C57.1909 51.9076 57.1572 51.8941 57.1302 51.8671C57.1032 51.8401 57.0897 51.8097 57.0897 51.776V48.4369C57.0897 48.1334 57.0121 47.8905 56.857 47.7084C56.7018 47.533 56.4961 47.4453 56.2398 47.4453C55.9767 47.4453 55.7642 47.533 55.6023 47.7084C55.4404 47.8905 55.3595 48.13 55.3595 48.4268V51.776C55.3595 51.8097 55.346 51.8401 55.319 51.8671C55.292 51.8941 55.2583 51.9076 55.2178 51.9076H53.9328C53.8923 51.9076 53.8619 51.8941 53.8417 51.8671C53.8147 51.8401 53.8012 51.8097 53.8012 51.776V48.4369C53.8012 48.1401 53.7169 47.9007 53.5483 47.7185C53.3864 47.5364 53.1773 47.4453 52.9209 47.4453C52.6848 47.4453 52.4858 47.5162 52.3239 47.6578C52.162 47.7995 52.0676 47.9951 52.0406 48.2447V51.776C52.0406 51.8097 52.0271 51.8401 52.0001 51.8671C51.9732 51.8941 51.9428 51.9076 51.9091 51.9076H50.6038C50.5633 51.9076 50.533 51.8941 50.5127 51.8671C50.4858 51.8401 50.4723 51.8097 50.4723 51.776V46.3222C50.4723 46.2817 50.4858 46.248 50.5127 46.221C50.533 46.2008 50.5633 46.1906 50.6038 46.1906H51.9091C51.9428 46.1906 51.9732 46.2008 52.0001 46.221C52.0271 46.248 52.0406 46.2817 52.0406 46.3222V46.7573C52.0406 46.7775 52.0474 46.791 52.0609 46.7977C52.0743 46.8045 52.0878 46.7977 52.1013 46.7775C52.4116 46.3256 52.8838 46.0996 53.5179 46.0996C53.8889 46.0996 54.2127 46.1772 54.4893 46.3323C54.7726 46.4875 54.9884 46.7101 55.1369 47.0001C55.1571 47.0406 55.1807 47.0406 55.2077 47.0001C55.3763 46.6966 55.5989 46.4706 55.8755 46.3222C56.1521 46.1738 56.4657 46.0996 56.8165 46.0996ZM64.7898 48.4572C64.837 48.7405 64.8539 49.0575 64.8404 49.4083C64.8337 49.496 64.7864 49.5398 64.6987 49.5398H61.2585C61.2113 49.5398 61.1944 49.5567 61.2079 49.5904C61.2349 49.7388 61.2754 49.8872 61.3293 50.0356C61.5249 50.4539 61.9196 50.663 62.5132 50.663C62.9854 50.6562 63.3597 50.464 63.6363 50.0862C63.6633 50.039 63.697 50.0154 63.7375 50.0154C63.7577 50.0154 63.7847 50.0289 63.8184 50.0559L64.6178 50.8552C64.6515 50.889 64.6684 50.9193 64.6684 50.9463C64.6684 50.9665 64.6549 50.9969 64.6279 51.0374C64.3851 51.3409 64.068 51.577 63.6768 51.7457C63.2923 51.9143 62.8707 51.9986 62.412 51.9986C61.7779 51.9986 61.2383 51.8536 60.793 51.5635C60.3546 51.2735 60.0375 50.8687 59.8419 50.3493C59.6868 49.9783 59.6092 49.4926 59.6092 48.8923C59.6092 48.4808 59.6632 48.1199 59.7711 47.8096C59.9465 47.2834 60.2466 46.8652 60.6716 46.5549C61.0966 46.2446 61.6025 46.0895 62.1894 46.0895C62.9314 46.0895 63.5284 46.3053 63.9803 46.737C64.4255 47.162 64.6954 47.7354 64.7898 48.4572ZM62.1995 47.4453C61.7341 47.4453 61.4271 47.6646 61.2787 48.103C61.2517 48.1975 61.2248 48.3155 61.1978 48.4572C61.1978 48.4976 61.218 48.5179 61.2585 48.5179H63.181C63.2282 48.5179 63.2417 48.4976 63.2215 48.4572C63.1877 48.2413 63.1709 48.1368 63.1709 48.1435C63.1034 47.9209 62.9854 47.7489 62.8167 47.6275C62.6548 47.506 62.4491 47.4453 62.1995 47.4453ZM68.7866 46.0996C69.3802 46.0996 69.8591 46.2817 70.2234 46.646C70.5877 47.0102 70.7698 47.5027 70.7698 48.1233V51.776C70.7698 51.8097 70.7563 51.8401 70.7293 51.8671C70.7023 51.8941 70.672 51.9076 70.6383 51.9076H69.333C69.2992 51.9076 69.2689 51.8941 69.2419 51.8671C69.2149 51.8401 69.2014 51.8097 69.2014 51.776V48.4471C69.2014 48.1502 69.1171 47.9074 68.9485 47.7185C68.7866 47.5364 68.5674 47.4453 68.2908 47.4453C68.0142 47.4453 67.7916 47.5364 67.623 47.7185C67.4611 47.9074 67.3801 48.1502 67.3801 48.4471V51.776C67.3801 51.8097 67.3666 51.8401 67.3396 51.8671C67.3127 51.8941 67.2789 51.9076 67.2385 51.9076H65.9433C65.9028 51.9076 65.8691 51.8941 65.8421 51.8671C65.8219 51.8401 65.8118 51.8097 65.8118 51.776V46.3222C65.8118 46.2817 65.8219 46.248 65.8421 46.221C65.8691 46.2008 65.9028 46.1906 65.9433 46.1906H67.2385C67.2789 46.1906 67.3127 46.2008 67.3396 46.221C67.3666 46.248 67.3801 46.2817 67.3801 46.3222V46.7067C67.3801 46.7337 67.3869 46.7505 67.4004 46.7573C67.4139 46.764 67.424 46.7606 67.4307 46.7472C67.7343 46.3154 68.1862 46.0996 68.7866 46.0996ZM75.4141 44.2479C75.4141 44.2142 75.4276 44.1838 75.4546 44.1568C75.4816 44.1299 75.512 44.1164 75.5457 44.1164H76.851C76.8847 44.1164 76.915 44.1299 76.942 44.1568C76.969 44.1838 76.9825 44.2142 76.9825 44.2479V51.776C76.9825 51.8097 76.969 51.8401 76.942 51.8671C76.915 51.8941 76.8847 51.9076 76.851 51.9076H75.5457C75.512 51.9076 75.4816 51.8941 75.4546 51.8671C75.4276 51.8401 75.4141 51.8097 75.4141 51.776V51.4117C75.4141 51.3848 75.4074 51.3713 75.3939 51.3713C75.3737 51.3645 75.3568 51.3679 75.3433 51.3814C75.033 51.7929 74.608 51.9986 74.0684 51.9986C73.549 51.9986 73.1004 51.8536 72.7226 51.5635C72.3516 51.2735 72.0818 50.8755 71.9132 50.3695C71.7918 49.985 71.731 49.5365 71.731 49.0238C71.731 48.4976 71.7985 48.0389 71.9334 47.6477C72.102 47.1688 72.3685 46.791 72.7328 46.5144C73.1038 46.2379 73.5591 46.0996 74.0987 46.0996C74.6316 46.0996 75.0465 46.2851 75.3433 46.6561C75.3568 46.6763 75.3737 46.6831 75.3939 46.6763C75.4074 46.6696 75.4141 46.6561 75.4141 46.6359V44.2479ZM75.1814 50.1672C75.3298 49.8974 75.404 49.523 75.404 49.044C75.404 48.5516 75.3231 48.1637 75.1612 47.8804C74.9858 47.5904 74.7362 47.4453 74.4124 47.4453C74.0616 47.4453 73.7986 47.5904 73.6232 47.8804C73.4343 48.1705 73.3399 48.5617 73.3399 49.0542C73.3399 49.4994 73.4174 49.8704 73.5726 50.1672C73.7615 50.491 74.038 50.6529 74.4023 50.6529C74.7328 50.6529 74.9925 50.491 75.1814 50.1672ZM25.8339 40.7773C25.8002 40.7773 25.7699 40.7638 25.7429 40.7368C25.7159 40.7098 25.7024 40.6795 25.7024 40.6457V33.1176C25.7024 33.0839 25.7159 33.0536 25.7429 33.0266C25.7699 32.9996 25.8002 32.9861 25.8339 32.9861H27.1392C27.1797 32.9861 27.21 32.9996 27.2303 33.0266C27.2573 33.0536 27.2708 33.0839 27.2708 33.1176V39.3708C27.2708 39.4113 27.291 39.4315 27.3315 39.4315H30.964C31.0045 39.4315 31.0382 39.445 31.0652 39.472C31.0921 39.499 31.1056 39.5293 31.1056 39.5631V40.6457C31.1056 40.6795 31.0921 40.7098 31.0652 40.7368C31.0382 40.7638 31.0045 40.7773 30.964 40.7773H25.8339ZM32.8156 34.4128C32.5661 34.4128 32.3569 34.3285 32.1883 34.1598C32.0197 33.9912 31.9353 33.7821 31.9353 33.5325C31.9353 33.2694 32.0163 33.0569 32.1782 32.895C32.3401 32.7331 32.5526 32.6522 32.8156 32.6522C33.072 32.6522 33.2845 32.7331 33.4531 32.895C33.615 33.0569 33.6959 33.2694 33.6959 33.5325C33.6959 33.7821 33.6116 33.9912 33.443 34.1598C33.2743 34.3285 33.0652 34.4128 32.8156 34.4128ZM32.1478 40.7773C32.1074 40.7773 32.077 40.7638 32.0568 40.7368C32.0298 40.7098 32.0163 40.6795 32.0163 40.6457V35.1818C32.0163 35.1413 32.0298 35.1076 32.0568 35.0806C32.077 35.0536 32.1074 35.0401 32.1478 35.0401H33.4531C33.4868 35.0401 33.5172 35.0536 33.5442 35.0806C33.5712 35.1076 33.5846 35.1413 33.5846 35.1818V40.6457C33.5846 40.6795 33.5712 40.7098 33.5442 40.7368C33.5172 40.7638 33.4868 40.7773 33.4531 40.7773H32.1478ZM34.9405 40.7773C34.9068 40.7773 34.8764 40.7638 34.8494 40.7368C34.8225 40.7098 34.809 40.6795 34.809 40.6457V33.1176C34.809 33.0839 34.8225 33.0536 34.8494 33.0266C34.8764 32.9996 34.9068 32.9861 34.9405 32.9861H36.2458C36.2795 32.9861 36.3099 32.9996 36.3369 33.0266C36.3638 33.0536 36.3773 33.0839 36.3773 33.1176V36.8716C36.3773 36.8918 36.3841 36.9053 36.3976 36.912C36.4111 36.912 36.4279 36.9053 36.4482 36.8918L37.9558 35.1312C38.0098 35.084 38.0671 35.0604 38.1278 35.0604H39.6051C39.6793 35.0604 39.7164 35.084 39.7164 35.1312C39.7164 35.1582 39.7063 35.1885 39.686 35.2223L38.2695 37.0132C38.256 37.047 38.2526 37.0739 38.2594 37.0942L39.9188 40.6255C39.9323 40.6525 39.939 40.6727 39.939 40.6862C39.939 40.7469 39.8985 40.7773 39.8176 40.7773H38.4516C38.3774 40.7773 38.3234 40.7436 38.2897 40.6761L37.1868 38.0757C37.1801 38.0622 37.1666 38.0521 37.1463 38.0453C37.1328 38.0386 37.1227 38.0453 37.116 38.0655L36.3976 38.956C36.3841 38.983 36.3773 39.0032 36.3773 39.0167V40.6457C36.3773 40.6795 36.3638 40.7098 36.3369 40.7368C36.3099 40.7638 36.2795 40.7773 36.2458 40.7773H34.9405ZM45.2916 37.3269C45.3389 37.6102 45.3524 37.9273 45.3321 38.278C45.3254 38.3657 45.2782 38.4096 45.1905 38.4096H41.7502C41.7097 38.4096 41.6962 38.4264 41.7097 38.4602C41.73 38.6086 41.7704 38.757 41.8311 38.9054C42.0268 39.3236 42.4214 39.5327 43.015 39.5327C43.4872 39.526 43.8616 39.3337 44.1381 38.956C44.1651 38.9088 44.1989 38.8851 44.2393 38.8851C44.2596 38.8851 44.2832 38.8986 44.3102 38.9256L45.1095 39.725C45.15 39.7587 45.1702 39.7891 45.1702 39.816C45.1702 39.8363 45.1567 39.8666 45.1298 39.9071C44.8802 40.2107 44.5631 40.4468 44.1786 40.6154C43.7941 40.784 43.3725 40.8684 42.9138 40.8684C42.273 40.8684 41.7333 40.7233 41.2949 40.4333C40.8497 40.1432 40.5326 39.7385 40.3437 39.219C40.1818 38.848 40.1009 38.3624 40.1009 37.762C40.1009 37.3505 40.1582 36.9896 40.2729 36.6793C40.4416 36.1532 40.7417 35.7349 41.1735 35.4246C41.5984 35.1143 42.1043 34.9592 42.6912 34.9592C43.4332 34.9592 44.0268 35.1751 44.4721 35.6068C44.924 36.0317 45.1972 36.6051 45.2916 37.3269ZM42.7013 36.3151C42.2291 36.3151 41.9188 36.5343 41.7704 36.9728C41.7435 37.0672 41.7198 37.1852 41.6996 37.3269C41.6996 37.3674 41.7165 37.3876 41.7502 37.3876H43.6828C43.7233 37.3876 43.7368 37.3674 43.7233 37.3269C43.6828 37.111 43.6626 37.0065 43.6626 37.0132C43.6019 36.7906 43.4872 36.6186 43.3186 36.4972C43.1499 36.3758 42.9442 36.3151 42.7013 36.3151ZM46.435 40.7773C46.4013 40.7773 46.3709 40.7638 46.344 40.7368C46.317 40.7098 46.3035 40.6795 46.3035 40.6457V33.1176C46.3035 33.0839 46.317 33.0536 46.344 33.0266C46.3709 32.9996 46.4013 32.9861 46.435 32.9861H47.7403C47.7808 32.9861 47.8111 32.9996 47.8314 33.0266C47.8583 33.0536 47.8718 33.0839 47.8718 33.1176V40.6457C47.8718 40.6795 47.8583 40.7098 47.8314 40.7368C47.8111 40.7638 47.7808 40.7773 47.7403 40.7773H46.435ZM48.9849 42.9932C48.9646 42.9932 48.9478 42.9797 48.9343 42.9527C48.9208 42.9258 48.914 42.8954 48.914 42.8617V41.8296C48.914 41.7959 48.9241 41.7655 48.9444 41.7385C48.9714 41.7116 49.0051 41.6981 49.0456 41.6981C49.3559 41.6913 49.6021 41.6677 49.7842 41.6272C49.9663 41.58 50.1114 41.4923 50.2193 41.3642C50.3272 41.2427 50.4116 41.0572 50.4723 40.8076C50.479 40.7941 50.479 40.7739 50.4723 40.7469L48.6408 35.202C48.6341 35.1885 48.6307 35.1683 48.6307 35.1413C48.6307 35.0739 48.6712 35.0401 48.7521 35.0401H50.1485C50.2294 35.0401 50.28 35.0806 50.3003 35.1616L51.2311 38.7637C51.2446 38.784 51.2581 38.7941 51.2716 38.7941C51.2851 38.7941 51.2952 38.784 51.302 38.7637L52.2329 35.1616C52.2598 35.0806 52.3138 35.0401 52.3948 35.0401H53.7506C53.7978 35.0401 53.8282 35.0536 53.8417 35.0806C53.8619 35.1076 53.8653 35.1481 53.8518 35.202L51.9293 40.9898C51.7404 41.5294 51.5516 41.9342 51.3627 42.204C51.1671 42.4738 50.8939 42.6728 50.5431 42.801C50.1991 42.9291 49.7066 42.9932 49.0658 42.9932H48.9849ZM62.331 32.9861C62.3715 32.9861 62.4052 32.9996 62.4322 33.0266C62.4525 33.0536 62.4626 33.0839 62.4626 33.1176V34.2104C62.4626 34.2509 62.4525 34.2813 62.4322 34.3015C62.4052 34.3285 62.3715 34.342 62.331 34.342H60.3377C60.304 34.342 60.2871 34.3622 60.2871 34.4027V40.6457C60.2871 40.6795 60.2736 40.7098 60.2467 40.7368C60.2197 40.7638 60.1893 40.7773 60.1556 40.7773H58.8503C58.8098 40.7773 58.7795 40.7638 58.7592 40.7368C58.7323 40.7098 58.7188 40.6795 58.7188 40.6457V34.4027C58.7188 34.3622 58.6985 34.342 58.6581 34.342H56.7254C56.685 34.342 56.6512 34.3285 56.6243 34.3015C56.604 34.2813 56.5939 34.2509 56.5939 34.2104V33.1176C56.5939 33.0839 56.604 33.0536 56.6243 33.0266C56.6512 32.9996 56.685 32.9861 56.7254 32.9861H62.331ZM64.9618 40.8684C64.3345 40.8684 63.7982 40.7031 63.353 40.3725C62.9078 40.0488 62.6042 39.6035 62.4423 39.0369C62.3412 38.6929 62.2906 38.3151 62.2906 37.9037C62.2906 37.4652 62.3412 37.0739 62.4423 36.7299C62.611 36.1768 62.9213 35.7451 63.3732 35.4348C63.8117 35.1245 64.3446 34.9693 64.9719 34.9693C65.5791 34.9693 66.0985 35.1211 66.5302 35.4246C66.9619 35.7349 67.2654 36.1667 67.4408 36.7198C67.5623 37.0908 67.623 37.4787 67.623 37.8834C67.623 38.2814 67.569 38.6558 67.4611 39.0066C67.2992 39.5867 66.999 40.042 66.5605 40.3725C66.1153 40.7031 65.5824 40.8684 64.9618 40.8684ZM64.9618 39.5226C65.2047 39.5226 65.4104 39.4484 65.579 39.3C65.7544 39.1516 65.8792 38.9459 65.9534 38.6828C66.0141 38.4467 66.0445 38.187 66.0445 37.9037C66.0445 37.5934 66.0141 37.3303 65.9534 37.1144C65.8725 36.8648 65.7443 36.6692 65.5689 36.5275C65.4003 36.3859 65.1945 36.3151 64.9517 36.3151C64.6954 36.3151 64.4863 36.3859 64.3244 36.5275C64.1557 36.6692 64.0343 36.8648 63.9601 37.1144C63.8994 37.2965 63.869 37.5596 63.869 37.9037C63.869 38.2409 63.896 38.5006 63.95 38.6828C64.0242 38.9459 64.149 39.1516 64.3244 39.3C64.493 39.4484 64.7055 39.5226 64.9618 39.5226ZM22.758 29.7381C22.1913 29.7381 21.6888 29.6268 21.2503 29.4042C20.8186 29.1816 20.4813 28.8679 20.2385 28.4632C20.0024 28.0584 19.8843 27.593 19.8843 27.0668V21.9874C19.8843 21.9536 19.8944 21.9233 19.9147 21.8963C19.9417 21.8693 19.9754 21.8558 20.0159 21.8558H21.311C21.3515 21.8558 21.3852 21.8693 21.4122 21.8963C21.4392 21.9233 21.4527 21.9536 21.4527 21.9874V27.0769C21.4527 27.4682 21.5707 27.7852 21.8068 28.0281C22.0497 28.2709 22.3667 28.3923 22.758 28.3923C23.1559 28.3923 23.4764 28.2709 23.7192 28.0281C23.9553 27.7852 24.0733 27.4682 24.0733 27.0769V21.9874C24.0733 21.9536 24.0868 21.9233 24.1138 21.8963C24.1408 21.8693 24.1712 21.8558 24.2049 21.8558H25.5102C25.5506 21.8558 25.5844 21.8693 25.6113 21.8963C25.6316 21.9233 25.6417 21.9536 25.6417 21.9874V27.0668C25.6417 27.593 25.5237 28.0584 25.2876 28.4632C25.0447 28.8679 24.7074 29.1816 24.2757 29.4042C23.8372 29.6268 23.3313 29.7381 22.758 29.7381ZM29.1224 29.728C28.6233 29.728 28.1882 29.6571 27.8172 29.5155C27.4461 29.3738 27.1595 29.1782 26.9571 28.9286C26.748 28.6723 26.6434 28.3856 26.6434 28.0685V27.9572C26.6434 27.9168 26.6569 27.883 26.6839 27.8561C26.7109 27.8358 26.7446 27.8257 26.7851 27.8257H28.0195C28.0533 27.8257 28.0836 27.8358 28.1106 27.8561C28.1376 27.883 28.1511 27.9168 28.1511 27.9572V27.9674C28.1511 28.1293 28.2421 28.2675 28.4243 28.3822C28.6064 28.4969 28.8324 28.5542 29.1022 28.5542C29.3585 28.5542 29.5643 28.5036 29.7194 28.4025C29.8746 28.3013 29.9521 28.1798 29.9521 28.0382C29.9521 27.9033 29.8847 27.8021 29.7498 27.7346C29.6149 27.6672 29.3956 27.5964 29.0921 27.5222C28.748 27.4345 28.4749 27.3501 28.2725 27.2692C27.8003 27.1006 27.4225 26.8982 27.1392 26.6621C26.8559 26.426 26.7142 26.0853 26.7142 25.6401C26.7142 25.0937 26.9267 24.6586 27.3517 24.3348C27.7767 24.0111 28.3433 23.8492 29.0516 23.8492C29.5238 23.8492 29.9386 23.9234 30.2962 24.0718C30.6537 24.2269 30.9303 24.4428 31.1259 24.7194C31.3215 24.9892 31.4193 25.2995 31.4193 25.6502C31.4193 25.6907 31.4058 25.7211 31.3788 25.7413C31.3586 25.7683 31.3282 25.7818 31.2878 25.7818H30.0938C30.0601 25.7818 30.0297 25.7683 30.0027 25.7413C29.9757 25.7211 29.9623 25.6907 29.9623 25.6502C29.9623 25.4883 29.8779 25.3501 29.7093 25.2354C29.5474 25.1275 29.3282 25.0735 29.0516 25.0735C28.8088 25.0735 28.6098 25.1173 28.4546 25.205C28.2995 25.2927 28.2219 25.4141 28.2219 25.5693C28.2219 25.7177 28.2961 25.829 28.4445 25.9032C28.5996 25.9774 28.8526 26.0584 29.2034 26.146C29.2911 26.1663 29.3855 26.1899 29.4867 26.2169L29.8206 26.3079C30.3468 26.4631 30.7616 26.6621 31.0652 26.9049C31.3687 27.1545 31.5205 27.512 31.5205 27.9775C31.5205 28.5239 31.3046 28.9522 30.8729 29.2625C30.4344 29.5728 29.851 29.728 29.1224 29.728ZM37.4904 26.1966C37.5308 26.48 37.5443 26.797 37.5308 27.1478C37.5241 27.2355 37.4769 27.2793 37.3892 27.2793H33.9489C33.9017 27.2793 33.8882 27.2962 33.9084 27.3299C33.9287 27.4783 33.9691 27.6267 34.0299 27.7751C34.2187 28.1933 34.61 28.4025 35.2036 28.4025C35.6825 28.3957 36.0569 28.2035 36.3267 27.8257C36.3605 27.7785 36.3942 27.7549 36.4279 27.7549C36.4549 27.7549 36.4819 27.7684 36.5089 27.7953L37.3082 28.5947C37.3487 28.6284 37.3689 28.6588 37.3689 28.6858C37.3689 28.706 37.3521 28.7364 37.3183 28.7768C37.0755 29.0804 36.7618 29.3165 36.3773 29.4851C35.9928 29.6538 35.5679 29.7381 35.1024 29.7381C34.4683 29.7381 33.9287 29.5931 33.4835 29.303C33.045 29.0129 32.728 28.6082 32.5323 28.0888C32.3772 27.7178 32.2996 27.2321 32.2996 26.6317C32.2996 26.2202 32.3569 25.8594 32.4716 25.5491C32.6403 25.0229 32.9371 24.6047 33.362 24.2944C33.787 23.9841 34.2929 23.8289 34.8798 23.8289C35.6218 23.8289 36.2188 24.0448 36.6708 24.4765C37.1227 24.9015 37.3959 25.4749 37.4904 26.1966ZM34.8899 25.1848C34.4245 25.1848 34.1175 25.404 33.9691 25.8425C33.9422 25.9369 33.9152 26.055 33.8882 26.1966C33.8882 26.2371 33.9084 26.2574 33.9489 26.2574H35.8714C35.9186 26.2574 35.9355 26.2371 35.922 26.1966C35.8815 25.9808 35.8613 25.8762 35.8613 25.883C35.7938 25.6604 35.6792 25.4883 35.5173 25.3669C35.3486 25.2455 35.1395 25.1848 34.8899 25.1848ZM41.3556 23.8492C41.6187 23.8492 41.8278 23.8998 41.9829 24.0009C42.0436 24.0347 42.0672 24.092 42.0538 24.173L41.821 25.4378C41.8143 25.5255 41.7603 25.5524 41.6591 25.5187C41.5512 25.4782 41.423 25.458 41.2746 25.458C41.2139 25.458 41.133 25.4681 41.0318 25.4883C40.762 25.5086 40.5326 25.6064 40.3437 25.7818C40.1616 25.9572 40.0705 26.1899 40.0705 26.48V29.5155C40.0705 29.5492 40.0571 29.5796 40.0301 29.6065C40.0031 29.6335 39.9727 29.647 39.939 29.647H38.6337C38.6 29.647 38.5696 29.6335 38.5427 29.6065C38.5157 29.5796 38.5022 29.5492 38.5022 29.5155V24.0617C38.5022 24.0212 38.5157 23.9875 38.5427 23.9605C38.5696 23.9402 38.6 23.9301 38.6337 23.9301H39.939C39.9727 23.9301 40.0031 23.9402 40.0301 23.9605C40.0571 23.9875 40.0705 24.0212 40.0705 24.0617V24.4866C40.0705 24.5069 40.0773 24.5204 40.0908 24.5271C40.1043 24.5338 40.1178 24.5305 40.1313 24.517C40.4348 24.0718 40.8429 23.8492 41.3556 23.8492ZM44.9577 29.728C44.4586 29.728 44.0235 29.6571 43.6525 29.5155C43.2815 29.3738 42.9948 29.1782 42.7924 28.9286C42.59 28.6723 42.4888 28.3856 42.4888 28.0685V27.9572C42.4888 27.9168 42.5023 27.883 42.5293 27.8561C42.5496 27.8358 42.5799 27.8257 42.6204 27.8257H43.8548C43.8886 27.8257 43.9189 27.8358 43.9459 27.8561C43.9729 27.883 43.9864 27.9168 43.9864 27.9572V27.9674C43.9864 28.1293 44.0774 28.2675 44.2596 28.3822C44.4417 28.4969 44.671 28.5542 44.9476 28.5542C45.1972 28.5542 45.3996 28.5036 45.5547 28.4025C45.7099 28.3013 45.7874 28.1798 45.7874 28.0382C45.7874 27.9033 45.7234 27.8021 45.5952 27.7346C45.4603 27.6672 45.2411 27.5964 44.9375 27.5222C44.5867 27.4345 44.3102 27.3501 44.1078 27.2692C43.6356 27.1006 43.2578 26.8982 42.9745 26.6621C42.6912 26.426 42.5496 26.0853 42.5496 25.6401C42.5496 25.0937 42.7654 24.6586 43.1971 24.3348C43.6221 24.0111 44.1854 23.8492 44.8869 23.8492C45.3658 23.8492 45.7807 23.9234 46.1315 24.0718C46.489 24.2269 46.7656 24.4428 46.9612 24.7194C47.1635 24.9892 47.2647 25.2995 47.2647 25.6502C47.2647 25.6907 47.2512 25.7211 47.2243 25.7413C47.1973 25.7683 47.1635 25.7818 47.1231 25.7818H45.9392C45.8987 25.7818 45.865 25.7683 45.838 25.7413C45.8111 25.7211 45.7976 25.6907 45.7976 25.6502C45.7976 25.4883 45.7166 25.3501 45.5547 25.2354C45.3861 25.1275 45.1635 25.0735 44.8869 25.0735C44.6441 25.0735 44.4451 25.1173 44.2899 25.205C44.1348 25.2927 44.0572 25.4141 44.0572 25.5693C44.0572 25.7177 44.1314 25.829 44.2798 25.9032C44.435 25.9774 44.6913 26.0584 45.0488 26.146C45.1297 26.1663 45.2208 26.1899 45.322 26.2169C45.4299 26.2439 45.5412 26.2742 45.6559 26.3079C46.1821 26.4631 46.5969 26.6621 46.9005 26.9049C47.204 27.1545 47.3558 27.512 47.3558 27.9775C47.3558 28.5239 47.1399 28.9522 46.7082 29.2625C46.2765 29.5728 45.693 29.728 44.9577 29.728ZM55.5922 21.9469C55.6327 21.8862 55.6866 21.8558 55.7541 21.8558H57.0594C57.0931 21.8558 57.1234 21.8693 57.1504 21.8963C57.1774 21.9233 57.1909 21.9536 57.1909 21.9874V29.5155C57.1909 29.5492 57.1774 29.5796 57.1504 29.6065C57.1234 29.6335 57.0931 29.647 57.0594 29.647H55.7541C55.7136 29.647 55.6833 29.6335 55.663 29.6065C55.636 29.5796 55.6225 29.5492 55.6225 29.5155V24.608C55.6225 24.5743 55.6124 24.5575 55.5922 24.5575C55.5787 24.5575 55.5652 24.5709 55.5517 24.5979L54.3679 26.4395C54.3341 26.5002 54.2835 26.5305 54.2161 26.5305H53.5584C53.4909 26.5305 53.4403 26.5002 53.4066 26.4395L52.2228 24.5979C52.2093 24.5709 52.1958 24.5608 52.1823 24.5676C52.1688 24.5676 52.162 24.5844 52.162 24.6182V29.5155C52.162 29.5492 52.1486 29.5796 52.1216 29.6065C52.0946 29.6335 52.0609 29.647 52.0204 29.647H50.7252C50.6848 29.647 50.651 29.6335 50.624 29.6065C50.5971 29.5796 50.5836 29.5492 50.5836 29.5155V21.9874C50.5836 21.9536 50.5971 21.9233 50.624 21.8963C50.651 21.8693 50.6848 21.8558 50.7252 21.8558H52.0204C52.0878 21.8558 52.1418 21.8862 52.1823 21.9469L53.8518 24.5372C53.8721 24.5844 53.8923 24.5844 53.9125 24.5372L55.5922 21.9469ZM60.9752 29.7381C60.3478 29.7381 59.8116 29.5728 59.3663 29.2423C58.9211 28.9185 58.6176 28.4733 58.4557 27.9067C58.3545 27.5626 58.3039 27.1849 58.3039 26.7734C58.3039 26.3349 58.3545 25.9437 58.4557 25.5997C58.6243 25.0465 58.9346 24.6148 59.3866 24.3045C59.8251 23.9942 60.3579 23.839 60.9853 23.839C61.5924 23.839 62.1118 23.9908 62.5435 24.2944C62.9752 24.6047 63.2788 25.0364 63.4542 25.5895C63.5756 25.9605 63.6363 26.3484 63.6363 26.7532C63.6363 27.1511 63.5823 27.5255 63.4744 27.8763C63.3125 28.4564 63.0123 28.9117 62.5739 29.2423C62.1287 29.5728 61.5958 29.7381 60.9752 29.7381ZM60.9752 28.3923C61.218 28.3923 61.4238 28.3181 61.5924 28.1697C61.7678 28.0213 61.8926 27.8156 61.9668 27.5525C62.0275 27.3164 62.0578 27.0567 62.0578 26.7734C62.0578 26.4631 62.0275 26.2 61.9668 25.9842C61.8858 25.7346 61.7577 25.5389 61.5823 25.3973C61.4136 25.2556 61.2079 25.1848 60.9651 25.1848C60.7087 25.1848 60.4996 25.2556 60.3377 25.3973C60.1691 25.5389 60.0477 25.7346 59.9735 25.9842C59.9127 26.1663 59.8824 26.4294 59.8824 26.7734C59.8824 27.1107 59.9094 27.3704 59.9633 27.5525C60.0375 27.8156 60.1623 28.0213 60.3377 28.1697C60.5064 28.3181 60.7188 28.3923 60.9752 28.3923ZM66.9248 29.728C66.4324 29.728 66.0007 29.6571 65.6296 29.5155C65.2586 29.3738 64.9686 29.1782 64.7595 28.9286C64.5571 28.6723 64.4559 28.3856 64.4559 28.0685V27.9572C64.4559 27.9168 64.4694 27.883 64.4964 27.8561C64.5234 27.8358 64.5537 27.8257 64.5874 27.8257H65.8219C65.8624 27.8257 65.8961 27.8358 65.9231 27.8561C65.9501 27.883 65.9635 27.9168 65.9635 27.9572V27.9674C65.9635 28.1293 66.0546 28.2675 66.2367 28.3822C66.4189 28.4969 66.6449 28.5542 66.9147 28.5542C67.171 28.5542 67.3768 28.5036 67.5319 28.4025C67.6871 28.3013 67.7646 28.1798 67.7646 28.0382C67.7646 27.9033 67.6972 27.8021 67.5623 27.7346C67.4273 27.6672 67.2081 27.5964 66.9046 27.5222C66.5538 27.4345 66.2806 27.3501 66.085 27.2692C65.606 27.1006 65.2283 26.8982 64.9517 26.6621C64.6684 26.426 64.5267 26.0853 64.5267 25.6401C64.5267 25.0937 64.7392 24.6586 65.1642 24.3348C65.5892 24.0111 66.1558 23.8492 66.8641 23.8492C67.3363 23.8492 67.7511 23.9234 68.1087 24.0718C68.4662 24.2269 68.7427 24.4428 68.9384 24.7194C69.134 24.9892 69.2318 25.2995 69.2318 25.6502C69.2318 25.6907 69.2183 25.7211 69.1913 25.7413C69.1643 25.7683 69.134 25.7818 69.1003 25.7818H67.9063C67.8726 25.7818 67.8422 25.7683 67.8152 25.7413C67.7882 25.7211 67.7747 25.6907 67.7747 25.6502C67.7747 25.4883 67.6904 25.3501 67.5218 25.2354C67.3531 25.1275 67.1339 25.0735 66.8641 25.0735C66.6145 25.0735 66.4121 25.1173 66.257 25.205C66.1018 25.2927 66.0243 25.4141 66.0243 25.5693C66.0243 25.7177 66.1018 25.829 66.257 25.9032C66.4054 25.9774 66.6583 26.0584 67.0159 26.146L67.2992 26.2169L67.6331 26.3079C68.1592 26.4631 68.5741 26.6621 68.8777 26.9049C69.1812 27.1545 69.333 27.512 69.333 27.9775C69.333 28.5239 69.1171 28.9522 68.6854 29.2625C68.2469 29.5728 67.6601 29.728 66.9248 29.728ZM73.5018 25.0533C73.5018 25.087 73.4916 25.1173 73.4714 25.1443C73.4444 25.1713 73.4107 25.1848 73.3702 25.1848H72.3078C72.2673 25.1848 72.2471 25.2017 72.2471 25.2354V27.6031C72.2471 27.8459 72.2977 28.0281 72.3989 28.1495C72.5 28.2642 72.6619 28.3215 72.8845 28.3215H73.2488C73.2893 28.3215 73.3196 28.335 73.3399 28.362C73.3668 28.389 73.3803 28.4193 73.3803 28.453V29.5155C73.3803 29.5964 73.3365 29.6436 73.2488 29.6571C72.9385 29.6706 72.7159 29.6774 72.581 29.6774C71.9671 29.6774 71.5084 29.5762 71.2049 29.3738C70.9013 29.1715 70.7462 28.787 70.7394 28.2203V25.2354C70.7394 25.2017 70.7192 25.1848 70.6787 25.1848H70.0413C70.0075 25.1848 69.9772 25.1713 69.9502 25.1443C69.9232 25.1173 69.9097 25.087 69.9097 25.0533V24.0617C69.9097 24.0212 69.9232 23.9875 69.9502 23.9605C69.9772 23.9402 70.0075 23.9301 70.0413 23.9301H70.6787C70.7192 23.9301 70.7394 23.9099 70.7394 23.8694V22.5439C70.7394 22.5102 70.7496 22.4798 70.7698 22.4528C70.7968 22.4258 70.8305 22.4123 70.871 22.4123H72.1155C72.1493 22.4123 72.1796 22.4258 72.2066 22.4528C72.2336 22.4798 72.2471 22.5102 72.2471 22.5439V23.8694C72.2471 23.9099 72.2673 23.9301 72.3078 23.9301H73.3702C73.4107 23.9301 73.4444 23.9402 73.4714 23.9605C73.4916 23.9875 73.5018 24.0212 73.5018 24.0617V25.0533Z" fill="#252530"/>
<path d="M28.5256 61.2975C28.5256 61.3312 28.5155 61.3582 28.4953 61.3784C28.4683 61.4054 28.4379 61.4189 28.4042 61.4189H24.9538C24.9201 61.4189 24.9032 61.4357 24.9032 61.4695V63.3616C24.9032 63.3953 24.9201 63.4122 24.9538 63.4122H27.2709C27.3047 63.4122 27.335 63.4223 27.362 63.4426C27.3822 63.4696 27.3924 63.4999 27.3924 63.5336V64.3026C27.3924 64.3364 27.3822 64.3667 27.362 64.3937C27.335 64.4139 27.3047 64.4241 27.2709 64.4241H24.9538C24.9201 64.4241 24.9032 64.4409 24.9032 64.4746V66.4275C24.9032 66.4612 24.9201 66.4781 24.9538 66.4781H28.4042C28.4379 66.4781 28.4683 66.4916 28.4953 66.5186C28.5155 66.5388 28.5256 66.5658 28.5256 66.5995V67.3685C28.5256 67.4022 28.5155 67.4292 28.4953 67.4495C28.4683 67.4764 28.4379 67.4899 28.4042 67.4899H23.8509C23.8172 67.4899 23.7902 67.4764 23.77 67.4495C23.743 67.4292 23.7295 67.4022 23.7295 67.3685V60.5285C23.7295 60.4947 23.743 60.4678 23.77 60.4475C23.7902 60.4205 23.8172 60.407 23.8509 60.407H28.4042C28.4379 60.407 28.4683 60.4205 28.4953 60.4475C28.5155 60.4678 28.5256 60.4947 28.5256 60.5285V61.2975ZM32.0873 62.2385C32.6337 62.2385 33.0722 62.4004 33.4027 62.7242C33.7265 63.048 33.8884 63.4898 33.8884 64.0497V67.3685C33.8884 67.4022 33.8749 67.4292 33.8479 67.4495C33.8277 67.4764 33.8007 67.4899 33.767 67.4899H32.8361C32.8023 67.4899 32.772 67.4764 32.745 67.4495C32.7248 67.4292 32.7146 67.4022 32.7146 67.3685V64.2925C32.7146 63.9822 32.6269 63.7293 32.4516 63.5336C32.2762 63.3448 32.0435 63.2503 31.7534 63.2503C31.4633 63.2503 31.2272 63.3448 31.0451 63.5336C30.8697 63.7225 30.782 63.9721 30.782 64.2824V67.3685C30.782 67.4022 30.7719 67.4292 30.7517 67.4495C30.7247 67.4764 30.6943 67.4899 30.6606 67.4899H29.7297C29.696 67.4899 29.669 67.4764 29.6488 67.4495C29.6218 67.4292 29.6083 67.4022 29.6083 67.3685V62.4408C29.6083 62.4071 29.6218 62.3768 29.6488 62.3498C29.669 62.3295 29.696 62.3194 29.7297 62.3194H30.6606C30.6943 62.3194 30.7247 62.3295 30.7517 62.3498C30.7719 62.3768 30.782 62.4071 30.782 62.4408V62.7646C30.782 62.7849 30.7888 62.7984 30.8023 62.8051C30.8157 62.8119 30.8259 62.8051 30.8326 62.7849C31.1092 62.4206 31.5274 62.2385 32.0873 62.2385ZM37.8548 63.1491C37.8548 63.1829 37.8413 63.2098 37.8143 63.2301C37.7941 63.2571 37.7671 63.2706 37.7334 63.2706H36.7013C36.6676 63.2706 36.6507 63.2874 36.6507 63.3211V65.7597C36.6507 66.016 36.7047 66.2015 36.8126 66.3162C36.9273 66.4309 37.106 66.4882 37.3489 66.4882H37.6524C37.6861 66.4882 37.7131 66.4983 37.7334 66.5186C37.7604 66.5456 37.7738 66.5759 37.7738 66.6096V67.3685C37.7738 67.4427 37.7334 67.4866 37.6524 67.5001L37.1263 67.5102C36.5934 67.5102 36.1954 67.4191 35.9323 67.237C35.6692 67.0548 35.5343 66.7108 35.5276 66.2049V63.3211C35.5276 63.2874 35.5107 63.2706 35.477 63.2706H34.9002C34.8665 63.2706 34.8361 63.2571 34.8091 63.2301C34.7889 63.2098 34.7788 63.1829 34.7788 63.1491V62.4408C34.7788 62.4071 34.7889 62.3768 34.8091 62.3498C34.8361 62.3295 34.8665 62.3194 34.9002 62.3194H35.477C35.5107 62.3194 35.5276 62.3026 35.5276 62.2688V61.085C35.5276 61.0512 35.5377 61.0209 35.5579 60.9939C35.5849 60.9737 35.6152 60.9636 35.649 60.9636H36.5293C36.563 60.9636 36.59 60.9737 36.6102 60.9939C36.6372 61.0209 36.6507 61.0512 36.6507 61.085V62.2688C36.6507 62.3026 36.6676 62.3194 36.7013 62.3194H37.7334C37.7671 62.3194 37.7941 62.3295 37.8143 62.3498C37.8413 62.3768 37.8548 62.4071 37.8548 62.4408V63.1491ZM43.1568 64.3229C43.1838 64.4915 43.1973 64.6804 43.1973 64.8895L43.1872 65.2032C43.1872 65.2841 43.1467 65.3246 43.0658 65.3246H39.8987C39.865 65.3246 39.8481 65.3415 39.8481 65.3752C39.8684 65.5978 39.8987 65.7496 39.9392 65.8305C40.1011 66.3162 40.4957 66.5624 41.123 66.5692C41.5817 66.5692 41.946 66.3803 42.2158 66.0025C42.2428 65.9621 42.2765 65.9418 42.317 65.9418C42.344 65.9418 42.3676 65.9519 42.3878 65.9722L43.0152 66.4882C43.0759 66.5354 43.086 66.5894 43.0455 66.6501C42.8364 66.9469 42.5598 67.1763 42.2158 67.3382C41.8651 67.5001 41.4772 67.581 41.0522 67.581C40.526 67.581 40.0775 67.463 39.7065 67.2269C39.3422 66.9908 39.0757 66.6602 38.9071 66.2353C38.752 65.871 38.6744 65.3651 38.6744 64.7175C38.6744 64.3262 38.7149 64.0092 38.7958 63.7664C38.9307 63.2942 39.187 62.9198 39.5648 62.6432C39.9358 62.3734 40.3844 62.2385 40.9105 62.2385C42.2394 62.2385 42.9882 62.9333 43.1568 64.3229ZM40.9105 63.2503C40.661 63.2503 40.4518 63.3144 40.2832 63.4426C40.1213 63.564 40.0066 63.736 39.9392 63.9586C39.8987 64.0733 39.8717 64.2217 39.8582 64.4038C39.8447 64.4375 39.8582 64.4544 39.8987 64.4544H41.9527C41.9865 64.4544 42.0033 64.4375 42.0033 64.4038C41.9898 64.2352 41.9696 64.107 41.9426 64.0193C41.8819 63.7765 41.7639 63.5876 41.5885 63.4527C41.4064 63.3178 41.1804 63.2503 40.9105 63.2503ZM46.678 62.2587C46.8939 62.2587 47.0828 62.3026 47.2447 62.3903C47.2986 62.4172 47.3189 62.4678 47.3054 62.542L47.1334 63.4527C47.1266 63.5336 47.0794 63.5572 46.9917 63.5235C46.8905 63.4898 46.7725 63.4729 46.6376 63.4729C46.5499 63.4729 46.4824 63.4763 46.4352 63.483C46.1519 63.4965 45.9158 63.5943 45.7269 63.7765C45.538 63.9654 45.4436 64.2082 45.4436 64.505V67.3685C45.4436 67.4022 45.4335 67.4292 45.4132 67.4495C45.3863 67.4764 45.3559 67.4899 45.3222 67.4899H44.3913C44.3575 67.4899 44.3306 67.4764 44.3103 67.4495C44.2833 67.4292 44.2699 67.4022 44.2699 67.3685V62.4408C44.2699 62.4071 44.2833 62.3768 44.3103 62.3498C44.3306 62.3295 44.3575 62.3194 44.3913 62.3194H45.3222C45.3559 62.3194 45.3863 62.3295 45.4132 62.3498C45.4335 62.3768 45.4436 62.4071 45.4436 62.4408V62.8962C45.4436 62.9232 45.447 62.9366 45.4537 62.9366C45.4672 62.9434 45.4807 62.9366 45.4942 62.9164C45.7775 62.4779 46.1721 62.2587 46.678 62.2587ZM52.4556 63.6551C52.5771 63.9991 52.6378 64.4207 52.6378 64.9199C52.6378 65.3988 52.5804 65.8103 52.4658 66.1543C52.3174 66.5995 52.0813 66.9469 51.7575 67.1965C51.4269 67.4461 51.0121 67.5709 50.5129 67.5709C50.034 67.5709 49.6495 67.3989 49.3594 67.0548C49.3459 67.0414 49.3324 67.038 49.3189 67.0447C49.3055 67.0515 49.2987 67.065 49.2987 67.0852V69.2809C49.2987 69.3146 49.2886 69.3416 49.2684 69.3618C49.2414 69.3888 49.211 69.4023 49.1773 69.4023H48.2464C48.2127 69.4023 48.1857 69.3888 48.1654 69.3618C48.1385 69.3416 48.125 69.3146 48.125 69.2809V62.4408C48.125 62.4071 48.1385 62.3768 48.1654 62.3498C48.1857 62.3295 48.2127 62.3194 48.2464 62.3194H49.1773C49.211 62.3194 49.2414 62.3295 49.2684 62.3498C49.2886 62.3768 49.2987 62.4071 49.2987 62.4408V62.7444C49.2987 62.7646 49.3055 62.7781 49.3189 62.7849C49.3324 62.7916 49.3459 62.7849 49.3594 62.7646C49.6562 62.4139 50.0441 62.2385 50.523 62.2385C51.002 62.2385 51.4067 62.3633 51.7372 62.6129C52.0678 62.8624 52.3072 63.2098 52.4556 63.6551ZM51.1403 66.1341C51.3426 65.8238 51.4438 65.4123 51.4438 64.8996C51.4438 64.4072 51.3629 64.0193 51.201 63.736C51.0121 63.4055 50.7254 63.2402 50.3409 63.2402C49.9901 63.2402 49.7271 63.4021 49.5517 63.7259C49.3965 63.989 49.3189 64.3802 49.3189 64.8996C49.3189 65.4325 49.4033 65.8373 49.5719 66.1138C49.7473 66.4106 50.0003 66.559 50.3308 66.559C50.6883 66.559 50.9581 66.4174 51.1403 66.1341ZM56.1792 62.2587C56.3951 62.2587 56.584 62.3026 56.7459 62.3903C56.7998 62.4172 56.8201 62.4678 56.8066 62.542L56.6346 63.4527C56.6278 63.5336 56.5806 63.5572 56.4929 63.5235C56.3917 63.4898 56.2737 63.4729 56.1387 63.4729C56.0511 63.4729 55.9836 63.4763 55.9364 63.483C55.6531 63.4965 55.417 63.5943 55.2281 63.7765C55.0392 63.9654 54.9448 64.2082 54.9448 64.505V67.3685C54.9448 67.4022 54.9347 67.4292 54.9144 67.4495C54.8874 67.4764 54.8571 67.4899 54.8234 67.4899H53.8925C53.8587 67.4899 53.8318 67.4764 53.8115 67.4495C53.7845 67.4292 53.771 67.4022 53.771 67.3685V62.4408C53.771 62.4071 53.7845 62.3768 53.8115 62.3498C53.8318 62.3295 53.8587 62.3194 53.8925 62.3194H54.8234C54.8571 62.3194 54.8874 62.3295 54.9144 62.3498C54.9347 62.3768 54.9448 62.4071 54.9448 62.4408V62.8962C54.9448 62.9232 54.9482 62.9366 54.9549 62.9366C54.9684 62.9434 54.9819 62.9366 54.9954 62.9164C55.2787 62.4779 55.6733 62.2587 56.1792 62.2587ZM58.2434 61.6111C58.0343 61.6111 57.8623 61.5437 57.7273 61.4088C57.5924 61.2739 57.525 61.1018 57.525 60.8927C57.525 60.6836 57.5924 60.5116 57.7273 60.3767C57.8623 60.2418 58.0343 60.1743 58.2434 60.1743C58.4525 60.1743 58.6245 60.2418 58.7594 60.3767C58.8943 60.5116 58.9618 60.6836 58.9618 60.8927C58.9618 61.1018 58.8943 61.2739 58.7594 61.4088C58.6245 61.5437 58.4525 61.6111 58.2434 61.6111ZM57.7577 67.4899C57.724 67.4899 57.697 67.4764 57.6767 67.4495C57.6498 67.4292 57.6363 67.4022 57.6363 67.3685V62.4307C57.6363 62.397 57.6498 62.37 57.6767 62.3498C57.697 62.3228 57.724 62.3093 57.7577 62.3093H58.6886C58.7223 62.3093 58.7527 62.3228 58.7797 62.3498C58.7999 62.37 58.81 62.397 58.81 62.4307V67.3685C58.81 67.4022 58.7999 67.4292 58.7797 67.4495C58.7527 67.4764 58.7223 67.4899 58.6886 67.4899H57.7577ZM62.0783 67.5506C61.6533 67.5506 61.2789 67.4866 60.9551 67.3584C60.6381 67.237 60.3919 67.065 60.2165 66.8424C60.0411 66.6265 59.9534 66.3837 59.9534 66.1138V66.0228C59.9534 65.989 59.9635 65.9587 59.9837 65.9317C60.0107 65.9115 60.0411 65.9013 60.0748 65.9013H60.9652C60.999 65.9013 61.0293 65.9115 61.0563 65.9317C61.0765 65.9587 61.0866 65.989 61.0866 66.0228V66.043C61.0866 66.2116 61.1777 66.3601 61.3598 66.4882C61.5487 66.6096 61.7848 66.6703 62.0681 66.6703C62.338 66.6703 62.5572 66.6164 62.7258 66.5085C62.8945 66.3938 62.9788 66.2521 62.9788 66.0835C62.9788 65.9283 62.908 65.8103 62.7663 65.7293C62.6314 65.6551 62.4088 65.5742 62.0985 65.4865L61.714 65.3651C61.37 65.2639 61.0799 65.156 60.8438 65.0413C60.6077 64.9266 60.4087 64.7681 60.2468 64.5657C60.0849 64.3701 60.004 64.1171 60.004 63.8068C60.004 63.3346 60.1895 62.9603 60.5605 62.6837C60.9315 62.4004 61.4206 62.2587 62.0277 62.2587C62.4391 62.2587 62.8 62.3228 63.1103 62.451C63.4206 62.5859 63.6601 62.768 63.8287 62.9974C63.9974 63.2335 64.0817 63.4999 64.0817 63.7967C64.0817 63.8304 64.0716 63.8608 64.0513 63.8878C64.0244 63.908 63.994 63.9181 63.9603 63.9181H63.1002C63.0665 63.9181 63.0361 63.908 63.0091 63.8878C62.9889 63.8608 62.9788 63.8304 62.9788 63.7967C62.9788 63.6213 62.8945 63.4763 62.7258 63.3616C62.5504 63.2402 62.3144 63.1795 62.0175 63.1795C61.7545 63.1795 61.542 63.2267 61.3801 63.3211C61.2114 63.4223 61.1271 63.5606 61.1271 63.736C61.1271 63.8979 61.2047 64.0193 61.3598 64.1003C61.5217 64.188 61.7882 64.2824 62.1592 64.3836L62.3818 64.4443C62.7393 64.5522 63.0395 64.6602 63.2823 64.7681C63.5252 64.8828 63.7309 65.0379 63.8996 65.2335C64.0682 65.4359 64.1525 65.6956 64.1525 66.0126C64.1525 66.4916 63.9637 66.866 63.5859 67.1358C63.2081 67.4124 62.7056 67.5506 62.0783 67.5506ZM69.5052 64.3229C69.5321 64.4915 69.5456 64.6804 69.5456 64.8895L69.5355 65.2032C69.5355 65.2841 69.495 65.3246 69.4141 65.3246H66.247C66.2133 65.3246 66.1964 65.3415 66.1964 65.3752C66.2167 65.5978 66.247 65.7496 66.2875 65.8305C66.4494 66.3162 66.844 66.5624 67.4714 66.5692C67.9301 66.5692 68.2943 66.3803 68.5642 66.0025C68.5911 65.9621 68.6249 65.9418 68.6653 65.9418C68.6923 65.9418 68.7159 65.9519 68.7362 65.9722L69.3635 66.4882C69.4242 66.5354 69.4343 66.5894 69.3939 66.6501C69.1847 66.9469 68.9048 67.1763 68.554 67.3382C68.21 67.5001 67.8255 67.581 67.4005 67.581C66.8744 67.581 66.4258 67.463 66.0548 67.2269C65.6905 66.9908 65.4241 66.6602 65.2554 66.2353C65.1003 65.871 65.0227 65.3651 65.0227 64.7175C65.0227 64.3262 65.0632 64.0092 65.1441 63.7664C65.279 63.2942 65.532 62.9198 65.903 62.6432C66.2808 62.3734 66.7327 62.2385 67.2589 62.2385C68.5878 62.2385 69.3365 62.9333 69.5052 64.3229ZM67.2589 63.2503C67.0093 63.2503 66.8002 63.3144 66.6315 63.4426C66.4696 63.564 66.355 63.736 66.2875 63.9586C66.247 64.0733 66.2201 64.2217 66.2066 64.4038C66.1931 64.4375 66.2066 64.4544 66.247 64.4544H68.3011C68.3348 64.4544 68.3517 64.4375 68.3517 64.4038C68.3382 64.2352 68.3179 64.107 68.291 64.0193C68.2302 63.7765 68.1088 63.5876 67.9267 63.4527C67.7513 63.3178 67.5287 63.2503 67.2589 63.2503Z" fill="white"/>
<path d="M32.9878 81.8379C32.4481 81.8379 31.9759 81.7502 31.5712 81.5749C31.1665 81.4062 30.8562 81.16 30.6403 80.8362C30.4177 80.5192 30.3064 80.1482 30.3064 79.7232V79.5006C30.3064 79.4668 30.3199 79.4399 30.3469 79.4196C30.3671 79.3926 30.3941 79.3792 30.4278 79.3792H31.5813C31.615 79.3792 31.6454 79.3926 31.6724 79.4196C31.6926 79.4399 31.7027 79.4668 31.7027 79.5006V79.6524C31.7027 79.9222 31.8275 80.1482 32.0771 80.3303C32.3267 80.5192 32.664 80.6136 33.089 80.6136C33.4465 80.6136 33.7129 80.5394 33.8883 80.391C34.0637 80.2358 34.1514 80.047 34.1514 79.8244C34.1514 79.6625 34.0974 79.5276 33.9895 79.4196C33.8816 79.305 33.7332 79.2071 33.5443 79.1262C33.3622 79.0385 33.0687 78.9205 32.664 78.7721C32.212 78.6169 31.8275 78.4584 31.5105 78.2965C31.2002 78.1346 30.9405 77.912 30.7314 77.6287C30.5155 77.3521 30.4076 77.0081 30.4076 76.5966C30.4076 76.1919 30.5121 75.8377 30.7213 75.5342C30.9304 75.2306 31.2204 74.9979 31.5914 74.836C31.9624 74.6741 32.3908 74.5931 32.8765 74.5931C33.3891 74.5931 33.8445 74.6842 34.2425 74.8663C34.6472 75.0485 34.9642 75.3048 35.1936 75.6353C35.4162 75.9591 35.5275 76.3369 35.5275 76.7686V76.9204C35.5275 76.9541 35.5174 76.9811 35.4971 77.0013C35.4702 77.0283 35.4398 77.0418 35.4061 77.0418H34.2425C34.2087 77.0418 34.1817 77.0283 34.1615 77.0013C34.1345 76.9811 34.121 76.9541 34.121 76.9204V76.8394C34.121 76.5561 34.0064 76.3133 33.777 76.1109C33.5409 75.9153 33.2205 75.8175 32.8158 75.8175C32.4987 75.8175 32.2491 75.8849 32.067 76.0198C31.8916 76.1548 31.8039 76.3403 31.8039 76.5763C31.8039 76.745 31.8579 76.8867 31.9658 77.0013C32.067 77.116 32.2221 77.2172 32.4313 77.3049C32.6336 77.3993 32.9507 77.5241 33.3824 77.6793C33.8613 77.8546 34.2357 78.0098 34.5055 78.1447C34.7821 78.2796 35.0317 78.4786 35.2543 78.7417C35.4702 79.0115 35.5781 79.3589 35.5781 79.7839C35.5781 80.418 35.3454 80.9172 34.8799 81.2814C34.4145 81.6524 33.7838 81.8379 32.9878 81.8379ZM39.504 74.664C39.9492 74.664 40.3405 74.755 40.6778 74.9372C41.015 75.1193 41.2781 75.3756 41.467 75.7062C41.6491 76.0434 41.7402 76.428 41.7402 76.8597C41.7402 77.2846 41.6458 77.659 41.4569 77.9828C41.2613 78.3066 40.9881 78.5596 40.6373 78.7417C40.2933 78.9171 39.8953 79.0048 39.4433 79.0048H38.0065C37.9728 79.0048 37.9559 79.0216 37.9559 79.0554V81.6356C37.9559 81.6693 37.9424 81.6963 37.9154 81.7165C37.8952 81.7435 37.8682 81.757 37.8345 81.757H36.6506C36.6169 81.757 36.5866 81.7435 36.5596 81.7165C36.5393 81.6963 36.5292 81.6693 36.5292 81.6356V74.7854C36.5292 74.7517 36.5393 74.7213 36.5596 74.6943C36.5866 74.6741 36.6169 74.664 36.6506 74.664H39.504ZM39.2915 77.8614C39.6018 77.8614 39.8514 77.7703 40.0403 77.5882C40.2292 77.4128 40.3236 77.1801 40.3236 76.89C40.3236 76.5932 40.2292 76.3538 40.0403 76.1716C39.8514 75.9895 39.6018 75.8984 39.2915 75.8984H38.0065C37.9728 75.8984 37.9559 75.9153 37.9559 75.949V77.8108C37.9559 77.8445 37.9728 77.8614 38.0065 77.8614H39.2915ZM46.506 81.757C46.4385 81.757 46.3913 81.7266 46.3643 81.6659L45.0995 78.8631C45.086 78.8361 45.0658 78.8226 45.0388 78.8226H44.0978C44.0641 78.8226 44.0472 78.8395 44.0472 78.8732V81.6356C44.0472 81.6693 44.0337 81.6963 44.0067 81.7165C43.9865 81.7435 43.9595 81.757 43.9258 81.757H42.7419C42.7082 81.757 42.6778 81.7435 42.6509 81.7165C42.6306 81.6963 42.6205 81.6693 42.6205 81.6356V74.7955C42.6205 74.7618 42.6306 74.7348 42.6509 74.7146C42.6778 74.6876 42.7082 74.6741 42.7419 74.6741H45.6358C46.0675 74.6741 46.4453 74.7618 46.769 74.9372C47.0996 75.1126 47.3525 75.3621 47.5279 75.6859C47.7101 76.0097 47.8011 76.3841 47.8011 76.8091C47.8011 77.2678 47.6864 77.659 47.4571 77.9828C47.2277 78.3133 46.9073 78.5461 46.4958 78.681C46.4621 78.6945 46.452 78.7181 46.4655 78.7518L47.8416 81.6153C47.8551 81.6423 47.8618 81.6625 47.8618 81.676C47.8618 81.73 47.8247 81.757 47.7505 81.757H46.506ZM44.0978 75.8984C44.0641 75.8984 44.0472 75.9153 44.0472 75.949V77.6793C44.0472 77.713 44.0641 77.7298 44.0978 77.7298H45.4233C45.7066 77.7298 45.936 77.6455 46.1113 77.4769C46.2935 77.3082 46.3845 77.089 46.3845 76.8192C46.3845 76.5494 46.2935 76.3268 46.1113 76.1514C45.936 75.9827 45.7066 75.8984 45.4233 75.8984H44.0978ZM48.9546 81.757C48.9209 81.757 48.8939 81.7435 48.8737 81.7165C48.8467 81.6963 48.8332 81.6693 48.8332 81.6356V74.7955C48.8332 74.7618 48.8467 74.7348 48.8737 74.7146C48.8939 74.6876 48.9209 74.6741 48.9546 74.6741H50.1385C50.1722 74.6741 50.2026 74.6876 50.2295 74.7146C50.2498 74.7348 50.2599 74.7618 50.2599 74.7955V81.6356C50.2599 81.6693 50.2498 81.6963 50.2295 81.7165C50.2026 81.7435 50.1722 81.757 50.1385 81.757H48.9546ZM55.5619 74.7955C55.5619 74.7618 55.5754 74.7348 55.6024 74.7146C55.6227 74.6876 55.6496 74.6741 55.6834 74.6741H56.8672C56.9009 74.6741 56.9313 74.6876 56.9583 74.7146C56.9785 74.7348 56.9886 74.7618 56.9886 74.7955V81.6356C56.9886 81.6693 56.9785 81.6963 56.9583 81.7165C56.9313 81.7435 56.9009 81.757 56.8672 81.757H55.7238C55.6564 81.757 55.6092 81.73 55.5822 81.676L52.9615 77.3454C52.948 77.3251 52.9345 77.3184 52.921 77.3251C52.9075 77.3251 52.9008 77.3386 52.9008 77.3656L52.921 81.6356C52.921 81.6693 52.9109 81.6963 52.8907 81.7165C52.8637 81.7435 52.8333 81.757 52.7996 81.757H51.6158C51.582 81.757 51.5551 81.7435 51.5348 81.7165C51.5078 81.6963 51.4943 81.6693 51.4943 81.6356V74.7955C51.4943 74.7618 51.5078 74.7348 51.5348 74.7146C51.5551 74.6876 51.582 74.6741 51.6158 74.6741H52.7591C52.8266 74.6741 52.8738 74.7011 52.9008 74.755L55.5113 79.0655C55.5248 79.0857 55.5383 79.0925 55.5518 79.0857C55.5653 79.0857 55.5721 79.0722 55.5721 79.0452L55.5619 74.7955ZM60.7122 81.8379C60.1928 81.8379 59.7341 81.7334 59.3361 81.5243C58.9381 81.3151 58.6312 81.0251 58.4153 80.6541C58.1927 80.2763 58.0814 79.8412 58.0814 79.3488V77.0823C58.0814 76.5898 58.1927 76.1547 58.4153 75.777C58.6312 75.3992 58.9381 75.1058 59.3361 74.8967C59.7341 74.6943 60.1928 74.5931 60.7122 74.5931C61.2249 74.5931 61.6802 74.6943 62.0782 74.8967C62.4694 75.0991 62.7764 75.3756 62.999 75.7264C63.2148 76.0704 63.3228 76.4549 63.3228 76.8799V76.9507C63.3228 76.9845 63.3126 77.0114 63.2924 77.0317C63.2654 77.0587 63.2351 77.0722 63.2013 77.0722H62.0175C61.9838 77.0722 61.9568 77.0587 61.9365 77.0317C61.9096 77.0114 61.8961 76.9845 61.8961 76.9507V76.9204C61.8961 76.6101 61.7881 76.3504 61.5723 76.1413C61.3564 75.9254 61.0697 75.8175 60.7122 75.8175C60.3479 75.8175 60.0579 75.9288 59.842 76.1514C59.6194 76.3807 59.5081 76.6775 59.5081 77.0418V79.3893C59.5081 79.7535 59.6262 80.047 59.8623 80.2696C60.0984 80.4989 60.3985 80.6136 60.7628 80.6136C61.1136 80.6136 61.3935 80.5192 61.6026 80.3303C61.8117 80.1482 61.9163 79.8918 61.9163 79.5613V79.106C61.9163 79.0722 61.8994 79.0554 61.8657 79.0554H60.7324C60.6987 79.0554 60.6717 79.0419 60.6515 79.0149C60.6245 78.9947 60.611 78.9677 60.611 78.9339V78.0031C60.611 77.9693 60.6245 77.9423 60.6515 77.9221C60.6717 77.8951 60.6987 77.8816 60.7324 77.8816H63.2013C63.2351 77.8816 63.2654 77.8951 63.2924 77.9221C63.3126 77.9423 63.3228 77.9693 63.3228 78.0031V79.3387C63.3228 79.8513 63.2148 80.2966 62.999 80.6743C62.7831 81.0521 62.4796 81.3421 62.0883 81.5445C61.6903 81.7401 61.2316 81.8379 60.7122 81.8379ZM37.9559 89.9833C37.9424 89.9968 37.939 90.0102 37.9458 90.0237C37.9525 90.0372 37.966 90.044 37.9863 90.044H40.7284C40.7621 90.044 40.7924 90.0541 40.8194 90.0743C40.8397 90.1013 40.8498 90.1317 40.8498 90.1654V91.1469C40.8498 91.1806 40.8397 91.2076 40.8194 91.2278C40.7924 91.2548 40.7621 91.2683 40.7284 91.2683H36.1751C36.1413 91.2683 36.111 91.2548 36.084 91.2278C36.0638 91.2076 36.0537 91.1806 36.0537 91.1469V90.216C36.0537 90.1553 36.0739 90.1047 36.1144 90.0642C36.4449 89.7404 36.7822 89.3896 37.1262 89.0119C37.4702 88.6274 37.6861 88.3879 37.7738 88.2935C37.9627 88.0709 38.1549 87.8584 38.3505 87.656C38.9644 86.9747 39.2713 86.4688 39.2713 86.1383C39.2713 85.9022 39.187 85.7065 39.0183 85.5514C38.8497 85.403 38.6305 85.3288 38.3606 85.3288C38.0908 85.3288 37.8716 85.403 37.703 85.5514C37.5343 85.7065 37.45 85.9089 37.45 86.1585V86.4115C37.45 86.4452 37.4365 86.4755 37.4095 86.5025C37.3893 86.5228 37.3623 86.5329 37.3286 86.5329H36.1346C36.1009 86.5329 36.0739 86.5228 36.0537 86.5025C36.0267 86.4755 36.0132 86.4452 36.0132 86.4115V85.9359C36.0334 85.5716 36.1481 85.2478 36.3572 84.9645C36.5663 84.688 36.8429 84.4755 37.1869 84.3271C37.5377 84.1787 37.9289 84.1045 38.3606 84.1045C38.8396 84.1045 39.2578 84.1922 39.6153 84.3675C39.9661 84.5497 40.2393 84.7925 40.4349 85.0961C40.6238 85.3996 40.7182 85.7369 40.7182 86.1079C40.7182 86.3912 40.6474 86.6813 40.5058 86.9781C40.3641 87.2749 40.1516 87.5953 39.8683 87.9393C39.6592 88.2024 39.4332 88.4621 39.1904 88.7185C38.9475 88.9748 38.5866 89.3458 38.1077 89.8315L37.9559 89.9833ZM44.1383 91.3796C43.3962 91.3796 42.8094 91.1705 42.3777 90.7523C41.9459 90.3408 41.7301 89.7775 41.7301 89.0625V86.3912C41.7301 85.6897 41.9459 85.1332 42.3777 84.7217C42.8094 84.3102 43.3962 84.1045 44.1383 84.1045C44.8803 84.1045 45.4705 84.3102 45.909 84.7217C46.3407 85.1332 46.5566 85.6897 46.5566 86.3912V89.0625C46.5566 89.7775 46.3407 90.3408 45.909 90.7523C45.4705 91.1705 44.8803 91.3796 44.1383 91.3796ZM44.1383 90.1553C44.4418 90.1553 44.6847 90.0608 44.8668 89.872C45.0422 89.6898 45.1299 89.4436 45.1299 89.1333V86.3507C45.1299 86.0405 45.0422 85.7942 44.8668 85.6121C44.6847 85.4232 44.4418 85.3288 44.1383 85.3288C43.8415 85.3288 43.6054 85.4232 43.43 85.6121C43.2478 85.7942 43.1568 86.0405 43.1568 86.3507V89.1333C43.1568 89.4436 43.2478 89.6898 43.43 89.872C43.6054 90.0608 43.8415 90.1553 44.1383 90.1553ZM49.3897 89.9833C49.3762 89.9968 49.3728 90.0102 49.3796 90.0237C49.3863 90.0372 49.3998 90.044 49.4201 90.044H52.1622C52.1959 90.044 52.2262 90.0541 52.2532 90.0743C52.2735 90.1013 52.2836 90.1317 52.2836 90.1654V91.1469C52.2836 91.1806 52.2735 91.2076 52.2532 91.2278C52.2262 91.2548 52.1959 91.2683 52.1622 91.2683H47.6089C47.5751 91.2683 47.5482 91.2548 47.5279 91.2278C47.5009 91.2076 47.4875 91.1806 47.4875 91.1469V90.216C47.4875 90.1553 47.5077 90.1047 47.5482 90.0642C47.8787 89.7404 48.216 89.3896 48.56 89.0119C48.904 88.6274 49.1199 88.3879 49.2076 88.2935C49.3965 88.0709 49.5887 87.8584 49.7843 87.656C50.3982 86.9747 50.7051 86.4688 50.7051 86.1383C50.7051 85.9022 50.6208 85.7065 50.4521 85.5514C50.2835 85.403 50.0643 85.3288 49.7944 85.3288C49.5246 85.3288 49.3054 85.403 49.1368 85.5514C48.9681 85.7065 48.8838 85.9089 48.8838 86.1585V86.4115C48.8838 86.4452 48.8737 86.4755 48.8534 86.5025C48.8265 86.5228 48.7961 86.5329 48.7624 86.5329H47.5684C47.5347 86.5329 47.5077 86.5228 47.4875 86.5025C47.4605 86.4755 47.447 86.4452 47.447 86.4115V85.9359C47.4672 85.5716 47.5819 85.2478 47.791 84.9645C48.0001 84.688 48.2801 84.4755 48.6308 84.3271C48.9749 84.1787 49.3627 84.1045 49.7944 84.1045C50.2734 84.1045 50.6916 84.1922 51.0491 84.3675C51.3999 84.5497 51.6731 84.7925 51.8687 85.0961C52.0576 85.3996 52.152 85.7369 52.152 86.1079C52.152 86.3912 52.0812 86.6813 51.9396 86.9781C51.7979 87.2749 51.5854 87.5953 51.3021 87.9393C51.093 88.2024 50.867 88.4621 50.6242 88.7185C50.3813 88.9748 50.0204 89.3458 49.5415 89.8315L49.3897 89.9833ZM57.3833 87.8887C57.5182 88.199 57.5856 88.5566 57.5856 88.9613C57.5856 89.3256 57.5249 89.6628 57.4035 89.9731C57.2416 90.4049 56.9718 90.7421 56.594 90.985C56.2095 91.2278 55.7576 91.3493 55.2382 91.3493C54.7255 91.3493 54.2769 91.2211 53.8924 90.9647C53.5012 90.7084 53.2212 90.361 53.0526 89.9226C52.9581 89.6595 52.9042 89.3762 52.8907 89.0726C52.8907 88.9917 52.9312 88.9512 53.0121 88.9512H54.2061C54.287 88.9512 54.3275 88.9917 54.3275 89.0726C54.3545 89.2952 54.3916 89.4605 54.4388 89.5684C54.4995 89.7438 54.6007 89.8787 54.7424 89.9731C54.8773 90.0743 55.0392 90.1249 55.228 90.1249C55.6058 90.1249 55.8655 89.9597 56.0072 89.6291C56.1016 89.4267 56.1488 89.1907 56.1488 88.9208C56.1488 88.6038 56.0982 88.3441 55.997 88.1417C55.8419 87.8247 55.5822 87.6661 55.2179 87.6661C55.1437 87.6661 55.0661 87.6864 54.9852 87.7269C54.9042 87.7741 54.8064 87.8382 54.6918 87.9191C54.6648 87.9393 54.6378 87.9495 54.6108 87.9495C54.5703 87.9495 54.54 87.9292 54.5197 87.8887L53.9228 87.0489C53.9093 87.0287 53.9025 87.0051 53.9025 86.9781C53.9025 86.9376 53.916 86.9039 53.943 86.8769L55.5518 85.4704C55.5653 85.457 55.5721 85.4435 55.5721 85.43C55.5653 85.4165 55.5518 85.4097 55.5316 85.4097H53.1538C53.12 85.4097 53.093 85.3962 53.0728 85.3693C53.0458 85.349 53.0323 85.322 53.0323 85.2883V84.3068C53.0323 84.2731 53.0458 84.2461 53.0728 84.2259C53.093 84.1989 53.12 84.1854 53.1538 84.1854H57.3731C57.4069 84.1854 57.4372 84.1989 57.4642 84.2259C57.4844 84.2461 57.4946 84.2731 57.4946 84.3068V85.4199C57.4946 85.4738 57.4709 85.5244 57.4237 85.5716L56.0982 86.7858C56.0847 86.7993 56.0814 86.8128 56.0881 86.8263C56.0881 86.8398 56.1016 86.8465 56.1286 86.8465C56.7154 86.9612 57.1337 87.3086 57.3833 87.8887Z" fill="#252530"/>
</g>
<defs>
<clipPath id="clip0_852_15486">
<rect width="94" height="106.764" fill="white"/>
</clipPath>
</defs>
</svg>
