<svg width="95" height="107" viewBox="0 0 95 107" fill="none" xmlns="http://www.w3.org/2000/svg">
<g clip-path="url(#clip0_633_14689)">
<g clip-path="url(#clip1_633_14689)">
<path d="M89.6423 85.4879L47.5561 107.075L5.46985 85.4879V0.31189H89.6423V85.4879Z" fill="#F8F8F8"/>
<path d="M5.5686 0.31189V85.4879L89.741 0.31189H5.5686Z" fill="white"/>
<path d="M88.8415 1.11262V84.9994L47.5561 106.176L6.27058 84.9994V1.11262H88.8415ZM89.6423 0.31189H5.46985V85.4879L47.5561 107.075L89.6423 85.4879V0.31189Z" fill="#DCDFDD"/>
<path d="M57.2621 15.5404L47.4719 21.2295L37.8499 15.5404V0.31189H57.2621V15.5404Z" fill="#FF3100"/>
<path d="M52.2309 7.84546H50.408C50.4573 7.55853 50.6335 7.39972 50.9925 7.21689L51.3288 7.04606C51.9293 6.73778 52.2483 6.3908 52.2483 5.82362C52.2483 5.46596 52.1108 5.18437 51.8346 4.98019C51.565 4.776 51.234 4.67725 50.8537 4.67725C50.5508 4.67725 50.2758 4.75465 50.0223 4.91346C49.774 5.06827 49.5872 5.26578 49.4711 5.51401L49.9996 6.04249C50.2038 5.62878 50.5014 5.42593 50.8924 5.42593C51.2234 5.42593 51.4262 5.59675 51.4262 5.83296C51.4262 6.03181 51.3275 6.19596 50.9471 6.38947L50.7322 6.49356C50.2638 6.72978 49.9382 7.00069 49.7514 7.30897C49.5645 7.61191 49.4698 8.00293 49.4698 8.47136V8.59814H52.2296V7.84279L52.2309 7.84546ZM51.9867 9.47227H48.9666L47.4573 12.0866H50.4774L51.9867 14.7023L53.4974 12.0866L51.9867 9.47227Z" fill="white"/>
<path d="M47.7175 13.8309C45.7944 13.8309 44.2303 12.2668 44.2303 10.3437C44.2303 8.42064 45.7944 6.85655 47.7175 6.85655L48.9119 4.35828C48.5262 4.28222 48.1272 4.24084 47.7175 4.24084C44.3478 4.24084 41.616 6.97266 41.616 10.3424C41.616 13.7121 44.3478 16.4439 47.7175 16.4439C49.0614 16.4439 50.3025 16.0089 51.3114 15.2735L49.9889 12.9834C49.3777 13.5093 48.585 13.8282 47.7175 13.8282V13.8309Z" fill="white"/>
<path d="M91.5667 67.2593H3.54541L0.55603 59.7858L3.54541 52.3124H91.5667L94.556 59.7858L91.5667 67.2593Z" fill="#FF3100"/>
<path d="M19.1302 76.0379C19.1302 76.0486 19.1368 76.0566 19.1502 76.0633C19.4545 76.2234 19.6066 76.4943 19.6066 76.8734C19.6066 77.215 19.4892 77.4699 19.253 77.6367C19.0167 77.8035 18.7085 77.8876 18.3254 77.8876H16.9936C16.9655 77.8876 16.9442 77.8796 16.9268 77.8622C16.9182 77.8535 16.9115 77.843 16.9071 77.8316C16.9028 77.8201 16.9008 77.8078 16.9015 77.7955V74.3924C16.9015 74.3657 16.9095 74.3431 16.9268 74.3257C16.9442 74.3084 16.9655 74.3003 16.9936 74.3003H18.2854C18.7018 74.3003 19.0167 74.3791 19.2303 74.5366C19.4438 74.694 19.5506 74.9489 19.5506 75.2999C19.5506 75.6509 19.4171 75.8724 19.1502 76.0126C19.1368 76.0192 19.1302 76.0286 19.1302 76.0379ZM17.7516 75.0637V75.6896C17.7516 75.7136 17.7636 75.7256 17.7876 75.7256H18.2841C18.4242 75.7256 18.5323 75.6963 18.607 75.6362C18.6818 75.5762 18.7191 75.4921 18.7191 75.3827C18.7191 75.2732 18.6818 75.1825 18.607 75.1211C18.5323 75.0597 18.4242 75.029 18.2841 75.029H17.7876C17.7636 75.029 17.7516 75.041 17.7516 75.065V75.0637ZM18.6431 77.0602C18.7178 76.9975 18.7552 76.9054 18.7552 76.7866C18.7552 76.6678 18.7178 76.5811 18.6444 76.517C18.571 76.4543 18.4642 76.4223 18.3241 76.4223H17.7863C17.7623 76.4223 17.7503 76.4343 17.7503 76.4583V77.1189C17.7503 77.1429 17.7623 77.1549 17.7863 77.1549H18.3241C18.4602 77.1549 18.567 77.1229 18.6417 77.0602H18.6431ZM22.7134 75.0023C22.6961 75.0197 22.6747 75.0277 22.6467 75.0277H21.0786C21.0546 75.0277 21.0426 75.0397 21.0426 75.0637V75.6736C21.0426 75.6976 21.0546 75.7096 21.0786 75.7096H22.0675C22.0955 75.7096 22.1169 75.7176 22.1342 75.735C22.1516 75.7523 22.1596 75.7737 22.1596 75.8017V76.3395C22.1596 76.3676 22.1516 76.3889 22.1342 76.4063C22.1169 76.4236 22.0955 76.4316 22.0675 76.4316H21.0786C21.0546 76.4316 21.0426 76.4436 21.0426 76.4677V77.1242C21.0426 77.1483 21.0546 77.1603 21.0786 77.1603H22.6467C22.6734 77.1603 22.6961 77.1683 22.7134 77.1856C22.7308 77.203 22.7388 77.2243 22.7388 77.2524V77.7955C22.7388 77.8235 22.7308 77.8449 22.7134 77.8622C22.6961 77.8796 22.6747 77.8876 22.6467 77.8876H20.2846C20.2565 77.8876 20.2352 77.8796 20.2178 77.8622C20.2092 77.8535 20.2025 77.843 20.1981 77.8316C20.1938 77.8201 20.1918 77.8078 20.1925 77.7955V74.3924C20.1925 74.3657 20.2005 74.3431 20.2178 74.3257C20.2352 74.3084 20.2565 74.3003 20.2846 74.3003H22.6467C22.6734 74.3003 22.6961 74.3084 22.7134 74.3257C22.7308 74.3431 22.7388 74.3644 22.7388 74.3924V74.9356C22.7388 74.9636 22.7308 74.985 22.7134 75.0023ZM23.8385 77.7929C23.6316 77.7021 23.4715 77.5726 23.3593 77.4032C23.2472 77.2337 23.1899 77.0388 23.1899 76.816V76.7492C23.1899 76.7225 23.1979 76.6999 23.2152 76.6825C23.2326 76.6652 23.2539 76.6572 23.2819 76.6572H23.9332C23.9612 76.6572 23.9826 76.6638 23.9999 76.6745C24.0173 76.6865 24.0253 76.7012 24.0253 76.7185V76.7799C24.0253 76.8894 24.0813 76.9868 24.1921 77.0722C24.3029 77.1576 24.4457 77.2003 24.6205 77.2003C24.7713 77.2003 24.8821 77.1683 24.9541 77.1029C25.0262 77.0375 25.0622 76.9628 25.0622 76.8774C25.0622 76.7813 25.0209 76.7079 24.9368 76.6572C24.8527 76.6064 24.7032 76.5464 24.4884 76.4783L24.3763 76.4423C24.1574 76.3702 23.9666 76.2928 23.8024 76.2088C23.6383 76.1247 23.4981 76.0086 23.382 75.8604C23.2659 75.7123 23.2072 75.5281 23.2072 75.3093C23.2072 75.0904 23.2633 74.9116 23.374 74.7528C23.4848 74.5939 23.6383 74.4712 23.8358 74.3858C24.032 74.3003 24.2548 74.2576 24.5044 74.2576C24.7673 74.2576 25.0035 74.3057 25.2144 74.4018C25.4239 74.4979 25.5894 74.6327 25.7095 74.8061C25.8296 74.981 25.8883 75.1798 25.8883 75.4054V75.4467C25.8883 75.4747 25.8803 75.4961 25.863 75.5135C25.8456 75.5308 25.8243 75.5388 25.7962 75.5388H25.145C25.1169 75.5388 25.0956 75.5348 25.0782 75.5255C25.0705 75.5224 25.064 75.5171 25.0594 75.5101C25.0549 75.5032 25.0526 75.495 25.0529 75.4868V75.4401C25.0529 75.3199 24.9995 75.2145 24.8941 75.1224C24.7886 75.0303 24.6459 74.9836 24.4684 74.9836C24.3349 74.9836 24.2308 75.0117 24.1561 75.065C24.0813 75.1198 24.044 75.1972 24.044 75.2959C24.044 75.3707 24.068 75.4334 24.116 75.4828C24.1641 75.5321 24.2388 75.5788 24.3389 75.6215C24.439 75.6643 24.5938 75.7203 24.8033 75.7884C25.0422 75.8698 25.229 75.9418 25.3625 76.0032C25.496 76.0646 25.6214 76.1647 25.7388 76.3035C25.8563 76.4423 25.9163 76.6238 25.9163 76.8493C25.9163 77.0749 25.8603 77.2537 25.7469 77.4152C25.6347 77.578 25.4746 77.7034 25.2704 77.7915C25.0649 77.8809 24.83 77.925 24.5631 77.925C24.2962 77.925 24.0493 77.8796 23.8425 77.7888L23.8385 77.7929ZM29.0632 74.3257C29.0805 74.3431 29.0886 74.3644 29.0886 74.3924V74.9409C29.0886 74.969 29.0805 74.9903 29.0632 75.0077C29.0458 75.025 29.0245 75.033 28.9965 75.033H28.141C28.117 75.033 28.105 75.045 28.105 75.069V77.7955C28.105 77.8235 28.097 77.8449 28.0796 77.8622C28.0623 77.8796 28.0409 77.8876 28.0129 77.8876H27.347C27.3189 77.8876 27.2976 77.8796 27.2802 77.8622C27.2716 77.8535 27.2649 77.843 27.2605 77.8316C27.2562 77.8201 27.2542 77.8078 27.2549 77.7955V75.069C27.2549 75.045 27.2429 75.033 27.2189 75.033H26.3941C26.3661 75.033 26.3447 75.025 26.3274 75.0077C26.3187 74.9989 26.312 74.9884 26.3077 74.977C26.3033 74.9655 26.3014 74.9532 26.302 74.9409V74.3924C26.302 74.3657 26.31 74.3431 26.3274 74.3257C26.3447 74.3084 26.3661 74.3003 26.3941 74.3003H28.9978C29.0258 74.3003 29.0472 74.3084 29.0645 74.3257H29.0632ZM31.2999 77.7929C31.093 77.7021 30.9329 77.5726 30.8208 77.4032C30.7087 77.2337 30.6513 77.0388 30.6513 76.816V76.7492C30.6513 76.7225 30.6593 76.6999 30.6767 76.6825C30.694 76.6652 30.7154 76.6572 30.7434 76.6572H31.3946C31.4227 76.6572 31.444 76.6638 31.4614 76.6745C31.4787 76.6865 31.4867 76.7012 31.4867 76.7185V76.7799C31.4867 76.8894 31.5428 76.9868 31.6535 77.0722C31.7643 77.1576 31.9071 77.2003 32.0819 77.2003C32.2327 77.2003 32.3435 77.1683 32.4156 77.1029C32.4876 77.0375 32.5237 76.9628 32.5237 76.8774C32.5237 76.7813 32.4823 76.7079 32.3982 76.6572C32.3141 76.6064 32.1647 76.5464 31.9498 76.4783L31.8377 76.4423C31.6188 76.3702 31.428 76.2928 31.2639 76.2088C31.0997 76.1247 30.9596 76.0086 30.8435 75.8604C30.7274 75.7123 30.6687 75.5281 30.6687 75.3093C30.6687 75.0904 30.7247 74.9116 30.8355 74.7528C30.9462 74.5939 31.0997 74.4712 31.2972 74.3858C31.4934 74.3003 31.7163 74.2576 31.9658 74.2576C32.2287 74.2576 32.4649 74.3057 32.6758 74.4018C32.8853 74.4979 33.0508 74.6327 33.1709 74.8061C33.291 74.981 33.3498 75.1798 33.3498 75.4054V75.4467C33.3498 75.4747 33.3417 75.4961 33.3244 75.5135C33.307 75.5308 33.2857 75.5388 33.2577 75.5388H32.6064C32.5784 75.5388 32.557 75.5348 32.5397 75.5255C32.532 75.5224 32.5254 75.5171 32.5208 75.5101C32.5163 75.5032 32.514 75.495 32.5143 75.4868V75.4401C32.5143 75.3199 32.4609 75.2145 32.3555 75.1224C32.2501 75.0303 32.1073 74.9836 31.9298 74.9836C31.7963 74.9836 31.6922 75.0117 31.6175 75.065C31.5428 75.1198 31.5054 75.1972 31.5054 75.2959C31.5054 75.3707 31.5294 75.4334 31.5775 75.4828C31.6255 75.5321 31.7003 75.5788 31.8003 75.6215C31.9004 75.6643 32.0552 75.7203 32.2648 75.7884C32.5037 75.8698 32.6905 75.9418 32.8239 76.0032C32.9574 76.0646 33.0828 76.1647 33.2003 76.3035C33.3177 76.4423 33.3778 76.6238 33.3778 76.8493C33.3778 77.0749 33.3217 77.2537 33.2083 77.4152C33.0962 77.578 32.936 77.7034 32.7319 77.7915C32.5263 77.8809 32.2915 77.925 32.0246 77.925C31.7576 77.925 31.5108 77.8796 31.3039 77.7888L31.2999 77.7929ZM34.5228 77.7782C34.312 77.6674 34.1491 77.5113 34.033 77.3098C33.9169 77.1082 33.8582 76.8747 33.8582 76.6078V75.5828C33.8582 75.3226 33.9169 75.0931 34.033 74.8942C34.1491 74.6954 34.312 74.5392 34.5228 74.4285C34.7323 74.3177 34.9766 74.2616 35.2528 74.2616C35.5291 74.2616 35.7733 74.3177 35.9855 74.4285C36.1977 74.5392 36.3618 74.6954 36.4779 74.8942C36.594 75.0931 36.6528 75.3239 36.6528 75.5828V76.6078C36.6528 76.8747 36.594 77.1082 36.4779 77.3098C36.3618 77.5113 36.1977 77.6674 35.9855 77.7782C35.7733 77.8889 35.5291 77.945 35.2528 77.945C34.9766 77.945 34.7323 77.8889 34.5228 77.7782ZM35.6505 77.0575C35.7506 76.9521 35.8013 76.8093 35.8013 76.6318V75.5708C35.8013 75.396 35.7506 75.2559 35.6505 75.1478C35.5491 75.0397 35.417 74.9863 35.2528 74.9863C35.0887 74.9863 34.9619 75.0397 34.8605 75.1478C34.759 75.2559 34.7097 75.396 34.7097 75.5708V76.6318C34.7097 76.8093 34.7604 76.9508 34.8605 77.0575C34.9605 77.1629 35.0913 77.2163 35.2528 77.2163C35.4143 77.2163 35.5491 77.1629 35.6505 77.0575ZM39.7422 75.0023C39.7249 75.0197 39.7035 75.0277 39.6755 75.0277H38.1127C38.0887 75.0277 38.0767 75.0397 38.0767 75.0637V75.6736C38.0767 75.6976 38.0887 75.7096 38.1127 75.7096H39.1016C39.1297 75.7096 39.151 75.7176 39.1684 75.735C39.1857 75.7523 39.1937 75.7737 39.1937 75.8017V76.3395C39.1937 76.3676 39.1857 76.3889 39.1684 76.4063C39.151 76.4236 39.1297 76.4316 39.1016 76.4316H38.1127C38.0887 76.4316 38.0767 76.4436 38.0767 76.4677V77.7955C38.0767 77.8235 38.0687 77.8449 38.0514 77.8622C38.034 77.8796 38.0127 77.8876 37.9846 77.8876H37.3187C37.2907 77.8876 37.2693 77.8796 37.252 77.8622C37.2433 77.8535 37.2366 77.843 37.2323 77.8316C37.2279 77.8201 37.226 77.8078 37.2266 77.7955V74.3924C37.2266 74.3657 37.2346 74.3431 37.252 74.3257C37.2693 74.3084 37.2907 74.3003 37.3187 74.3003H39.6755C39.7035 74.3003 39.7249 74.3084 39.7422 74.3257C39.7596 74.3431 39.7676 74.3644 39.7676 74.3924V74.9356C39.7676 74.9636 39.7596 74.985 39.7422 75.0023ZM42.8384 74.3257C42.8557 74.3431 42.8637 74.3644 42.8637 74.3924V74.9409C42.8637 74.969 42.8557 74.9903 42.8384 75.0077C42.821 75.025 42.7997 75.033 42.7716 75.033H41.9162C41.8922 75.033 41.8802 75.045 41.8802 75.069V77.7955C41.8802 77.8235 41.8722 77.8449 41.8548 77.8622C41.8375 77.8796 41.8161 77.8876 41.7881 77.8876H41.1221C41.0941 77.8876 41.0728 77.8796 41.0554 77.8622C41.0468 77.8535 41.0401 77.843 41.0357 77.8316C41.0313 77.8201 41.0294 77.8078 41.0301 77.7955V75.069C41.0301 75.045 41.0181 75.033 40.994 75.033H40.1693C40.1413 75.033 40.1199 75.025 40.1025 75.0077C40.0939 74.9989 40.0872 74.9884 40.0828 74.977C40.0785 74.9655 40.0766 74.9532 40.0772 74.9409V74.3924C40.0772 74.3657 40.0852 74.3431 40.1025 74.3257C40.1199 74.3084 40.1413 74.3003 40.1693 74.3003H42.773C42.801 74.3003 42.8224 74.3084 42.8397 74.3257H42.8384ZM44.0675 77.8115L43.1293 74.4031C43.125 74.3935 43.1232 74.3829 43.124 74.3724C43.124 74.3244 43.1507 74.3003 43.2054 74.3003H43.9234C43.9514 74.3003 43.9741 74.3084 43.9928 74.323C44.0114 74.3377 44.0221 74.3577 44.0261 74.3818L44.4572 76.1914C44.4638 76.2047 44.4719 76.2114 44.4799 76.2114C44.4879 76.2114 44.4945 76.2047 44.4972 76.1914L44.9123 74.3818C44.9229 74.327 44.9563 74.3003 45.015 74.3003H45.6249C45.6796 74.3003 45.7143 74.3284 45.7277 74.3818L46.1787 76.1914C46.1854 76.2047 46.1934 76.2114 46.2014 76.2114C46.2094 76.2114 46.2161 76.2047 46.2188 76.1914L46.6191 74.3818C46.6223 74.3586 46.6342 74.3376 46.6525 74.323C46.6712 74.307 46.6939 74.3003 46.7219 74.3003H47.4185C47.4492 74.3003 47.4719 74.3084 47.4879 74.3257C47.5039 74.3431 47.5079 74.3684 47.5013 74.4031L46.6498 77.8062C46.6365 77.8609 46.6018 77.8876 46.5471 77.8876H45.8651C45.8371 77.8876 45.8144 77.8796 45.7957 77.8649C45.7777 77.8501 45.7658 77.8292 45.7624 77.8062L45.3313 75.8845C45.3273 75.8671 45.3206 75.8591 45.3113 75.8591C45.3019 75.8591 45.2939 75.8671 45.2913 75.8845L44.9016 77.8062C44.8909 77.8609 44.8589 77.8876 44.8042 77.8876H44.1689C44.1142 77.8876 44.0795 77.8623 44.0661 77.8102L44.0675 77.8115ZM49.6392 77.8115L49.5218 77.3912C49.5178 77.3711 49.5044 77.3605 49.4804 77.3605H48.322C48.302 77.3605 48.2873 77.3711 48.2806 77.3912L48.1632 77.8115C48.1499 77.8622 48.1152 77.8889 48.0604 77.8889H47.3385C47.3038 77.8889 47.2797 77.8796 47.2664 77.8609C47.253 77.8422 47.2504 77.8169 47.2611 77.7862L48.3367 74.3778C48.354 74.327 48.3901 74.3003 48.4448 74.3003H49.3523C49.411 74.3003 49.4457 74.3257 49.4604 74.3778L50.5414 77.7862C50.5454 77.7929 50.5467 77.8049 50.5467 77.8222C50.5467 77.8663 50.5187 77.8889 50.4653 77.8889H49.742C49.6873 77.8889 49.6526 77.8636 49.6392 77.8115ZM48.4915 76.6732C48.4915 76.6932 48.5022 76.7039 48.5222 76.7039H49.2802C49.2936 76.7039 49.3029 76.6999 49.3082 76.6905C49.3136 76.6825 49.3136 76.6732 49.3109 76.6625L48.9212 75.2999C48.9172 75.2826 48.9119 75.2746 48.9039 75.2746C48.8959 75.2746 48.8879 75.2826 48.8812 75.2999L48.4915 76.6625V76.6732ZM52.8982 77.8155L52.303 76.4837C52.2963 76.4663 52.2829 76.4583 52.2616 76.4583H51.944C51.9199 76.4583 51.9079 76.4703 51.9079 76.4943V77.7955C51.9079 77.8235 51.8999 77.8449 51.8826 77.8622C51.8652 77.8796 51.8439 77.8876 51.8159 77.8876H51.1499C51.1219 77.8876 51.1005 77.8796 51.0832 77.8622C51.0746 77.8535 51.0678 77.843 51.0635 77.8316C51.0591 77.8201 51.0572 77.8078 51.0578 77.7955V74.3924C51.0578 74.3657 51.0658 74.3431 51.0832 74.3257C51.1005 74.3084 51.1219 74.3003 51.1499 74.3003H52.6406C52.8661 74.3003 53.0637 74.3471 53.2345 74.4391C53.4053 74.5312 53.5374 74.662 53.6322 74.8315C53.7256 75.001 53.7736 75.1945 53.7736 75.4134C53.7736 75.6322 53.7176 75.8351 53.6068 76.0032C53.496 76.17 53.3412 76.2915 53.1424 76.3676C53.1184 76.3782 53.1117 76.3956 53.1224 76.4183L53.779 77.7808L53.7896 77.8222C53.7896 77.8663 53.7616 77.8889 53.7082 77.8889H53.0063C52.9556 77.8889 52.9195 77.8649 52.8982 77.8169V77.8155ZM51.9093 75.0637V75.771C51.9093 75.795 51.9213 75.8071 51.9453 75.8071H52.5045C52.6313 75.8071 52.7327 75.7723 52.8114 75.7016C52.8902 75.6322 52.9289 75.5388 52.9289 75.4227C52.9289 75.3066 52.8902 75.2078 52.8114 75.1358C52.7327 75.0637 52.6299 75.0277 52.5045 75.0277H51.9453C51.9213 75.0277 51.9093 75.0397 51.9093 75.0637ZM56.8538 75.0023C56.8364 75.0197 56.8151 75.0277 56.787 75.0277H55.2189C55.1949 75.0277 55.1829 75.0397 55.1829 75.0637V75.6736C55.1829 75.6976 55.1949 75.7096 55.2189 75.7096H56.2078C56.2359 75.7096 56.2572 75.7176 56.2746 75.735C56.2919 75.7523 56.2999 75.7737 56.2999 75.8017V76.3395C56.2999 76.3676 56.2919 76.3889 56.2746 76.4063C56.2572 76.4236 56.2359 76.4316 56.2078 76.4316H55.2189C55.1949 76.4316 55.1829 76.4436 55.1829 76.4677V77.1242C55.1829 77.1483 55.1949 77.1603 55.2189 77.1603H56.787C56.8137 77.1603 56.8364 77.1683 56.8538 77.1856C56.8711 77.203 56.8791 77.2243 56.8791 77.2524V77.7955C56.8791 77.8235 56.8711 77.8449 56.8538 77.8622C56.8364 77.8796 56.8151 77.8876 56.787 77.8876H54.4249C54.3969 77.8876 54.3755 77.8796 54.3582 77.8622C54.3495 77.8535 54.3428 77.843 54.3385 77.8316C54.3341 77.8201 54.3322 77.8078 54.3328 77.7955V74.3924C54.3328 74.3657 54.3408 74.3431 54.3582 74.3257C54.3755 74.3084 54.3969 74.3003 54.4249 74.3003H56.787C56.8137 74.3003 56.8364 74.3084 56.8538 74.3257C56.8711 74.3431 56.8791 74.3644 56.8791 74.3924V74.9356C56.8791 74.9636 56.8711 74.985 56.8538 75.0023ZM60.836 77.8115L60.7186 77.3912C60.7146 77.3711 60.7013 77.3605 60.6772 77.3605H59.5188C59.4988 77.3605 59.4842 77.3711 59.4775 77.3912L59.36 77.8115C59.3467 77.8622 59.312 77.8889 59.2573 77.8889H58.5353C58.5006 77.8889 58.4766 77.8796 58.4632 77.8609C58.4499 77.8422 58.4472 77.8169 58.4579 77.7862L59.5335 74.3778C59.5509 74.327 59.5869 74.3003 59.6416 74.3003H60.5491C60.6078 74.3003 60.6425 74.3257 60.6572 74.3778L61.7382 77.7862C61.7422 77.7929 61.7435 77.8049 61.7435 77.8222C61.7435 77.8663 61.7155 77.8889 61.6621 77.8889H60.9388C60.8841 77.8889 60.8494 77.8636 60.836 77.8115ZM59.6883 76.6732C59.6883 76.6932 59.699 76.7039 59.719 76.7039H60.4771C60.4904 76.7039 60.4997 76.6999 60.5051 76.6905C60.5104 76.6825 60.5104 76.6732 60.5077 76.6625L60.1181 75.2999C60.1141 75.2826 60.1087 75.2746 60.1007 75.2746C60.0927 75.2746 60.0847 75.2826 60.078 75.2999L59.6883 76.6625V76.6732ZM62.3014 77.8115L61.3632 74.4031C61.3589 74.3935 61.357 74.3829 61.3579 74.3724C61.3579 74.3244 61.3845 74.3003 61.4393 74.3003H62.1572C62.1853 74.3003 62.208 74.3084 62.2266 74.323C62.2453 74.3377 62.256 74.3577 62.26 74.3818L62.6911 76.1914C62.6977 76.2047 62.7057 76.2114 62.7138 76.2114C62.7218 76.2114 62.7284 76.2047 62.7311 76.1914L63.1461 74.3818C63.1568 74.327 63.1902 74.3003 63.2489 74.3003H63.8588C63.9135 74.3003 63.9482 74.3284 63.9615 74.3818L64.4126 76.1914C64.4193 76.2047 64.4273 76.2114 64.4353 76.2114C64.4433 76.2114 64.45 76.2047 64.4527 76.1914L64.853 74.3818C64.8562 74.3586 64.8681 74.3376 64.8864 74.323C64.9051 74.307 64.9278 74.3003 64.9558 74.3003H65.6524C65.6831 74.3003 65.7058 74.3084 65.7218 74.3257C65.7378 74.3431 65.7418 74.3684 65.7352 74.4031L64.8837 77.8062C64.8704 77.8609 64.8357 77.8876 64.781 77.8876H64.099C64.071 77.8876 64.0483 77.8796 64.0296 77.8649C64.0116 77.8501 63.9997 77.8292 63.9962 77.8062L63.5652 75.8845C63.5612 75.8671 63.5545 75.8591 63.5452 75.8591C63.5358 75.8591 63.5278 75.8671 63.5252 75.8845L63.1355 77.8062C63.1248 77.8609 63.0928 77.8876 63.038 77.8876H62.4028C62.3481 77.8876 62.3134 77.8623 62.3 77.8102L62.3014 77.8115ZM67.8718 77.8115L67.7543 77.3912C67.7503 77.3711 67.737 77.3605 67.713 77.3605H66.5546C66.5346 77.3605 66.5199 77.3711 66.5132 77.3912L66.3958 77.8115C66.3824 77.8622 66.3477 77.8889 66.293 77.8889H65.571C65.5363 77.8889 65.5123 77.8796 65.4989 77.8609C65.4856 77.8422 65.4829 77.8169 65.4936 77.7862L66.5692 74.3778C66.5866 74.327 66.6226 74.3003 66.6773 74.3003H67.5848C67.6436 74.3003 67.6783 74.3257 67.6929 74.3778L68.7739 77.7862C68.7779 77.7929 68.7793 77.8049 68.7793 77.8222C68.7793 77.8663 68.7512 77.8889 68.6978 77.8889H67.9745C67.9198 77.8889 67.8851 77.8636 67.8718 77.8115ZM66.7241 76.6732C66.7241 76.6932 66.7347 76.7039 66.7548 76.7039H67.5128C67.5261 76.7039 67.5355 76.6999 67.5408 76.6905C67.5461 76.6825 67.5461 76.6732 67.5435 76.6625L67.1538 75.2999C67.1498 75.2826 67.1444 75.2746 67.1364 75.2746C67.1284 75.2746 67.1204 75.2826 67.1137 75.2999L66.7241 76.6625V76.6732ZM71.1321 77.8155L70.5369 76.4837C70.5302 76.4663 70.5168 76.4583 70.4955 76.4583H70.1779C70.1538 76.4583 70.1418 76.4703 70.1418 76.4943V77.7955C70.1418 77.8235 70.1338 77.8449 70.1165 77.8622C70.0991 77.8796 70.0778 77.8876 70.0497 77.8876H69.3838C69.3558 77.8876 69.3344 77.8796 69.3171 77.8622C69.3084 77.8535 69.3017 77.843 69.2974 77.8316C69.293 77.8201 69.2911 77.8078 69.2917 77.7955V74.3924C69.2917 74.3657 69.2997 74.3431 69.3171 74.3257C69.3344 74.3084 69.3558 74.3003 69.3838 74.3003H70.8745C71.1 74.3003 71.2975 74.3471 71.4684 74.4391C71.6392 74.5312 71.7713 74.662 71.8661 74.8315C71.9595 75.001 72.0075 75.1945 72.0075 75.4134C72.0075 75.6322 71.9515 75.8351 71.8407 76.0032C71.7299 76.17 71.5751 76.2915 71.3763 76.3676C71.3523 76.3782 71.3456 76.3956 71.3563 76.4183L72.0129 77.7808L72.0235 77.8222C72.0235 77.8663 71.9955 77.8889 71.9421 77.8889H71.2402C71.1894 77.8889 71.1534 77.8649 71.1321 77.8169V77.8155ZM70.1432 75.0637V75.771C70.1432 75.795 70.1552 75.8071 70.1792 75.8071H70.7384C70.8652 75.8071 70.9666 75.7723 71.0453 75.7016C71.1241 75.6322 71.1628 75.5388 71.1628 75.4227C71.1628 75.3066 71.1241 75.2078 71.0453 75.1358C70.9666 75.0637 70.8638 75.0277 70.7384 75.0277H70.1792C70.1552 75.0277 70.1432 75.0397 70.1432 75.0637ZM72.5921 77.8622C72.5834 77.8535 72.5767 77.843 72.5723 77.8316C72.568 77.8201 72.5661 77.8078 72.5667 77.7955V74.3924C72.5667 74.3657 72.5747 74.3431 72.5921 74.3257C72.6094 74.3084 72.6308 74.3003 72.6588 74.3003H73.9346C74.2015 74.3003 74.4364 74.3471 74.6419 74.4391C74.8474 74.5312 75.0062 74.6633 75.1183 74.8342C75.2304 75.005 75.2878 75.2012 75.2878 75.424V76.7666C75.2878 76.9881 75.2318 77.1856 75.1183 77.3565C75.0062 77.5273 74.8461 77.6594 74.6419 77.7515C74.4364 77.8436 74.2015 77.8903 73.9346 77.8903H72.6588C72.6308 77.8903 72.6094 77.8823 72.5921 77.8649V77.8622ZM73.4528 77.1603H73.9706C74.1068 77.1603 74.2189 77.1122 74.3043 77.0148C74.3897 76.9174 74.4337 76.7866 74.4377 76.6225V75.5668C74.4377 75.4027 74.3937 75.2719 74.3069 75.1745C74.2202 75.0771 74.1068 75.029 73.9666 75.029H73.4542C73.4301 75.029 73.4181 75.041 73.4181 75.065V77.1256C73.4181 77.1496 73.4301 77.1616 73.4542 77.1616L73.4528 77.1603ZM76.4235 77.7929C76.2167 77.7021 76.0565 77.5726 75.9444 77.4032C75.8323 77.2337 75.7749 77.0388 75.7749 76.816V76.7492C75.7749 76.7225 75.7829 76.6999 75.8003 76.6825C75.8176 76.6652 75.839 76.6572 75.867 76.6572H76.5183C76.5463 76.6572 76.5677 76.6638 76.585 76.6745C76.6024 76.6865 76.6104 76.7012 76.6104 76.7185V76.7799C76.6104 76.8894 76.6664 76.9868 76.7772 77.0722C76.888 77.1576 77.0307 77.2003 77.2056 77.2003C77.3564 77.2003 77.4671 77.1683 77.5392 77.1029C77.6113 77.0375 77.6473 76.9628 77.6473 76.8774C77.6473 76.7813 77.6059 76.7079 77.5219 76.6572C77.4378 76.6064 77.2883 76.5464 77.0735 76.4783L76.9614 76.4423C76.7425 76.3702 76.5516 76.2928 76.3875 76.2088C76.2233 76.1247 76.0832 76.0086 75.9671 75.8604C75.851 75.7123 75.7923 75.5281 75.7923 75.3093C75.7923 75.0904 75.8483 74.9116 75.9591 74.7528C76.0699 74.5939 76.2233 74.4712 76.4209 74.3858C76.617 74.3003 76.8399 74.2576 77.0895 74.2576C77.3524 74.2576 77.5886 74.3057 77.7994 74.4018C78.009 74.4979 78.1745 74.6327 78.2946 74.8061C78.4147 74.981 78.4734 75.1798 78.4734 75.4054V75.4467C78.4734 75.4747 78.4654 75.4961 78.448 75.5135C78.4307 75.5308 78.4093 75.5388 78.3813 75.5388H77.7301C77.702 75.5388 77.6807 75.5348 77.6633 75.5255C77.6556 75.5224 77.649 75.5171 77.6445 75.5101C77.6399 75.5032 77.6377 75.495 77.638 75.4868V75.4401C77.638 75.3199 77.5846 75.2145 77.4792 75.1224C77.3737 75.0303 77.2309 74.9836 77.0534 74.9836C76.92 74.9836 76.8159 75.0117 76.7412 75.065C76.6664 75.1198 76.6291 75.1972 76.6291 75.2959C76.6291 75.3707 76.6531 75.4334 76.7011 75.4828C76.7492 75.5321 76.8239 75.5788 76.924 75.6215C77.0241 75.6643 77.1789 75.7203 77.3884 75.7884C77.6273 75.8698 77.8141 75.9418 77.9476 76.0032C78.081 76.0646 78.2065 76.1647 78.3239 76.3035C78.4414 76.4423 78.5014 76.6238 78.5014 76.8493C78.5014 77.0749 78.4454 77.2537 78.3319 77.4152C78.2198 77.578 78.0597 77.7034 77.8555 77.7915C77.65 77.8809 77.4151 77.925 77.1482 77.925C76.8813 77.925 76.6344 77.8796 76.4275 77.7888L76.4235 77.7929ZM28.0236 32.5531C28.0836 32.6132 28.113 32.6906 28.113 32.7867V34.7057C28.113 34.8018 28.0836 34.8792 28.0236 34.9393C27.9635 34.9993 27.8861 35.0287 27.79 35.0287H24.794C24.7099 35.0287 24.6685 35.0714 24.6685 35.1542V44.6961C24.6685 44.7922 24.6392 44.8696 24.5791 44.9297C24.5191 44.9897 24.4417 45.0191 24.3456 45.0191H22.0141C21.918 45.0191 21.8406 44.9897 21.7806 44.9297C21.7205 44.8696 21.6912 44.7922 21.6912 44.6961V35.1542C21.6912 35.0701 21.6485 35.0287 21.5657 35.0287H18.6778C18.5817 35.0287 18.5043 34.9993 18.4442 34.9393C18.3842 34.8792 18.3548 34.8018 18.3548 34.7057V32.7867C18.3548 32.6906 18.3842 32.6132 18.4442 32.5531C18.5043 32.4931 18.5817 32.4637 18.6778 32.4637H27.79C27.8861 32.4637 27.9635 32.4931 28.0236 32.5531ZM29.198 44.3011C28.4506 43.7273 27.9448 42.9506 27.6819 41.9697C27.5378 41.4799 27.4671 40.9407 27.4671 40.3549C27.4671 39.769 27.5445 39.1778 27.7006 38.6146C27.9755 37.6698 28.4867 36.9318 29.234 36.3993C29.9814 35.8668 30.8875 35.6012 31.9512 35.6012C33.0148 35.6012 33.8942 35.8681 34.6242 36.3993C35.3529 36.9318 35.8614 37.6644 36.1483 38.5959C36.3151 39.1338 36.3992 39.7076 36.3992 40.3175C36.3992 40.8673 36.3338 41.3931 36.2017 41.8963C35.9508 42.9012 35.4477 43.6966 34.695 44.2824C33.941 44.8683 33.0201 45.1619 31.9325 45.1619C30.8448 45.1619 29.944 44.875 29.1967 44.3011H29.198ZM32.8039 42.2833C33.0375 42.0618 33.2016 41.7601 33.2977 41.3771C33.3698 41.0662 33.4058 40.7259 33.4058 40.3549C33.4058 39.9839 33.3631 39.6489 33.2804 39.3139C33.1843 38.9429 33.0228 38.656 32.7959 38.4531C32.569 38.2503 32.2821 38.1489 31.9351 38.1489C31.5882 38.1489 31.2865 38.2503 31.065 38.4531C30.8435 38.656 30.6847 38.9443 30.5899 39.3139C30.5058 39.5768 30.4645 39.9238 30.4645 40.3549C30.4645 40.7259 30.5005 41.0662 30.5726 41.3771C30.6807 41.7601 30.8475 42.0618 31.0744 42.2833C31.3012 42.5048 31.5882 42.6156 31.9351 42.6156C32.2821 42.6156 32.5717 42.5048 32.8053 42.2833H32.8039ZM46.6952 40.4269C46.6952 41.2757 46.5698 42.0297 46.3189 42.6863C46.0439 43.4283 45.5982 44.0289 44.983 44.4893C44.3664 44.9497 43.6765 45.1793 42.9118 45.1793C42.0029 45.1793 41.321 44.9043 40.8672 44.3545C40.8312 44.3065 40.7978 44.2891 40.7685 44.3011C40.7391 44.3131 40.7231 44.3492 40.7231 44.4092V47.9791C40.7231 48.0752 40.6938 48.1526 40.6337 48.2127C40.5736 48.2727 40.4962 48.3021 40.4002 48.3021H38.0687C37.9726 48.3021 37.8952 48.2727 37.8352 48.2127C37.7751 48.1526 37.7457 48.0752 37.7457 47.9791V36.0697C37.7457 35.9736 37.7751 35.8962 37.8352 35.8361C37.8952 35.7761 37.9726 35.7467 38.0687 35.7467H40.4002C40.4962 35.7467 40.5736 35.7761 40.6337 35.8361C40.6938 35.8962 40.7231 35.9736 40.7231 36.0697V36.5007C40.7231 36.5608 40.7378 36.5968 40.7685 36.6088C40.7978 36.6208 40.8312 36.6035 40.8672 36.5554C41.321 35.9215 42.0029 35.6052 42.9118 35.6052C43.6885 35.6052 44.4065 35.8628 45.0644 36.3766C45.7223 36.8904 46.1707 37.555 46.4096 38.3677C46.6005 38.9536 46.6965 39.6409 46.6965 40.4309L46.6952 40.4269ZM43.503 40.3736C43.503 39.7637 43.4015 39.2672 43.1974 38.8842C42.9465 38.4425 42.5808 38.2209 42.103 38.2209C41.6253 38.2209 41.2956 38.4478 41.0447 38.9029C40.8419 39.2859 40.7405 39.7757 40.7405 40.3736C40.7405 41.0315 40.8486 41.5573 41.0634 41.9523C41.3143 42.3594 41.6613 42.5622 42.1044 42.5622C42.5701 42.5622 42.9291 42.3527 43.18 41.935C43.3949 41.54 43.503 41.0208 43.503 40.3749V40.3736ZM53.1531 32.4624H55.61C55.7061 32.4624 55.7835 32.4917 55.8435 32.5518C55.9036 32.6118 55.9329 32.6892 55.9329 32.7853V44.6948C55.9329 44.7909 55.9022 44.8683 55.8435 44.9284C55.7835 44.9884 55.7061 45.0178 55.61 45.0178H53.2785C53.1824 45.0178 53.105 44.9884 53.045 44.9284C52.9849 44.8683 52.9556 44.7909 52.9556 44.6948V35.3143C52.9556 35.2783 52.9435 35.2489 52.9195 35.2249C52.8955 35.2009 52.8661 35.1955 52.8301 35.2075L51.3234 35.3864H51.27C51.0792 35.3864 50.9831 35.2849 50.9831 35.0821V33.4139C50.9831 33.2471 51.0725 33.127 51.2527 33.0549L52.7594 32.5344C52.8675 32.4864 52.9983 32.4624 53.1544 32.4624H53.1531ZM58.5513 44.0769C57.7626 43.3056 57.3676 42.2566 57.3676 40.9287V36.5528C57.3676 35.2369 57.7626 34.2026 58.5513 33.4499C59.34 32.6959 60.4223 32.3196 61.7983 32.3196C63.1742 32.3196 64.2618 32.6999 65.0625 33.4579C65.8633 34.2173 66.265 35.2489 66.265 36.5514V40.9274C66.265 42.2553 65.8646 43.3042 65.0625 44.0756C64.2618 44.8469 63.1728 45.2326 61.7983 45.2326C60.4237 45.2326 59.3414 44.8469 58.5513 44.0756V44.0769ZM62.8832 42.2473C63.1528 41.967 63.2863 41.5813 63.2863 41.0902V36.4447C63.2863 35.9549 63.1515 35.5692 62.8832 35.2876C62.6137 35.0074 62.252 34.8659 61.7983 34.8659C61.3445 34.8659 61.0029 35.006 60.74 35.2876C60.4771 35.5692 60.3449 35.9549 60.3449 36.4447V41.0902C60.3449 41.5813 60.473 41.9657 60.7306 42.2473C60.9882 42.5288 61.3432 42.669 61.7983 42.669C62.2533 42.669 62.615 42.5288 62.8832 42.2473ZM68.7939 44.0769C68.0052 43.3056 67.6102 42.2566 67.6102 40.9287V36.5528C67.6102 35.2369 68.0052 34.2026 68.7939 33.4499C69.5827 32.6959 70.665 32.3196 72.0409 32.3196C73.4168 32.3196 74.5045 32.6999 75.3052 33.4579C76.1059 34.2173 76.5076 35.2489 76.5076 36.5514V40.9274C76.5076 42.2553 76.1072 43.3042 75.3052 44.0756C74.5045 44.8469 73.4155 45.2326 72.0409 45.2326C70.6663 45.2326 69.584 44.8469 68.7939 44.0756V44.0769ZM73.1259 42.2473C73.3955 41.967 73.5289 41.5813 73.5289 41.0902V36.4447C73.5289 35.9549 73.3941 35.5692 73.1259 35.2876C72.8563 35.0074 72.4946 34.8659 72.0409 34.8659C71.5871 34.8659 71.2455 35.006 70.9826 35.2876C70.7197 35.5692 70.5876 35.9549 70.5876 36.4447V41.0902C70.5876 41.5813 70.7157 41.9657 70.9733 42.2473C71.2308 42.5288 71.5858 42.669 72.0409 42.669C72.496 42.669 72.8576 42.5288 73.1259 42.2473Z" fill="#252530"/>
<path d="M16.8028 62.1693C16.4998 62.0359 16.2676 61.849 16.1035 61.6088C15.9393 61.3686 15.8579 61.0857 15.8579 60.7627V60.6319C15.8579 60.5452 15.9019 60.5011 15.9887 60.5011H16.7961C16.8828 60.5011 16.9269 60.5345 16.9269 60.6012V60.7093C16.9269 60.9149 17.0203 61.087 17.2071 61.2285C17.394 61.3699 17.6395 61.4393 17.9411 61.4393C18.2134 61.4393 18.4136 61.3819 18.5443 61.2658C18.6751 61.1511 18.7405 61.0083 18.7405 60.8388C18.7405 60.716 18.6992 60.6119 18.6177 60.5278C18.535 60.4438 18.4256 60.369 18.2868 60.305C18.148 60.2409 17.9251 60.1528 17.6182 60.0394C17.2699 59.922 16.9776 59.8005 16.7414 59.6777C16.5052 59.555 16.3063 59.3868 16.1422 59.1746C15.978 58.9624 15.8966 58.6995 15.8966 58.3872C15.8966 58.0749 15.9767 57.8107 16.1355 57.5798C16.2943 57.349 16.5158 57.1728 16.8001 57.05C17.0844 56.9272 17.4087 56.8658 17.773 56.8658C18.1627 56.8658 18.511 56.9352 18.8179 57.074C19.1249 57.2128 19.3651 57.4063 19.5372 57.6546C19.7094 57.9028 19.7948 58.191 19.7948 58.5193V58.5967C19.7948 58.6835 19.7508 58.7275 19.664 58.7275H18.8566C18.7699 58.7275 18.7258 58.7022 18.7258 58.6501V58.5727C18.7258 58.3579 18.6378 58.1737 18.4603 58.0229C18.2828 57.8721 18.0412 57.796 17.7343 57.796C17.4887 57.796 17.2992 57.8467 17.1658 57.9495C17.0323 58.0523 16.9656 58.1924 16.9656 58.3725C16.9656 58.5007 17.0043 58.6088 17.0804 58.6955C17.1578 58.7823 17.2739 58.8623 17.43 58.9344C17.5861 59.0065 17.829 59.0985 18.156 59.2106C18.515 59.3441 18.7992 59.4602 19.0088 59.5603C19.2183 59.6604 19.4078 59.8125 19.5733 60.018C19.7401 60.2236 19.8228 60.4865 19.8228 60.8094C19.8228 61.1324 19.7428 61.3966 19.5813 61.6315C19.4198 61.8677 19.1916 62.0492 18.8967 62.1773C18.6017 62.3055 18.2548 62.3695 17.8544 62.3695C17.454 62.3695 17.103 62.3028 16.8014 62.1693H16.8028ZM21.1534 62.0305C20.8464 61.805 20.6356 61.4981 20.5235 61.1084C20.4514 60.8681 20.4154 60.6066 20.4154 60.3237C20.4154 60.0114 20.4541 59.7391 20.5302 59.5082C20.6476 59.1292 20.8598 58.8316 21.1641 58.6168C21.4683 58.4019 21.8393 58.2938 22.2744 58.2938C22.7095 58.2938 23.0551 58.4019 23.354 58.6168C23.6543 58.8316 23.8625 59.1266 23.98 59.5002C24.0574 59.7365 24.0947 60.0047 24.0947 60.3076C24.0947 60.5745 24.0614 60.8334 23.9946 61.0843C23.8772 61.4847 23.665 61.7983 23.3607 62.0265C23.0551 62.2547 22.6908 62.3682 22.2651 62.3682C21.8393 62.3682 21.4577 62.2561 21.1507 62.0305H21.1534ZM22.6908 61.2845C22.8082 61.1818 22.8936 61.0416 22.9443 60.8615C22.9857 60.7227 23.0057 60.5439 23.0057 60.3237C23.0057 60.1035 22.9857 59.926 22.9443 59.7778C22.8936 59.603 22.8082 59.4682 22.6908 59.3708C22.5733 59.2734 22.4265 59.2253 22.253 59.2253C22.0796 59.2253 21.9408 59.2747 21.822 59.3708C21.7046 59.4682 21.6191 59.6043 21.5684 59.7778C21.5271 59.926 21.507 60.1088 21.507 60.3237C21.507 60.5385 21.5271 60.7133 21.5684 60.8615C21.6191 61.0403 21.7059 61.1818 21.826 61.2845C21.9461 61.3873 22.0942 61.438 22.2677 61.438C22.4319 61.438 22.572 61.3873 22.6908 61.2845ZM27.0347 58.4793V59.1332C27.0347 59.22 26.9907 59.264 26.9039 59.264H26.2046C26.1739 59.264 26.1579 59.28 26.1579 59.3107V62.1787C26.1579 62.2654 26.1139 62.3095 26.0271 62.3095H25.2051C25.1183 62.3095 25.0743 62.2654 25.0743 62.1787V59.3107C25.0743 59.28 25.0583 59.264 25.0289 59.264H24.6219C24.5351 59.264 24.4911 59.22 24.4911 59.1332V58.4793C24.4911 58.3926 24.5351 58.3485 24.6219 58.3485H25.0289C25.0596 58.3485 25.0743 58.3325 25.0743 58.3018V58.1403C25.0743 57.8227 25.1237 57.5758 25.2197 57.3983C25.3172 57.2222 25.4746 57.0954 25.6922 57.022C25.9097 56.9473 26.2113 56.9152 26.5957 56.9259H26.8492C26.936 56.9259 26.98 56.9699 26.98 57.0567V57.6025C26.98 57.6893 26.936 57.7333 26.8492 57.7333H26.6344C26.4555 57.7386 26.3301 57.776 26.262 57.8454C26.1926 57.9148 26.1579 58.0416 26.1579 58.2257V58.3032C26.1579 58.3338 26.1739 58.3499 26.2046 58.3499H26.9039C26.9907 58.3499 27.0347 58.3939 27.0347 58.4806V58.4793ZM29.8026 59.2253H29.1113C29.0806 59.2253 29.0646 59.2413 29.0646 59.272V60.8628C29.0646 61.0323 29.0993 61.1564 29.1687 61.2351C29.2381 61.3152 29.3488 61.3539 29.5023 61.3539H29.7172C29.8039 61.3539 29.8479 61.398 29.8479 61.4847V62.1453C29.8479 62.2267 29.8039 62.2734 29.7172 62.2841C29.5223 62.2948 29.3809 62.3001 29.2941 62.3001C28.8684 62.3001 28.5508 62.228 28.3412 62.0853C28.1304 61.9425 28.0236 61.6755 28.0183 61.2859V59.272C28.0183 59.2413 28.0036 59.2253 27.9729 59.2253H27.5806C27.4938 59.2253 27.4498 59.1813 27.4498 59.0945V58.4873C27.4498 58.4006 27.4938 58.3565 27.5806 58.3565H27.9729C28.0036 58.3565 28.0183 58.3405 28.0183 58.3098V57.441C28.0183 57.3543 28.0623 57.3103 28.1491 57.3103H28.9338C29.0205 57.3103 29.0646 57.3543 29.0646 57.441V58.3098C29.0646 58.3405 29.0806 58.3565 29.1113 58.3565H29.8026C29.8893 58.3565 29.9334 58.4006 29.9334 58.4873V59.0945C29.9334 59.1813 29.8893 59.2253 29.8026 59.2253ZM31.4627 62.2L30.3791 58.502C30.3729 58.4872 30.3702 58.4713 30.3711 58.4553C30.3711 58.3886 30.4098 58.3552 30.4859 58.3552H31.332C31.4134 58.3552 31.4627 58.3939 31.4774 58.47L32.0072 60.7454C32.0126 60.7654 32.0233 60.7761 32.0379 60.7761C32.0526 60.7761 32.0633 60.7654 32.0686 60.7454L32.6371 58.47C32.6532 58.3926 32.7012 58.3552 32.7826 58.3552H33.5353C33.6167 58.3552 33.6661 58.3939 33.6808 58.47L34.2653 60.7534C34.2706 60.7734 34.2813 60.7841 34.296 60.7841C34.3107 60.7841 34.3213 60.7734 34.3267 60.7534L34.9112 58.47C34.9272 58.3926 34.9753 58.3552 35.0567 58.3552L35.9028 58.3632C35.9495 58.3632 35.9802 58.3779 35.9989 58.4059C36.0162 58.4339 36.0202 58.4686 36.0109 58.51L34.9112 62.2C34.8858 62.2721 34.8365 62.3081 34.7657 62.3081H33.905C33.8329 62.3081 33.7849 62.2721 33.7595 62.2L33.183 60.1862C33.1723 60.1662 33.1616 60.1555 33.1483 60.1555C33.1349 60.1555 33.1269 60.1662 33.1216 60.1862L32.6145 62.192C32.5984 62.2694 32.5504 62.3068 32.469 62.3068H31.6082C31.5361 62.3068 31.4881 62.2708 31.4627 62.1987V62.2ZM38.8721 58.4673C39.1337 58.5821 39.3379 58.7395 39.4834 58.9397C39.6288 59.1399 39.7022 59.3628 39.7022 59.6083V62.176C39.7022 62.2627 39.6582 62.3068 39.5714 62.3068H38.7494C38.6626 62.3068 38.6186 62.2627 38.6186 62.176V61.9918C38.6186 61.9718 38.6132 61.9598 38.6026 61.9571C38.5919 61.9545 38.5799 61.9611 38.5639 61.9758C38.3276 62.2374 37.9767 62.3682 37.5109 62.3682C37.1159 62.3682 36.7983 62.2708 36.558 62.0759C36.3165 61.8811 36.1964 61.5941 36.1964 61.2151C36.1964 60.8361 36.3352 60.5145 36.6114 60.297C36.8877 60.0794 37.2827 59.97 37.7952 59.97H38.5719C38.6026 59.97 38.6186 59.954 38.6186 59.9233V59.7618C38.6186 59.5923 38.5665 59.4602 38.4611 59.3654C38.3557 59.2707 38.2035 59.2227 38.0033 59.2227C37.8499 59.2227 37.7231 59.248 37.623 59.3001C37.5229 59.3508 37.4548 59.4228 37.4188 59.5149C37.3881 59.587 37.3374 59.6203 37.2653 59.615L36.4126 59.5069C36.3712 59.5016 36.3392 59.4909 36.3165 59.4722C36.2938 59.4549 36.2845 59.4295 36.2898 59.3988C36.3151 59.1893 36.4032 58.9984 36.5554 58.8303C36.7062 58.6608 36.9064 58.5287 37.1546 58.4339C37.4028 58.3392 37.6791 58.2911 37.9807 58.2911C38.3143 58.2911 38.6106 58.3485 38.8721 58.4646V58.4673ZM38.3877 61.3846C38.5412 61.2672 38.6186 61.115 38.6186 60.9309V60.6613C38.6186 60.6306 38.6026 60.6146 38.5719 60.6146H38.026C37.7952 60.6146 37.6137 60.6586 37.4802 60.7454C37.3468 60.8321 37.28 60.9562 37.28 61.1137C37.28 61.2525 37.3307 61.3606 37.4295 61.4407C37.5296 61.5207 37.6617 61.5594 37.8259 61.5594C38.0461 61.5594 38.2329 61.5007 38.3877 61.3833V61.3846ZM42.8317 58.3952C42.8931 58.4259 42.9158 58.4793 42.9011 58.5567L42.7557 59.3641C42.7503 59.4108 42.737 59.4388 42.713 59.4482C42.6903 59.4589 42.6529 59.4589 42.6022 59.4482C42.5194 59.4282 42.446 59.4175 42.3793 59.4175C42.3433 59.4175 42.2846 59.4228 42.2032 59.4335C42.019 59.4495 41.8629 59.5163 41.7347 59.6377C41.6066 59.7578 41.5426 59.918 41.5426 60.1181V62.1787C41.5426 62.2654 41.4985 62.3095 41.4118 62.3095H40.5897C40.503 62.3095 40.4589 62.2654 40.4589 62.1787V58.4887C40.4589 58.4019 40.503 58.3579 40.5897 58.3579H41.4118C41.4985 58.3579 41.5426 58.4019 41.5426 58.4887V58.7275C41.5426 58.7476 41.5479 58.7609 41.5586 58.7662C41.5692 58.7716 41.5813 58.7662 41.5973 58.7502C41.8028 58.4526 42.079 58.3045 42.4274 58.3045C42.5915 58.3045 42.7276 58.3352 42.8344 58.3966L42.8317 58.3952ZM45.9839 61.1004C46.0146 61.0643 46.048 61.047 46.084 61.047C46.1147 61.047 46.1427 61.0603 46.1681 61.0857L46.6058 61.5087C46.6365 61.5394 46.6525 61.5701 46.6525 61.6008C46.6525 61.6368 46.6419 61.6675 46.6218 61.6929C46.4523 61.9038 46.2362 62.0679 45.9719 62.1893C45.7077 62.3108 45.4194 62.3695 45.1071 62.3695C44.636 62.3695 44.245 62.2494 43.9341 62.0078C43.6245 61.7676 43.4149 61.4367 43.3082 61.0163C43.2468 60.7907 43.2161 60.5532 43.2161 60.301C43.2161 60.0034 43.2441 59.7525 43.3002 59.5483C43.4029 59.1693 43.6084 58.8637 43.9194 58.6341C44.229 58.4032 44.5973 58.2885 45.0231 58.2885C45.5248 58.2885 45.9239 58.4366 46.2188 58.7342C46.5137 59.0318 46.7046 59.4495 46.7913 59.9873C46.8113 60.1568 46.8274 60.3437 46.838 60.5479C46.838 60.6346 46.794 60.6786 46.7072 60.6786H44.3478C44.3171 60.6786 44.3011 60.6947 44.3011 60.7253C44.3171 60.8334 44.3344 60.9122 44.3544 60.9642C44.4052 61.123 44.5066 61.2445 44.6587 61.3299C44.8095 61.414 44.9937 61.4567 45.2086 61.4567C45.5475 61.4407 45.8051 61.3232 45.9853 61.103L45.9839 61.1004ZM44.596 59.3441C44.4852 59.4242 44.4105 59.5349 44.3691 59.6791C44.3438 59.7765 44.3278 59.8405 44.3224 59.8712C44.3171 59.9019 44.3304 59.918 44.3611 59.918H45.6676C45.693 59.918 45.7063 59.9073 45.7063 59.8873C45.7063 59.8312 45.6957 59.7725 45.6756 59.7111C45.6289 59.563 45.5502 59.4442 45.4368 59.3574C45.3233 59.2707 45.1805 59.2267 45.0057 59.2267C44.8416 59.2267 44.7041 59.2667 44.5947 59.3454L44.596 59.3441ZM52.2256 57.1261C52.4818 57.2649 52.6807 57.4611 52.8208 57.7146C52.9623 57.9682 53.0317 58.2591 53.0317 58.5874C53.0317 58.9157 52.9583 59.1946 52.8128 59.4402C52.6673 59.6857 52.4618 59.8766 52.1976 60.0127C51.9333 60.1488 51.6304 60.2169 51.2861 60.2169H50.2024C50.1717 60.2169 50.1557 60.2329 50.1557 60.2636V62.1773C50.1557 62.2641 50.1117 62.3081 50.0249 62.3081H49.2028C49.1161 62.3081 49.0721 62.2641 49.0721 62.1773V57.05C49.0721 56.9633 49.1161 56.9192 49.2028 56.9192H51.3328C51.6704 56.9192 51.968 56.9886 52.2243 57.1274L52.2256 57.1261ZM51.7412 59.1439C51.8839 59.0078 51.956 58.8303 51.956 58.6101C51.956 58.3899 51.8839 58.2031 51.7412 58.0643C51.597 57.9255 51.4075 57.8561 51.1726 57.8561H50.2038C50.1731 57.8561 50.157 57.8721 50.157 57.9028V59.3014C50.157 59.3321 50.1731 59.3481 50.2038 59.3481H51.1726C51.4089 59.3481 51.5984 59.28 51.7412 59.1439ZM56.0077 58.3952C56.0691 58.4259 56.0918 58.4793 56.0771 58.5567L55.9316 59.3641C55.9263 59.4108 55.9129 59.4388 55.8889 59.4482C55.8662 59.4589 55.8289 59.4589 55.7782 59.4482C55.6954 59.4282 55.622 59.4175 55.5553 59.4175C55.5192 59.4175 55.4605 59.4228 55.3791 59.4335C55.195 59.4495 55.0388 59.5163 54.9107 59.6377C54.7826 59.7578 54.7185 59.918 54.7185 60.1181V62.1787C54.7185 62.2654 54.6745 62.3095 54.5877 62.3095H53.7657C53.6789 62.3095 53.6349 62.2654 53.6349 62.1787V58.4887C53.6349 58.4019 53.6789 58.3579 53.7657 58.3579H54.5877C54.6745 58.3579 54.7185 58.4019 54.7185 58.4887V58.7275C54.7185 58.7476 54.7239 58.7609 54.7345 58.7662C54.7452 58.7716 54.7572 58.7662 54.7732 58.7502C54.9788 58.4526 55.255 58.3045 55.6033 58.3045C55.7675 58.3045 55.9036 58.3352 56.0104 58.3966L56.0077 58.3952ZM57.114 62.0305C56.8071 61.805 56.5962 61.4981 56.4841 61.1084C56.4121 60.8681 56.376 60.6066 56.376 60.3237C56.376 60.0114 56.4147 59.7391 56.4908 59.5082C56.6082 59.1292 56.8204 58.8316 57.1247 58.6168C57.429 58.4019 57.8 58.2938 58.235 58.2938C58.6701 58.2938 59.0158 58.4019 59.3147 58.6168C59.615 58.8316 59.8232 59.1266 59.9406 59.5002C60.018 59.7365 60.0554 60.0047 60.0554 60.3076C60.0554 60.5745 60.022 60.8334 59.9553 61.0843C59.8378 61.4847 59.6256 61.7983 59.3214 62.0265C59.0158 62.2547 58.6514 62.3682 58.2257 62.3682C57.8 62.3682 57.4183 62.2561 57.1114 62.0305H57.114ZM58.6514 61.2845C58.7689 61.1818 58.8543 61.0416 58.905 60.8615C58.9464 60.7227 58.9664 60.5439 58.9664 60.3237C58.9664 60.1035 58.9464 59.926 58.905 59.7778C58.8543 59.603 58.7689 59.4682 58.6514 59.3708C58.534 59.2734 58.3872 59.2253 58.2137 59.2253C58.0402 59.2253 57.9014 59.2747 57.7826 59.3708C57.6652 59.4682 57.5798 59.6043 57.5291 59.7778C57.4877 59.926 57.4677 60.1088 57.4677 60.3237C57.4677 60.5385 57.4877 60.7133 57.5291 60.8615C57.5798 61.0403 57.6665 61.1818 57.7866 61.2845C57.9067 61.3873 58.0549 61.438 58.2284 61.438C58.3925 61.438 58.5327 61.3873 58.6514 61.2845ZM63.2716 56.9259H64.0937C64.1804 56.9259 64.2245 56.9699 64.2245 57.0567V62.176C64.2245 62.2627 64.1804 62.3068 64.0937 62.3068H63.2716C63.1849 62.3068 63.1408 62.2627 63.1408 62.176V61.9678C63.1408 61.9478 63.1342 61.9358 63.1222 61.9331C63.1088 61.9304 63.0981 61.9371 63.0875 61.9518C62.8779 62.228 62.5857 62.3668 62.2107 62.3668C61.8623 62.3668 61.5541 62.2627 61.2845 62.0559C61.0149 61.8477 60.8294 61.5755 60.7266 61.2378C60.6399 60.9923 60.5959 60.684 60.5959 60.3156C60.5959 59.9473 60.6439 59.619 60.7413 59.3628C60.8534 59.0345 61.0403 58.7729 61.2992 58.5781C61.5581 58.3832 61.861 58.2858 62.2107 58.2858C62.5897 58.2858 62.8819 58.4113 63.0875 58.6621C63.0981 58.6782 63.1088 58.6822 63.1222 58.6782C63.1355 58.6728 63.1408 58.6608 63.1408 58.6395V57.0554C63.1408 56.9686 63.1849 56.9246 63.2716 56.9246V56.9259ZM63.1328 60.3317C63.1328 59.994 63.0794 59.7298 62.9713 59.5403C62.8432 59.3401 62.6711 59.24 62.4562 59.24C62.22 59.24 62.0412 59.3374 61.9184 59.5323C61.7956 59.7378 61.7342 60.006 61.7342 60.3397C61.7342 60.6426 61.7876 60.8935 61.8957 61.0937C62.0185 61.3139 62.2053 61.4246 62.4575 61.4246C62.6831 61.4246 62.8579 61.3139 62.9807 61.0937C63.0835 60.9042 63.1342 60.6506 63.1342 60.333L63.1328 60.3317ZM67.4768 58.3565H68.2988C68.3856 58.3565 68.4296 58.4006 68.4296 58.4873V62.1773C68.4296 62.2641 68.3856 62.3081 68.2988 62.3081H67.4768C67.39 62.3081 67.346 62.2641 67.346 62.1773V61.9691C67.346 61.9491 67.3393 61.9371 67.3273 61.9344C67.314 61.9318 67.3033 61.9385 67.2926 61.9531C67.0924 62.2254 66.7775 62.3602 66.3477 62.3602C65.9581 62.3602 65.6378 62.2427 65.3869 62.0065C65.136 61.7703 65.0105 61.4407 65.0105 61.0149V58.486C65.0105 58.3992 65.0546 58.3552 65.1413 58.3552H65.9567C66.0435 58.3552 66.0875 58.3992 66.0875 58.486V60.7454C66.0875 60.9509 66.1422 61.1164 66.253 61.2445C66.3638 61.3726 66.5159 61.4367 66.7107 61.4367C66.8842 61.4367 67.0284 61.3846 67.1418 61.2792C67.2539 61.1738 67.3233 61.0376 67.35 60.8681V58.4846C67.35 58.3979 67.394 58.3539 67.4808 58.3539L67.4768 58.3565ZM69.9016 62.0612C69.6014 61.8557 69.3878 61.5741 69.2597 61.2151C69.173 60.9589 69.1289 60.656 69.1289 60.3076C69.1289 59.9593 69.173 59.6671 69.2597 59.4162C69.3825 59.0678 69.5947 58.7929 69.8976 58.5941C70.2006 58.3939 70.5556 58.2938 70.9666 58.2938C71.3776 58.2938 71.7366 58.3966 72.0463 58.6008C72.3559 58.8063 72.5627 59.0652 72.6655 59.3775C72.6962 59.4495 72.7162 59.5283 72.7269 59.6163V59.6324C72.7269 59.6991 72.6882 59.7405 72.6121 59.7551L71.8047 59.8779L71.766 59.8859C71.7046 59.8859 71.6686 59.8552 71.6579 59.7938L71.6352 59.6857C71.5992 59.5523 71.5204 59.4429 71.3963 59.3548C71.2736 59.268 71.1267 59.224 70.9586 59.224C70.7904 59.224 70.6557 59.2654 70.5436 59.3468C70.4301 59.4282 70.3514 59.5416 70.3047 59.6844C70.2486 59.8379 70.2206 60.0487 70.2206 60.3143C70.2206 60.5799 70.246 60.7907 70.298 60.9442C70.3447 61.0977 70.4248 61.2178 70.5396 61.3059C70.6543 61.3926 70.7944 61.4367 70.9586 61.4367C71.1227 61.4367 71.2575 61.394 71.3776 61.3099C71.4978 61.2258 71.5818 61.111 71.6272 60.9682L71.6352 60.9295C71.6405 60.9095 71.6579 60.8842 71.6886 60.8561C71.7193 60.8281 71.7527 60.8161 71.7887 60.8214L72.5961 60.9442C72.6375 60.9549 72.6668 60.9722 72.6842 60.9976C72.7015 61.023 72.7082 61.0536 72.7028 61.0897C72.6922 61.1711 72.6802 61.2311 72.6641 61.2658C72.556 61.6088 72.3479 61.8784 72.0382 62.0732C71.7286 62.2681 71.371 62.3655 70.9653 62.3655C70.5596 62.3655 70.2006 62.2627 69.9003 62.0586L69.9016 62.0612ZM75.4947 59.2253H74.8034C74.7727 59.2253 74.7567 59.2413 74.7567 59.272V60.8628C74.7567 61.0323 74.7914 61.1564 74.8608 61.2351C74.9302 61.3152 75.041 61.3539 75.1944 61.3539H75.4093C75.4961 61.3539 75.5401 61.398 75.5401 61.4847V62.1453C75.5401 62.2267 75.4961 62.2734 75.4093 62.2841C75.2145 62.2948 75.073 62.3001 74.9863 62.3001C74.5605 62.3001 74.2429 62.228 74.0334 62.0853C73.8225 61.9425 73.7158 61.6755 73.7104 61.2859V59.272C73.7104 59.2413 73.6958 59.2253 73.6651 59.2253H73.2727C73.186 59.2253 73.1419 59.1813 73.1419 59.0945V58.4873C73.1419 58.4006 73.186 58.3565 73.2727 58.3565H73.6651C73.6958 58.3565 73.7104 58.3405 73.7104 58.3098V57.441C73.7104 57.3543 73.7545 57.3103 73.8412 57.3103H74.6259C74.7127 57.3103 74.7567 57.3543 74.7567 57.441V58.3098C74.7567 58.3405 74.7727 58.3565 74.8034 58.3565H75.4947C75.5815 58.3565 75.6255 58.4006 75.6255 58.4873V59.0945C75.6255 59.1813 75.5815 59.2253 75.4947 59.2253ZM76.9547 62.2147C76.6985 62.1173 76.501 61.9812 76.3622 61.8077C76.2234 61.6328 76.154 61.4367 76.154 61.2151V61.1764C76.154 61.0897 76.198 61.0456 76.2848 61.0456H77.0615C77.1482 61.0456 77.1923 61.0617 77.1923 61.0923V61.1457C77.1923 61.2592 77.2536 61.3553 77.3764 61.434C77.4992 61.5141 77.6553 61.5528 77.8449 61.5528C78.0183 61.5528 78.1598 61.5194 78.2679 61.4527C78.376 61.386 78.4294 61.2992 78.4294 61.1911C78.4294 61.099 78.3827 61.0296 78.2906 60.9829C78.1985 60.9362 78.0477 60.8882 77.8368 60.8375C77.586 60.7707 77.3991 60.712 77.275 60.6613C76.9414 60.5492 76.6785 60.4104 76.4836 60.2462C76.2888 60.0821 76.1913 59.8459 76.1913 59.5389C76.1913 59.1599 76.3395 58.8583 76.6371 58.6355C76.9347 58.4126 77.3244 58.3005 77.8061 58.3005C78.1344 58.3005 78.4227 58.3525 78.6709 58.458C78.9192 58.5634 79.1113 58.7102 79.2475 58.8997C79.3836 59.0892 79.4516 59.3041 79.4516 59.5456C79.4516 59.571 79.4396 59.5937 79.4169 59.611C79.3943 59.6297 79.3622 59.6377 79.3209 59.6377H78.5682C78.4814 59.6377 78.4374 59.6217 78.4374 59.591V59.5443C78.4374 59.4322 78.3813 59.3361 78.2679 59.26C78.1558 59.1826 78.0037 59.1452 77.8142 59.1452C77.6447 59.1452 77.5059 59.1759 77.3951 59.2373C77.2843 59.2987 77.2296 59.3828 77.2296 59.4909C77.2296 59.599 77.2817 59.6697 77.3871 59.7218C77.4925 59.7725 77.6647 59.8272 77.9062 59.8833C78.0544 59.9139 78.1985 59.9526 78.3373 59.998C78.7056 60.1061 78.9952 60.2436 79.2061 60.4131C79.4156 60.5826 79.521 60.8281 79.521 61.1511C79.521 61.5301 79.3702 61.8263 79.0673 62.0385C78.7643 62.2507 78.36 62.3575 77.8529 62.3575C77.5099 62.3575 77.2096 62.3081 76.9534 62.212L76.9547 62.2147Z" fill="white"/>
<path d="M38.8147 88.7215C38.8214 88.7348 38.8348 88.7415 38.8561 88.7415H41.4558C41.4892 88.7415 41.5185 88.7535 41.5425 88.7775C41.5666 88.8016 41.5786 88.8309 41.5786 88.8643V90.0667C41.5786 90.1014 41.5666 90.1294 41.5425 90.1535C41.5185 90.1775 41.4905 90.1895 41.4558 90.1895H36.6741C36.6394 90.1895 36.6114 90.1775 36.5874 90.1535C36.5757 90.1423 36.5665 90.1288 36.5603 90.1139C36.5541 90.0989 36.551 90.0829 36.5513 90.0667V88.935C36.5513 88.8736 36.5714 88.8229 36.6127 88.7815C37.0211 88.4012 37.5603 87.854 38.2342 87.14L38.8454 86.4981C39.4633 85.8589 39.7729 85.3931 39.7729 85.1009C39.7729 84.9034 39.6995 84.7405 39.5541 84.6111C39.4073 84.4816 39.2191 84.4176 38.9882 84.4176C38.7574 84.4176 38.5705 84.4816 38.4277 84.6111C38.2849 84.7405 38.2142 84.91 38.2142 85.1209V85.3651C38.2142 85.3998 38.2022 85.4278 38.1782 85.4518C38.1541 85.4759 38.1261 85.4879 38.0914 85.4879H36.6234C36.5887 85.4879 36.5607 85.4759 36.5367 85.4518C36.525 85.4407 36.5157 85.4272 36.5095 85.4123C36.5033 85.3973 36.5003 85.3813 36.5006 85.3651V84.8553C36.5273 84.475 36.6541 84.1413 36.8783 83.8557C37.1025 83.5701 37.3988 83.3513 37.7658 83.1978C38.1328 83.0443 38.5412 82.9683 38.9896 82.9683C39.4927 82.9683 39.9331 83.0617 40.3094 83.2485C40.6871 83.4354 40.9754 83.6889 41.1755 84.0079C41.3757 84.3268 41.4758 84.6805 41.4758 85.0675C41.4758 85.3464 41.4078 85.628 41.2716 85.9136C41.1355 86.1992 40.9313 86.5021 40.6604 86.8211C40.4576 87.0655 40.2434 87.3002 40.0185 87.5244C39.7809 87.7619 39.4513 88.0822 39.0296 88.4826L38.8254 88.6761C38.8121 88.6895 38.8081 88.7028 38.8147 88.7175V88.7215ZM42.9945 89.6543C42.5461 89.2166 42.3219 88.6201 42.3219 87.8647V85.3771C42.3219 84.6298 42.5461 84.0412 42.9945 83.6128C43.4429 83.1845 44.0582 82.9709 44.8402 82.9709C45.6222 82.9709 46.2401 83.1871 46.6952 83.6182C47.1503 84.0492 47.3785 84.6364 47.3785 85.3771V87.8647C47.3785 88.6187 47.1503 89.2153 46.6952 89.6543C46.2401 90.0921 45.6209 90.3123 44.8402 90.3123C44.0595 90.3123 43.4443 90.0934 42.9945 89.6543ZM45.4568 88.6147C45.6102 88.4546 45.6863 88.2357 45.6863 87.9568V85.3171C45.6863 85.0381 45.6102 84.8193 45.4568 84.6591C45.3033 84.499 45.0978 84.4189 44.8402 84.4189C44.5826 84.4189 44.3878 84.499 44.2383 84.6591C44.0889 84.8193 44.0141 85.0381 44.0141 85.3171V87.9568C44.0141 88.2357 44.0875 88.4546 44.233 88.6147C44.3785 88.7749 44.5813 88.8549 44.8389 88.8549C45.0964 88.8549 45.3033 88.7749 45.4554 88.6147H45.4568ZM50.4253 88.7215C50.4319 88.7348 50.4453 88.7415 50.4666 88.7415H53.0663C53.0997 88.7415 53.1291 88.7535 53.1531 88.7775C53.1771 88.8016 53.1891 88.8309 53.1891 88.8643V90.0667C53.1891 90.1014 53.1771 90.1294 53.1531 90.1535C53.1291 90.1775 53.101 90.1895 53.0663 90.1895H48.2847C48.25 90.1895 48.2219 90.1775 48.1979 90.1535C48.1862 90.1423 48.177 90.1288 48.1708 90.1139C48.1646 90.0989 48.1616 90.0829 48.1619 90.0667V88.935C48.1619 88.8736 48.1819 88.8229 48.2233 88.7815C48.6316 88.4012 49.1708 87.854 49.8447 87.14L50.456 86.4981C51.0739 85.8589 51.3835 85.3931 51.3835 85.1009C51.3835 84.9034 51.3101 84.7405 51.1646 84.6111C51.0178 84.4816 50.8296 84.4176 50.5988 84.4176C50.3679 84.4176 50.1811 84.4816 50.0383 84.6111C49.8955 84.7405 49.8247 84.91 49.8247 85.1209V85.3651C49.8247 85.3998 49.8127 85.4278 49.7887 85.4518C49.7647 85.4759 49.7367 85.4879 49.702 85.4879H48.234C48.1993 85.4879 48.1712 85.4759 48.1472 85.4518C48.1355 85.4407 48.1263 85.4272 48.1201 85.4123C48.1139 85.3973 48.1108 85.3813 48.1112 85.3651V84.8553C48.1379 84.475 48.2646 84.1413 48.4889 83.8557C48.7131 83.5701 49.0093 83.3513 49.3763 83.1978C49.7433 83.0443 50.1517 82.9683 50.6001 82.9683C51.1032 82.9683 51.5436 83.0617 51.92 83.2485C52.2976 83.4354 52.5859 83.6889 52.7861 84.0079C52.9863 84.3268 53.0864 84.6805 53.0864 85.0675C53.0864 85.3464 53.0183 85.628 52.8822 85.9136C52.746 86.1992 52.5419 86.5021 52.271 86.8211C52.0682 87.0655 51.854 87.3002 51.629 87.5244C51.3915 87.7619 51.0619 88.0822 50.6401 88.4826L50.436 88.6761C50.4226 88.6895 50.4186 88.7028 50.4253 88.7175V88.7215ZM58.6114 87.814C58.6114 88.181 58.5433 88.524 58.4072 88.8443C58.231 89.286 57.9414 89.6343 57.5411 89.8892C57.1394 90.1441 56.6683 90.2709 56.1238 90.2709C55.5793 90.2709 55.1242 90.1401 54.7172 89.8785C54.3088 89.617 54.0139 89.262 53.8297 88.8136C53.7203 88.5413 53.6562 88.2424 53.6362 87.9168C53.6362 87.8353 53.6776 87.794 53.759 87.794H55.227C55.3084 87.794 55.3524 87.8353 55.3591 87.9168C55.3724 88.0862 55.4138 88.2504 55.4819 88.4065C55.5366 88.5427 55.618 88.6468 55.7261 88.7175C55.8342 88.7882 55.9636 88.8242 56.1131 88.8242C56.3987 88.8242 56.6122 88.6948 56.755 88.4372C56.8498 88.2677 56.8978 88.0435 56.8978 87.7646C56.8978 87.4857 56.8498 87.2548 56.755 87.0506C56.6122 86.7997 56.3947 86.673 56.1024 86.673C56.0277 86.673 55.945 86.6983 55.8529 86.749C55.7608 86.7997 55.6433 86.8758 55.5005 86.9786C55.4659 86.9986 55.4392 87.0093 55.4191 87.0093C55.3791 87.0093 55.3484 86.9892 55.3271 86.9479L54.6037 85.9283C54.5837 85.8949 54.573 85.8669 54.573 85.8469C54.573 85.8055 54.5904 85.7761 54.6238 85.7548L56.1932 84.5617C56.2065 84.5484 56.2119 84.535 56.2079 84.5203C56.2039 84.507 56.1932 84.5003 56.1718 84.5003H53.9391C53.9044 84.5003 53.8764 84.4883 53.8524 84.4643C53.8407 84.4531 53.8315 84.4396 53.8253 84.4247C53.8191 84.4098 53.816 84.3937 53.8164 84.3775V83.1751C53.8164 83.1418 53.8284 83.1124 53.8524 83.0884C53.8764 83.0644 53.9044 83.0523 53.9391 83.0523H58.3845C58.4179 83.0523 58.4472 83.0644 58.4712 83.0884C58.4953 83.1124 58.5073 83.1418 58.5073 83.1751V84.531C58.5073 84.5924 58.4833 84.6431 58.4352 84.6845L57.2021 85.6534C57.1887 85.6667 57.1834 85.6801 57.1874 85.6947C57.1901 85.7081 57.2021 85.7188 57.2234 85.7254C57.7666 85.8682 58.1616 86.2152 58.4059 86.765C58.542 87.0907 58.61 87.4417 58.61 87.8153L58.6114 87.814Z" fill="#252530"/>
</g>
</g>
<defs>
<clipPath id="clip0_633_14689">
<rect width="94" height="106.764" fill="white" transform="translate(0.161621)"/>
</clipPath>
<clipPath id="clip1_633_14689">
<rect width="94" height="106.764" fill="white" transform="translate(0.55603 0.31189)"/>
</clipPath>
</defs>
</svg>
