<svg width="94" height="107" viewBox="0 0 94 107" fill="none" xmlns="http://www.w3.org/2000/svg">
<g clip-path="url(#clip0_847_14697)">
<path d="M7.64111 82.244L47.6088 102.582L86.0588 82.244V2.71338H7.64111V82.244Z" fill="white"/>
<path d="M86.8684 3.01697L6.83179 83.6606L48.3173 104.201L86.8684 84.4701V3.01697Z" fill="#F2F3F2"/>
<path d="M5.01025 29.2235V83.9641L6.42683 84.6724L46.3945 105.01L47.6087 105.617L48.823 105.01L87.3741 84.6724L88.7907 83.9641V0.0825195H5.01025V29.2235ZM7.64104 82.4463V2.7133H86.1599V82.4463L47.6087 102.784L7.64104 82.4463Z" fill="#DCDEDC"/>
<path d="M46.9007 4.0287C47.3054 4.0287 47.7102 4.0287 48.1149 4.12988L46.9007 6.45711C45.0794 6.35593 43.4604 7.77251 43.3592 9.59382C43.2581 11.4151 44.6746 13.0341 46.496 13.1353H46.9007C47.7102 13.1353 48.5196 12.8317 49.1267 12.3258L50.4421 14.5518C49.4303 15.2601 48.2161 15.6649 46.9007 15.6649C43.6628 15.766 40.9308 13.3376 40.8296 10.0997C40.7285 6.86185 43.1569 4.12988 46.3948 4.0287H46.9007ZM51.0492 8.98671L52.567 11.5163L51.0492 13.9447L49.6327 11.5163H46.6983L48.2161 8.98671H51.0492ZM48.6208 8.07606C48.6208 7.67132 48.722 7.26659 48.9244 6.96303C49.1267 6.65948 49.5315 6.35593 49.835 6.15356L50.0374 6.05238C50.4421 5.85001 50.5433 5.74883 50.5433 5.54646C50.5433 5.34409 50.2398 5.14172 50.0374 5.14172C49.6327 5.14172 49.3291 5.34409 49.1267 5.74883L48.6208 5.24291C48.722 5.04054 48.9244 4.83817 49.1267 4.6358C49.4303 4.43343 49.7338 4.43343 50.0374 4.43343C50.3409 4.43343 50.7457 4.53462 50.9481 4.73699C51.1504 4.93935 51.3528 5.24291 51.3528 5.54646C51.3528 6.05238 51.0492 6.45711 50.4421 6.65948L50.1386 6.86185C49.835 7.06422 49.6327 7.1654 49.5315 7.46895H51.3528V8.17724L48.6208 8.07606ZM46.9007 20.7241L56.5132 15.2601V0.0825195H37.187V15.1589L46.9007 20.7241ZM90.7134 56.5432H3.08799L-0.149902 63.6261L3.08799 70.709H90.7134L93.8501 63.6261L90.7134 56.5432Z" fill="#FF492C"/>
<path d="M18.7613 51.99C18.7006 51.99 18.65 51.9698 18.6095 51.9293C18.5691 51.8821 18.5488 51.8281 18.5488 51.7674V39.4634C18.5488 39.4027 18.5691 39.3488 18.6095 39.3016C18.65 39.2611 18.7006 39.2408 18.7613 39.2408H20.8963C20.957 39.2408 21.0076 39.2611 21.0481 39.3016C21.0953 39.3488 21.1189 39.4027 21.1189 39.4634V49.6932C21.1189 49.7539 21.1493 49.7842 21.21 49.7842H27.1596C27.2203 49.7842 27.2743 49.8045 27.3215 49.8449C27.362 49.8921 27.3822 49.9461 27.3822 50.0068V51.7674C27.3822 51.8281 27.362 51.8821 27.3215 51.9293C27.2743 51.9698 27.2203 51.99 27.1596 51.99H18.7613ZM37.0858 46.344C37.16 46.8027 37.1836 47.3187 37.1566 47.8921C37.1498 48.0405 37.0723 48.1147 36.9239 48.1147H31.298C31.2238 48.1147 31.2002 48.145 31.2272 48.2057C31.2609 48.4486 31.325 48.6914 31.4194 48.9343C31.7365 49.6088 32.3807 49.9461 33.3521 49.9461C34.1278 49.9394 34.7417 49.6257 35.1936 49.0051C35.2408 48.9309 35.2948 48.8938 35.3555 48.8938C35.396 48.8938 35.4398 48.9174 35.487 48.9646L36.7923 50.2598C36.853 50.3205 36.8834 50.3745 36.8834 50.4217C36.8834 50.4487 36.8598 50.4993 36.8126 50.5735C36.4146 51.0659 35.8985 51.4504 35.2644 51.727C34.6371 51.9968 33.9457 52.1317 33.1902 52.1317C32.1446 52.1317 31.2609 51.8956 30.5391 51.4234C29.8174 50.9512 29.298 50.2901 28.9809 49.4402C28.7246 48.8331 28.5964 48.0371 28.5964 47.0522C28.5964 46.3844 28.6875 45.7976 28.8696 45.2916C29.1529 44.4282 29.642 43.7402 30.3368 43.2275C31.0383 42.7216 31.868 42.4686 32.8259 42.4686C34.0401 42.4686 35.0149 42.8194 35.7501 43.5209C36.4854 44.2225 36.9306 45.1635 37.0858 46.344ZM32.8461 44.6845C32.0771 44.6845 31.5712 45.0421 31.3284 45.7571C31.2812 45.919 31.2407 46.1146 31.207 46.344C31.207 46.4047 31.2373 46.435 31.298 46.435H34.4448C34.519 46.435 34.5427 46.4047 34.5157 46.344C34.455 45.9932 34.4246 45.8245 34.4246 45.838C34.3167 45.4738 34.1278 45.1905 33.858 44.9881C33.5814 44.7857 33.2441 44.6845 32.8461 44.6845ZM42.3878 42.4787C43.177 42.4787 43.8819 42.617 44.5025 42.8936C45.1231 43.1634 45.6054 43.5378 45.9495 44.0167C46.2935 44.4889 46.4655 45.0151 46.4655 45.5952V51.7674C46.4655 51.8281 46.4453 51.8821 46.4048 51.9293C46.3643 51.9698 46.3137 51.99 46.253 51.99H44.118C44.0573 51.99 44.0067 51.9698 43.9663 51.9293C43.919 51.8821 43.8954 51.8281 43.8954 51.7674V51.1704C43.8954 51.1367 43.8853 51.1131 43.8651 51.0996C43.8381 51.0861 43.8145 51.0962 43.7943 51.13C43.2816 51.7978 42.462 52.1317 41.3355 52.1317C40.3844 52.1317 39.6187 51.9023 39.0386 51.4436C38.4517 50.9849 38.1583 50.3036 38.1583 49.3997C38.1583 48.4688 38.4888 47.7437 39.1499 47.2243C39.8042 46.7116 40.7385 46.4553 41.9527 46.4553H43.8044C43.8651 46.4553 43.8954 46.4249 43.8954 46.3642V45.9595C43.8954 45.5615 43.774 45.2478 43.5312 45.0185C43.2883 44.7958 42.9241 44.6845 42.4384 44.6845C42.0674 44.6845 41.7571 44.752 41.5075 44.8869C41.2579 45.0218 41.096 45.2107 41.0218 45.4535C40.9881 45.5885 40.9105 45.6492 40.7891 45.6357L38.5833 45.3422C38.4349 45.3153 38.3674 45.2613 38.3809 45.1803C38.4281 44.6677 38.6305 44.2056 38.988 43.7941C39.3455 43.3826 39.8211 43.0622 40.4147 42.8329C41.0016 42.5968 41.6593 42.4787 42.3878 42.4787ZM42.0235 50.2193C42.5429 50.2193 42.9848 50.081 43.349 49.8045C43.7133 49.5279 43.8954 49.1704 43.8954 48.7319V48.0742C43.8954 48.0135 43.8651 47.9831 43.8044 47.9831H42.4991C41.9527 47.9831 41.5244 48.0877 41.2141 48.2968C40.9038 48.4992 40.7486 48.7892 40.7486 49.167C40.7486 49.4975 40.8633 49.7539 41.0926 49.936C41.322 50.1249 41.6323 50.2193 42.0235 50.2193ZM54.0847 39.4634C54.0847 39.4027 54.1049 39.3488 54.1454 39.3016C54.1859 39.2611 54.2365 39.2408 54.2972 39.2408H56.4321C56.4929 39.2408 56.5434 39.2611 56.5839 39.3016C56.6244 39.3488 56.6446 39.4027 56.6446 39.4634V51.7674C56.6446 51.8281 56.6244 51.8821 56.5839 51.9293C56.5434 51.9698 56.4929 51.99 56.4321 51.99H54.2972C54.2365 51.99 54.1859 51.9698 54.1454 51.9293C54.1049 51.8821 54.0847 51.8281 54.0847 51.7674V51.1704C54.0847 51.1367 54.0712 51.1165 54.0442 51.1097C54.0172 51.103 53.9936 51.1097 53.9734 51.13C53.4607 51.7978 52.7625 52.1317 51.8789 52.1317C51.0289 52.1317 50.297 51.8956 49.6832 51.4234C49.0693 50.9512 48.6275 50.3036 48.3577 49.4807C48.1553 48.8466 48.0541 48.1113 48.0541 47.2749C48.0541 46.4114 48.162 45.6593 48.3779 45.0185C48.6612 44.236 49.103 43.6187 49.7034 43.1668C50.3038 42.7081 51.0458 42.4787 51.9295 42.4787C52.8064 42.4787 53.4877 42.7823 53.9734 43.3894C53.9936 43.4299 54.0172 43.4434 54.0442 43.4299C54.0712 43.4164 54.0847 43.3928 54.0847 43.359V39.4634ZM53.7002 49.1468C53.943 48.7015 54.0644 48.0877 54.0644 47.3052C54.0644 46.4957 53.9295 45.8583 53.6597 45.3928C53.3831 44.9206 52.9784 44.6845 52.4455 44.6845C51.8721 44.6845 51.4404 44.9206 51.1503 45.3928C50.8468 45.8718 50.695 46.516 50.695 47.3254C50.695 48.054 50.8232 48.6611 51.0795 49.1468C51.3831 49.6729 51.8316 49.936 52.4253 49.936C52.9717 49.936 53.3966 49.6729 53.7002 49.1468ZM66.8642 46.344C66.9384 46.8027 66.962 47.3187 66.9351 47.8921C66.9283 48.0405 66.8507 48.1147 66.7023 48.1147H61.0765C61.0023 48.1147 60.9787 48.145 61.0057 48.2057C61.0394 48.4486 61.1035 48.6914 61.1979 48.9343C61.515 49.6088 62.1592 49.9461 63.1305 49.9461C63.9063 49.9394 64.5201 49.6257 64.9721 49.0051C65.0193 48.9309 65.0733 48.8938 65.134 48.8938C65.1744 48.8938 65.2183 48.9174 65.2655 48.9646L66.5708 50.2598C66.6315 50.3205 66.6619 50.3745 66.6619 50.4217C66.6619 50.4487 66.6382 50.4993 66.591 50.5735C66.193 51.0659 65.677 51.4504 65.0429 51.727C64.4156 51.9968 63.7241 52.1317 62.9686 52.1317C61.9231 52.1317 61.0394 51.8956 60.3176 51.4234C59.5958 50.9512 59.0764 50.2901 58.7594 49.4402C58.503 48.8331 58.3749 48.0371 58.3749 47.0522C58.3749 46.3844 58.4659 45.7976 58.6481 45.2916C58.9314 44.4282 59.4204 43.7402 60.1152 43.2275C60.8168 42.7216 61.6465 42.4686 62.6044 42.4686C63.8186 42.4686 64.7933 42.8194 65.5286 43.5209C66.2639 44.2225 66.7091 45.1635 66.8642 46.344ZM62.6246 44.6845C61.8556 44.6845 61.3497 45.0421 61.1068 45.7571C61.0596 45.919 61.0192 46.1146 60.9854 46.344C60.9854 46.4047 61.0158 46.435 61.0765 46.435H64.2233C64.2975 46.435 64.3211 46.4047 64.2941 46.344C64.2334 45.9932 64.2031 45.8245 64.2031 45.838C64.0952 45.4738 63.9063 45.1905 63.6364 44.9881C63.3599 44.7857 63.0226 44.6845 62.6246 44.6845ZM73.1882 42.499C73.6267 42.499 73.9707 42.5833 74.2203 42.7519C74.3215 42.8059 74.3586 42.897 74.3316 43.0251L73.9471 45.1095C73.9404 45.2512 73.856 45.2916 73.6941 45.2309C73.512 45.1702 73.2995 45.1399 73.0567 45.1399C72.9622 45.1399 72.8307 45.1534 72.6621 45.1803C72.2236 45.2141 71.8526 45.3726 71.549 45.6559C71.2455 45.946 71.0937 46.3271 71.0937 46.7993V51.7674C71.0937 51.8281 71.0735 51.8821 71.033 51.9293C70.9858 51.9698 70.9318 51.99 70.8711 51.99H68.7462C68.6855 51.99 68.6316 51.9698 68.5844 51.9293C68.5439 51.8821 68.5236 51.8281 68.5236 51.7674V42.843C68.5236 42.7823 68.5439 42.7317 68.5844 42.6912C68.6316 42.6507 68.6855 42.6305 68.7462 42.6305H70.8711C70.9318 42.6305 70.9858 42.6507 71.033 42.6912C71.0735 42.7317 71.0937 42.7823 71.0937 42.843V43.5412C71.0937 43.5749 71.1038 43.5985 71.1241 43.612C71.1511 43.6255 71.1713 43.6187 71.1848 43.5918C71.684 42.8632 72.3518 42.499 73.1882 42.499Z" fill="#252530"/>
<path d="M26.7953 60.5704C26.8291 60.5164 26.8763 60.4894 26.937 60.4894H27.8679C27.9016 60.4894 27.9286 60.5029 27.9488 60.5299C27.9758 60.5502 27.9893 60.5771 27.9893 60.6109V67.4509C27.9893 67.4846 27.9758 67.5116 27.9488 67.5318C27.9286 67.5588 27.9016 67.5723 27.8679 67.5723H26.937C26.9033 67.5723 26.8729 67.5588 26.8459 67.5318C26.8257 67.5116 26.8156 67.4846 26.8156 67.4509V62.6244C26.8156 62.6042 26.8088 62.5907 26.7953 62.5839C26.7751 62.5772 26.7616 62.5839 26.7549 62.6042L25.4901 64.5469C25.4563 64.6009 25.4091 64.6279 25.3484 64.6279H24.883C24.8222 64.6279 24.775 64.6009 24.7413 64.5469L23.4664 62.6143C23.4596 62.5941 23.4495 62.5873 23.436 62.5941C23.4158 62.6008 23.4057 62.6143 23.4057 62.6345V67.4509C23.4057 67.4846 23.3922 67.5116 23.3652 67.5318C23.345 67.5588 23.318 67.5723 23.2842 67.5723H22.3534C22.3196 67.5723 22.2926 67.5588 22.2724 67.5318C22.2454 67.5116 22.2319 67.4846 22.2319 67.4509V60.6109C22.2319 60.5771 22.2454 60.5502 22.2724 60.5299C22.2926 60.5029 22.3196 60.4894 22.3534 60.4894H23.2842C23.345 60.4894 23.3922 60.5164 23.4259 60.5704L25.0752 63.0696C25.0887 63.0831 25.1022 63.0899 25.1157 63.0899C25.1292 63.0899 25.1393 63.0831 25.146 63.0696L26.7953 60.5704ZM30.0231 61.6935C29.814 61.6935 29.642 61.6261 29.5071 61.4912C29.3722 61.3562 29.3047 61.1842 29.3047 60.9751C29.3047 60.766 29.3722 60.594 29.5071 60.4591C29.642 60.3242 29.814 60.2567 30.0231 60.2567C30.2322 60.2567 30.4042 60.3242 30.5391 60.4591C30.6741 60.594 30.7415 60.766 30.7415 60.9751C30.7415 61.1842 30.6741 61.3562 30.5391 61.4912C30.4042 61.6261 30.2322 61.6935 30.0231 61.6935ZM29.5374 67.5723C29.5037 67.5723 29.4767 67.5588 29.4565 67.5318C29.4295 67.5116 29.416 67.4846 29.416 67.4509V62.5131C29.416 62.4794 29.4295 62.4524 29.4565 62.4322C29.4767 62.4052 29.5037 62.3917 29.5374 62.3917H30.4683C30.502 62.3917 30.5324 62.4052 30.5594 62.4322C30.5796 62.4524 30.5897 62.4794 30.5897 62.5131V67.4509C30.5897 67.4846 30.5796 67.5116 30.5594 67.5318C30.5324 67.5588 30.502 67.5723 30.4683 67.5723H29.5374ZM35.143 60.6109C35.143 60.5771 35.1565 60.5502 35.1835 60.5299C35.2037 60.5029 35.2307 60.4894 35.2644 60.4894H36.1953C36.2291 60.4894 36.2594 60.5029 36.2864 60.5299C36.3066 60.5502 36.3168 60.5771 36.3168 60.6109V67.4509C36.3168 67.4846 36.3066 67.5116 36.2864 67.5318C36.2594 67.5588 36.2291 67.5723 36.1953 67.5723H35.2644C35.2307 67.5723 35.2037 67.5588 35.1835 67.5318C35.1565 67.5116 35.143 67.4846 35.143 67.4509V67.1474C35.143 67.1271 35.1363 67.1136 35.1228 67.1069C35.1093 67.1001 35.0958 67.1069 35.0823 67.1271C34.7855 67.4779 34.3976 67.6533 33.9187 67.6533C33.4398 67.6533 33.035 67.5285 32.7045 67.2789C32.3739 67.0293 32.1345 66.6819 31.9861 66.2367C31.8647 65.8589 31.8039 65.4373 31.8039 64.9719C31.8039 64.493 31.8613 64.0815 31.976 63.7374C32.1244 63.2922 32.3638 62.9448 32.6944 62.6953C33.0249 62.4457 33.4398 62.3209 33.9389 62.3209C34.4044 62.3209 34.7855 62.4895 35.0823 62.8268C35.0958 62.8403 35.1093 62.847 35.1228 62.847C35.1363 62.8403 35.143 62.8268 35.143 62.8066V60.6109ZM34.9002 66.1557C35.0553 65.8792 35.1329 65.4879 35.1329 64.982C35.1329 64.4558 35.0486 64.0545 34.8799 63.7779C34.6978 63.4811 34.4415 63.3327 34.1109 63.3327C33.7669 63.3327 33.4971 63.4744 33.3015 63.7577C33.0991 64.0545 32.9979 64.466 32.9979 64.9921C32.9979 65.4643 33.0789 65.8522 33.2408 66.1557C33.4296 66.4795 33.7163 66.6414 34.1008 66.6414C34.4448 66.6414 34.7113 66.4795 34.9002 66.1557ZM37.4095 65.0326C37.3758 65.0326 37.3488 65.0225 37.3286 65.0022C37.3016 64.9753 37.2881 64.9449 37.2881 64.9112V64.1422C37.2881 64.1085 37.3016 64.0781 37.3286 64.0511C37.3488 64.0309 37.3758 64.0208 37.4095 64.0208H40.5968C40.6306 64.0208 40.6576 64.0309 40.6778 64.0511C40.7048 64.0781 40.7183 64.1085 40.7183 64.1422V64.9112C40.7183 64.9449 40.7048 64.9753 40.6778 65.0022C40.6576 65.0225 40.6306 65.0326 40.5968 65.0326H37.4095ZM46.3542 60.5704C46.3879 60.5164 46.4352 60.4894 46.4959 60.4894H47.4268C47.4605 60.4894 47.4908 60.5029 47.5178 60.5299C47.5381 60.5502 47.5482 60.5771 47.5482 60.6109V67.4509C47.5482 67.4846 47.5381 67.5116 47.5178 67.5318C47.4908 67.5588 47.4605 67.5723 47.4268 67.5723H46.4959C46.4621 67.5723 46.4352 67.5588 46.4149 67.5318C46.3879 67.5116 46.3745 67.4846 46.3745 67.4509V62.6244C46.3745 62.6042 46.3677 62.5907 46.3542 62.5839C46.334 62.5772 46.3205 62.5839 46.3137 62.6042L45.0489 64.5469C45.0152 64.6009 44.968 64.6279 44.9073 64.6279H44.4418C44.3811 64.6279 44.3339 64.6009 44.3002 64.5469L43.0253 62.6143C43.0185 62.5941 43.0084 62.5873 42.9949 62.5941C42.9747 62.6008 42.9645 62.6143 42.9645 62.6345V67.4509C42.9645 67.4846 42.9544 67.5116 42.9342 67.5318C42.9072 67.5588 42.8769 67.5723 42.8431 67.5723H41.9122C41.8785 67.5723 41.8515 67.5588 41.8313 67.5318C41.8043 67.5116 41.7908 67.4846 41.7908 67.4509V60.6109C41.7908 60.5771 41.8043 60.5502 41.8313 60.5299C41.8515 60.5029 41.8785 60.4894 41.9122 60.4894H42.8431C42.9038 60.4894 42.9511 60.5164 42.9848 60.5704L44.6341 63.0696C44.6476 63.0831 44.6611 63.0899 44.6746 63.0899C44.6881 63.0899 44.6982 63.0831 44.7049 63.0696L46.3542 60.5704ZM50.8873 62.3209C51.3122 62.3209 51.6866 62.3951 52.0104 62.5435C52.3342 62.6919 52.5838 62.8942 52.7592 63.1506C52.9346 63.4137 53.0222 63.7105 53.0222 64.041V67.4509C53.0222 67.4846 53.0121 67.5116 52.9919 67.5318C52.9649 67.5588 52.9346 67.5723 52.9008 67.5723H51.9699C51.9362 67.5723 51.9092 67.5588 51.889 67.5318C51.862 67.5116 51.8485 67.4846 51.8485 67.4509V67.1271C51.8485 67.1069 51.8418 67.0934 51.8283 67.0866C51.8148 67.0866 51.8013 67.0934 51.7878 67.1069C51.4573 67.4711 50.9783 67.6533 50.351 67.6533C49.8451 67.6533 49.4302 67.5251 49.1064 67.2688C48.7759 67.0124 48.6106 66.6313 48.6106 66.1254C48.6106 65.5992 48.7961 65.1878 49.1671 64.8909C49.5314 64.6009 50.0474 64.4559 50.7152 64.4559H51.7979C51.8316 64.4559 51.8485 64.439 51.8485 64.4053V64.1624C51.8485 63.8993 51.7709 63.6936 51.6158 63.5452C51.4606 63.4035 51.2279 63.3327 50.9176 63.3327C50.6613 63.3327 50.4555 63.3799 50.3004 63.4744C50.1385 63.5621 50.0373 63.6869 49.9968 63.8488C49.9766 63.9297 49.9294 63.9634 49.8552 63.9499L48.8737 63.8285C48.84 63.8218 48.813 63.8116 48.7928 63.7982C48.7658 63.7779 48.7557 63.7543 48.7624 63.7273C48.8164 63.3158 49.039 62.9786 49.4302 62.7155C49.8147 62.4524 50.3004 62.3209 50.8873 62.3209ZM50.6444 66.7224C50.975 66.7224 51.2583 66.6347 51.4944 66.4593C51.7305 66.2839 51.8485 66.0613 51.8485 65.7915V65.3159C51.8485 65.2822 51.8316 65.2653 51.7979 65.2653H50.948C50.5905 65.2653 50.3105 65.3328 50.1081 65.4677C49.899 65.6026 49.7945 65.7949 49.7945 66.0444C49.7945 66.2603 49.8754 66.4256 50.0373 66.5402C50.1925 66.6617 50.3948 66.7224 50.6444 66.7224ZM56.6042 62.3411C56.82 62.3411 57.0089 62.385 57.1708 62.4726C57.2248 62.4996 57.245 62.5502 57.2315 62.6244L57.0595 63.5351C57.0527 63.616 57.0055 63.6396 56.9178 63.6059C56.8166 63.5722 56.6986 63.5553 56.5637 63.5553C56.476 63.5553 56.4085 63.5587 56.3613 63.5654C56.078 63.5789 55.8419 63.6767 55.653 63.8589C55.4642 64.0477 55.3697 64.2906 55.3697 64.5874V67.4509C55.3697 67.4846 55.3596 67.5116 55.3394 67.5318C55.3124 67.5588 55.282 67.5723 55.2483 67.5723H54.3174C54.2837 67.5723 54.2567 67.5588 54.2365 67.5318C54.2095 67.5116 54.196 67.4846 54.196 67.4509V62.5232C54.196 62.4895 54.2095 62.4592 54.2365 62.4322C54.2567 62.4119 54.2837 62.4018 54.3174 62.4018H55.2483C55.282 62.4018 55.3124 62.4119 55.3394 62.4322C55.3596 62.4592 55.3697 62.4895 55.3697 62.5232V62.9786C55.3697 63.0055 55.3765 63.019 55.39 63.019C55.3967 63.0258 55.4068 63.019 55.4203 62.9988C55.7036 62.5603 56.0982 62.3411 56.6042 62.3411ZM58.1219 67.5723C58.0882 67.5723 58.0612 67.5588 58.041 67.5318C58.014 67.5116 58.0005 67.4846 58.0005 67.4509V60.6109C58.0005 60.5771 58.014 60.5502 58.041 60.5299C58.0612 60.5029 58.0882 60.4894 58.1219 60.4894H59.0528C59.0865 60.4894 59.1135 60.5029 59.1338 60.5299C59.1607 60.5502 59.1742 60.5771 59.1742 60.6109V64.2636C59.1742 64.2838 59.181 64.2973 59.1945 64.3041C59.208 64.3108 59.2215 64.3041 59.2349 64.2838L60.8741 62.4726C60.9213 62.4254 60.9719 62.4018 61.0259 62.4018H62.0985C62.1659 62.4018 62.1996 62.4254 62.1996 62.4726C62.1996 62.4929 62.1895 62.5199 62.1693 62.5536L60.8843 64.0916C60.864 64.1118 60.8606 64.1354 60.8741 64.1624L62.3919 67.4307C62.4054 67.4576 62.4121 67.4779 62.4121 67.4914C62.4121 67.5453 62.375 67.5723 62.3008 67.5723H61.3193C61.2519 67.5723 61.2047 67.542 61.1777 67.4813L60.0748 64.9112C60.068 64.8977 60.0545 64.8876 60.0343 64.8808C60.0208 64.8808 60.0107 64.8876 60.0039 64.9011L59.1945 65.832C59.181 65.8589 59.1742 65.8825 59.1742 65.9028V67.4509C59.1742 67.4846 59.1607 67.5116 59.1338 67.5318C59.1135 67.5588 59.0865 67.5723 59.0528 67.5723H58.1219ZM67.2791 64.4053C67.3061 64.5739 67.3196 64.7628 67.3196 64.9719L67.3094 65.2856C67.3094 65.3665 67.269 65.407 67.188 65.407H64.021C63.9872 65.407 63.9704 65.4238 63.9704 65.4576C63.9906 65.6802 64.021 65.832 64.0614 65.9129C64.2233 66.3986 64.6179 66.6448 65.2453 66.6515C65.704 66.6515 66.0682 66.4627 66.3381 66.0849C66.3651 66.0444 66.3988 66.0242 66.4393 66.0242C66.4662 66.0242 66.4898 66.0343 66.5101 66.0546L67.1374 66.5706C67.1981 66.6178 67.2083 66.6718 67.1678 66.7325C66.9587 67.0293 66.6787 67.2587 66.3279 67.4205C65.9839 67.5824 65.5994 67.6634 65.1744 67.6634C64.6483 67.6634 64.1997 67.5453 63.8287 67.3092C63.4644 67.0731 63.198 66.7426 63.0294 66.3176C62.8742 65.9534 62.7966 65.4475 62.7966 64.7999C62.7966 64.4086 62.8371 64.0916 62.918 63.8488C63.053 63.3766 63.3093 63.0022 63.687 62.7256C64.0581 62.4558 64.5066 62.3209 65.0328 62.3209C66.3617 62.3209 67.1104 63.0157 67.2791 64.4053ZM65.0328 63.3327C64.7832 63.3327 64.5741 63.3968 64.4054 63.525C64.2436 63.6464 64.1289 63.8184 64.0614 64.041C64.021 64.1557 63.994 64.3041 63.9805 64.4862C63.967 64.5199 63.9805 64.5368 64.021 64.5368H66.075C66.1087 64.5368 66.1256 64.5199 66.1256 64.4862C66.1121 64.3176 66.0919 64.1894 66.0649 64.1017C66.0042 63.8589 65.8861 63.67 65.7107 63.5351C65.5286 63.4002 65.3026 63.3327 65.0328 63.3327ZM71.033 63.2315C71.033 63.2653 71.0229 63.2922 71.0027 63.3125C70.9757 63.3395 70.9453 63.353 70.9116 63.353H69.8795C69.8458 63.353 69.8289 63.3698 69.8289 63.4035V65.8421C69.8289 66.0984 69.8863 66.2839 70.0009 66.3986C70.1089 66.5133 70.2842 66.5706 70.5271 66.5706H70.8306C70.8644 66.5706 70.8913 66.5807 70.9116 66.601C70.9386 66.6279 70.9521 66.6583 70.9521 66.692V67.4509C70.9521 67.5251 70.9116 67.569 70.8306 67.5824L70.3045 67.5926C69.7716 67.5926 69.3736 67.5015 69.1105 67.3194C68.8474 67.1372 68.7125 66.7932 68.7058 66.2873V63.4035C68.7058 63.3698 68.6889 63.353 68.6552 63.353H68.0784C68.0447 63.353 68.0177 63.3395 67.9975 63.3125C67.9705 63.2922 67.957 63.2653 67.957 63.2315V62.5232C67.957 62.4895 67.9705 62.4592 67.9975 62.4322C68.0177 62.4119 68.0447 62.4018 68.0784 62.4018H68.6552C68.6889 62.4018 68.7058 62.385 68.7058 62.3512V61.1674C68.7058 61.1336 68.7193 61.1033 68.7462 61.0763C68.7665 61.0561 68.7935 61.0459 68.8272 61.0459H69.7075C69.7412 61.0459 69.7682 61.0561 69.7884 61.0763C69.8154 61.1033 69.8289 61.1336 69.8289 61.1674V62.3512C69.8289 62.385 69.8458 62.4018 69.8795 62.4018H70.9116C70.9453 62.4018 70.9757 62.4119 71.0027 62.4322C71.0229 62.4592 71.033 62.4895 71.033 62.5232V63.2315Z" fill="white"/>
<path d="M30.9742 81.8394C30.9 81.8394 30.8528 81.8056 30.8326 81.7382L29.0416 74.888L29.0315 74.8475C29.0315 74.7868 29.0686 74.7565 29.1428 74.7565H30.3975C30.4649 74.7565 30.5088 74.7902 30.529 74.8577L31.4903 78.9758C31.497 79.0028 31.5071 79.0163 31.5206 79.0163C31.5341 79.0163 31.5442 79.0028 31.551 78.9758L32.4819 74.8678C32.5021 74.7936 32.546 74.7565 32.6134 74.7565H33.8377C33.9119 74.7565 33.9592 74.7902 33.9794 74.8577L34.9912 78.9758C34.998 78.9961 35.0081 79.0096 35.0216 79.0163C35.0351 79.0163 35.0452 79.0028 35.0519 78.9758L35.9828 74.8678C36.0031 74.7936 36.0469 74.7565 36.1144 74.7565H37.3083C37.4028 74.7565 37.4399 74.8003 37.4197 74.888L35.7602 81.7382C35.74 81.8056 35.6928 81.8394 35.6186 81.8394H34.4145C34.347 81.8394 34.3032 81.8056 34.2829 81.7382L33.2509 77.3569C33.2441 77.3299 33.234 77.3164 33.2205 77.3164C33.207 77.3164 33.1969 77.3299 33.1902 77.3569L32.2289 81.728C32.2154 81.8022 32.1716 81.8394 32.0974 81.8394H30.9742ZM38.4011 81.8394C38.3674 81.8394 38.3371 81.8259 38.3101 81.7989C38.2898 81.7786 38.2797 81.7517 38.2797 81.7179V74.8779C38.2797 74.8442 38.2898 74.8172 38.3101 74.7969C38.3371 74.77 38.3674 74.7565 38.4011 74.7565H39.585C39.6187 74.7565 39.6457 74.77 39.6659 74.7969C39.6929 74.8172 39.7064 74.8442 39.7064 74.8779V81.7179C39.7064 81.7517 39.6929 81.7786 39.6659 81.7989C39.6457 81.8259 39.6187 81.8394 39.585 81.8394H38.4011ZM45.0085 74.8779C45.0085 74.8442 45.0186 74.8172 45.0388 74.7969C45.0658 74.77 45.0962 74.7565 45.1299 74.7565H46.3137C46.3475 74.7565 46.3744 74.77 46.3947 74.7969C46.4217 74.8172 46.4352 74.8442 46.4352 74.8779V81.7179C46.4352 81.7517 46.4217 81.7786 46.3947 81.7989C46.3744 81.8259 46.3475 81.8394 46.3137 81.8394H45.1704C45.1029 81.8394 45.0557 81.8124 45.0287 81.7584L42.408 77.4277C42.3945 77.4075 42.381 77.4007 42.3676 77.4075C42.3541 77.4075 42.3473 77.421 42.3473 77.448L42.3676 81.7179C42.3676 81.7517 42.3541 81.7786 42.3271 81.7989C42.3068 81.8259 42.2799 81.8394 42.2461 81.8394H41.0623C41.0286 81.8394 40.9982 81.8259 40.9712 81.7989C40.951 81.7786 40.9409 81.7517 40.9409 81.7179V74.8779C40.9409 74.8442 40.951 74.8172 40.9712 74.7969C40.9982 74.77 41.0286 74.7565 41.0623 74.7565H42.2057C42.2731 74.7565 42.3203 74.7835 42.3473 74.8374L44.9579 79.1479C44.9714 79.1681 44.9848 79.1748 44.9983 79.1681C45.0118 79.1681 45.0186 79.1546 45.0186 79.1276L45.0085 74.8779ZM52.5568 74.7565C52.5905 74.7565 52.6175 74.77 52.6377 74.7969C52.6647 74.8172 52.6782 74.8442 52.6782 74.8779V75.8695C52.6782 75.9032 52.6647 75.9302 52.6377 75.9504C52.6175 75.9774 52.5905 75.9909 52.5568 75.9909H50.7456C50.7119 75.9909 50.695 76.0078 50.695 76.0415V81.7179C50.695 81.7517 50.6815 81.7786 50.6545 81.7989C50.6343 81.8259 50.6073 81.8394 50.5736 81.8394H49.3897C49.356 81.8394 49.3256 81.8259 49.2987 81.7989C49.2784 81.7786 49.2683 81.7517 49.2683 81.7179V76.0415C49.2683 76.0078 49.2514 75.9909 49.2177 75.9909H47.4571C47.4234 75.9909 47.393 75.9774 47.366 75.9504C47.3458 75.9302 47.3357 75.9032 47.3357 75.8695V74.8779C47.3357 74.8442 47.3458 74.8172 47.366 74.7969C47.393 74.77 47.4234 74.7565 47.4571 74.7565H52.5568ZM58.5064 75.8594C58.5064 75.8931 58.4963 75.9201 58.4761 75.9403C58.4491 75.9673 58.4187 75.9808 58.385 75.9808H55.0662C55.0324 75.9808 55.0156 75.9977 55.0156 76.0314V77.5997C55.0156 77.6335 55.0324 77.6503 55.0662 77.6503H57.2416C57.2753 77.6503 57.3023 77.6605 57.3226 77.6807C57.3495 77.7077 57.363 77.738 57.363 77.7718V78.7532C57.363 78.787 57.3495 78.8173 57.3226 78.8443C57.3023 78.8645 57.2753 78.8747 57.2416 78.8747H55.0662C55.0324 78.8747 55.0156 78.8915 55.0156 78.9253V80.5644C55.0156 80.5982 55.0324 80.615 55.0662 80.615H58.385C58.4187 80.615 58.4491 80.6251 58.4761 80.6454C58.4963 80.6724 58.5064 80.7027 58.5064 80.7364V81.7179C58.5064 81.7517 58.4963 81.7786 58.4761 81.7989C58.4491 81.8259 58.4187 81.8394 58.385 81.8394H53.7103C53.6766 81.8394 53.6462 81.8259 53.6192 81.7989C53.599 81.7786 53.5889 81.7517 53.5889 81.7179V74.8779C53.5889 74.8442 53.599 74.8172 53.6192 74.7969C53.6462 74.77 53.6766 74.7565 53.7103 74.7565H58.385C58.4187 74.7565 58.4491 74.77 58.4761 74.7969C58.4963 74.8172 58.5064 74.8442 58.5064 74.8779V75.8594ZM63.3835 81.8394C63.316 81.8394 63.2688 81.809 63.2418 81.7483L61.977 78.9455C61.9635 78.9185 61.9433 78.905 61.9163 78.905H60.9753C60.9416 78.905 60.9247 78.9219 60.9247 78.9556V81.7179C60.9247 81.7517 60.9112 81.7786 60.8842 81.7989C60.864 81.8259 60.837 81.8394 60.8033 81.8394H59.6194C59.5857 81.8394 59.5554 81.8259 59.5284 81.7989C59.5081 81.7786 59.498 81.7517 59.498 81.7179V74.8779C59.498 74.8442 59.5081 74.8172 59.5284 74.7969C59.5554 74.77 59.5857 74.7565 59.6194 74.7565H62.5133C62.945 74.7565 63.3228 74.8442 63.6466 75.0196C63.9771 75.1949 64.2301 75.4445 64.4054 75.7683C64.5876 76.0921 64.6786 76.4665 64.6786 76.8915C64.6786 77.3502 64.564 77.7414 64.3346 78.0652C64.1053 78.3957 63.7849 78.6284 63.3734 78.7634C63.3396 78.7768 63.3295 78.8005 63.343 78.8342L64.7191 81.6977C64.7326 81.7247 64.7394 81.7449 64.7394 81.7584C64.7394 81.8124 64.7023 81.8394 64.6281 81.8394H63.3835ZM60.9753 75.9808C60.9416 75.9808 60.9247 75.9977 60.9247 76.0314V77.7616C60.9247 77.7954 60.9416 77.8122 60.9753 77.8122H62.3008C62.5841 77.8122 62.8135 77.7279 62.9889 77.5593C63.171 77.3906 63.2621 77.1714 63.2621 76.9016C63.2621 76.6317 63.171 76.4091 62.9889 76.2338C62.8135 76.0651 62.5841 75.9808 62.3008 75.9808H60.9753ZM37.9559 90.0656C37.9424 90.0791 37.9391 90.0926 37.9458 90.1061C37.9526 90.1196 37.966 90.1263 37.9863 90.1263H40.7284C40.7621 90.1263 40.7925 90.1364 40.8194 90.1567C40.8397 90.1837 40.8498 90.214 40.8498 90.2477V91.2292C40.8498 91.263 40.8397 91.2899 40.8194 91.3102C40.7925 91.3372 40.7621 91.3507 40.7284 91.3507H36.1751C36.1414 91.3507 36.111 91.3372 36.084 91.3102C36.0638 91.2899 36.0537 91.263 36.0537 91.2292V90.2983C36.0537 90.2376 36.0739 90.187 36.1144 90.1466C36.4449 89.8228 36.7822 89.472 37.1262 89.0942C37.4702 88.7097 37.6861 88.4703 37.7738 88.3758C37.9627 88.1532 38.1549 87.9408 38.3505 87.7384C38.9644 87.0571 39.2713 86.5512 39.2713 86.2206C39.2713 85.9845 39.187 85.7889 39.0184 85.6338C38.8497 85.4853 38.6305 85.4111 38.3607 85.4111C38.0908 85.4111 37.8716 85.4853 37.703 85.6338C37.5343 85.7889 37.45 85.9913 37.45 86.2409V86.4938C37.45 86.5275 37.4365 86.5579 37.4095 86.5849C37.3893 86.6051 37.3623 86.6152 37.3286 86.6152H36.1346C36.1009 86.6152 36.0739 86.6051 36.0537 86.5849C36.0267 86.5579 36.0132 86.5275 36.0132 86.4938V86.0182C36.0334 85.654 36.1481 85.3302 36.3572 85.0469C36.5663 84.7703 36.8429 84.5578 37.1869 84.4094C37.5377 84.261 37.9289 84.1868 38.3607 84.1868C38.8396 84.1868 39.2578 84.2745 39.6153 84.4499C39.9661 84.632 40.2393 84.8749 40.4349 85.1784C40.6238 85.482 40.7183 85.8193 40.7183 86.1903C40.7183 86.4736 40.6474 86.7636 40.5058 87.0605C40.3641 87.3573 40.1516 87.6777 39.8683 88.0217C39.6592 88.2848 39.4332 88.5445 39.1904 88.8008C38.9475 89.0571 38.5866 89.4282 38.1077 89.9138L37.9559 90.0656ZM44.1383 91.462C43.3963 91.462 42.8094 91.2528 42.3777 90.8346C41.946 90.4231 41.7301 89.8599 41.7301 89.1448V86.4736C41.7301 85.772 41.946 85.2155 42.3777 84.804C42.8094 84.3926 43.3963 84.1868 44.1383 84.1868C44.8803 84.1868 45.4705 84.3926 45.909 84.804C46.3407 85.2155 46.5566 85.772 46.5566 86.4736V89.1448C46.5566 89.8599 46.3407 90.4231 45.909 90.8346C45.4705 91.2528 44.8803 91.462 44.1383 91.462ZM44.1383 90.2376C44.4418 90.2376 44.6847 90.1432 44.8668 89.9543C45.0422 89.7722 45.1299 89.526 45.1299 89.2157V86.4331C45.1299 86.1228 45.0422 85.8766 44.8668 85.6945C44.6847 85.5056 44.4418 85.4111 44.1383 85.4111C43.8415 85.4111 43.6054 85.5056 43.43 85.6945C43.2479 85.8766 43.1568 86.1228 43.1568 86.4331V89.2157C43.1568 89.526 43.2479 89.7722 43.43 89.9543C43.6054 90.1432 43.8415 90.2376 44.1383 90.2376ZM49.3897 90.0656C49.3762 90.0791 49.3729 90.0926 49.3796 90.1061C49.3864 90.1196 49.3998 90.1263 49.4201 90.1263H52.1622C52.1959 90.1263 52.2263 90.1364 52.2532 90.1567C52.2735 90.1837 52.2836 90.214 52.2836 90.2477V91.2292C52.2836 91.263 52.2735 91.2899 52.2532 91.3102C52.2263 91.3372 52.1959 91.3507 52.1622 91.3507H47.6089C47.5752 91.3507 47.5482 91.3372 47.5279 91.3102C47.501 91.2899 47.4875 91.263 47.4875 91.2292V90.2983C47.4875 90.2376 47.5077 90.187 47.5482 90.1466C47.8787 89.8228 48.216 89.472 48.56 89.0942C48.904 88.7097 49.1199 88.4703 49.2076 88.3758C49.3965 88.1532 49.5887 87.9408 49.7843 87.7384C50.3982 87.0571 50.7051 86.5512 50.7051 86.2206C50.7051 85.9845 50.6208 85.7889 50.4522 85.6338C50.2835 85.4853 50.0643 85.4111 49.7945 85.4111C49.5246 85.4111 49.3054 85.4853 49.1368 85.6338C48.9681 85.7889 48.8838 85.9913 48.8838 86.2409V86.4938C48.8838 86.5275 48.8737 86.5579 48.8535 86.5849C48.8265 86.6051 48.7961 86.6152 48.7624 86.6152H47.5684C47.5347 86.6152 47.5077 86.6051 47.4875 86.5849C47.4605 86.5579 47.447 86.5275 47.447 86.4938V86.0182C47.4672 85.654 47.5819 85.3302 47.791 85.0469C48.0001 84.7703 48.2801 84.5578 48.6308 84.4094C48.9749 84.261 49.3627 84.1868 49.7945 84.1868C50.2734 84.1868 50.6916 84.2745 51.0491 84.4499C51.3999 84.632 51.6731 84.8749 51.8687 85.1784C52.0576 85.482 52.1521 85.8193 52.1521 86.1903C52.1521 86.4736 52.0812 86.7636 51.9396 87.0605C51.7979 87.3573 51.5854 87.6777 51.3021 88.0217C51.093 88.2848 50.867 88.5445 50.6242 88.8008C50.3813 89.0571 50.0204 89.4282 49.5415 89.9138L49.3897 90.0656ZM57.3833 87.9711C57.5182 88.2814 57.5856 88.6389 57.5856 89.0437C57.5856 89.4079 57.5249 89.7452 57.4035 90.0555C57.2416 90.4872 56.9718 90.8245 56.594 91.0673C56.2095 91.3102 55.7576 91.4316 55.2382 91.4316C54.7255 91.4316 54.2769 91.3034 53.8924 91.0471C53.5012 90.7908 53.2212 90.4434 53.0526 90.0049C52.9582 89.7418 52.9042 89.4585 52.8907 89.155C52.8907 89.074 52.9312 89.0335 53.0121 89.0335H54.2061C54.287 89.0335 54.3275 89.074 54.3275 89.155C54.3545 89.3776 54.3916 89.5428 54.4388 89.6508C54.4995 89.8261 54.6007 89.9611 54.7424 90.0555C54.8773 90.1567 55.0392 90.2073 55.2281 90.2073C55.6058 90.2073 55.8655 90.042 56.0072 89.7115C56.1016 89.5091 56.1488 89.273 56.1488 89.0032C56.1488 88.6861 56.0982 88.4264 55.997 88.2241C55.8419 87.907 55.5822 87.7485 55.2179 87.7485C55.1437 87.7485 55.0662 87.7687 54.9852 87.8092C54.9043 87.8564 54.8064 87.9205 54.6918 88.0015C54.6648 88.0217 54.6378 88.0318 54.6108 88.0318C54.5704 88.0318 54.54 88.0116 54.5198 87.9711L53.9228 87.1313C53.9093 87.111 53.9025 87.0874 53.9025 87.0605C53.9025 87.02 53.916 86.9862 53.943 86.9593L55.5518 85.5528C55.5653 85.5393 55.5721 85.5258 55.5721 85.5123C55.5653 85.4988 55.5518 85.4921 55.5316 85.4921H53.1538C53.1201 85.4921 53.0931 85.4786 53.0728 85.4516C53.0458 85.4314 53.0324 85.4044 53.0324 85.3707V84.3892C53.0324 84.3555 53.0458 84.3285 53.0728 84.3082C53.0931 84.2813 53.1201 84.2678 53.1538 84.2678H57.3732C57.4069 84.2678 57.4372 84.2813 57.4642 84.3082C57.4845 84.3285 57.4946 84.3555 57.4946 84.3892V85.5022C57.4946 85.5562 57.471 85.6068 57.4237 85.654L56.0982 86.8682C56.0847 86.8817 56.0814 86.8952 56.0881 86.9087C56.0881 86.9222 56.1016 86.9289 56.1286 86.9289C56.7155 87.0436 57.1337 87.391 57.3833 87.9711Z" fill="#252530"/>
</g>
<defs>
<clipPath id="clip0_847_14697">
<rect width="94" height="106.764" fill="white"/>
</clipPath>
</defs>
</svg>
