<svg width="94" height="107" viewBox="0 0 94 107" fill="none" xmlns="http://www.w3.org/2000/svg">
<g clip-path="url(#clip0_847_14673)">
<path d="M7.79126 82.1616L47.759 102.5L86.209 82.1616V2.63086H7.79126V82.1616Z" fill="white"/>
<path d="M87.0186 2.93433L6.98193 83.5781L48.4674 104.118L87.0186 84.3876V2.93433Z" fill="#F2F3F2"/>
<path d="M5.1604 29.141V83.8817L6.57698 84.59L46.5447 104.928L47.7589 105.535L48.9731 104.928L87.5243 84.59L88.9409 83.8817V0H5.1604V29.141ZM7.79119 82.3639V2.63079H86.3101V82.3639L47.7589 102.702L7.79119 82.3639Z" fill="#DCDEDC"/>
<path d="M47.0506 3.94618C47.4554 3.94618 47.8601 3.94618 48.2649 4.04737L47.0506 6.3746C45.2293 6.27342 43.6104 7.69 43.5092 9.51131C43.408 11.3326 44.8246 12.9516 46.6459 13.0528H47.0506C47.8601 13.0528 48.6696 12.7492 49.2767 12.2433L50.5921 14.4693C49.5802 15.1776 48.366 15.5824 47.0506 15.5824C43.8127 15.6835 41.0808 13.2551 40.9796 10.0172C40.8784 6.77934 43.3068 4.04737 46.5447 3.94618H47.0506ZM51.1992 8.90421L52.717 11.4338L51.1992 13.8622L49.7826 11.4338H46.8483L48.366 8.90421H51.1992ZM48.7708 7.99355C48.7708 7.58881 48.872 7.18408 49.0743 6.88052C49.2767 6.57697 49.6814 6.27342 49.985 6.07105L50.1874 5.96987C50.5921 5.7675 50.6933 5.66631 50.6933 5.46395C50.6933 5.26158 50.3897 5.05921 50.1874 5.05921C49.7826 5.05921 49.4791 5.26158 49.2767 5.66631L48.7708 5.16039C48.872 4.95802 49.0743 4.75566 49.2767 4.55329C49.5802 4.35092 49.8838 4.35092 50.1874 4.35092C50.4909 4.35092 50.8956 4.4521 51.098 4.65447C51.3004 4.85684 51.5027 5.16039 51.5027 5.46395C51.5027 5.96987 51.1992 6.3746 50.5921 6.57697L50.2885 6.77934C49.985 6.98171 49.7826 7.08289 49.6814 7.38645H51.5027V8.09474L48.7708 7.99355ZM47.0506 20.6416L56.6631 15.1776V0H37.337V15.0764L47.0506 20.6416ZM90.8634 56.4608H3.23789L0 63.5437L3.23789 70.6266H90.8634L94.0001 63.5437L90.8634 56.4608Z" fill="#FF492C"/>
<path d="M18.9112 51.9075C18.8505 51.9075 18.7999 51.8873 18.7594 51.8468C18.719 51.7996 18.6987 51.7456 18.6987 51.6849V39.3809C18.6987 39.3202 18.719 39.2663 18.7594 39.219C18.7999 39.1786 18.8505 39.1583 18.9112 39.1583H21.0462C21.1069 39.1583 21.1575 39.1786 21.198 39.219C21.2452 39.2663 21.2688 39.3202 21.2688 39.3809V49.6106C21.2688 49.6714 21.2992 49.7017 21.3599 49.7017H27.3095C27.3702 49.7017 27.4242 49.722 27.4714 49.7624C27.5119 49.8096 27.5321 49.8636 27.5321 49.9243V51.6849C27.5321 51.7456 27.5119 51.7996 27.4714 51.8468C27.4242 51.8873 27.3702 51.9075 27.3095 51.9075H18.9112ZM37.2357 46.2615C37.3099 46.7202 37.3335 47.2362 37.3065 47.8096C37.2998 47.958 37.2222 48.0322 37.0738 48.0322H31.4479C31.3737 48.0322 31.3501 48.0625 31.3771 48.1232C31.4108 48.3661 31.4749 48.6089 31.5694 48.8518C31.8864 49.5263 32.5306 49.8636 33.502 49.8636C34.2777 49.8569 34.8916 49.5432 35.3435 48.9226C35.3907 48.8484 35.4447 48.8113 35.5054 48.8113C35.5459 48.8113 35.5897 48.8349 35.637 48.8821L36.9422 50.1773C37.0029 50.238 37.0333 50.292 37.0333 50.3392C37.0333 50.3662 37.0097 50.4167 36.9625 50.4909C36.5645 50.9834 36.0484 51.3679 35.4144 51.6445C34.787 51.9143 34.0956 52.0492 33.3401 52.0492C32.2945 52.0492 31.4108 51.8131 30.6891 51.3409C29.9673 50.8687 29.4479 50.2076 29.1308 49.3577C28.8745 48.7506 28.7463 47.9546 28.7463 46.9697C28.7463 46.3019 28.8374 45.7151 29.0195 45.2091C29.3028 44.3457 29.7919 43.6576 30.4867 43.145C31.1882 42.6391 32.0179 42.3861 32.9758 42.3861C34.19 42.3861 35.1648 42.7369 35.9 43.4384C36.6353 44.14 37.0805 45.081 37.2357 46.2615ZM32.9961 44.602C32.2271 44.602 31.7211 44.9595 31.4783 45.6746C31.4311 45.8365 31.3906 46.0321 31.3569 46.2615C31.3569 46.3222 31.3872 46.3525 31.4479 46.3525H34.5948C34.669 46.3525 34.6926 46.3222 34.6656 46.2615C34.6049 45.9107 34.5745 45.742 34.5745 45.7555C34.4666 45.3913 34.2777 45.108 34.0079 44.9056C33.7313 44.7032 33.394 44.602 32.9961 44.602ZM42.5377 42.3962C43.327 42.3962 44.0319 42.5345 44.6525 42.8111C45.2731 43.0809 45.7554 43.4553 46.0994 43.9342C46.4434 44.4064 46.6154 44.9326 46.6154 45.5127V51.6849C46.6154 51.7456 46.5952 51.7996 46.5547 51.8468C46.5143 51.8873 46.4637 51.9075 46.403 51.9075H44.268C44.2073 51.9075 44.1567 51.8873 44.1162 51.8468C44.069 51.7996 44.0454 51.7456 44.0454 51.6849V51.0879C44.0454 51.0542 44.0353 51.0306 44.015 51.0171C43.988 51.0036 43.9644 51.0137 43.9442 51.0475C43.4315 51.7153 42.6119 52.0492 41.4854 52.0492C40.5343 52.0492 39.7687 51.8198 39.1885 51.3611C38.6017 50.9024 38.3082 50.2211 38.3082 49.3172C38.3082 48.3863 38.6388 47.6612 39.2998 47.1418C39.9542 46.6291 40.8884 46.3728 42.1026 46.3728H43.9543C44.015 46.3728 44.0454 46.3424 44.0454 46.2817V45.877C44.0454 45.479 43.9239 45.1653 43.6811 44.9359C43.4383 44.7133 43.074 44.602 42.5883 44.602C42.2173 44.602 41.907 44.6695 41.6574 44.8044C41.4078 44.9393 41.2459 45.1282 41.1717 45.371C41.138 45.5059 41.0604 45.5667 40.939 45.5532L38.7332 45.2597C38.5848 45.2327 38.5173 45.1788 38.5308 45.0978C38.578 44.5852 38.7804 44.1231 39.1379 43.7116C39.4955 43.3001 39.971 42.9797 40.5646 42.7504C41.1515 42.5143 41.8092 42.3962 42.5377 42.3962ZM42.1735 50.1368C42.6929 50.1368 43.1347 49.9985 43.499 49.722C43.8632 49.4454 44.0454 49.0879 44.0454 48.6494V47.9917C44.0454 47.931 44.015 47.9006 43.9543 47.9006H42.649C42.1026 47.9006 41.6743 48.0052 41.364 48.2143C41.0537 48.4167 40.8985 48.7067 40.8985 49.0845C40.8985 49.415 41.0132 49.6714 41.2426 49.8535C41.4719 50.0424 41.7822 50.1368 42.1735 50.1368ZM54.2346 39.3809C54.2346 39.3202 54.2549 39.2663 54.2953 39.219C54.3358 39.1786 54.3864 39.1583 54.4471 39.1583H56.5821C56.6428 39.1583 56.6934 39.1786 56.7339 39.219C56.7743 39.2663 56.7946 39.3202 56.7946 39.3809V51.6849C56.7946 51.7456 56.7743 51.7996 56.7339 51.8468C56.6934 51.8873 56.6428 51.9075 56.5821 51.9075H54.4471C54.3864 51.9075 54.3358 51.8873 54.2953 51.8468C54.2549 51.7996 54.2346 51.7456 54.2346 51.6849V51.0879C54.2346 51.0542 54.2211 51.034 54.1941 51.0272C54.1672 51.0205 54.1436 51.0272 54.1233 51.0475C53.6106 51.7153 52.9125 52.0492 52.0288 52.0492C51.1789 52.0492 50.447 51.8131 49.8331 51.3409C49.2193 50.8687 48.7774 50.2211 48.5076 49.3982C48.3052 48.7641 48.204 48.0288 48.204 47.1923C48.204 46.3289 48.312 45.5768 48.5278 44.9359C48.8111 44.1535 49.253 43.5362 49.8533 43.0843C50.4537 42.6256 51.1957 42.3962 52.0794 42.3962C52.9563 42.3962 53.6376 42.6998 54.1233 43.3069C54.1436 43.3473 54.1672 43.3608 54.1941 43.3473C54.2211 43.3339 54.2346 43.3102 54.2346 43.2765V39.3809ZM53.8501 49.0643C54.093 48.619 54.2144 48.0052 54.2144 47.2227C54.2144 46.4132 54.0795 45.7758 53.8096 45.3103C53.5331 44.8381 53.1283 44.602 52.5954 44.602C52.0221 44.602 51.5903 44.8381 51.3003 45.3103C50.9967 45.7893 50.8449 46.4335 50.8449 47.2429C50.8449 47.9715 50.9731 48.5786 51.2294 49.0643C51.533 49.5904 51.9816 49.8535 52.5752 49.8535C53.1216 49.8535 53.5466 49.5904 53.8501 49.0643ZM67.0142 46.2615C67.0884 46.7202 67.112 47.2362 67.085 47.8096C67.0783 47.958 67.0007 48.0322 66.8523 48.0322H61.2264C61.1522 48.0322 61.1286 48.0625 61.1556 48.1232C61.1893 48.3661 61.2534 48.6089 61.3479 48.8518C61.6649 49.5263 62.3091 49.8636 63.2805 49.8636C64.0562 49.8569 64.6701 49.5432 65.122 48.9226C65.1693 48.8484 65.2232 48.8113 65.2839 48.8113C65.3244 48.8113 65.3683 48.8349 65.4155 48.8821L66.7207 50.1773C66.7815 50.238 66.8118 50.292 66.8118 50.3392C66.8118 50.3662 66.7882 50.4167 66.741 50.4909C66.343 50.9834 65.827 51.3679 65.1929 51.6445C64.5655 51.9143 63.8741 52.0492 63.1186 52.0492C62.073 52.0492 61.1893 51.8131 60.4676 51.3409C59.7458 50.8687 59.2264 50.2076 58.9093 49.3577C58.653 48.7506 58.5248 47.9546 58.5248 46.9697C58.5248 46.3019 58.6159 45.7151 58.798 45.2091C59.0813 44.3457 59.5704 43.6576 60.2652 43.145C60.9667 42.6391 61.7964 42.3861 62.7543 42.3861C63.9685 42.3861 64.9433 42.7369 65.6785 43.4384C66.4138 44.14 66.859 45.081 67.0142 46.2615ZM62.7746 44.602C62.0056 44.602 61.4996 44.9595 61.2568 45.6746C61.2096 45.8365 61.1691 46.0321 61.1354 46.2615C61.1354 46.3222 61.1657 46.3525 61.2264 46.3525H64.3733C64.4475 46.3525 64.4711 46.3222 64.4441 46.2615C64.3834 45.9107 64.353 45.742 64.353 45.7555C64.2451 45.3913 64.0562 45.108 63.7864 44.9056C63.5098 44.7032 63.1725 44.602 62.7746 44.602ZM73.3382 42.4165C73.7766 42.4165 74.1207 42.5008 74.3703 42.6694C74.4715 42.7234 74.5086 42.8144 74.4816 42.9426L74.0971 45.027C74.0903 45.1687 74.006 45.2091 73.8441 45.1484C73.662 45.0877 73.4495 45.0574 73.2066 45.0574C73.1122 45.0574 72.9807 45.0709 72.812 45.0978C72.3736 45.1316 72.0026 45.2901 71.699 45.5734C71.3955 45.8635 71.2437 46.2446 71.2437 46.7168V51.6849C71.2437 51.7456 71.2234 51.7996 71.183 51.8468C71.1357 51.8873 71.0818 51.9075 71.0211 51.9075H68.8962C68.8355 51.9075 68.7815 51.8873 68.7343 51.8468C68.6938 51.7996 68.6736 51.7456 68.6736 51.6849V42.7605C68.6736 42.6998 68.6938 42.6492 68.7343 42.6087C68.7815 42.5682 68.8355 42.548 68.8962 42.548H71.0211C71.0818 42.548 71.1357 42.5682 71.183 42.6087C71.2234 42.6492 71.2437 42.6998 71.2437 42.7605V43.4587C71.2437 43.4924 71.2538 43.516 71.274 43.5295C71.301 43.543 71.3213 43.5362 71.3347 43.5092C71.8339 42.7807 72.5017 42.4165 73.3382 42.4165Z" fill="#252530"/>
<path d="M16.6956 67.5709C16.1695 67.5709 15.7108 67.4866 15.3195 67.3179C14.9283 67.1493 14.6247 66.9132 14.4089 66.6096C14.1998 66.3061 14.0952 65.9486 14.0952 65.5371V65.2841C14.0952 65.2504 14.1087 65.22 14.1357 65.1931C14.1559 65.1728 14.1829 65.1627 14.2166 65.1627H15.1172C15.1509 65.1627 15.1813 65.1728 15.2082 65.1931C15.2285 65.22 15.2386 65.2504 15.2386 65.2841V65.4764C15.2386 65.7867 15.3769 66.043 15.6535 66.2454C15.93 66.4545 16.3078 66.559 16.7867 66.559C17.1982 66.559 17.5085 66.4713 17.7176 66.296C17.9267 66.1206 18.0313 65.8946 18.0313 65.618C18.0313 65.4292 17.9739 65.2673 17.8593 65.1323C17.7446 65.0042 17.5827 64.8861 17.3736 64.7782C17.1577 64.6703 16.8373 64.5354 16.4123 64.3735C15.9334 64.1981 15.5455 64.0328 15.2487 63.8777C14.9519 63.7225 14.7057 63.51 14.5101 63.2402C14.3077 62.9771 14.2065 62.6466 14.2065 62.2486C14.2065 61.655 14.4224 61.1862 14.8541 60.8421C15.2858 60.4981 15.8626 60.3261 16.5843 60.3261C17.0903 60.3261 17.5389 60.4138 17.9301 60.5892C18.3146 60.7646 18.6148 61.0108 18.8306 61.3278C19.0465 61.6381 19.1544 61.999 19.1544 62.4105V62.5825C19.1544 62.6162 19.1409 62.6466 19.114 62.6736C19.0937 62.6938 19.0667 62.7039 19.033 62.7039H18.1223C18.0886 62.7039 18.0616 62.6938 18.0414 62.6736C18.0144 62.6466 18.0009 62.6162 18.0009 62.5825V62.4712C18.0009 62.1542 17.8728 61.8877 17.6164 61.6718C17.3533 61.4492 16.9925 61.3379 16.5338 61.3379C16.1627 61.3379 15.8761 61.4155 15.6737 61.5707C15.4646 61.7258 15.36 61.945 15.36 62.2284C15.36 62.4307 15.414 62.596 15.5219 62.7242C15.6298 62.8523 15.7917 62.967 16.0076 63.0682C16.2235 63.1761 16.5574 63.311 17.0093 63.4729C17.4883 63.6551 17.8728 63.8203 18.1628 63.9687C18.4461 64.1171 18.6923 64.3229 18.9015 64.5859C19.1038 64.8558 19.205 65.1897 19.205 65.5877C19.205 66.1948 18.979 66.6771 18.5271 67.0346C18.0819 67.3921 17.4714 67.5709 16.6956 67.5709ZM25.8123 62.2385C26.3318 62.2385 26.7399 62.3936 27.0367 62.7039C27.3267 63.021 27.4718 63.4594 27.4718 64.0193V67.3685C27.4718 67.4022 27.4616 67.4292 27.4414 67.4495C27.4144 67.4764 27.3841 67.4899 27.3503 67.4899H26.4296C26.3958 67.4899 26.3689 67.4764 26.3486 67.4495C26.3216 67.4292 26.3081 67.4022 26.3081 67.3685V64.2622C26.3081 63.9519 26.2272 63.7056 26.0653 63.5235C25.8967 63.3414 25.6741 63.2503 25.3975 63.2503C25.1209 63.2503 24.8949 63.3414 24.7196 63.5235C24.5442 63.7056 24.4565 63.9485 24.4565 64.252V67.3685C24.4565 67.4022 24.4464 67.4292 24.4261 67.4495C24.3991 67.4764 24.3688 67.4899 24.3351 67.4899H23.4143C23.3806 67.4899 23.3502 67.4764 23.3232 67.4495C23.303 67.4292 23.2929 67.4022 23.2929 67.3685V64.2622C23.2929 63.9519 23.2085 63.7056 23.0399 63.5235C22.8713 63.3414 22.6487 63.2503 22.3721 63.2503C22.1157 63.2503 21.9033 63.3245 21.7346 63.4729C21.5727 63.6213 21.4783 63.8237 21.4513 64.08V67.3685C21.4513 67.4022 21.4412 67.4292 21.4209 67.4495C21.394 67.4764 21.3636 67.4899 21.3299 67.4899H20.399C20.3653 67.4899 20.3383 67.4764 20.318 67.4495C20.2911 67.4292 20.2776 67.4022 20.2776 67.3685V62.4408C20.2776 62.4071 20.2911 62.3768 20.318 62.3498C20.3383 62.3295 20.3653 62.3194 20.399 62.3194H21.3299C21.3636 62.3194 21.394 62.3295 21.4209 62.3498C21.4412 62.3768 21.4513 62.4071 21.4513 62.4408V62.7747C21.4513 62.795 21.4581 62.8085 21.4715 62.8152C21.485 62.822 21.4985 62.8152 21.512 62.795C21.6604 62.6061 21.8426 62.4678 22.0584 62.3801C22.281 62.2857 22.5272 62.2385 22.7971 62.2385C23.1276 62.2385 23.4177 62.3059 23.6672 62.4408C23.9168 62.5758 24.1091 62.7714 24.244 63.0277C24.2642 63.0547 24.2878 63.0547 24.3148 63.0277C24.4632 62.7579 24.669 62.5589 24.932 62.4307C25.1951 62.3026 25.4886 62.2385 25.8123 62.2385ZM30.6388 62.2385C31.0638 62.2385 31.4382 62.3127 31.762 62.4611C32.0858 62.6095 32.3353 62.8119 32.5107 63.0682C32.6861 63.3313 32.7738 63.6281 32.7738 63.9586V67.3685C32.7738 67.4022 32.7637 67.4292 32.7435 67.4495C32.7165 67.4764 32.6861 67.4899 32.6524 67.4899H31.7215C31.6878 67.4899 31.6608 67.4764 31.6406 67.4495C31.6136 67.4292 31.6001 67.4022 31.6001 67.3685V67.0447C31.6001 67.0245 31.5933 67.011 31.5798 67.0042C31.5664 67.0042 31.5529 67.011 31.5394 67.0245C31.2088 67.3888 30.7299 67.5709 30.1026 67.5709C29.5966 67.5709 29.1818 67.4427 28.858 67.1864C28.5275 66.93 28.3622 66.5489 28.3622 66.043C28.3622 65.5168 28.5477 65.1054 28.9187 64.8086C29.283 64.5185 29.799 64.3735 30.4668 64.3735H31.5495C31.5832 64.3735 31.6001 64.3566 31.6001 64.3229V64.08C31.6001 63.8169 31.5225 63.6112 31.3674 63.4628C31.2122 63.3211 30.9795 63.2503 30.6692 63.2503C30.4128 63.2503 30.2071 63.2975 30.052 63.392C29.8901 63.4797 29.7889 63.6045 29.7484 63.7664C29.7282 63.8473 29.681 63.881 29.6067 63.8675L28.6253 63.7461C28.5915 63.7394 28.5646 63.7293 28.5443 63.7158C28.5173 63.6955 28.5072 63.6719 28.514 63.6449C28.5679 63.2335 28.7905 62.8962 29.1818 62.6331C29.5663 62.37 30.052 62.2385 30.6388 62.2385ZM30.396 66.64C30.7265 66.64 31.0098 66.5523 31.2459 66.3769C31.482 66.2015 31.6001 65.9789 31.6001 65.7091V65.2335C31.6001 65.1998 31.5832 65.1829 31.5495 65.1829H30.6995C30.342 65.1829 30.0621 65.2504 29.8597 65.3853C29.6506 65.5202 29.546 65.7125 29.546 65.9621C29.546 66.1779 29.627 66.3432 29.7889 66.4579C29.944 66.5793 30.1464 66.64 30.396 66.64ZM34.069 67.4899C34.0352 67.4899 34.0083 67.4764 33.988 67.4495C33.961 67.4292 33.9476 67.4022 33.9476 67.3685V60.5285C33.9476 60.4947 33.961 60.4678 33.988 60.4475C34.0083 60.4205 34.0352 60.407 34.069 60.407H34.9999C35.0336 60.407 35.064 60.4205 35.0909 60.4475C35.1112 60.4678 35.1213 60.4947 35.1213 60.5285V67.3685C35.1213 67.4022 35.1112 67.4292 35.0909 67.4495C35.064 67.4764 35.0336 67.4899 34.9999 67.4899H34.069ZM36.4873 67.4899C36.4535 67.4899 36.4266 67.4764 36.4063 67.4495C36.3793 67.4292 36.3659 67.4022 36.3659 67.3685V60.5285C36.3659 60.4947 36.3793 60.4678 36.4063 60.4475C36.4266 60.4205 36.4535 60.407 36.4873 60.407H37.4182C37.4519 60.407 37.4823 60.4205 37.5092 60.4475C37.5295 60.4678 37.5396 60.4947 37.5396 60.5285V67.3685C37.5396 67.4022 37.5295 67.4292 37.5092 67.4495C37.4823 67.4764 37.4519 67.4899 37.4182 67.4899H36.4873ZM44.8754 63.7967C44.835 63.8169 44.835 63.8372 44.8754 63.8574C45.5635 64.1812 45.9075 64.7377 45.9075 65.527C45.9075 66.1678 45.695 66.6569 45.2701 66.9941C44.8383 67.3247 44.2785 67.4899 43.5904 67.4899H41.0406C41.0068 67.4899 40.9799 67.4764 40.9596 67.4495C40.9326 67.4292 40.9191 67.4022 40.9191 67.3685V60.5285C40.9191 60.4947 40.9326 60.4678 40.9596 60.4475C40.9799 60.4205 41.0068 60.407 41.0406 60.407H43.5095C44.2447 60.407 44.8114 60.5656 45.2094 60.8826C45.6073 61.1997 45.8063 61.6786 45.8063 62.3194C45.8063 63.0277 45.496 63.5201 44.8754 63.7967ZM42.1435 61.4189C42.1097 61.4189 42.0929 61.4357 42.0929 61.4695V63.3414C42.0929 63.3751 42.1097 63.392 42.1435 63.392H43.5095C43.867 63.392 44.1503 63.3077 44.3594 63.139C44.5618 62.9636 44.663 62.7242 44.663 62.4206C44.663 62.1103 44.5618 61.8641 44.3594 61.682C44.1503 61.5066 43.867 61.4189 43.5095 61.4189H42.1435ZM43.5904 66.468C43.9412 66.468 44.2211 66.3735 44.4302 66.1847C44.6326 65.9958 44.7338 65.7394 44.7338 65.4157C44.7338 65.0851 44.6292 64.8288 44.4201 64.6467C44.211 64.4578 43.9277 64.3633 43.5702 64.3633H42.1435C42.1097 64.3633 42.0929 64.3802 42.0929 64.4139V66.4174C42.0929 66.4511 42.1097 66.468 42.1435 66.468H43.5904ZM50.0662 62.4408C50.0662 62.4071 50.0763 62.3768 50.0965 62.3498C50.1235 62.3295 50.1539 62.3194 50.1876 62.3194H51.1084C51.1421 62.3194 51.1725 62.3295 51.1995 62.3498C51.2197 62.3768 51.2298 62.4071 51.2298 62.4408V67.3685C51.2298 67.4022 51.2197 67.4292 51.1995 67.4495C51.1725 67.4764 51.1421 67.4899 51.1084 67.4899H50.1876C50.1539 67.4899 50.1235 67.4764 50.0965 67.4495C50.0763 67.4292 50.0662 67.4022 50.0662 67.3685V67.0447C50.0662 67.0245 50.0594 67.011 50.046 67.0042C50.0325 66.9975 50.019 67.0043 50.0055 67.0245C49.7289 67.382 49.3141 67.5608 48.7609 67.5608C48.2482 67.5608 47.8199 67.4124 47.4759 67.1156C47.1251 66.8187 46.9497 66.3971 46.9497 65.8507V62.4408C46.9497 62.4071 46.9598 62.3768 46.9801 62.3498C47.0071 62.3295 47.0374 62.3194 47.0711 62.3194H48.002C48.0358 62.3194 48.0661 62.3295 48.0931 62.3498C48.1133 62.3768 48.1235 62.4071 48.1235 62.4408V65.5168C48.1235 65.8339 48.2078 66.0868 48.3764 66.2757C48.5383 66.4646 48.7677 66.559 49.0645 66.559C49.368 66.559 49.6109 66.4646 49.793 66.2757C49.9751 66.0868 50.0662 65.8339 50.0662 65.5168V62.4408ZM54.407 67.5506C53.982 67.5506 53.6076 67.4866 53.2839 67.3584C52.9668 67.237 52.7206 67.065 52.5452 66.8424C52.3698 66.6265 52.2821 66.3837 52.2821 66.1138V66.0228C52.2821 65.989 52.2922 65.9587 52.3125 65.9317C52.3395 65.9115 52.3698 65.9013 52.4035 65.9013H53.294C53.3277 65.9013 53.3547 65.9115 53.3749 65.9317C53.4019 65.9587 53.4154 65.989 53.4154 66.0228V66.043C53.4154 66.2116 53.5065 66.36 53.6886 66.4882C53.8775 66.6096 54.1136 66.6703 54.3969 66.6703C54.6667 66.6703 54.8859 66.6164 55.0546 66.5084C55.2232 66.3938 55.3075 66.2521 55.3075 66.0835C55.3075 65.9283 55.2367 65.8103 55.095 65.7293C54.9601 65.6551 54.7375 65.5742 54.4272 65.4865L54.0427 65.3651C53.6987 65.2639 53.4086 65.156 53.1725 65.0413C52.9365 64.9266 52.7374 64.7681 52.5756 64.5657C52.4137 64.3701 52.3327 64.1171 52.3327 63.8068C52.3327 63.3346 52.5182 62.9603 52.8892 62.6837C53.2602 62.4004 53.7493 62.2587 54.3564 62.2587C54.7679 62.2587 55.1288 62.3228 55.4391 62.451C55.7494 62.5859 55.9888 62.768 56.1575 62.9974C56.3261 63.2335 56.4104 63.4999 56.4104 63.7967C56.4104 63.8304 56.3969 63.8608 56.37 63.8878C56.3497 63.908 56.3227 63.9181 56.289 63.9181H55.429C55.3952 63.9181 55.3649 63.908 55.3379 63.8878C55.3176 63.8608 55.3075 63.8304 55.3075 63.7967C55.3075 63.6213 55.2198 63.4763 55.0445 63.3616C54.8758 63.2402 54.6431 63.1795 54.3463 63.1795C54.0832 63.1795 53.8673 63.2267 53.6987 63.3211C53.5368 63.4223 53.4559 63.5606 53.4559 63.736C53.4559 63.8979 53.5334 64.0193 53.6886 64.1003C53.8505 64.188 54.1169 64.2824 54.4879 64.3836L54.7105 64.4443C55.0681 64.5522 55.3682 64.6601 55.6111 64.7681C55.8539 64.8828 56.0597 65.0379 56.2283 65.2335C56.3969 65.4359 56.4813 65.6956 56.4813 66.0126C56.4813 66.4916 56.2924 66.866 55.9146 67.1358C55.5369 67.4124 55.0343 67.5506 54.407 67.5506ZM58.1407 61.6111C57.9316 61.6111 57.7596 61.5437 57.6246 61.4088C57.4897 61.2739 57.4223 61.1018 57.4223 60.8927C57.4223 60.6836 57.4897 60.5116 57.6246 60.3767C57.7596 60.2418 57.9316 60.1743 58.1407 60.1743C58.3498 60.1743 58.5218 60.2418 58.6567 60.3767C58.7916 60.5116 58.8591 60.6836 58.8591 60.8927C58.8591 61.1018 58.7916 61.2739 58.6567 61.4088C58.5218 61.5437 58.3498 61.6111 58.1407 61.6111ZM57.655 67.4899C57.6213 67.4899 57.5909 67.4764 57.5639 67.4495C57.5437 67.4292 57.5336 67.4022 57.5336 67.3685V62.4307C57.5336 62.397 57.5437 62.37 57.5639 62.3498C57.5909 62.3228 57.6213 62.3093 57.655 62.3093H58.5859C58.6196 62.3093 58.6466 62.3228 58.6668 62.3498C58.6938 62.37 58.7073 62.397 58.7073 62.4307V67.3685C58.7073 67.4022 58.6938 67.4292 58.6668 67.4495C58.6466 67.4764 58.6196 67.4899 58.5859 67.4899H57.655ZM62.5321 62.2385C63.0785 62.2385 63.5136 62.4004 63.8374 62.7242C64.1679 63.048 64.3332 63.4898 64.3332 64.0497V67.3685C64.3332 67.4022 64.3197 67.4292 64.2927 67.4495C64.2724 67.4764 64.2455 67.4899 64.2117 67.4899H63.2808C63.2471 67.4899 63.2168 67.4764 63.1898 67.4495C63.1695 67.4292 63.1594 67.4022 63.1594 67.3685V64.2925C63.1594 63.9822 63.0717 63.7293 62.8963 63.5336C62.721 63.3448 62.4882 63.2503 62.1982 63.2503C61.9081 63.2503 61.672 63.3448 61.4899 63.5336C61.3145 63.7225 61.2268 63.9721 61.2268 64.2824V67.3685C61.2268 67.4022 61.2133 67.4292 61.1863 67.4495C61.1661 67.4764 61.1391 67.4899 61.1054 67.4899H60.1745C60.1408 67.4899 60.1104 67.4764 60.0834 67.4495C60.0632 67.4292 60.0531 67.4022 60.0531 67.3685V62.4408C60.0531 62.4071 60.0632 62.3768 60.0834 62.3498C60.1104 62.3295 60.1408 62.3194 60.1745 62.3194H61.1054C61.1391 62.3194 61.1661 62.3295 61.1863 62.3498C61.2133 62.3768 61.2268 62.4071 61.2268 62.4408V62.7646C61.2268 62.7849 61.2335 62.7984 61.247 62.8051C61.2605 62.8118 61.2706 62.8051 61.2774 62.7849C61.554 62.4206 61.9722 62.2385 62.5321 62.2385ZM69.878 64.3229C69.905 64.4915 69.9185 64.6804 69.9185 64.8895L69.9084 65.2032C69.9084 65.2841 69.8679 65.3246 69.787 65.3246H66.6199C66.5862 65.3246 66.5693 65.3415 66.5693 65.3752C66.5896 65.5978 66.6199 65.7496 66.6604 65.8305C66.8223 66.3162 67.2169 66.5624 67.8442 66.5692C68.3029 66.5692 68.6672 66.3803 68.937 66.0025C68.964 65.9621 68.9977 65.9418 69.0382 65.9418C69.0652 65.9418 69.0888 65.9519 69.109 65.9722L69.7364 66.4882C69.7971 66.5354 69.8072 66.5894 69.7667 66.6501C69.5576 66.9469 69.2777 67.1763 68.9269 67.3382C68.5829 67.5001 68.1984 67.581 67.7734 67.581C67.2473 67.581 66.7987 67.463 66.4277 67.2269C66.0634 66.9908 65.797 66.6602 65.6283 66.2353C65.4732 65.871 65.3956 65.3651 65.3956 64.7175C65.3956 64.3262 65.4361 64.0092 65.517 63.7664C65.6519 63.2942 65.9049 62.9198 66.2759 62.6432C66.6536 62.3734 67.1056 62.2385 67.6318 62.2385C68.9606 62.2385 69.7094 62.9333 69.878 64.3229ZM67.6318 63.2503C67.3822 63.2503 67.1731 63.3144 67.0044 63.4426C66.8425 63.564 66.7278 63.736 66.6604 63.9586C66.6199 64.0733 66.5929 64.2217 66.5794 64.4038C66.566 64.4375 66.5794 64.4544 66.6199 64.4544H68.674C68.7077 64.4544 68.7245 64.4375 68.7245 64.4038C68.7111 64.2352 68.6908 64.107 68.6638 64.0193C68.6031 63.7765 68.4817 63.5876 68.2996 63.4527C68.1242 63.3178 67.9016 63.2503 67.6318 63.2503ZM72.8326 67.5506C72.4076 67.5506 72.0333 67.4866 71.7095 67.3584C71.3924 67.237 71.1462 67.065 70.9708 66.8424C70.7955 66.6265 70.7078 66.3837 70.7078 66.1138V66.0228C70.7078 65.989 70.7179 65.9587 70.7381 65.9317C70.7651 65.9115 70.7955 65.9013 70.8292 65.9013H71.7196C71.7533 65.9013 71.7803 65.9115 71.8005 65.9317C71.8275 65.9587 71.841 65.989 71.841 66.0228V66.043C71.841 66.2116 71.9321 66.36 72.1142 66.4882C72.3031 66.6096 72.5392 66.6703 72.8225 66.6703C73.0923 66.6703 73.3116 66.6164 73.4802 66.5084C73.6488 66.3938 73.7332 66.2521 73.7332 66.0835C73.7332 65.9283 73.6623 65.8103 73.5207 65.7293C73.3858 65.6551 73.1632 65.5742 72.8529 65.4865L72.4684 65.3651C72.1243 65.2639 71.8343 65.156 71.5982 65.0413C71.3621 64.9266 71.1631 64.7681 71.0012 64.5657C70.8393 64.3701 70.7584 64.1171 70.7584 63.8068C70.7584 63.3346 70.9439 62.9603 71.3149 62.6837C71.6859 62.4004 72.1749 62.2587 72.782 62.2587C73.1935 62.2587 73.5544 62.3228 73.8647 62.451C74.175 62.5859 74.4145 62.768 74.5831 62.9974C74.7518 63.2335 74.8361 63.4999 74.8361 63.7967C74.8361 63.8304 74.8226 63.8608 74.7956 63.8878C74.7754 63.908 74.7484 63.9181 74.7147 63.9181H73.8546C73.8209 63.9181 73.7905 63.908 73.7635 63.8878C73.7433 63.8608 73.7332 63.8304 73.7332 63.7967C73.7332 63.6213 73.6455 63.4763 73.4701 63.3616C73.3014 63.2402 73.0687 63.1795 72.7719 63.1795C72.5088 63.1795 72.293 63.2267 72.1243 63.3211C71.9624 63.4223 71.8815 63.5606 71.8815 63.736C71.8815 63.8979 71.9591 64.0193 72.1142 64.1003C72.2761 64.188 72.5426 64.2824 72.9136 64.3836L73.1362 64.4443C73.4937 64.5522 73.7939 64.6601 74.0367 64.7681C74.2796 64.8828 74.4853 65.0379 74.6539 65.2335C74.8226 65.4359 74.9069 65.6956 74.9069 66.0126C74.9069 66.4916 74.718 66.866 74.3403 67.1358C73.9625 67.4124 73.46 67.5506 72.8326 67.5506ZM77.7198 67.5506C77.2948 67.5506 76.9205 67.4866 76.5967 67.3584C76.2796 67.237 76.0334 67.065 75.858 66.8424C75.6827 66.6265 75.595 66.3837 75.595 66.1138V66.0228C75.595 65.989 75.6051 65.9587 75.6253 65.9317C75.6523 65.9115 75.6827 65.9013 75.7164 65.9013H76.6068C76.6405 65.9013 76.6675 65.9115 76.6877 65.9317C76.7147 65.9587 76.7282 65.989 76.7282 66.0228V66.043C76.7282 66.2116 76.8193 66.36 77.0014 66.4882C77.1903 66.6096 77.4264 66.6703 77.7097 66.6703C77.9795 66.6703 78.1988 66.6164 78.3674 66.5084C78.536 66.3938 78.6204 66.2521 78.6204 66.0835C78.6204 65.9283 78.5495 65.8103 78.4079 65.7293C78.273 65.6551 78.0504 65.5742 77.7401 65.4865L77.3556 65.3651C77.0115 65.2639 76.7215 65.156 76.4854 65.0413C76.2493 64.9266 76.0503 64.7681 75.8884 64.5657C75.7265 64.3701 75.6456 64.1171 75.6456 63.8068C75.6456 63.3346 75.8311 62.9603 76.2021 62.6837C76.5731 62.4004 77.0621 62.2587 77.6692 62.2587C78.0807 62.2587 78.4416 62.3228 78.7519 62.451C79.0622 62.5859 79.3017 62.768 79.4703 62.9974C79.639 63.2335 79.7233 63.4999 79.7233 63.7967C79.7233 63.8304 79.7098 63.8608 79.6828 63.8878C79.6626 63.908 79.6356 63.9181 79.6019 63.9181H78.7418C78.7081 63.9181 78.6777 63.908 78.6507 63.8878C78.6305 63.8608 78.6204 63.8304 78.6204 63.7967C78.6204 63.6213 78.5327 63.4763 78.3573 63.3616C78.1886 63.2402 77.9559 63.1795 77.6591 63.1795C77.396 63.1795 77.1802 63.2267 77.0115 63.3211C76.8496 63.4223 76.7687 63.5606 76.7687 63.736C76.7687 63.8979 76.8463 64.0193 77.0014 64.1003C77.1633 64.188 77.4298 64.2824 77.8008 64.3836L78.0234 64.4443C78.3809 64.5522 78.6811 64.6601 78.9239 64.7681C79.1668 64.8828 79.3725 65.0379 79.5411 65.2335C79.7098 65.4359 79.7941 65.6956 79.7941 66.0126C79.7941 66.4916 79.6052 66.866 79.2275 67.1358C78.8497 67.4124 78.3472 67.5506 77.7198 67.5506Z" fill="white"/>
<path d="M31.1244 81.7568C31.0502 81.7568 31.003 81.7231 30.9827 81.6557L29.1918 74.8055L29.1816 74.765C29.1816 74.7043 29.2187 74.674 29.2929 74.674H30.5476C30.6151 74.674 30.6589 74.7077 30.6792 74.7751L31.6404 78.8933C31.6472 78.9203 31.6573 78.9338 31.6708 78.9338C31.6843 78.9338 31.6944 78.9203 31.7011 78.8933L32.632 74.7853C32.6523 74.7111 32.6961 74.674 32.7636 74.674H33.9879C34.0621 74.674 34.1093 74.7077 34.1295 74.7751L35.1414 78.8933C35.1481 78.9136 35.1583 78.9271 35.1717 78.9338C35.1852 78.9338 35.1954 78.9203 35.2021 78.8933L36.133 74.7853C36.1532 74.7111 36.1971 74.674 36.2645 74.674H37.4585C37.5529 74.674 37.59 74.7178 37.5698 74.8055L35.9104 81.6557C35.8902 81.7231 35.8429 81.7568 35.7687 81.7568H34.5646C34.4972 81.7568 34.4533 81.7231 34.4331 81.6557L33.401 77.2744C33.3943 77.2474 33.3842 77.2339 33.3707 77.2339C33.3572 77.2339 33.3471 77.2474 33.3403 77.2744L32.3791 81.6455C32.3656 81.7197 32.3217 81.7568 32.2475 81.7568H31.1244ZM38.5513 81.7568C38.5176 81.7568 38.4872 81.7434 38.4602 81.7164C38.44 81.6961 38.4299 81.6691 38.4299 81.6354V74.7954C38.4299 74.7616 38.44 74.7347 38.4602 74.7144C38.4872 74.6874 38.5176 74.674 38.5513 74.674H39.7351C39.7689 74.674 39.7959 74.6874 39.8161 74.7144C39.8431 74.7347 39.8566 74.7616 39.8566 74.7954V81.6354C39.8566 81.6691 39.8431 81.6961 39.8161 81.7164C39.7959 81.7434 39.7689 81.7568 39.7351 81.7568H38.5513ZM45.1586 74.7954C45.1586 74.7616 45.1687 74.7347 45.189 74.7144C45.216 74.6874 45.2463 74.674 45.28 74.674H46.4639C46.4976 74.674 46.5246 74.6874 46.5448 74.7144C46.5718 74.7347 46.5853 74.7616 46.5853 74.7954V81.6354C46.5853 81.6691 46.5718 81.6961 46.5448 81.7164C46.5246 81.7434 46.4976 81.7568 46.4639 81.7568H45.3205C45.2531 81.7568 45.2058 81.7299 45.1789 81.6759L42.5582 77.3452C42.5447 77.325 42.5312 77.3182 42.5177 77.325C42.5042 77.325 42.4975 77.3385 42.4975 77.3655L42.5177 81.6354C42.5177 81.6691 42.5042 81.6961 42.4772 81.7164C42.457 81.7434 42.43 81.7568 42.3963 81.7568H41.2124C41.1787 81.7568 41.1484 81.7434 41.1214 81.7164C41.1011 81.6961 41.091 81.6691 41.091 81.6354V74.7954C41.091 74.7616 41.1011 74.7347 41.1214 74.7144C41.1484 74.6874 41.1787 74.674 41.2124 74.674H42.3558C42.4233 74.674 42.4705 74.7009 42.4975 74.7549L45.108 79.0653C45.1215 79.0856 45.135 79.0923 45.1485 79.0856C45.162 79.0856 45.1687 79.0721 45.1687 79.0451L45.1586 74.7954ZM52.707 74.674C52.7407 74.674 52.7677 74.6874 52.7879 74.7144C52.8149 74.7347 52.8284 74.7616 52.8284 74.7954V75.787C52.8284 75.8207 52.8149 75.8477 52.7879 75.8679C52.7677 75.8949 52.7407 75.9084 52.707 75.9084H50.8958C50.862 75.9084 50.8452 75.9253 50.8452 75.959V81.6354C50.8452 81.6691 50.8317 81.6961 50.8047 81.7164C50.7845 81.7434 50.7575 81.7568 50.7238 81.7568H49.5399C49.5062 81.7568 49.4758 81.7434 49.4488 81.7164C49.4286 81.6961 49.4185 81.6691 49.4185 81.6354V75.959C49.4185 75.9253 49.4016 75.9084 49.3679 75.9084H47.6073C47.5736 75.9084 47.5432 75.8949 47.5162 75.8679C47.496 75.8477 47.4859 75.8207 47.4859 75.787V74.7954C47.4859 74.7616 47.496 74.7347 47.5162 74.7144C47.5432 74.6874 47.5736 74.674 47.6073 74.674H52.707ZM58.6566 75.7769C58.6566 75.8106 58.6465 75.8376 58.6262 75.8578C58.5993 75.8848 58.5689 75.8983 58.5352 75.8983H55.2163C55.1826 75.8983 55.1657 75.9151 55.1657 75.9489V77.5172C55.1657 77.551 55.1826 77.5678 55.2163 77.5678H57.3918C57.4255 77.5678 57.4525 77.5779 57.4727 77.5982C57.4997 77.6252 57.5132 77.6555 57.5132 77.6892V78.6707C57.5132 78.7045 57.4997 78.7348 57.4727 78.7618C57.4525 78.782 57.4255 78.7921 57.3918 78.7921H55.2163C55.1826 78.7921 55.1657 78.809 55.1657 78.8427V80.4819C55.1657 80.5156 55.1826 80.5325 55.2163 80.5325H58.5352C58.5689 80.5325 58.5993 80.5426 58.6262 80.5629C58.6465 80.5899 58.6566 80.6202 58.6566 80.6539V81.6354C58.6566 81.6691 58.6465 81.6961 58.6262 81.7164C58.5993 81.7434 58.5689 81.7568 58.5352 81.7568H53.8605C53.8267 81.7568 53.7964 81.7434 53.7694 81.7164C53.7492 81.6961 53.739 81.6691 53.739 81.6354V74.7954C53.739 74.7616 53.7492 74.7347 53.7694 74.7144C53.7964 74.6874 53.8267 74.674 53.8605 74.674H58.5352C58.5689 74.674 58.5993 74.6874 58.6262 74.7144C58.6465 74.7347 58.6566 74.7616 58.6566 74.7954V75.7769ZM63.5337 81.7568C63.4662 81.7568 63.419 81.7265 63.392 81.6658L62.1272 78.863C62.1137 78.836 62.0935 78.8225 62.0665 78.8225H61.1255C61.0918 78.8225 61.0749 78.8394 61.0749 78.8731V81.6354C61.0749 81.6691 61.0614 81.6961 61.0344 81.7164C61.0142 81.7434 60.9872 81.7568 60.9535 81.7568H59.7696C59.7359 81.7568 59.7055 81.7434 59.6786 81.7164C59.6583 81.6961 59.6482 81.6691 59.6482 81.6354V74.7954C59.6482 74.7616 59.6583 74.7347 59.6786 74.7144C59.7055 74.6874 59.7359 74.674 59.7696 74.674H62.6635C63.0952 74.674 63.473 74.7616 63.7967 74.937C64.1273 75.1124 64.3802 75.362 64.5556 75.6858C64.7378 76.0096 64.8288 76.384 64.8288 76.8089C64.8288 77.2676 64.7141 77.6589 64.4848 77.9827C64.2554 78.3132 63.935 78.5459 63.5236 78.6808C63.4898 78.6943 63.4797 78.7179 63.4932 78.7517L64.8693 81.6152C64.8828 81.6422 64.8895 81.6624 64.8895 81.6759C64.8895 81.7299 64.8524 81.7568 64.7782 81.7568H63.5337ZM61.1255 75.8983C61.0918 75.8983 61.0749 75.9151 61.0749 75.9489V77.6791C61.0749 77.7128 61.0918 77.7297 61.1255 77.7297H62.451C62.7343 77.7297 62.9637 77.6454 63.139 77.4767C63.3212 77.3081 63.4123 77.0889 63.4123 76.8191C63.4123 76.5492 63.3212 76.3266 63.139 76.1512C62.9637 75.9826 62.7343 75.8983 62.451 75.8983H61.1255ZM38.1061 89.9831C38.0926 89.9966 38.0892 90.0101 38.096 90.0236C38.1027 90.0371 38.1162 90.0438 38.1364 90.0438H40.8785C40.9123 90.0438 40.9426 90.0539 40.9696 90.0742C40.9898 90.1012 41 90.1315 41 90.1652V91.1467C41 91.1805 40.9898 91.2074 40.9696 91.2277C40.9426 91.2547 40.9123 91.2682 40.8785 91.2682H36.3252C36.2915 91.2682 36.2612 91.2547 36.2342 91.2277C36.2139 91.2074 36.2038 91.1805 36.2038 91.1467V90.2158C36.2038 90.1551 36.2241 90.1045 36.2645 90.0641C36.5951 89.7403 36.9324 89.3895 37.2764 89.0117C37.6204 88.6272 37.8363 88.3878 37.924 88.2933C38.1128 88.0707 38.3051 87.8583 38.5007 87.6559C39.1146 86.9746 39.4215 86.4687 39.4215 86.1381C39.4215 85.902 39.3372 85.7064 39.1685 85.5512C38.9999 85.4028 38.7806 85.3286 38.5108 85.3286C38.241 85.3286 38.0218 85.4028 37.8531 85.5512C37.6845 85.7064 37.6002 85.9088 37.6002 86.1584V86.4113C37.6002 86.445 37.5867 86.4754 37.5597 86.5024C37.5395 86.5226 37.5125 86.5327 37.4787 86.5327H36.2848C36.251 86.5327 36.2241 86.5226 36.2038 86.5024C36.1768 86.4754 36.1633 86.445 36.1633 86.4113V85.9357C36.1836 85.5715 36.2983 85.2477 36.5074 84.9644C36.7165 84.6878 36.9931 84.4753 37.3371 84.3269C37.6879 84.1785 38.0791 84.1043 38.5108 84.1043C38.9898 84.1043 39.408 84.192 39.7655 84.3674C40.1163 84.5495 40.3895 84.7924 40.5851 85.0959C40.774 85.3995 40.8684 85.7368 40.8684 86.1078C40.8684 86.3911 40.7976 86.6811 40.6559 86.978C40.5143 87.2748 40.3018 87.5952 40.0185 87.9392C39.8094 88.2023 39.5834 88.462 39.3405 88.7183C39.0977 88.9746 38.7368 89.3457 38.2579 89.8313L38.1061 89.9831ZM44.2884 91.3795C43.5464 91.3795 42.9596 91.1703 42.5278 90.7521C42.0961 90.3406 41.8803 89.7774 41.8803 89.0623V86.3911C41.8803 85.6895 42.0961 85.133 42.5278 84.7215C42.9596 84.3101 43.5464 84.1043 44.2884 84.1043C45.0305 84.1043 45.6207 84.3101 46.0592 84.7215C46.4909 85.133 46.7067 85.6895 46.7067 86.3911V89.0623C46.7067 89.7774 46.4909 90.3406 46.0592 90.7521C45.6207 91.1703 45.0305 91.3795 44.2884 91.3795ZM44.2884 90.1551C44.592 90.1551 44.8348 90.0607 45.017 89.8718C45.1924 89.6897 45.28 89.4435 45.28 89.1332V86.3506C45.28 86.0403 45.1924 85.7941 45.017 85.612C44.8348 85.4231 44.592 85.3286 44.2884 85.3286C43.9916 85.3286 43.7555 85.4231 43.5802 85.612C43.398 85.7941 43.307 86.0403 43.307 86.3506V89.1332C43.307 89.4435 43.398 89.6897 43.5802 89.8718C43.7555 90.0607 43.9916 90.1551 44.2884 90.1551ZM49.5399 89.9831C49.5264 89.9966 49.523 90.0101 49.5298 90.0236C49.5365 90.0371 49.55 90.0438 49.5703 90.0438H52.3123C52.3461 90.0438 52.3764 90.0539 52.4034 90.0742C52.4236 90.1012 52.4338 90.1315 52.4338 90.1652V91.1467C52.4338 91.1805 52.4236 91.2074 52.4034 91.2277C52.3764 91.2547 52.3461 91.2682 52.3123 91.2682H47.7591C47.7253 91.2682 47.6983 91.2547 47.6781 91.2277C47.6511 91.2074 47.6376 91.1805 47.6376 91.1467V90.2158C47.6376 90.1551 47.6579 90.1045 47.6983 90.0641C48.0289 89.7403 48.3662 89.3895 48.7102 89.0117C49.0542 88.6272 49.2701 88.3878 49.3578 88.2933C49.5466 88.0707 49.7389 87.8583 49.9345 87.6559C50.5484 86.9746 50.8553 86.4687 50.8553 86.1381C50.8553 85.902 50.771 85.7064 50.6023 85.5512C50.4337 85.4028 50.2145 85.3286 49.9446 85.3286C49.6748 85.3286 49.4556 85.4028 49.2869 85.5512C49.1183 85.7064 49.034 85.9088 49.034 86.1584V86.4113C49.034 86.445 49.0239 86.4754 49.0036 86.5024C48.9766 86.5226 48.9463 86.5327 48.9126 86.5327H47.7186C47.6849 86.5327 47.6579 86.5226 47.6376 86.5024C47.6107 86.4754 47.5972 86.445 47.5972 86.4113V85.9357C47.6174 85.5715 47.7321 85.2477 47.9412 84.9644C48.1503 84.6878 48.4302 84.4753 48.781 84.3269C49.125 84.1785 49.5129 84.1043 49.9446 84.1043C50.4236 84.1043 50.8418 84.192 51.1993 84.3674C51.5501 84.5495 51.8233 84.7924 52.0189 85.0959C52.2078 85.3995 52.3022 85.7368 52.3022 86.1078C52.3022 86.3911 52.2314 86.6811 52.0897 86.978C51.9481 87.2748 51.7356 87.5952 51.4523 87.9392C51.2432 88.2023 51.0172 88.462 50.7743 88.7183C50.5315 88.9746 50.1706 89.3457 49.6917 89.8313L49.5399 89.9831ZM57.5334 87.8886C57.6684 88.1989 57.7358 88.5564 57.7358 88.9612C57.7358 89.3254 57.6751 89.6627 57.5537 89.973C57.3918 90.4047 57.122 90.742 56.7442 90.9848C56.3597 91.2277 55.9078 91.3491 55.3883 91.3491C54.8757 91.3491 54.4271 91.2209 54.0426 90.9646C53.6514 90.7083 53.3714 90.3609 53.2028 89.9224C53.1083 89.6593 53.0544 89.376 53.0409 89.0725C53.0409 88.9915 53.0813 88.951 53.1623 88.951H54.3563C54.4372 88.951 54.4777 88.9915 54.4777 89.0725C54.5047 89.2951 54.5418 89.4603 54.589 89.5683C54.6497 89.7436 54.7509 89.8786 54.8925 89.973C55.0275 90.0742 55.1893 90.1248 55.3782 90.1248C55.756 90.1248 56.0157 89.9595 56.1573 89.629C56.2518 89.4266 56.299 89.1905 56.299 88.9207C56.299 88.6036 56.2484 88.3439 56.1472 88.1416C55.9921 87.8245 55.7324 87.666 55.3681 87.666C55.2939 87.666 55.2163 87.6862 55.1354 87.7267C55.0544 87.7739 54.9566 87.838 54.8419 87.919C54.815 87.9392 54.788 87.9493 54.761 87.9493C54.7205 87.9493 54.6902 87.9291 54.6699 87.8886L54.0729 87.0488C54.0595 87.0285 54.0527 87.0049 54.0527 86.978C54.0527 86.9375 54.0662 86.9037 54.0932 86.8768L55.702 85.4703C55.7155 85.4568 55.7223 85.4433 55.7223 85.4298C55.7155 85.4163 55.702 85.4096 55.6818 85.4096H53.304C53.2702 85.4096 53.2432 85.3961 53.223 85.3691C53.196 85.3489 53.1825 85.3219 53.1825 85.2882V84.3067C53.1825 84.273 53.196 84.246 53.223 84.2257C53.2432 84.1988 53.2702 84.1853 53.304 84.1853H57.5233C57.5571 84.1853 57.5874 84.1988 57.6144 84.2257C57.6346 84.246 57.6447 84.273 57.6447 84.3067V85.4197C57.6447 85.4737 57.6211 85.5243 57.5739 85.5715L56.2484 86.7857C56.2349 86.7992 56.2315 86.8127 56.2383 86.8262C56.2383 86.8397 56.2518 86.8464 56.2788 86.8464C56.8656 86.9611 57.2839 87.3085 57.5334 87.8886Z" fill="#252530"/>
</g>
<defs>
<clipPath id="clip0_847_14673">
<rect width="94" height="106.764" fill="white"/>
</clipPath>
</defs>
</svg>
